%TF.GenerationSoftware,KiCad,Pcbnew,7.99.0-950-gc4668c1d3a-dirty*%
%TF.CreationDate,2023-06-21T04:14:00+08:00*%
%TF.ProjectId,LightningReed,4c696768-746e-4696-9e67-526565642e6b,rev?*%
%TF.SameCoordinates,Original*%
%TF.FileFunction,Soldermask,Top*%
%TF.FilePolarity,Negative*%
%FSLAX46Y46*%
G04 Gerber Fmt 4.6, Leading zero omitted, Abs format (unit mm)*
G04 Created by KiCad (PCBNEW 7.99.0-950-gc4668c1d3a-dirty) date 2023-06-21 04:14:00*
%MOMM*%
%LPD*%
G01*
G04 APERTURE LIST*
G04 Aperture macros list*
%AMRoundRect*
0 Rectangle with rounded corners*
0 $1 Rounding radius*
0 $2 $3 $4 $5 $6 $7 $8 $9 X,Y pos of 4 corners*
0 Add a 4 corners polygon primitive as box body*
4,1,4,$2,$3,$4,$5,$6,$7,$8,$9,$2,$3,0*
0 Add four circle primitives for the rounded corners*
1,1,$1+$1,$2,$3*
1,1,$1+$1,$4,$5*
1,1,$1+$1,$6,$7*
1,1,$1+$1,$8,$9*
0 Add four rect primitives between the rounded corners*
20,1,$1+$1,$2,$3,$4,$5,0*
20,1,$1+$1,$4,$5,$6,$7,0*
20,1,$1+$1,$6,$7,$8,$9,0*
20,1,$1+$1,$8,$9,$2,$3,0*%
%AMFreePoly0*
4,1,9,3.862500,-0.866500,0.737500,-0.866500,0.737500,-0.450000,-0.737500,-0.450000,-0.737500,0.450000,0.737500,0.450000,0.737500,0.866500,3.862500,0.866500,3.862500,-0.866500,3.862500,-0.866500,$1*%
G04 Aperture macros list end*
%ADD10R,1.100000X1.100000*%
%ADD11R,1.100000X4.600000*%
%ADD12R,10.800000X9.400000*%
%ADD13RoundRect,0.250001X-0.799999X-0.799999X0.799999X-0.799999X0.799999X0.799999X-0.799999X0.799999X0*%
%ADD14RoundRect,0.250000X1.000000X-1.750000X1.000000X1.750000X-1.000000X1.750000X-1.000000X-1.750000X0*%
%ADD15RoundRect,0.250000X-0.600000X-0.600000X0.600000X-0.600000X0.600000X0.600000X-0.600000X0.600000X0*%
%ADD16C,2.286000*%
%ADD17RoundRect,0.200000X0.275000X-0.200000X0.275000X0.200000X-0.275000X0.200000X-0.275000X-0.200000X0*%
%ADD18RoundRect,0.200000X-0.275000X0.200000X-0.275000X-0.200000X0.275000X-0.200000X0.275000X0.200000X0*%
%ADD19RoundRect,0.250000X-0.625000X0.312500X-0.625000X-0.312500X0.625000X-0.312500X0.625000X0.312500X0*%
%ADD20RoundRect,0.200000X-0.200000X-0.275000X0.200000X-0.275000X0.200000X0.275000X-0.200000X0.275000X0*%
%ADD21RoundRect,0.225000X-0.250000X0.225000X-0.250000X-0.225000X0.250000X-0.225000X0.250000X0.225000X0*%
%ADD22RoundRect,0.250000X-0.450000X0.262500X-0.450000X-0.262500X0.450000X-0.262500X0.450000X0.262500X0*%
%ADD23R,1.200000X0.900000*%
%ADD24RoundRect,0.250000X0.312500X0.625000X-0.312500X0.625000X-0.312500X-0.625000X0.312500X-0.625000X0*%
%ADD25RoundRect,0.250000X-1.125000X-1.125000X1.125000X-1.125000X1.125000X1.125000X-1.125000X1.125000X0*%
%ADD26RoundRect,0.150000X-0.150000X0.512500X-0.150000X-0.512500X0.150000X-0.512500X0.150000X0.512500X0*%
%ADD27C,2.600000*%
%ADD28C,2.000000*%
%ADD29RoundRect,0.250000X0.325000X0.650000X-0.325000X0.650000X-0.325000X-0.650000X0.325000X-0.650000X0*%
%ADD30R,5.400000X2.900000*%
%ADD31RoundRect,0.250000X0.625000X-0.312500X0.625000X0.312500X-0.625000X0.312500X-0.625000X-0.312500X0*%
%ADD32RoundRect,0.225000X-0.225000X-0.250000X0.225000X-0.250000X0.225000X0.250000X-0.225000X0.250000X0*%
%ADD33RoundRect,0.150000X-0.587500X-0.150000X0.587500X-0.150000X0.587500X0.150000X-0.587500X0.150000X0*%
%ADD34RoundRect,0.200000X0.200000X0.275000X-0.200000X0.275000X-0.200000X-0.275000X0.200000X-0.275000X0*%
%ADD35R,2.400000X2.400000*%
%ADD36C,2.400000*%
%ADD37RoundRect,0.225000X0.225000X0.250000X-0.225000X0.250000X-0.225000X-0.250000X0.225000X-0.250000X0*%
%ADD38RoundRect,0.250000X-0.475000X0.250000X-0.475000X-0.250000X0.475000X-0.250000X0.475000X0.250000X0*%
%ADD39RoundRect,0.250000X-0.312500X-0.625000X0.312500X-0.625000X0.312500X0.625000X-0.312500X0.625000X0*%
%ADD40R,1.300000X0.900000*%
%ADD41FreePoly0,180.000000*%
%ADD42R,0.450000X0.600000*%
%ADD43RoundRect,0.249999X-0.450001X-1.450001X0.450001X-1.450001X0.450001X1.450001X-0.450001X1.450001X0*%
%ADD44C,2.750000*%
%ADD45RoundRect,0.150000X0.150000X-0.587500X0.150000X0.587500X-0.150000X0.587500X-0.150000X-0.587500X0*%
%ADD46RoundRect,0.250000X-0.325000X-1.100000X0.325000X-1.100000X0.325000X1.100000X-0.325000X1.100000X0*%
G04 APERTURE END LIST*
D10*
%TO.C,D5*%
X145920000Y-123190000D03*
X148720000Y-123190000D03*
%TD*%
D11*
%TO.C,Q12*%
X139954000Y-90635000D03*
D12*
X137414000Y-81485000D03*
D11*
X134874000Y-90635000D03*
%TD*%
D13*
%TO.C,TP3*%
X153162000Y-96798000D03*
%TD*%
D14*
%TO.C,C43*%
X149352000Y-76034000D03*
X149352000Y-84034000D03*
%TD*%
D15*
%TO.C,TP11*%
X130556000Y-97052000D03*
%TD*%
D16*
%TO.C,L2*%
X102957000Y-120122000D03*
X102957000Y-124622000D03*
X112957000Y-120122000D03*
X112957000Y-124622000D03*
%TD*%
D17*
%TO.C,R55*%
X146304000Y-87337000D03*
X146304000Y-88987000D03*
%TD*%
D18*
%TO.C,R16*%
X145288000Y-114936000D03*
X145288000Y-116586000D03*
%TD*%
D19*
%TO.C,R23*%
X146304000Y-125283500D03*
X146304000Y-128208500D03*
%TD*%
D20*
%TO.C,R53*%
X147257000Y-103886000D03*
X148907000Y-103886000D03*
%TD*%
D21*
%TO.C,C9*%
X131318000Y-145275000D03*
X131318000Y-146825000D03*
%TD*%
D22*
%TO.C,R25*%
X144018000Y-119229500D03*
X144018000Y-121054500D03*
%TD*%
D23*
%TO.C,D15*%
X127254000Y-94384000D03*
X127254000Y-91084000D03*
%TD*%
D24*
%TO.C,R24*%
X148782500Y-120650000D03*
X145857500Y-120650000D03*
%TD*%
D25*
%TO.C,REF\u002A\u002A*%
X127254000Y-75462000D03*
%TD*%
D26*
%TO.C,U3*%
X148778000Y-113924500D03*
X147828000Y-113924500D03*
X146878000Y-113924500D03*
X146878000Y-116199500D03*
X148778000Y-116199500D03*
%TD*%
D27*
%TO.C,L3*%
X103926000Y-143510000D03*
X108926000Y-143510000D03*
%TD*%
D28*
%TO.C,T1*%
X122079000Y-127667000D03*
X124619000Y-127667000D03*
D16*
X139859000Y-127667000D03*
D28*
X119539000Y-125127000D03*
X124619000Y-125127000D03*
X119539000Y-122587000D03*
X122079000Y-122587000D03*
X137319000Y-112427000D03*
X139859000Y-112427000D03*
X134779000Y-109887000D03*
X139859000Y-109887000D03*
X119539000Y-107347000D03*
X134779000Y-107347000D03*
X137319000Y-107347000D03*
%TD*%
D15*
%TO.C,TP10*%
X130556000Y-101346000D03*
%TD*%
D17*
%TO.C,R56*%
X144780000Y-87337000D03*
X144780000Y-88987000D03*
%TD*%
D25*
%TO.C,TP8*%
X134620000Y-101854000D03*
%TD*%
D29*
%TO.C,C42*%
X127557000Y-78510000D03*
X130507000Y-78510000D03*
%TD*%
D30*
%TO.C,L4*%
X119634000Y-137798000D03*
X119634000Y-147698000D03*
%TD*%
D31*
%TO.C,R22*%
X148590000Y-128208500D03*
X148590000Y-125283500D03*
%TD*%
D25*
%TO.C,TP5*%
X139954000Y-96544000D03*
%TD*%
D18*
%TO.C,R63*%
X127254000Y-87971000D03*
X127254000Y-86321000D03*
%TD*%
D16*
%TO.C,L1*%
X102776000Y-105736000D03*
X102776000Y-110236000D03*
X112776000Y-105736000D03*
X112776000Y-110236000D03*
%TD*%
D25*
%TO.C,TP7*%
X134620000Y-96544000D03*
%TD*%
D15*
%TO.C,TP15*%
X144272000Y-97052000D03*
%TD*%
%TO.C,TP14*%
X147574000Y-101346000D03*
%TD*%
D32*
%TO.C,C37*%
X149378000Y-90448000D03*
X147828000Y-90448000D03*
%TD*%
D25*
%TO.C,TP6*%
X139954000Y-101854000D03*
%TD*%
D15*
%TO.C,TP9*%
X127254000Y-101346000D03*
%TD*%
D20*
%TO.C,R54*%
X149415000Y-87400000D03*
X147765000Y-87400000D03*
%TD*%
D33*
%TO.C,Q11*%
X145874500Y-105476000D03*
X145874500Y-107376000D03*
X147749500Y-106426000D03*
%TD*%
D34*
%TO.C,R18*%
X148653000Y-112268000D03*
X147003000Y-112268000D03*
%TD*%
D28*
%TO.C,C1*%
X101660000Y-115316000D03*
X109160000Y-115316000D03*
%TD*%
D34*
%TO.C,R58*%
X147765000Y-88924000D03*
X149415000Y-88924000D03*
%TD*%
D35*
%TO.C,C10*%
X136476220Y-140208000D03*
D36*
X143976220Y-140208000D03*
%TD*%
D37*
%TO.C,C46*%
X127495000Y-80542000D03*
X129045000Y-80542000D03*
%TD*%
D20*
%TO.C,R52*%
X144209000Y-103886000D03*
X145859000Y-103886000D03*
%TD*%
D38*
%TO.C,C16*%
X144018000Y-122748000D03*
X144018000Y-124648000D03*
%TD*%
D39*
%TO.C,R20*%
X145857500Y-118364000D03*
X148782500Y-118364000D03*
%TD*%
D15*
%TO.C,TP13*%
X144272000Y-101346000D03*
%TD*%
D40*
%TO.C,U6*%
X115442000Y-116816000D03*
D41*
X115354500Y-115316000D03*
D40*
X115442000Y-113816000D03*
%TD*%
D37*
%TO.C,C35*%
X144767000Y-90448000D03*
X146317000Y-90448000D03*
%TD*%
D42*
%TO.C,D16*%
X129032000Y-87942000D03*
X129032000Y-85842000D03*
%TD*%
D31*
%TO.C,R10*%
X127762000Y-137098500D03*
X127762000Y-134173500D03*
%TD*%
D42*
%TO.C,D4*%
X146304000Y-131860000D03*
X146304000Y-129760000D03*
%TD*%
D15*
%TO.C,TP16*%
X147574000Y-97052000D03*
%TD*%
D31*
%TO.C,R12*%
X127762000Y-146750500D03*
X127762000Y-143825500D03*
%TD*%
D43*
%TO.C,C3*%
X107678000Y-134874000D03*
X111778000Y-134874000D03*
%TD*%
D18*
%TO.C,R13*%
X129794000Y-145225000D03*
X129794000Y-146875000D03*
%TD*%
D13*
%TO.C,TP4*%
X153162000Y-93496000D03*
%TD*%
D34*
%TO.C,R57*%
X144717000Y-91972000D03*
X146367000Y-91972000D03*
%TD*%
D37*
%TO.C,C44*%
X127241000Y-89432000D03*
X128791000Y-89432000D03*
%TD*%
D10*
%TO.C,D7*%
X119250000Y-103378000D03*
X122050000Y-103378000D03*
%TD*%
D15*
%TO.C,TP12*%
X127254000Y-97052000D03*
%TD*%
D25*
%TO.C,P1*%
X104234000Y-102108000D03*
D44*
X109634000Y-102108000D03*
%TD*%
D13*
%TO.C,TP2*%
X149352000Y-93496000D03*
%TD*%
D31*
%TO.C,R21*%
X148590000Y-132780500D03*
X148590000Y-129855500D03*
%TD*%
D28*
%TO.C,C2*%
X103378000Y-135322000D03*
X103378000Y-127822000D03*
%TD*%
D20*
%TO.C,R35*%
X119063000Y-101346000D03*
X120713000Y-101346000D03*
%TD*%
D45*
%TO.C,Q13*%
X128270000Y-82398500D03*
X129220000Y-84273500D03*
X127320000Y-84273500D03*
%TD*%
D31*
%TO.C,R11*%
X127762000Y-141924500D03*
X127762000Y-138999500D03*
%TD*%
D46*
%TO.C,C29*%
X113841000Y-102362000D03*
X116791000Y-102362000D03*
%TD*%
D25*
%TO.C,TP1*%
X152908000Y-89178000D03*
%TD*%
D18*
%TO.C,R14*%
X129794000Y-142177000D03*
X129794000Y-143827000D03*
%TD*%
M02*
