%TF.GenerationSoftware,KiCad,Pcbnew,7.99.0-950-gc4668c1d3a-dirty*%
%TF.CreationDate,2023-06-21T04:14:03+08:00*%
%TF.ProjectId,LightningReed,4c696768-746e-4696-9e67-526565642e6b,rev?*%
%TF.SameCoordinates,Original*%
%TF.FileFunction,Drillmap*%
%TF.FilePolarity,Positive*%
%FSLAX45Y45*%
G04 Gerber Fmt 4.5, Leading zero omitted, Abs format (unit mm)*
G04 Created by KiCad (PCBNEW 7.99.0-950-gc4668c1d3a-dirty) date 2023-06-21 04:14:03*
%MOMM*%
%LPD*%
G01*
G04 APERTURE LIST*
%ADD10C,0.100000*%
%ADD11C,0.200000*%
G04 APERTURE END LIST*
D10*
X12500000Y-9850000D02*
X12500000Y-10000000D01*
X15000000Y-9850000D02*
X15000000Y-10000000D01*
X12500000Y-10000000D02*
X10000000Y-10000000D01*
X12500000Y-7350000D02*
X12500000Y-9850000D01*
X15500000Y-9850000D02*
X15500000Y-7350000D01*
X15500000Y-7350000D02*
X12500000Y-7350000D01*
X15000000Y-15000000D02*
X15000000Y-12250000D01*
X15000000Y-9850000D02*
X15500000Y-9850000D01*
X15000000Y-10000000D02*
X15000000Y-12250000D01*
X10000000Y-15000000D02*
X15000000Y-15000000D01*
X10000000Y-10000000D02*
X10000000Y-15000000D01*
D11*
X10242619Y-15317524D02*
X10242619Y-15117524D01*
X10242619Y-15117524D02*
X10290238Y-15117524D01*
X10290238Y-15117524D02*
X10318810Y-15127048D01*
X10318810Y-15127048D02*
X10337857Y-15146095D01*
X10337857Y-15146095D02*
X10347381Y-15165143D01*
X10347381Y-15165143D02*
X10356905Y-15203238D01*
X10356905Y-15203238D02*
X10356905Y-15231809D01*
X10356905Y-15231809D02*
X10347381Y-15269905D01*
X10347381Y-15269905D02*
X10337857Y-15288952D01*
X10337857Y-15288952D02*
X10318810Y-15308000D01*
X10318810Y-15308000D02*
X10290238Y-15317524D01*
X10290238Y-15317524D02*
X10242619Y-15317524D01*
X10442619Y-15317524D02*
X10442619Y-15184190D01*
X10442619Y-15222286D02*
X10452143Y-15203238D01*
X10452143Y-15203238D02*
X10461667Y-15193714D01*
X10461667Y-15193714D02*
X10480714Y-15184190D01*
X10480714Y-15184190D02*
X10499762Y-15184190D01*
X10566429Y-15317524D02*
X10566429Y-15184190D01*
X10566429Y-15117524D02*
X10556905Y-15127048D01*
X10556905Y-15127048D02*
X10566429Y-15136571D01*
X10566429Y-15136571D02*
X10575952Y-15127048D01*
X10575952Y-15127048D02*
X10566429Y-15117524D01*
X10566429Y-15117524D02*
X10566429Y-15136571D01*
X10690238Y-15317524D02*
X10671190Y-15308000D01*
X10671190Y-15308000D02*
X10661667Y-15288952D01*
X10661667Y-15288952D02*
X10661667Y-15117524D01*
X10795000Y-15317524D02*
X10775952Y-15308000D01*
X10775952Y-15308000D02*
X10766429Y-15288952D01*
X10766429Y-15288952D02*
X10766429Y-15117524D01*
X11023571Y-15317524D02*
X11023571Y-15117524D01*
X11023571Y-15117524D02*
X11090238Y-15260381D01*
X11090238Y-15260381D02*
X11156905Y-15117524D01*
X11156905Y-15117524D02*
X11156905Y-15317524D01*
X11337857Y-15317524D02*
X11337857Y-15212762D01*
X11337857Y-15212762D02*
X11328333Y-15193714D01*
X11328333Y-15193714D02*
X11309286Y-15184190D01*
X11309286Y-15184190D02*
X11271190Y-15184190D01*
X11271190Y-15184190D02*
X11252143Y-15193714D01*
X11337857Y-15308000D02*
X11318809Y-15317524D01*
X11318809Y-15317524D02*
X11271190Y-15317524D01*
X11271190Y-15317524D02*
X11252143Y-15308000D01*
X11252143Y-15308000D02*
X11242619Y-15288952D01*
X11242619Y-15288952D02*
X11242619Y-15269905D01*
X11242619Y-15269905D02*
X11252143Y-15250857D01*
X11252143Y-15250857D02*
X11271190Y-15241333D01*
X11271190Y-15241333D02*
X11318809Y-15241333D01*
X11318809Y-15241333D02*
X11337857Y-15231809D01*
X11433095Y-15184190D02*
X11433095Y-15384190D01*
X11433095Y-15193714D02*
X11452143Y-15184190D01*
X11452143Y-15184190D02*
X11490238Y-15184190D01*
X11490238Y-15184190D02*
X11509286Y-15193714D01*
X11509286Y-15193714D02*
X11518809Y-15203238D01*
X11518809Y-15203238D02*
X11528333Y-15222286D01*
X11528333Y-15222286D02*
X11528333Y-15279428D01*
X11528333Y-15279428D02*
X11518809Y-15298476D01*
X11518809Y-15298476D02*
X11509286Y-15308000D01*
X11509286Y-15308000D02*
X11490238Y-15317524D01*
X11490238Y-15317524D02*
X11452143Y-15317524D01*
X11452143Y-15317524D02*
X11433095Y-15308000D01*
X11614048Y-15298476D02*
X11623571Y-15308000D01*
X11623571Y-15308000D02*
X11614048Y-15317524D01*
X11614048Y-15317524D02*
X11604524Y-15308000D01*
X11604524Y-15308000D02*
X11614048Y-15298476D01*
X11614048Y-15298476D02*
X11614048Y-15317524D01*
X11614048Y-15193714D02*
X11623571Y-15203238D01*
X11623571Y-15203238D02*
X11614048Y-15212762D01*
X11614048Y-15212762D02*
X11604524Y-15203238D01*
X11604524Y-15203238D02*
X11614048Y-15193714D01*
X11614048Y-15193714D02*
X11614048Y-15212762D01*
M02*
