%TF.GenerationSoftware,KiCad,Pcbnew,7.99.0-950-gc4668c1d3a-dirty*%
%TF.CreationDate,2023-06-21T04:14:00+08:00*%
%TF.ProjectId,LightningReed,4c696768-746e-4696-9e67-526565642e6b,rev?*%
%TF.SameCoordinates,Original*%
%TF.FileFunction,Legend,Bot*%
%TF.FilePolarity,Positive*%
%FSLAX46Y46*%
G04 Gerber Fmt 4.6, Leading zero omitted, Abs format (unit mm)*
G04 Created by KiCad (PCBNEW 7.99.0-950-gc4668c1d3a-dirty) date 2023-06-21 04:14:00*
%MOMM*%
%LPD*%
G01*
G04 APERTURE LIST*
%ADD10C,0.150000*%
%ADD11C,0.120000*%
G04 APERTURE END LIST*
D10*
%TO.C,L5*%
X140295333Y-81341380D02*
X139819143Y-81341380D01*
X139819143Y-81341380D02*
X139819143Y-82341380D01*
X141104857Y-82341380D02*
X140628667Y-82341380D01*
X140628667Y-82341380D02*
X140581048Y-81865190D01*
X140581048Y-81865190D02*
X140628667Y-81912809D01*
X140628667Y-81912809D02*
X140723905Y-81960428D01*
X140723905Y-81960428D02*
X140962000Y-81960428D01*
X140962000Y-81960428D02*
X141057238Y-81912809D01*
X141057238Y-81912809D02*
X141104857Y-81865190D01*
X141104857Y-81865190D02*
X141152476Y-81769952D01*
X141152476Y-81769952D02*
X141152476Y-81531857D01*
X141152476Y-81531857D02*
X141104857Y-81436619D01*
X141104857Y-81436619D02*
X141057238Y-81389000D01*
X141057238Y-81389000D02*
X140962000Y-81341380D01*
X140962000Y-81341380D02*
X140723905Y-81341380D01*
X140723905Y-81341380D02*
X140628667Y-81389000D01*
X140628667Y-81389000D02*
X140581048Y-81436619D01*
D11*
%TO.C,D13*%
X138708000Y-104814000D02*
X138708000Y-106514000D01*
X141258000Y-106514000D02*
X138708000Y-106514000D01*
X141258000Y-104814000D02*
X138708000Y-104814000D01*
%TO.C,Q10*%
X136501000Y-126020000D02*
X138176000Y-126020000D01*
X138826000Y-126020000D02*
X138176000Y-126020000D01*
X137526000Y-122900000D02*
X138176000Y-122900000D01*
X138826000Y-122900000D02*
X138176000Y-122900000D01*
%TO.C,TH1*%
X125205258Y-115584500D02*
X124730742Y-115584500D01*
X125205258Y-114539500D02*
X124730742Y-114539500D01*
%TO.C,R48*%
X131811500Y-109203258D02*
X131811500Y-108728742D01*
X132856500Y-109203258D02*
X132856500Y-108728742D01*
%TO.C,C28*%
X113530748Y-103605000D02*
X114053252Y-103605000D01*
X113530748Y-102135000D02*
X114053252Y-102135000D01*
%TO.C,D11*%
X115594000Y-110910000D02*
X115594000Y-112610000D01*
X118144000Y-112610000D02*
X115594000Y-112610000D01*
X118144000Y-110910000D02*
X115594000Y-110910000D01*
%TO.C,R51*%
X131332500Y-108728742D02*
X131332500Y-109203258D01*
X130287500Y-108728742D02*
X130287500Y-109203258D01*
%TO.C,D14*%
X142152000Y-109958000D02*
X143852000Y-109958000D01*
X143852000Y-107408000D02*
X143852000Y-109958000D01*
X142152000Y-107408000D02*
X142152000Y-109958000D01*
%TO.C,R49*%
X141492500Y-124697258D02*
X141492500Y-124222742D01*
X140447500Y-124697258D02*
X140447500Y-124222742D01*
%TO.C,C33*%
X124573420Y-102868000D02*
X124854580Y-102868000D01*
X124573420Y-103888000D02*
X124854580Y-103888000D01*
%TO.C,R46*%
X132827500Y-113013258D02*
X132827500Y-112538742D01*
X133872500Y-113013258D02*
X133872500Y-112538742D01*
%TO.C,R50*%
X129808500Y-108728742D02*
X129808500Y-109203258D01*
X128763500Y-108728742D02*
X128763500Y-109203258D01*
%TO.C,C34*%
X131431420Y-105408000D02*
X131712580Y-105408000D01*
X131431420Y-106428000D02*
X131712580Y-106428000D01*
%TO.C,C32*%
X134364000Y-112916580D02*
X134364000Y-112635420D01*
X135384000Y-112916580D02*
X135384000Y-112635420D01*
%TO.C,R37*%
X109205500Y-118347258D02*
X109205500Y-117872742D01*
X110250500Y-118347258D02*
X110250500Y-117872742D01*
%TO.C,D17*%
X132454000Y-81904000D02*
X134304000Y-81904000D01*
X132454000Y-80704000D02*
X134304000Y-80704000D01*
X132454000Y-80704000D02*
X132454000Y-81904000D01*
%TO.C,C7*%
X141337420Y-147064000D02*
X141618580Y-147064000D01*
X141337420Y-148084000D02*
X141618580Y-148084000D01*
%TO.C,U9*%
X135418000Y-86152000D02*
X135418000Y-84352000D01*
X135418000Y-83552000D02*
X135418000Y-84352000D01*
X132298000Y-85152000D02*
X132298000Y-84352000D01*
X132298000Y-83552000D02*
X132298000Y-84352000D01*
%TO.C,F1*%
X106183500Y-109300000D02*
X106183500Y-106600000D01*
X109333500Y-109300000D02*
X109333500Y-106600000D01*
%TO.C,R41*%
X132561064Y-127027000D02*
X132106936Y-127027000D01*
X132561064Y-128497000D02*
X132106936Y-128497000D01*
%TO.C,C23*%
X113918420Y-100582000D02*
X114199580Y-100582000D01*
X113918420Y-101602000D02*
X114199580Y-101602000D01*
%TO.C,R30*%
X137194936Y-120502000D02*
X138649064Y-120502000D01*
X137194936Y-122322000D02*
X138649064Y-122322000D01*
%TO.C,C27*%
X132537252Y-129196000D02*
X131114748Y-129196000D01*
X132537252Y-131916000D02*
X131114748Y-131916000D01*
%TO.C,C45*%
X131828000Y-83957420D02*
X131828000Y-84238580D01*
X130808000Y-83957420D02*
X130808000Y-84238580D01*
%TO.C,L6*%
X141369622Y-77292000D02*
X140570378Y-77292000D01*
X141369622Y-76172000D02*
X140570378Y-76172000D01*
%TO.C,R6*%
X147793064Y-147680000D02*
X146338936Y-147680000D01*
X147793064Y-149500000D02*
X146338936Y-149500000D01*
%TO.C,R61*%
X138911000Y-87627064D02*
X138911000Y-87172936D01*
X137441000Y-87627064D02*
X137441000Y-87172936D01*
%TO.C,R27*%
X146035500Y-136082242D02*
X146035500Y-136556758D01*
X147080500Y-136082242D02*
X147080500Y-136556758D01*
%TO.C,R7*%
X147793064Y-145394000D02*
X146338936Y-145394000D01*
X147793064Y-147214000D02*
X146338936Y-147214000D01*
%TO.C,R19*%
X146592936Y-117454000D02*
X148047064Y-117454000D01*
X146592936Y-119274000D02*
X148047064Y-119274000D01*
%TO.C,C38*%
X140856580Y-86894000D02*
X140575420Y-86894000D01*
X140856580Y-85874000D02*
X140575420Y-85874000D01*
%TO.C,C22*%
X127926000Y-116382748D02*
X127926000Y-117805252D01*
X130646000Y-116382748D02*
X130646000Y-117805252D01*
%TO.C,C31*%
X128156580Y-113028000D02*
X127875420Y-113028000D01*
X128156580Y-114048000D02*
X127875420Y-114048000D01*
%TO.C,Q7*%
X120752000Y-121218000D02*
X126352000Y-121218000D01*
X121552000Y-116018000D02*
X126352000Y-116018000D01*
%TO.C,R4*%
X137774000Y-145761064D02*
X137774000Y-144306936D01*
X139594000Y-145761064D02*
X139594000Y-144306936D01*
%TO.C,C40*%
X136038000Y-77290748D02*
X136038000Y-78713252D01*
X134218000Y-77290748D02*
X134218000Y-78713252D01*
%TO.C,R5*%
X134349258Y-142479500D02*
X133874742Y-142479500D01*
X134349258Y-143524500D02*
X133874742Y-143524500D01*
%TO.C,C8*%
X139840580Y-141222000D02*
X139559420Y-141222000D01*
X139840580Y-142242000D02*
X139559420Y-142242000D01*
%TO.C,Q5*%
X142098000Y-143474000D02*
X142748000Y-143474000D01*
X142098000Y-146594000D02*
X142748000Y-146594000D01*
X143398000Y-146594000D02*
X142748000Y-146594000D01*
X144423000Y-143474000D02*
X142748000Y-143474000D01*
%TO.C,C5*%
X132701420Y-140968000D02*
X132982580Y-140968000D01*
X132701420Y-141988000D02*
X132982580Y-141988000D01*
%TO.C,R9*%
X136129500Y-144763258D02*
X136129500Y-144288742D01*
X137174500Y-144763258D02*
X137174500Y-144288742D01*
%TO.C,C30*%
X131204580Y-111504000D02*
X130923420Y-111504000D01*
X131204580Y-112524000D02*
X130923420Y-112524000D01*
%TO.C,Q8*%
X115002000Y-114580000D02*
X115002000Y-120180000D01*
X120202000Y-115380000D02*
X120202000Y-120180000D01*
%TO.C,C25*%
X112127420Y-116076000D02*
X112408580Y-116076000D01*
X112127420Y-117096000D02*
X112408580Y-117096000D01*
%TO.C,D10*%
X131446000Y-120412000D02*
X135346000Y-120412000D01*
X131446000Y-122412000D02*
X135346000Y-122412000D01*
X135346000Y-122412000D02*
X135346000Y-120412000D01*
%TO.C,U5*%
X117430000Y-100310000D02*
X119380000Y-100310000D01*
X117430000Y-105430000D02*
X119380000Y-105430000D01*
X121330000Y-105430000D02*
X119380000Y-105430000D01*
X122830000Y-100310000D02*
X119380000Y-100310000D01*
%TO.C,D9*%
X126620000Y-126762000D02*
X130470000Y-126762000D01*
X126620000Y-128762000D02*
X130470000Y-128762000D01*
X130470000Y-128762000D02*
X130470000Y-126762000D01*
%TO.C,R26*%
X140447500Y-117618742D02*
X140447500Y-118093258D01*
X141492500Y-117618742D02*
X141492500Y-118093258D01*
%TO.C,D8*%
X126620000Y-124222000D02*
X130470000Y-124222000D01*
X126620000Y-126222000D02*
X130470000Y-126222000D01*
X130470000Y-126222000D02*
X130470000Y-124222000D01*
%TO.C,R36*%
X112030742Y-112507500D02*
X112505258Y-112507500D01*
X112030742Y-113552500D02*
X112505258Y-113552500D01*
%TO.C,D3*%
X114316000Y-137286000D02*
X114316000Y-133436000D01*
X116316000Y-133436000D02*
X114316000Y-133436000D01*
X116316000Y-137286000D02*
X116316000Y-133436000D01*
%TO.C,D2*%
X104648000Y-123952000D02*
X104648000Y-129286000D01*
X106426000Y-122809000D02*
X109474000Y-122809000D01*
X106426000Y-130175000D02*
X109474000Y-130175000D01*
X111252000Y-123952000D02*
X111252000Y-129286000D01*
%TO.C,C36*%
X152286580Y-86894000D02*
X152005420Y-86894000D01*
X152286580Y-85874000D02*
X152005420Y-85874000D01*
%TO.C,Q4*%
X145400000Y-128742000D02*
X146050000Y-128742000D01*
X145400000Y-131862000D02*
X146050000Y-131862000D01*
X146700000Y-131862000D02*
X146050000Y-131862000D01*
X147725000Y-128742000D02*
X146050000Y-128742000D01*
%TO.C,R29*%
X148319258Y-142147000D02*
X147844742Y-142147000D01*
X148319258Y-143192000D02*
X147844742Y-143192000D01*
%TO.C,U1*%
X132804000Y-143982000D02*
X133604000Y-143982000D01*
X132804000Y-147102000D02*
X133604000Y-147102000D01*
X134404000Y-147102000D02*
X133604000Y-147102000D01*
X135404000Y-143982000D02*
X133604000Y-143982000D01*
%TO.C,C39*%
X138578000Y-77290748D02*
X138578000Y-78713252D01*
X136758000Y-77290748D02*
X136758000Y-78713252D01*
%TO.C,U7*%
X146698000Y-93266000D02*
X146698000Y-90956000D01*
X146698000Y-88646000D02*
X146698000Y-90956000D01*
X146483000Y-93266000D02*
X146698000Y-93266000D01*
X146483000Y-88646000D02*
X146698000Y-88646000D01*
X144093000Y-93266000D02*
X143878000Y-93266000D01*
X144093000Y-88646000D02*
X143878000Y-88646000D01*
X144093000Y-86956000D02*
X144093000Y-88646000D01*
X143878000Y-93266000D02*
X143878000Y-90956000D01*
X143878000Y-88646000D02*
X143878000Y-90956000D01*
%TO.C,R32*%
X121682742Y-114539500D02*
X122157258Y-114539500D01*
X121682742Y-115584500D02*
X122157258Y-115584500D01*
%TO.C,Q1*%
X124616000Y-138564000D02*
X123116000Y-138564000D01*
X124616000Y-140374000D02*
X124616000Y-138564000D01*
X124616000Y-147154000D02*
X124616000Y-148964000D01*
X124616000Y-148964000D02*
X123116000Y-148964000D01*
X125716000Y-147154000D02*
X124616000Y-147154000D01*
X129741000Y-140374000D02*
X124616000Y-140374000D01*
%TO.C,C12*%
X146163420Y-112266000D02*
X146444580Y-112266000D01*
X146163420Y-113286000D02*
X146444580Y-113286000D01*
%TO.C,R42*%
X134351500Y-126983258D02*
X134351500Y-126508742D01*
X135396500Y-126983258D02*
X135396500Y-126508742D01*
%TO.C,R3*%
X136686936Y-147680000D02*
X138141064Y-147680000D01*
X136686936Y-149500000D02*
X138141064Y-149500000D01*
%TO.C,C13*%
X146163420Y-110742000D02*
X146444580Y-110742000D01*
X146163420Y-111762000D02*
X146444580Y-111762000D01*
%TO.C,R34*%
X120158742Y-113015500D02*
X120633258Y-113015500D01*
X120158742Y-114060500D02*
X120633258Y-114060500D01*
%TO.C,Q6*%
X146522000Y-139225500D02*
X146522000Y-139875500D01*
X146522000Y-140525500D02*
X146522000Y-139875500D01*
X149642000Y-139225500D02*
X149642000Y-139875500D01*
X149642000Y-141550500D02*
X149642000Y-139875500D01*
%TO.C,R60*%
X152383258Y-85382500D02*
X151908742Y-85382500D01*
X152383258Y-84337500D02*
X151908742Y-84337500D01*
%TO.C,C14*%
X143508000Y-117996580D02*
X143508000Y-117715420D01*
X144528000Y-117996580D02*
X144528000Y-117715420D01*
%TO.C,R44*%
X125205258Y-113015500D02*
X124730742Y-113015500D01*
X125205258Y-114060500D02*
X124730742Y-114060500D01*
%TO.C,C24*%
X116076000Y-107047420D02*
X116076000Y-107328580D01*
X117096000Y-107047420D02*
X117096000Y-107328580D01*
%TO.C,C21*%
X134530000Y-116382748D02*
X134530000Y-117805252D01*
X137250000Y-116382748D02*
X137250000Y-117805252D01*
%TO.C,C4*%
X132849252Y-138965000D02*
X132326748Y-138965000D01*
X132849252Y-140435000D02*
X132326748Y-140435000D01*
%TO.C,Q2*%
X141442000Y-113571500D02*
X141442000Y-114221500D01*
X141442000Y-114871500D02*
X141442000Y-114221500D01*
X144562000Y-113571500D02*
X144562000Y-114221500D01*
X144562000Y-115896500D02*
X144562000Y-114221500D01*
%TO.C,R8*%
X143241500Y-148573258D02*
X143241500Y-148098742D01*
X144286500Y-148573258D02*
X144286500Y-148098742D01*
%TO.C,Q9*%
X130774000Y-123039000D02*
X130774000Y-124714000D01*
X130774000Y-125364000D02*
X130774000Y-124714000D01*
X133894000Y-124064000D02*
X133894000Y-124714000D01*
X133894000Y-125364000D02*
X133894000Y-124714000D01*
%TO.C,R15*%
X139683258Y-137145500D02*
X139208742Y-137145500D01*
X139683258Y-138190500D02*
X139208742Y-138190500D01*
%TO.C,C26*%
X128891420Y-120648000D02*
X129172580Y-120648000D01*
X128891420Y-121668000D02*
X129172580Y-121668000D01*
%TO.C,C41*%
X133498000Y-77290748D02*
X133498000Y-78713252D01*
X131678000Y-77290748D02*
X131678000Y-78713252D01*
%TO.C,C18*%
X109778748Y-137520000D02*
X111201252Y-137520000D01*
X109778748Y-139340000D02*
X111201252Y-139340000D01*
%TO.C,R47*%
X122413500Y-106950742D02*
X122413500Y-107425258D01*
X123458500Y-106950742D02*
X123458500Y-107425258D01*
%TO.C,R62*%
X136920500Y-83606742D02*
X136920500Y-84081258D01*
X135875500Y-83606742D02*
X135875500Y-84081258D01*
%TO.C,R2*%
X131860936Y-147680000D02*
X133315064Y-147680000D01*
X131860936Y-149500000D02*
X133315064Y-149500000D01*
%TO.C,Q3*%
X142640000Y-122042000D02*
X142640000Y-125802000D01*
X143900000Y-122042000D02*
X142640000Y-122042000D01*
X148200000Y-122042000D02*
X149460000Y-122042000D01*
X149460000Y-122042000D02*
X149460000Y-128052000D01*
%TO.C,D12*%
X134390500Y-131542000D02*
X136065500Y-131542000D01*
X135415500Y-128422000D02*
X136065500Y-128422000D01*
X136715500Y-128422000D02*
X136065500Y-128422000D01*
X136715500Y-131542000D02*
X136065500Y-131542000D01*
%TO.C,R17*%
X141971500Y-117618742D02*
X141971500Y-118093258D01*
X143016500Y-117618742D02*
X143016500Y-118093258D01*
%TO.C,C15*%
X148334000Y-130148420D02*
X148334000Y-130429580D01*
X149354000Y-130148420D02*
X149354000Y-130429580D01*
%TO.C,R39*%
X115422000Y-123224936D02*
X115422000Y-124679064D01*
X117242000Y-123224936D02*
X117242000Y-124679064D01*
%TO.C,R59*%
X148860742Y-86906500D02*
X149335258Y-86906500D01*
X148860742Y-85861500D02*
X149335258Y-85861500D01*
%TO.C,L5*%
X146687000Y-84604000D02*
X146687000Y-83336000D01*
X146687000Y-84604000D02*
X140287000Y-84604000D01*
X146687000Y-78004000D02*
X146687000Y-79272000D01*
X146687000Y-78004000D02*
X140287000Y-78004000D01*
X140287000Y-84604000D02*
X140287000Y-83336000D01*
X140287000Y-78004000D02*
X140287000Y-79272000D01*
%TO.C,C17*%
X146444580Y-143762000D02*
X146163420Y-143762000D01*
X146444580Y-144782000D02*
X146163420Y-144782000D01*
%TO.C,U8*%
X151027000Y-87872000D02*
X149352000Y-87872000D01*
X150002000Y-90992000D02*
X149352000Y-90992000D01*
X148702000Y-90992000D02*
X149352000Y-90992000D01*
X148702000Y-87872000D02*
X149352000Y-87872000D01*
%TO.C,R40*%
X128550936Y-122201000D02*
X129005064Y-122201000D01*
X128550936Y-123671000D02*
X129005064Y-123671000D01*
%TO.C,U2*%
X146162000Y-113756000D02*
X146812000Y-113756000D01*
X146162000Y-116876000D02*
X146812000Y-116876000D01*
X147462000Y-116876000D02*
X146812000Y-116876000D01*
X148487000Y-113756000D02*
X146812000Y-113756000D01*
%TO.C,C19*%
X122573252Y-131386000D02*
X120250748Y-131386000D01*
X122573252Y-134806000D02*
X120250748Y-134806000D01*
%TO.C,R45*%
X130826742Y-113015500D02*
X131301258Y-113015500D01*
X130826742Y-114060500D02*
X131301258Y-114060500D01*
%TO.C,C11*%
X138174000Y-135241420D02*
X138174000Y-135522580D01*
X139194000Y-135241420D02*
X139194000Y-135522580D01*
%TO.C,U4*%
X124628000Y-106594000D02*
X124628000Y-107069000D01*
X124628000Y-109814000D02*
X124628000Y-109339000D01*
X125103000Y-109814000D02*
X124628000Y-109814000D01*
X127373000Y-106594000D02*
X127848000Y-106594000D01*
X127373000Y-109814000D02*
X127848000Y-109814000D01*
X127848000Y-106594000D02*
X127848000Y-107069000D01*
X127848000Y-109814000D02*
X127848000Y-109339000D01*
%TO.C,R1*%
X128507258Y-136637500D02*
X128032742Y-136637500D01*
X128507258Y-137682500D02*
X128032742Y-137682500D01*
%TO.C,R33*%
X120158742Y-111491500D02*
X120633258Y-111491500D01*
X120158742Y-112536500D02*
X120633258Y-112536500D01*
%TO.C,C6*%
X141337420Y-148588000D02*
X141618580Y-148588000D01*
X141337420Y-149608000D02*
X141618580Y-149608000D01*
%TO.C,R28*%
X144255258Y-141971500D02*
X143780742Y-141971500D01*
X144255258Y-143016500D02*
X143780742Y-143016500D01*
%TO.C,D6*%
X147590000Y-136270000D02*
X147590000Y-132370000D01*
X149590000Y-132370000D02*
X147590000Y-132370000D01*
X149590000Y-136270000D02*
X149590000Y-132370000D01*
%TO.C,D1*%
X114306000Y-129410000D02*
X114306000Y-133090000D01*
X114306000Y-133090000D02*
X116326000Y-133090000D01*
X116326000Y-129410000D02*
X116326000Y-133090000D01*
%TO.C,R38*%
X103920936Y-137520000D02*
X105375064Y-137520000D01*
X103920936Y-139340000D02*
X105375064Y-139340000D01*
%TO.C,R43*%
X125205258Y-111491500D02*
X124730742Y-111491500D01*
X125205258Y-112536500D02*
X124730742Y-112536500D01*
%TO.C,R31*%
X122159500Y-112538742D02*
X122159500Y-113013258D01*
X123204500Y-112538742D02*
X123204500Y-113013258D01*
%TO.C,C47*%
X131828000Y-87259420D02*
X131828000Y-87540580D01*
X130808000Y-87259420D02*
X130808000Y-87540580D01*
%TO.C,C20*%
X131228000Y-116382748D02*
X131228000Y-117805252D01*
X133948000Y-116382748D02*
X133948000Y-117805252D01*
%TD*%
M02*
