%TF.GenerationSoftware,KiCad,Pcbnew,7.99.0-950-gc4668c1d3a-dirty*%
%TF.CreationDate,2023-06-21T04:14:03+08:00*%
%TF.ProjectId,LightningReed,4c696768-746e-4696-9e67-526565642e6b,rev?*%
%TF.SameCoordinates,Original*%
%TF.FileFunction,Drillmap*%
%TF.FilePolarity,Positive*%
%FSLAX45Y45*%
G04 Gerber Fmt 4.5, Leading zero omitted, Abs format (unit mm)*
G04 Created by KiCad (PCBNEW 7.99.0-950-gc4668c1d3a-dirty) date 2023-06-21 04:14:03*
%MOMM*%
%LPD*%
G01*
G04 APERTURE LIST*
%ADD10C,0.100000*%
%ADD11C,0.200000*%
%ADD12C,0.030000*%
%ADD13C,0.070000*%
%ADD14C,0.110000*%
%ADD15C,0.114300*%
%ADD16C,0.120000*%
%ADD17C,0.130000*%
%ADD18C,0.152400*%
%ADD19C,0.175000*%
G04 APERTURE END LIST*
D10*
X12500000Y-9850000D02*
X12500000Y-10000000D01*
X15000000Y-9850000D02*
X15000000Y-10000000D01*
X12500000Y-10000000D02*
X10000000Y-10000000D01*
X12500000Y-7350000D02*
X12500000Y-9850000D01*
X15500000Y-9850000D02*
X15500000Y-7350000D01*
X15500000Y-7350000D02*
X12500000Y-7350000D01*
X15000000Y-15000000D02*
X15000000Y-12250000D01*
X15000000Y-9850000D02*
X15500000Y-9850000D01*
X15000000Y-10000000D02*
X15000000Y-12250000D01*
X10000000Y-15000000D02*
X15000000Y-15000000D01*
X10000000Y-10000000D02*
X10000000Y-15000000D01*
D11*
D12*
X10475200Y-12151600D02*
X10505200Y-12181600D01*
X10505200Y-12151600D02*
X10475200Y-12181600D01*
X10475200Y-12202400D02*
X10505200Y-12232400D01*
X10505200Y-12202400D02*
X10475200Y-12232400D01*
X10475200Y-12253200D02*
X10505200Y-12283200D01*
X10505200Y-12253200D02*
X10475200Y-12283200D01*
X10475200Y-12304000D02*
X10505200Y-12334000D01*
X10505200Y-12304000D02*
X10475200Y-12334000D01*
X10526000Y-12151600D02*
X10556000Y-12181600D01*
X10556000Y-12151600D02*
X10526000Y-12181600D01*
X10526000Y-12202400D02*
X10556000Y-12232400D01*
X10556000Y-12202400D02*
X10526000Y-12232400D01*
X10526000Y-12253200D02*
X10556000Y-12283200D01*
X10556000Y-12253200D02*
X10526000Y-12283200D01*
X10526000Y-12304000D02*
X10556000Y-12334000D01*
X10556000Y-12304000D02*
X10526000Y-12334000D01*
X10576800Y-12151600D02*
X10606800Y-12181600D01*
X10606800Y-12151600D02*
X10576800Y-12181600D01*
X10576800Y-12202400D02*
X10606800Y-12232400D01*
X10606800Y-12202400D02*
X10576800Y-12232400D01*
X10576800Y-12253200D02*
X10606800Y-12283200D01*
X10606800Y-12253200D02*
X10576800Y-12283200D01*
X10576800Y-12304000D02*
X10606800Y-12334000D01*
X10606800Y-12304000D02*
X10576800Y-12334000D01*
X10627600Y-10957800D02*
X10657600Y-10987800D01*
X10657600Y-10957800D02*
X10627600Y-10987800D01*
X10627600Y-11008600D02*
X10657600Y-11038600D01*
X10657600Y-11008600D02*
X10627600Y-11038600D01*
X10627600Y-11059400D02*
X10657600Y-11089400D01*
X10657600Y-11059400D02*
X10627600Y-11089400D01*
X10678400Y-10983200D02*
X10708400Y-11013200D01*
X10708400Y-10983200D02*
X10678400Y-11013200D01*
X10678400Y-11034000D02*
X10708400Y-11064000D01*
X10708400Y-11034000D02*
X10678400Y-11064000D01*
X10678400Y-11084800D02*
X10708400Y-11114800D01*
X10708400Y-11084800D02*
X10678400Y-11114800D01*
X10729200Y-10957800D02*
X10759200Y-10987800D01*
X10759200Y-10957800D02*
X10729200Y-10987800D01*
X10729200Y-11008600D02*
X10759200Y-11038600D01*
X10759200Y-11008600D02*
X10729200Y-11038600D01*
X10729200Y-11059400D02*
X10759200Y-11089400D01*
X10759200Y-11059400D02*
X10729200Y-11089400D01*
X10780000Y-10957800D02*
X10810000Y-10987800D01*
X10810000Y-10957800D02*
X10780000Y-10987800D01*
X10780000Y-11008600D02*
X10810000Y-11038600D01*
X10810000Y-11008600D02*
X10780000Y-11038600D01*
X10780000Y-11059400D02*
X10810000Y-11089400D01*
X10810000Y-11059400D02*
X10780000Y-11089400D01*
X10830800Y-10983200D02*
X10860800Y-11013200D01*
X10860800Y-10983200D02*
X10830800Y-11013200D01*
X10830800Y-11034000D02*
X10860800Y-11064000D01*
X10860800Y-11034000D02*
X10830800Y-11064000D01*
X10830800Y-11084800D02*
X10860800Y-11114800D01*
X10860800Y-11084800D02*
X10830800Y-11114800D01*
X10881600Y-10957800D02*
X10911600Y-10987800D01*
X10911600Y-10957800D02*
X10881600Y-10987800D01*
X10881600Y-11008600D02*
X10911600Y-11038600D01*
X10911600Y-11008600D02*
X10881600Y-11038600D01*
X10881600Y-11059400D02*
X10911600Y-11089400D01*
X10911600Y-11059400D02*
X10881600Y-11089400D01*
X10983200Y-12964400D02*
X11013200Y-12994400D01*
X11013200Y-12964400D02*
X10983200Y-12994400D01*
X10983200Y-13015200D02*
X11013200Y-13045200D01*
X11013200Y-13015200D02*
X10983200Y-13045200D01*
X10983200Y-13066000D02*
X11013200Y-13096000D01*
X11013200Y-13066000D02*
X10983200Y-13096000D01*
X10983200Y-13116800D02*
X11013200Y-13146800D01*
X11013200Y-13116800D02*
X10983200Y-13146800D01*
X11034000Y-12964400D02*
X11064000Y-12994400D01*
X11064000Y-12964400D02*
X11034000Y-12994400D01*
X11034000Y-13015200D02*
X11064000Y-13045200D01*
X11064000Y-13015200D02*
X11034000Y-13045200D01*
X11034000Y-13066000D02*
X11064000Y-13096000D01*
X11064000Y-13066000D02*
X11034000Y-13096000D01*
X11034000Y-13116800D02*
X11064000Y-13146800D01*
X11064000Y-13116800D02*
X11034000Y-13146800D01*
X11084800Y-11491200D02*
X11114800Y-11521200D01*
X11114800Y-11491200D02*
X11084800Y-11521200D01*
X11084800Y-12964400D02*
X11114800Y-12994400D01*
X11114800Y-12964400D02*
X11084800Y-12994400D01*
X11084800Y-13015200D02*
X11114800Y-13045200D01*
X11114800Y-13015200D02*
X11084800Y-13045200D01*
X11084800Y-13066000D02*
X11114800Y-13096000D01*
X11114800Y-13066000D02*
X11084800Y-13096000D01*
X11084800Y-13116800D02*
X11114800Y-13146800D01*
X11114800Y-13116800D02*
X11084800Y-13146800D01*
X11135600Y-13345400D02*
X11165600Y-13375400D01*
X11165600Y-13345400D02*
X11135600Y-13375400D01*
X11135600Y-13396200D02*
X11165600Y-13426200D01*
X11165600Y-13396200D02*
X11135600Y-13426200D01*
X11135600Y-13447000D02*
X11165600Y-13477000D01*
X11165600Y-13447000D02*
X11135600Y-13477000D01*
X11135600Y-13497800D02*
X11165600Y-13527800D01*
X11165600Y-13497800D02*
X11135600Y-13527800D01*
X11135600Y-13548600D02*
X11165600Y-13578600D01*
X11165600Y-13548600D02*
X11135600Y-13578600D01*
X11135600Y-13599400D02*
X11165600Y-13629400D01*
X11165600Y-13599400D02*
X11135600Y-13629400D01*
X11161000Y-11770600D02*
X11191000Y-11800600D01*
X11191000Y-11770600D02*
X11161000Y-11800600D01*
X11186400Y-13345400D02*
X11216400Y-13375400D01*
X11216400Y-13345400D02*
X11186400Y-13375400D01*
X11186400Y-13396200D02*
X11216400Y-13426200D01*
X11216400Y-13396200D02*
X11186400Y-13426200D01*
X11186400Y-13447000D02*
X11216400Y-13477000D01*
X11216400Y-13447000D02*
X11186400Y-13477000D01*
X11186400Y-13497800D02*
X11216400Y-13527800D01*
X11216400Y-13497800D02*
X11186400Y-13527800D01*
X11186400Y-13548600D02*
X11216400Y-13578600D01*
X11216400Y-13548600D02*
X11186400Y-13578600D01*
X11186400Y-13599400D02*
X11216400Y-13629400D01*
X11216400Y-13599400D02*
X11186400Y-13629400D01*
X11211800Y-10059650D02*
X11241800Y-10089650D01*
X11241800Y-10059650D02*
X11211800Y-10089650D01*
X11211800Y-13193000D02*
X11241800Y-13223000D01*
X11241800Y-13193000D02*
X11211800Y-13223000D01*
X11314720Y-11516600D02*
X11344720Y-11546600D01*
X11344720Y-11516600D02*
X11314720Y-11546600D01*
X11440400Y-11135600D02*
X11470400Y-11165600D01*
X11470400Y-11135600D02*
X11440400Y-11165600D01*
X11459200Y-10272000D02*
X11489200Y-10302000D01*
X11489200Y-10272000D02*
X11459200Y-10302000D01*
X11491200Y-12888200D02*
X11521200Y-12918200D01*
X11521200Y-12888200D02*
X11491200Y-12918200D01*
X11491200Y-12939000D02*
X11521200Y-12969000D01*
X11521200Y-12939000D02*
X11491200Y-12969000D01*
X11542000Y-12888200D02*
X11572000Y-12918200D01*
X11572000Y-12888200D02*
X11542000Y-12918200D01*
X11542000Y-12939000D02*
X11572000Y-12969000D01*
X11572000Y-12939000D02*
X11542000Y-12969000D01*
X11567400Y-10272000D02*
X11597400Y-10302000D01*
X11597400Y-10272000D02*
X11567400Y-10302000D01*
X11567400Y-12202400D02*
X11597400Y-12232400D01*
X11597400Y-12202400D02*
X11567400Y-12232400D01*
X11567400Y-12253200D02*
X11597400Y-12283200D01*
X11597400Y-12253200D02*
X11567400Y-12283200D01*
X11615700Y-11008600D02*
X11645700Y-11038600D01*
X11645700Y-11008600D02*
X11615700Y-11038600D01*
X11618200Y-12202400D02*
X11648200Y-12232400D01*
X11648200Y-12202400D02*
X11618200Y-12232400D01*
X11618200Y-12253200D02*
X11648200Y-12283200D01*
X11648200Y-12253200D02*
X11618200Y-12283200D01*
X11643600Y-11161000D02*
X11673600Y-11191000D01*
X11673600Y-11161000D02*
X11643600Y-11191000D01*
X11643600Y-11288000D02*
X11673600Y-11318000D01*
X11673600Y-11288000D02*
X11643600Y-11318000D01*
X11643600Y-11338800D02*
X11673600Y-11368800D01*
X11673600Y-11338800D02*
X11643600Y-11368800D01*
X11643600Y-11389600D02*
X11673600Y-11419600D01*
X11673600Y-11389600D02*
X11643600Y-11419600D01*
X11669000Y-10551400D02*
X11699000Y-10581400D01*
X11699000Y-10551400D02*
X11669000Y-10581400D01*
X11669000Y-10957800D02*
X11699000Y-10987800D01*
X11699000Y-10957800D02*
X11669000Y-10987800D01*
X11669000Y-12202400D02*
X11699000Y-12232400D01*
X11699000Y-12202400D02*
X11669000Y-12232400D01*
X11669000Y-12253200D02*
X11699000Y-12283200D01*
X11699000Y-12253200D02*
X11669000Y-12283200D01*
X11694400Y-11288000D02*
X11724400Y-11318000D01*
X11724400Y-11288000D02*
X11694400Y-11318000D01*
X11694400Y-11338800D02*
X11724400Y-11368800D01*
X11724400Y-11338800D02*
X11694400Y-11368800D01*
X11694400Y-11389600D02*
X11724400Y-11419600D01*
X11724400Y-11389600D02*
X11694400Y-11419600D01*
X11719800Y-13650200D02*
X11749800Y-13680200D01*
X11749800Y-13650200D02*
X11719800Y-13680200D01*
X11719800Y-13701000D02*
X11749800Y-13731000D01*
X11749800Y-13701000D02*
X11719800Y-13731000D01*
X11719800Y-13751800D02*
X11749800Y-13781800D01*
X11749800Y-13751800D02*
X11719800Y-13781800D01*
X11745200Y-11338800D02*
X11775200Y-11368800D01*
X11775200Y-11338800D02*
X11745200Y-11368800D01*
X11745200Y-11389600D02*
X11775200Y-11419600D01*
X11775200Y-11389600D02*
X11745200Y-11419600D01*
X11745200Y-13091400D02*
X11775200Y-13121400D01*
X11775200Y-13091400D02*
X11745200Y-13121400D01*
X11745200Y-13142200D02*
X11775200Y-13172200D01*
X11775200Y-13142200D02*
X11745200Y-13172200D01*
X11745200Y-13193000D02*
X11775200Y-13223000D01*
X11775200Y-13193000D02*
X11745200Y-13223000D01*
X11745200Y-13243800D02*
X11775200Y-13273800D01*
X11775200Y-13243800D02*
X11745200Y-13273800D01*
X11745200Y-13294600D02*
X11775200Y-13324600D01*
X11775200Y-13294600D02*
X11745200Y-13324600D01*
X11745200Y-13345400D02*
X11775200Y-13375400D01*
X11775200Y-13345400D02*
X11745200Y-13375400D01*
X11745200Y-13396200D02*
X11775200Y-13426200D01*
X11775200Y-13396200D02*
X11745200Y-13426200D01*
X11745200Y-13447000D02*
X11775200Y-13477000D01*
X11775200Y-13447000D02*
X11745200Y-13477000D01*
X11745200Y-13497800D02*
X11775200Y-13527800D01*
X11775200Y-13497800D02*
X11745200Y-13527800D01*
X11770600Y-13650200D02*
X11800600Y-13680200D01*
X11800600Y-13650200D02*
X11770600Y-13680200D01*
X11770600Y-13701000D02*
X11800600Y-13731000D01*
X11800600Y-13701000D02*
X11770600Y-13731000D01*
X11770600Y-13751800D02*
X11800600Y-13781800D01*
X11800600Y-13751800D02*
X11770600Y-13781800D01*
X11796000Y-10119600D02*
X11826000Y-10149600D01*
X11826000Y-10119600D02*
X11796000Y-10149600D01*
X11796000Y-13091400D02*
X11826000Y-13121400D01*
X11826000Y-13091400D02*
X11796000Y-13121400D01*
X11796000Y-13142200D02*
X11826000Y-13172200D01*
X11826000Y-13142200D02*
X11796000Y-13172200D01*
X11796000Y-13193000D02*
X11826000Y-13223000D01*
X11826000Y-13193000D02*
X11796000Y-13223000D01*
X11796000Y-13243800D02*
X11826000Y-13273800D01*
X11826000Y-13243800D02*
X11796000Y-13273800D01*
X11796000Y-13294600D02*
X11826000Y-13324600D01*
X11826000Y-13294600D02*
X11796000Y-13324600D01*
X11796000Y-13345400D02*
X11826000Y-13375400D01*
X11826000Y-13345400D02*
X11796000Y-13375400D01*
X11796000Y-13396200D02*
X11826000Y-13426200D01*
X11826000Y-13396200D02*
X11796000Y-13426200D01*
X11796000Y-13447000D02*
X11826000Y-13477000D01*
X11826000Y-13447000D02*
X11796000Y-13477000D01*
X11796000Y-13497800D02*
X11826000Y-13527800D01*
X11826000Y-13497800D02*
X11796000Y-13527800D01*
X11821400Y-11322550D02*
X11851400Y-11352550D01*
X11851400Y-11322550D02*
X11821400Y-11352550D01*
X11821400Y-13650200D02*
X11851400Y-13680200D01*
X11851400Y-13650200D02*
X11821400Y-13680200D01*
X11821400Y-13701000D02*
X11851400Y-13731000D01*
X11851400Y-13701000D02*
X11821400Y-13731000D01*
X11821400Y-13751800D02*
X11851400Y-13781800D01*
X11851400Y-13751800D02*
X11821400Y-13781800D01*
X11872200Y-11059400D02*
X11902200Y-11089400D01*
X11902200Y-11059400D02*
X11872200Y-11089400D01*
X11872200Y-11135600D02*
X11902200Y-11165600D01*
X11902200Y-11135600D02*
X11872200Y-11165600D01*
X11872200Y-13650200D02*
X11902200Y-13680200D01*
X11902200Y-13650200D02*
X11872200Y-13680200D01*
X11872200Y-13701000D02*
X11902200Y-13731000D01*
X11902200Y-13701000D02*
X11872200Y-13731000D01*
X11872200Y-13751800D02*
X11902200Y-13781800D01*
X11902200Y-13751800D02*
X11872200Y-13781800D01*
X11897600Y-13167600D02*
X11927600Y-13197600D01*
X11927600Y-13167600D02*
X11897600Y-13197600D01*
X11897600Y-13218400D02*
X11927600Y-13248400D01*
X11927600Y-13218400D02*
X11897600Y-13248400D01*
X11897600Y-13269200D02*
X11927600Y-13299200D01*
X11927600Y-13269200D02*
X11897600Y-13299200D01*
X11897600Y-13320000D02*
X11927600Y-13350000D01*
X11927600Y-13320000D02*
X11897600Y-13350000D01*
X11897600Y-13370800D02*
X11927600Y-13400800D01*
X11927600Y-13370800D02*
X11897600Y-13400800D01*
X11897600Y-13421600D02*
X11927600Y-13451600D01*
X11927600Y-13421600D02*
X11897600Y-13451600D01*
X11923000Y-13650200D02*
X11953000Y-13680200D01*
X11953000Y-13650200D02*
X11923000Y-13680200D01*
X11923000Y-13701000D02*
X11953000Y-13731000D01*
X11953000Y-13701000D02*
X11923000Y-13731000D01*
X11923000Y-13751800D02*
X11953000Y-13781800D01*
X11953000Y-13751800D02*
X11923000Y-13781800D01*
X11948400Y-13167600D02*
X11978400Y-13197600D01*
X11978400Y-13167600D02*
X11948400Y-13197600D01*
X11948400Y-13218400D02*
X11978400Y-13248400D01*
X11978400Y-13218400D02*
X11948400Y-13248400D01*
X11948400Y-13269200D02*
X11978400Y-13299200D01*
X11978400Y-13269200D02*
X11948400Y-13299200D01*
X11948400Y-13320000D02*
X11978400Y-13350000D01*
X11978400Y-13320000D02*
X11948400Y-13350000D01*
X11948400Y-13370800D02*
X11978400Y-13400800D01*
X11978400Y-13370800D02*
X11948400Y-13400800D01*
X11948400Y-13421600D02*
X11978400Y-13451600D01*
X11978400Y-13421600D02*
X11948400Y-13451600D01*
X11973800Y-13650200D02*
X12003800Y-13680200D01*
X12003800Y-13650200D02*
X11973800Y-13680200D01*
X11973800Y-13701000D02*
X12003800Y-13731000D01*
X12003800Y-13701000D02*
X11973800Y-13731000D01*
X11973800Y-13751800D02*
X12003800Y-13781800D01*
X12003800Y-13751800D02*
X11973800Y-13781800D01*
X12024600Y-10322800D02*
X12054600Y-10352800D01*
X12054600Y-10322800D02*
X12024600Y-10352800D01*
X12024600Y-11262600D02*
X12054600Y-11292600D01*
X12054600Y-11262600D02*
X12024600Y-11292600D01*
X12024600Y-13650200D02*
X12054600Y-13680200D01*
X12054600Y-13650200D02*
X12024600Y-13680200D01*
X12024600Y-13701000D02*
X12054600Y-13731000D01*
X12054600Y-13701000D02*
X12024600Y-13731000D01*
X12024600Y-13751800D02*
X12054600Y-13781800D01*
X12054600Y-13751800D02*
X12024600Y-13781800D01*
X12059111Y-10462830D02*
X12089111Y-10492830D01*
X12089111Y-10462830D02*
X12059111Y-10492830D01*
X12075400Y-13650200D02*
X12105400Y-13680200D01*
X12105400Y-13650200D02*
X12075400Y-13680200D01*
X12075400Y-13701000D02*
X12105400Y-13731000D01*
X12105400Y-13701000D02*
X12075400Y-13731000D01*
X12075400Y-13751800D02*
X12105400Y-13781800D01*
X12105400Y-13751800D02*
X12075400Y-13781800D01*
X12126200Y-13650200D02*
X12156200Y-13680200D01*
X12156200Y-13650200D02*
X12126200Y-13680200D01*
X12126200Y-13701000D02*
X12156200Y-13731000D01*
X12156200Y-13701000D02*
X12126200Y-13731000D01*
X12126200Y-13751800D02*
X12156200Y-13781800D01*
X12156200Y-13751800D02*
X12126200Y-13781800D01*
X12177000Y-13650200D02*
X12207000Y-13680200D01*
X12207000Y-13650200D02*
X12177000Y-13680200D01*
X12177000Y-13701000D02*
X12207000Y-13731000D01*
X12207000Y-13701000D02*
X12177000Y-13731000D01*
X12177000Y-13751800D02*
X12207000Y-13781800D01*
X12207000Y-13751800D02*
X12177000Y-13781800D01*
X12304000Y-10475200D02*
X12334000Y-10505200D01*
X12334000Y-10475200D02*
X12304000Y-10505200D01*
X12304000Y-10703800D02*
X12334000Y-10733800D01*
X12334000Y-10703800D02*
X12304000Y-10733800D01*
X12329400Y-10145000D02*
X12359400Y-10175000D01*
X12359400Y-10145000D02*
X12329400Y-10175000D01*
X12329400Y-10881600D02*
X12359400Y-10911600D01*
X12359400Y-10881600D02*
X12329400Y-10911600D01*
X12329400Y-11008600D02*
X12359400Y-11038600D01*
X12359400Y-11008600D02*
X12329400Y-11038600D01*
X12342100Y-10081500D02*
X12372100Y-10111500D01*
X12372100Y-10081500D02*
X12342100Y-10111500D01*
X12380200Y-10754600D02*
X12410200Y-10784600D01*
X12410200Y-10754600D02*
X12380200Y-10784600D01*
X12456400Y-10424400D02*
X12486400Y-10454400D01*
X12486400Y-10424400D02*
X12456400Y-10454400D01*
X12456400Y-10957800D02*
X12486400Y-10987800D01*
X12486400Y-10957800D02*
X12456400Y-10987800D01*
X12456400Y-14513800D02*
X12486400Y-14543800D01*
X12486400Y-14513800D02*
X12456400Y-14543800D01*
X12456400Y-14564600D02*
X12486400Y-14594600D01*
X12486400Y-14564600D02*
X12456400Y-14594600D01*
X12456400Y-14615400D02*
X12486400Y-14645400D01*
X12486400Y-14615400D02*
X12456400Y-14645400D01*
X12456400Y-14666200D02*
X12486400Y-14696200D01*
X12486400Y-14666200D02*
X12456400Y-14696200D01*
X12456400Y-14717000D02*
X12486400Y-14747000D01*
X12486400Y-14717000D02*
X12456400Y-14747000D01*
X12481800Y-14463000D02*
X12511800Y-14493000D01*
X12511800Y-14463000D02*
X12481800Y-14493000D01*
X12481800Y-14767800D02*
X12511800Y-14797800D01*
X12511800Y-14767800D02*
X12481800Y-14797800D01*
X12507200Y-14513800D02*
X12537200Y-14543800D01*
X12537200Y-14513800D02*
X12507200Y-14543800D01*
X12507200Y-14717000D02*
X12537200Y-14747000D01*
X12537200Y-14717000D02*
X12507200Y-14747000D01*
X12532600Y-13497800D02*
X12562600Y-13527800D01*
X12562600Y-13497800D02*
X12532600Y-13527800D01*
X12532600Y-13904200D02*
X12562600Y-13934200D01*
X12562600Y-13904200D02*
X12532600Y-13934200D01*
X12532600Y-14463000D02*
X12562600Y-14493000D01*
X12562600Y-14463000D02*
X12532600Y-14493000D01*
X12532600Y-14590000D02*
X12562600Y-14620000D01*
X12562600Y-14590000D02*
X12532600Y-14620000D01*
X12532600Y-14640800D02*
X12562600Y-14670800D01*
X12562600Y-14640800D02*
X12532600Y-14670800D01*
X12532600Y-14767800D02*
X12562600Y-14797800D01*
X12562600Y-14767800D02*
X12532600Y-14797800D01*
X12558000Y-10119600D02*
X12588000Y-10149600D01*
X12588000Y-10119600D02*
X12558000Y-10149600D01*
X12558000Y-14513800D02*
X12588000Y-14543800D01*
X12588000Y-14513800D02*
X12558000Y-14543800D01*
X12558000Y-14717000D02*
X12588000Y-14747000D01*
X12588000Y-14717000D02*
X12558000Y-14747000D01*
X12583400Y-10424400D02*
X12613400Y-10454400D01*
X12613400Y-10424400D02*
X12583400Y-10454400D01*
X12583400Y-14463000D02*
X12613400Y-14493000D01*
X12613400Y-14463000D02*
X12583400Y-14493000D01*
X12583400Y-14590000D02*
X12613400Y-14620000D01*
X12613400Y-14590000D02*
X12583400Y-14620000D01*
X12583400Y-14640800D02*
X12613400Y-14670800D01*
X12613400Y-14640800D02*
X12583400Y-14670800D01*
X12583400Y-14767800D02*
X12613400Y-14797800D01*
X12613400Y-14767800D02*
X12583400Y-14797800D01*
X12608800Y-10805400D02*
X12638800Y-10835400D01*
X12638800Y-10805400D02*
X12608800Y-10835400D01*
X12608800Y-14513800D02*
X12638800Y-14543800D01*
X12638800Y-14513800D02*
X12608800Y-14543800D01*
X12608800Y-14717000D02*
X12638800Y-14747000D01*
X12638800Y-14717000D02*
X12608800Y-14747000D01*
X12634200Y-14463000D02*
X12664200Y-14493000D01*
X12664200Y-14463000D02*
X12634200Y-14493000D01*
X12634200Y-14767800D02*
X12664200Y-14797800D01*
X12664200Y-14767800D02*
X12634200Y-14797800D01*
X12659600Y-14513800D02*
X12689600Y-14543800D01*
X12689600Y-14513800D02*
X12659600Y-14543800D01*
X12685000Y-14463000D02*
X12715000Y-14493000D01*
X12715000Y-14463000D02*
X12685000Y-14493000D01*
X12685000Y-14767800D02*
X12715000Y-14797800D01*
X12715000Y-14767800D02*
X12685000Y-14797800D01*
X12710400Y-14513800D02*
X12740400Y-14543800D01*
X12740400Y-14513800D02*
X12710400Y-14543800D01*
X12718124Y-8276451D02*
X12748124Y-8306451D01*
X12748124Y-8276451D02*
X12718124Y-8306451D01*
X12735800Y-8140800D02*
X12765800Y-8170800D01*
X12765800Y-8140800D02*
X12735800Y-8170800D01*
X12761200Y-14513800D02*
X12791200Y-14543800D01*
X12791200Y-14513800D02*
X12761200Y-14543800D01*
X12786600Y-10957800D02*
X12816600Y-10987800D01*
X12816600Y-10957800D02*
X12786600Y-10987800D01*
X12812000Y-14513800D02*
X12842000Y-14543800D01*
X12842000Y-14513800D02*
X12812000Y-14543800D01*
X12837400Y-12862800D02*
X12867400Y-12892800D01*
X12867400Y-12862800D02*
X12837400Y-12892800D01*
X12837400Y-14463000D02*
X12867400Y-14493000D01*
X12867400Y-14463000D02*
X12837400Y-14493000D01*
X12862800Y-14513800D02*
X12892800Y-14543800D01*
X12892800Y-14513800D02*
X12862800Y-14543800D01*
X12888200Y-8648800D02*
X12918200Y-8678800D01*
X12918200Y-8648800D02*
X12888200Y-8678800D01*
X12888200Y-10526000D02*
X12918200Y-10556000D01*
X12918200Y-10526000D02*
X12888200Y-10556000D01*
X12900100Y-12100800D02*
X12930100Y-12130800D01*
X12930100Y-12100800D02*
X12900100Y-12130800D01*
X12913600Y-11034000D02*
X12943600Y-11064000D01*
X12943600Y-11034000D02*
X12913600Y-11064000D01*
X12939000Y-11338800D02*
X12969000Y-11368800D01*
X12969000Y-11338800D02*
X12939000Y-11368800D01*
X13015200Y-12608800D02*
X13045200Y-12638800D01*
X13045200Y-12608800D02*
X13015200Y-12638800D01*
X13066000Y-11841900D02*
X13096000Y-11871900D01*
X13096000Y-11841900D02*
X13066000Y-11871900D01*
X13066000Y-14234400D02*
X13096000Y-14264400D01*
X13096000Y-14234400D02*
X13066000Y-14264400D01*
X13091400Y-11110200D02*
X13121400Y-11140200D01*
X13121400Y-11110200D02*
X13091400Y-11140200D01*
X13091400Y-11364200D02*
X13121400Y-11394200D01*
X13121400Y-11364200D02*
X13091400Y-11394200D01*
X13116800Y-8140800D02*
X13146800Y-8170800D01*
X13146800Y-8140800D02*
X13116800Y-8170800D01*
X13116800Y-14132800D02*
X13146800Y-14162800D01*
X13146800Y-14132800D02*
X13116800Y-14162800D01*
X13116800Y-14667500D02*
X13146800Y-14697500D01*
X13146800Y-14667500D02*
X13116800Y-14697500D01*
X13142200Y-12253200D02*
X13172200Y-12283200D01*
X13172200Y-12253200D02*
X13142200Y-12283200D01*
X13218400Y-12126200D02*
X13248400Y-12156200D01*
X13248400Y-12126200D02*
X13218400Y-12156200D01*
X13243800Y-7912200D02*
X13273800Y-7942200D01*
X13273800Y-7912200D02*
X13243800Y-7942200D01*
X13243800Y-7963000D02*
X13273800Y-7993000D01*
X13273800Y-7963000D02*
X13243800Y-7993000D01*
X13294600Y-7912200D02*
X13324600Y-7942200D01*
X13324600Y-7912200D02*
X13294600Y-7942200D01*
X13294600Y-7963000D02*
X13324600Y-7993000D01*
X13324600Y-7963000D02*
X13294600Y-7993000D01*
X13396200Y-11745200D02*
X13426200Y-11775200D01*
X13426200Y-11745200D02*
X13396200Y-11775200D01*
X13396200Y-12380200D02*
X13426200Y-12410200D01*
X13426200Y-12380200D02*
X13396200Y-12410200D01*
X13421600Y-11841900D02*
X13451600Y-11871900D01*
X13451600Y-11841900D02*
X13421600Y-11871900D01*
X13447000Y-7912200D02*
X13477000Y-7942200D01*
X13477000Y-7912200D02*
X13447000Y-7942200D01*
X13447000Y-7963000D02*
X13477000Y-7993000D01*
X13477000Y-7963000D02*
X13447000Y-7993000D01*
X13472400Y-8653930D02*
X13502400Y-8683930D01*
X13502400Y-8653930D02*
X13472400Y-8683930D01*
X13472400Y-12456400D02*
X13502400Y-12486400D01*
X13502400Y-12456400D02*
X13472400Y-12486400D01*
X13497800Y-7912200D02*
X13527800Y-7942200D01*
X13527800Y-7912200D02*
X13497800Y-7942200D01*
X13497800Y-7963000D02*
X13527800Y-7993000D01*
X13527800Y-7963000D02*
X13497800Y-7993000D01*
X13497800Y-11948400D02*
X13527800Y-11978400D01*
X13527800Y-11948400D02*
X13497800Y-11978400D01*
X13548600Y-7912200D02*
X13578600Y-7942200D01*
X13578600Y-7912200D02*
X13548600Y-7942200D01*
X13548600Y-7963000D02*
X13578600Y-7993000D01*
X13578600Y-7963000D02*
X13548600Y-7993000D01*
X13548600Y-14412200D02*
X13578600Y-14442200D01*
X13578600Y-14412200D02*
X13548600Y-14442200D01*
X13624800Y-8369400D02*
X13654800Y-8399400D01*
X13654800Y-8369400D02*
X13624800Y-8399400D01*
X13650200Y-14445530D02*
X13680200Y-14475530D01*
X13680200Y-14445530D02*
X13650200Y-14475530D01*
X13675600Y-10475200D02*
X13705600Y-10505200D01*
X13705600Y-10475200D02*
X13675600Y-10505200D01*
X13675600Y-11719800D02*
X13705600Y-11749800D01*
X13705600Y-11719800D02*
X13675600Y-11749800D01*
X13675600Y-14615400D02*
X13705600Y-14645400D01*
X13705600Y-14615400D02*
X13675600Y-14645400D01*
X13701000Y-7912200D02*
X13731000Y-7942200D01*
X13731000Y-7912200D02*
X13701000Y-7942200D01*
X13701000Y-7963000D02*
X13731000Y-7993000D01*
X13731000Y-7963000D02*
X13701000Y-7993000D01*
X13725951Y-14666202D02*
X13755951Y-14696202D01*
X13755951Y-14666202D02*
X13725951Y-14696202D01*
X13726400Y-14209000D02*
X13756400Y-14239000D01*
X13756400Y-14209000D02*
X13726400Y-14239000D01*
X13751800Y-7912200D02*
X13781800Y-7942200D01*
X13781800Y-7912200D02*
X13751800Y-7942200D01*
X13751800Y-7963000D02*
X13781800Y-7993000D01*
X13781800Y-7963000D02*
X13751800Y-7993000D01*
X13751800Y-11465800D02*
X13781800Y-11495800D01*
X13781800Y-11465800D02*
X13751800Y-11495800D01*
X13802600Y-7912200D02*
X13832600Y-7942200D01*
X13832600Y-7912200D02*
X13802600Y-7942200D01*
X13802600Y-7963000D02*
X13832600Y-7993000D01*
X13832600Y-7963000D02*
X13802600Y-7993000D01*
X13853400Y-11491200D02*
X13883400Y-11521200D01*
X13883400Y-11491200D02*
X13853400Y-11521200D01*
X13911920Y-11542000D02*
X13941920Y-11572000D01*
X13941920Y-11542000D02*
X13911920Y-11572000D01*
X13929600Y-12507200D02*
X13959600Y-12537200D01*
X13959600Y-12507200D02*
X13929600Y-12537200D01*
X13955000Y-7963000D02*
X13985000Y-7993000D01*
X13985000Y-7963000D02*
X13955000Y-7993000D01*
X13955000Y-8013800D02*
X13985000Y-8043800D01*
X13985000Y-8013800D02*
X13955000Y-8043800D01*
X13955000Y-8064600D02*
X13985000Y-8094600D01*
X13985000Y-8064600D02*
X13955000Y-8094600D01*
X13955000Y-8115400D02*
X13985000Y-8145400D01*
X13985000Y-8115400D02*
X13955000Y-8145400D01*
X13955000Y-8166200D02*
X13985000Y-8196200D01*
X13985000Y-8166200D02*
X13955000Y-8196200D01*
X13955000Y-8217000D02*
X13985000Y-8247000D01*
X13985000Y-8217000D02*
X13955000Y-8247000D01*
X13955000Y-8267800D02*
X13985000Y-8297800D01*
X13985000Y-8267800D02*
X13955000Y-8297800D01*
X13967700Y-13967700D02*
X13997700Y-13997700D01*
X13997700Y-13967700D02*
X13967700Y-13997700D01*
X13980400Y-8725000D02*
X14010400Y-8755000D01*
X14010400Y-8725000D02*
X13980400Y-8755000D01*
X14005800Y-7963000D02*
X14035800Y-7993000D01*
X14035800Y-7963000D02*
X14005800Y-7993000D01*
X14005800Y-8013800D02*
X14035800Y-8043800D01*
X14035800Y-8013800D02*
X14005800Y-8043800D01*
X14005800Y-8064600D02*
X14035800Y-8094600D01*
X14035800Y-8064600D02*
X14005800Y-8094600D01*
X14005800Y-8115400D02*
X14035800Y-8145400D01*
X14035800Y-8115400D02*
X14005800Y-8145400D01*
X14005800Y-8166200D02*
X14035800Y-8196200D01*
X14035800Y-8166200D02*
X14005800Y-8196200D01*
X14005800Y-8217000D02*
X14035800Y-8247000D01*
X14035800Y-8217000D02*
X14005800Y-8247000D01*
X14005800Y-8267800D02*
X14035800Y-8297800D01*
X14035800Y-8267800D02*
X14005800Y-8297800D01*
X14005800Y-12329400D02*
X14035800Y-12359400D01*
X14035800Y-12329400D02*
X14005800Y-12359400D01*
X14031200Y-14640800D02*
X14061200Y-14670800D01*
X14061200Y-14640800D02*
X14031200Y-14670800D01*
X14056600Y-7963000D02*
X14086600Y-7993000D01*
X14086600Y-7963000D02*
X14056600Y-7993000D01*
X14056600Y-8013800D02*
X14086600Y-8043800D01*
X14086600Y-8013800D02*
X14056600Y-8043800D01*
X14056600Y-8064600D02*
X14086600Y-8094600D01*
X14086600Y-8064600D02*
X14056600Y-8094600D01*
X14056600Y-8115400D02*
X14086600Y-8145400D01*
X14086600Y-8115400D02*
X14056600Y-8145400D01*
X14056600Y-8166200D02*
X14086600Y-8196200D01*
X14086600Y-8166200D02*
X14056600Y-8196200D01*
X14056600Y-8217000D02*
X14086600Y-8247000D01*
X14086600Y-8217000D02*
X14056600Y-8247000D01*
X14056600Y-8267800D02*
X14086600Y-8297800D01*
X14086600Y-8267800D02*
X14056600Y-8297800D01*
X14082000Y-11762670D02*
X14112000Y-11792670D01*
X14112000Y-11762670D02*
X14082000Y-11792670D01*
X14107400Y-7963000D02*
X14137400Y-7993000D01*
X14137400Y-7963000D02*
X14107400Y-7993000D01*
X14107400Y-8013800D02*
X14137400Y-8043800D01*
X14137400Y-8013800D02*
X14107400Y-8043800D01*
X14107400Y-8064600D02*
X14137400Y-8094600D01*
X14137400Y-8064600D02*
X14107400Y-8094600D01*
X14107400Y-8115400D02*
X14137400Y-8145400D01*
X14137400Y-8115400D02*
X14107400Y-8145400D01*
X14107400Y-8166200D02*
X14137400Y-8196200D01*
X14137400Y-8166200D02*
X14107400Y-8196200D01*
X14107400Y-8217000D02*
X14137400Y-8247000D01*
X14137400Y-8217000D02*
X14107400Y-8247000D01*
X14107400Y-8267800D02*
X14137400Y-8297800D01*
X14137400Y-8267800D02*
X14107400Y-8297800D01*
X14107400Y-11059400D02*
X14137400Y-11089400D01*
X14137400Y-11059400D02*
X14107400Y-11089400D01*
X14107400Y-14590000D02*
X14137400Y-14620000D01*
X14137400Y-14590000D02*
X14107400Y-14620000D01*
X14132800Y-12075400D02*
X14162800Y-12105400D01*
X14162800Y-12075400D02*
X14132800Y-12105400D01*
X14158200Y-14564600D02*
X14188200Y-14594600D01*
X14188200Y-14564600D02*
X14158200Y-14594600D01*
X14158200Y-14615400D02*
X14188200Y-14645400D01*
X14188200Y-14615400D02*
X14158200Y-14645400D01*
X14158200Y-14666200D02*
X14188200Y-14696200D01*
X14188200Y-14666200D02*
X14158200Y-14696200D01*
X14175191Y-13649458D02*
X14205191Y-13679458D01*
X14205191Y-13649458D02*
X14175191Y-13679458D01*
X14183600Y-8496400D02*
X14213600Y-8526400D01*
X14213600Y-8496400D02*
X14183600Y-8526400D01*
X14209000Y-14615400D02*
X14239000Y-14645400D01*
X14239000Y-14615400D02*
X14209000Y-14645400D01*
X14209000Y-14666200D02*
X14239000Y-14696200D01*
X14239000Y-14666200D02*
X14209000Y-14696200D01*
X14234400Y-8496400D02*
X14264400Y-8526400D01*
X14264400Y-8496400D02*
X14234400Y-8526400D01*
X14234400Y-11773450D02*
X14264400Y-11803450D01*
X14264400Y-11773450D02*
X14234400Y-11803450D01*
X14234400Y-12329400D02*
X14264400Y-12359400D01*
X14264400Y-12329400D02*
X14234400Y-12359400D01*
X14259800Y-12888200D02*
X14289800Y-12918200D01*
X14289800Y-12888200D02*
X14259800Y-12918200D01*
X14285200Y-11592800D02*
X14315200Y-11622800D01*
X14315200Y-11592800D02*
X14285200Y-11622800D01*
X14285200Y-14590000D02*
X14315200Y-14620000D01*
X14315200Y-14590000D02*
X14285200Y-14620000D01*
X14310600Y-7378800D02*
X14340600Y-7408800D01*
X14340600Y-7378800D02*
X14310600Y-7408800D01*
X14310600Y-7419440D02*
X14340600Y-7449440D01*
X14340600Y-7419440D02*
X14310600Y-7449440D01*
X14310600Y-7460080D02*
X14340600Y-7490080D01*
X14340600Y-7460080D02*
X14310600Y-7490080D01*
X14310600Y-7500720D02*
X14340600Y-7530720D01*
X14340600Y-7500720D02*
X14310600Y-7530720D01*
X14310600Y-7541360D02*
X14340600Y-7571360D01*
X14340600Y-7541360D02*
X14310600Y-7571360D01*
X14310600Y-7582000D02*
X14340600Y-7612000D01*
X14340600Y-7582000D02*
X14310600Y-7612000D01*
X14310600Y-7622640D02*
X14340600Y-7652640D01*
X14340600Y-7622640D02*
X14310600Y-7652640D01*
X14310600Y-7663280D02*
X14340600Y-7693280D01*
X14340600Y-7663280D02*
X14310600Y-7693280D01*
X14310600Y-7703920D02*
X14340600Y-7733920D01*
X14340600Y-7703920D02*
X14310600Y-7733920D01*
X14310600Y-7744560D02*
X14340600Y-7774560D01*
X14340600Y-7744560D02*
X14310600Y-7774560D01*
X14310600Y-7785200D02*
X14340600Y-7815200D01*
X14340600Y-7785200D02*
X14310600Y-7815200D01*
X14310600Y-7825840D02*
X14340600Y-7855840D01*
X14340600Y-7825840D02*
X14310600Y-7855840D01*
X14310600Y-10348200D02*
X14340600Y-10378200D01*
X14340600Y-10348200D02*
X14310600Y-10378200D01*
X14310600Y-11770600D02*
X14340600Y-11800600D01*
X14340600Y-11770600D02*
X14310600Y-11800600D01*
X14310600Y-14488400D02*
X14340600Y-14518400D01*
X14340600Y-14488400D02*
X14310600Y-14518400D01*
X14310600Y-14539200D02*
X14340600Y-14569200D01*
X14340600Y-14539200D02*
X14310600Y-14569200D01*
X14310600Y-14640800D02*
X14340600Y-14670800D01*
X14340600Y-14640800D02*
X14310600Y-14670800D01*
X14351240Y-7378800D02*
X14381240Y-7408800D01*
X14381240Y-7378800D02*
X14351240Y-7408800D01*
X14351240Y-7419440D02*
X14381240Y-7449440D01*
X14381240Y-7419440D02*
X14351240Y-7449440D01*
X14351240Y-7460080D02*
X14381240Y-7490080D01*
X14381240Y-7460080D02*
X14351240Y-7490080D01*
X14351240Y-7500720D02*
X14381240Y-7530720D01*
X14381240Y-7500720D02*
X14351240Y-7530720D01*
X14351240Y-7541360D02*
X14381240Y-7571360D01*
X14381240Y-7541360D02*
X14351240Y-7571360D01*
X14351240Y-7582000D02*
X14381240Y-7612000D01*
X14381240Y-7582000D02*
X14351240Y-7612000D01*
X14351240Y-7622640D02*
X14381240Y-7652640D01*
X14381240Y-7622640D02*
X14351240Y-7652640D01*
X14351240Y-7663280D02*
X14381240Y-7693280D01*
X14381240Y-7663280D02*
X14351240Y-7693280D01*
X14351240Y-7703920D02*
X14381240Y-7733920D01*
X14381240Y-7703920D02*
X14351240Y-7733920D01*
X14351240Y-7744560D02*
X14381240Y-7774560D01*
X14381240Y-7744560D02*
X14351240Y-7774560D01*
X14351240Y-7785200D02*
X14381240Y-7815200D01*
X14381240Y-7785200D02*
X14351240Y-7815200D01*
X14351240Y-7825840D02*
X14381240Y-7855840D01*
X14381240Y-7825840D02*
X14351240Y-7855840D01*
X14361400Y-14488400D02*
X14391400Y-14518400D01*
X14391400Y-14488400D02*
X14361400Y-14518400D01*
X14361400Y-14539200D02*
X14391400Y-14569200D01*
X14391400Y-14539200D02*
X14361400Y-14569200D01*
X14361400Y-14590000D02*
X14391400Y-14620000D01*
X14391400Y-14590000D02*
X14361400Y-14620000D01*
X14361400Y-14640800D02*
X14391400Y-14670800D01*
X14391400Y-14640800D02*
X14361400Y-14670800D01*
X14386800Y-11752670D02*
X14416800Y-11782670D01*
X14416800Y-11752670D02*
X14386800Y-11782670D01*
X14391880Y-7378800D02*
X14421880Y-7408800D01*
X14421880Y-7378800D02*
X14391880Y-7408800D01*
X14391880Y-7419440D02*
X14421880Y-7449440D01*
X14421880Y-7419440D02*
X14391880Y-7449440D01*
X14391880Y-7460080D02*
X14421880Y-7490080D01*
X14421880Y-7460080D02*
X14391880Y-7490080D01*
X14391880Y-7500720D02*
X14421880Y-7530720D01*
X14421880Y-7500720D02*
X14391880Y-7530720D01*
X14391880Y-7541360D02*
X14421880Y-7571360D01*
X14421880Y-7541360D02*
X14391880Y-7571360D01*
X14391880Y-7582000D02*
X14421880Y-7612000D01*
X14421880Y-7582000D02*
X14391880Y-7612000D01*
X14391880Y-7622640D02*
X14421880Y-7652640D01*
X14421880Y-7622640D02*
X14391880Y-7652640D01*
X14391880Y-7663280D02*
X14421880Y-7693280D01*
X14421880Y-7663280D02*
X14391880Y-7693280D01*
X14391880Y-7703920D02*
X14421880Y-7733920D01*
X14421880Y-7703920D02*
X14391880Y-7733920D01*
X14391880Y-7744560D02*
X14421880Y-7774560D01*
X14421880Y-7744560D02*
X14391880Y-7774560D01*
X14391880Y-7785200D02*
X14421880Y-7815200D01*
X14421880Y-7785200D02*
X14391880Y-7815200D01*
X14391880Y-7825840D02*
X14421880Y-7855840D01*
X14421880Y-7825840D02*
X14391880Y-7855840D01*
X14412200Y-13421600D02*
X14442200Y-13451600D01*
X14442200Y-13421600D02*
X14412200Y-13451600D01*
X14412200Y-14488400D02*
X14442200Y-14518400D01*
X14442200Y-14488400D02*
X14412200Y-14518400D01*
X14412200Y-14539200D02*
X14442200Y-14569200D01*
X14442200Y-14539200D02*
X14412200Y-14569200D01*
X14412200Y-14640800D02*
X14442200Y-14670800D01*
X14442200Y-14640800D02*
X14412200Y-14670800D01*
X14432520Y-7378800D02*
X14462520Y-7408800D01*
X14462520Y-7378800D02*
X14432520Y-7408800D01*
X14432520Y-7419440D02*
X14462520Y-7449440D01*
X14462520Y-7419440D02*
X14432520Y-7449440D01*
X14432520Y-7460080D02*
X14462520Y-7490080D01*
X14462520Y-7460080D02*
X14432520Y-7490080D01*
X14432520Y-7500720D02*
X14462520Y-7530720D01*
X14462520Y-7500720D02*
X14432520Y-7530720D01*
X14432520Y-7541360D02*
X14462520Y-7571360D01*
X14462520Y-7541360D02*
X14432520Y-7571360D01*
X14432520Y-7582000D02*
X14462520Y-7612000D01*
X14462520Y-7582000D02*
X14432520Y-7612000D01*
X14432520Y-7622640D02*
X14462520Y-7652640D01*
X14462520Y-7622640D02*
X14432520Y-7652640D01*
X14432520Y-7663280D02*
X14462520Y-7693280D01*
X14462520Y-7663280D02*
X14432520Y-7693280D01*
X14432520Y-7703920D02*
X14462520Y-7733920D01*
X14462520Y-7703920D02*
X14432520Y-7733920D01*
X14432520Y-7744560D02*
X14462520Y-7774560D01*
X14462520Y-7744560D02*
X14432520Y-7774560D01*
X14432520Y-7785200D02*
X14462520Y-7815200D01*
X14462520Y-7785200D02*
X14432520Y-7815200D01*
X14432520Y-7825840D02*
X14462520Y-7855840D01*
X14462520Y-7825840D02*
X14432520Y-7855840D01*
X14437600Y-14590000D02*
X14467600Y-14620000D01*
X14467600Y-14590000D02*
X14437600Y-14620000D01*
X14461700Y-8953600D02*
X14491700Y-8983600D01*
X14491700Y-8953600D02*
X14461700Y-8983600D01*
X14463000Y-12558000D02*
X14493000Y-12588000D01*
X14493000Y-12558000D02*
X14463000Y-12588000D01*
X14463000Y-12939000D02*
X14493000Y-12969000D01*
X14493000Y-12939000D02*
X14463000Y-12969000D01*
X14473160Y-7378800D02*
X14503160Y-7408800D01*
X14503160Y-7378800D02*
X14473160Y-7408800D01*
X14473160Y-7419440D02*
X14503160Y-7449440D01*
X14503160Y-7419440D02*
X14473160Y-7449440D01*
X14473160Y-7460080D02*
X14503160Y-7490080D01*
X14503160Y-7460080D02*
X14473160Y-7490080D01*
X14473160Y-7500720D02*
X14503160Y-7530720D01*
X14503160Y-7500720D02*
X14473160Y-7530720D01*
X14473160Y-7541360D02*
X14503160Y-7571360D01*
X14503160Y-7541360D02*
X14473160Y-7571360D01*
X14473160Y-7582000D02*
X14503160Y-7612000D01*
X14503160Y-7582000D02*
X14473160Y-7612000D01*
X14473160Y-7622640D02*
X14503160Y-7652640D01*
X14503160Y-7622640D02*
X14473160Y-7652640D01*
X14473160Y-7663280D02*
X14503160Y-7693280D01*
X14503160Y-7663280D02*
X14473160Y-7693280D01*
X14473160Y-7703920D02*
X14503160Y-7733920D01*
X14503160Y-7703920D02*
X14473160Y-7733920D01*
X14473160Y-7744560D02*
X14503160Y-7774560D01*
X14503160Y-7744560D02*
X14473160Y-7774560D01*
X14473160Y-7785200D02*
X14503160Y-7815200D01*
X14503160Y-7785200D02*
X14473160Y-7815200D01*
X14473160Y-7825840D02*
X14503160Y-7855840D01*
X14503160Y-7825840D02*
X14473160Y-7855840D01*
X14488400Y-13243800D02*
X14518400Y-13273800D01*
X14518400Y-13243800D02*
X14488400Y-13273800D01*
X14513800Y-7378800D02*
X14543800Y-7408800D01*
X14543800Y-7378800D02*
X14513800Y-7408800D01*
X14513800Y-7419440D02*
X14543800Y-7449440D01*
X14543800Y-7419440D02*
X14513800Y-7449440D01*
X14513800Y-7460080D02*
X14543800Y-7490080D01*
X14543800Y-7460080D02*
X14513800Y-7490080D01*
X14513800Y-7500720D02*
X14543800Y-7530720D01*
X14543800Y-7500720D02*
X14513800Y-7530720D01*
X14513800Y-7541360D02*
X14543800Y-7571360D01*
X14543800Y-7541360D02*
X14513800Y-7571360D01*
X14513800Y-7582000D02*
X14543800Y-7612000D01*
X14543800Y-7582000D02*
X14513800Y-7612000D01*
X14513800Y-7622640D02*
X14543800Y-7652640D01*
X14543800Y-7622640D02*
X14513800Y-7652640D01*
X14513800Y-7663280D02*
X14543800Y-7693280D01*
X14543800Y-7663280D02*
X14513800Y-7693280D01*
X14513800Y-7703920D02*
X14543800Y-7733920D01*
X14543800Y-7703920D02*
X14513800Y-7733920D01*
X14513800Y-7744560D02*
X14543800Y-7774560D01*
X14543800Y-7744560D02*
X14513800Y-7774560D01*
X14513800Y-7785200D02*
X14543800Y-7815200D01*
X14543800Y-7785200D02*
X14513800Y-7815200D01*
X14513800Y-7825840D02*
X14543800Y-7855840D01*
X14543800Y-7825840D02*
X14513800Y-7855840D01*
X14537900Y-11110200D02*
X14567900Y-11140200D01*
X14567900Y-11110200D02*
X14537900Y-11140200D01*
X14539200Y-7963000D02*
X14569200Y-7993000D01*
X14569200Y-7963000D02*
X14539200Y-7993000D01*
X14539200Y-8013800D02*
X14569200Y-8043800D01*
X14569200Y-8013800D02*
X14539200Y-8043800D01*
X14539200Y-8064600D02*
X14569200Y-8094600D01*
X14569200Y-8064600D02*
X14539200Y-8094600D01*
X14539200Y-8115400D02*
X14569200Y-8145400D01*
X14569200Y-8115400D02*
X14539200Y-8145400D01*
X14539200Y-8166200D02*
X14569200Y-8196200D01*
X14569200Y-8166200D02*
X14539200Y-8196200D01*
X14539200Y-8217000D02*
X14569200Y-8247000D01*
X14569200Y-8217000D02*
X14539200Y-8247000D01*
X14539200Y-8267800D02*
X14569200Y-8297800D01*
X14569200Y-8267800D02*
X14539200Y-8297800D01*
X14539200Y-10932400D02*
X14569200Y-10962400D01*
X14569200Y-10932400D02*
X14539200Y-10962400D01*
X14539200Y-14564600D02*
X14569200Y-14594600D01*
X14569200Y-14564600D02*
X14539200Y-14594600D01*
X14539200Y-14615400D02*
X14569200Y-14645400D01*
X14569200Y-14615400D02*
X14539200Y-14645400D01*
X14539200Y-14666200D02*
X14569200Y-14696200D01*
X14569200Y-14666200D02*
X14539200Y-14696200D01*
X14554440Y-7378800D02*
X14584440Y-7408800D01*
X14584440Y-7378800D02*
X14554440Y-7408800D01*
X14554440Y-7419440D02*
X14584440Y-7449440D01*
X14584440Y-7419440D02*
X14554440Y-7449440D01*
X14554440Y-7460080D02*
X14584440Y-7490080D01*
X14584440Y-7460080D02*
X14554440Y-7490080D01*
X14554440Y-7500720D02*
X14584440Y-7530720D01*
X14584440Y-7500720D02*
X14554440Y-7530720D01*
X14554440Y-7541360D02*
X14584440Y-7571360D01*
X14584440Y-7541360D02*
X14554440Y-7571360D01*
X14554440Y-7582000D02*
X14584440Y-7612000D01*
X14584440Y-7582000D02*
X14554440Y-7612000D01*
X14554440Y-7622640D02*
X14584440Y-7652640D01*
X14584440Y-7622640D02*
X14554440Y-7652640D01*
X14554440Y-7663280D02*
X14584440Y-7693280D01*
X14584440Y-7663280D02*
X14554440Y-7693280D01*
X14554440Y-7703920D02*
X14584440Y-7733920D01*
X14584440Y-7703920D02*
X14554440Y-7733920D01*
X14554440Y-7744560D02*
X14584440Y-7774560D01*
X14584440Y-7744560D02*
X14554440Y-7774560D01*
X14554440Y-7785200D02*
X14584440Y-7815200D01*
X14584440Y-7785200D02*
X14554440Y-7815200D01*
X14554440Y-7825840D02*
X14584440Y-7855840D01*
X14584440Y-7825840D02*
X14554440Y-7855840D01*
X14590000Y-7963000D02*
X14620000Y-7993000D01*
X14620000Y-7963000D02*
X14590000Y-7993000D01*
X14590000Y-8013800D02*
X14620000Y-8043800D01*
X14620000Y-8013800D02*
X14590000Y-8043800D01*
X14590000Y-8064600D02*
X14620000Y-8094600D01*
X14620000Y-8064600D02*
X14590000Y-8094600D01*
X14590000Y-8115400D02*
X14620000Y-8145400D01*
X14620000Y-8115400D02*
X14590000Y-8145400D01*
X14590000Y-8166200D02*
X14620000Y-8196200D01*
X14620000Y-8166200D02*
X14590000Y-8196200D01*
X14590000Y-8217000D02*
X14620000Y-8247000D01*
X14620000Y-8217000D02*
X14590000Y-8247000D01*
X14590000Y-8267800D02*
X14620000Y-8297800D01*
X14620000Y-8267800D02*
X14590000Y-8297800D01*
X14590000Y-12695200D02*
X14620000Y-12725200D01*
X14620000Y-12695200D02*
X14590000Y-12725200D01*
X14595080Y-7378800D02*
X14625080Y-7408800D01*
X14625080Y-7378800D02*
X14595080Y-7408800D01*
X14595080Y-7419440D02*
X14625080Y-7449440D01*
X14625080Y-7419440D02*
X14595080Y-7449440D01*
X14595080Y-7460080D02*
X14625080Y-7490080D01*
X14625080Y-7460080D02*
X14595080Y-7490080D01*
X14595080Y-7500720D02*
X14625080Y-7530720D01*
X14625080Y-7500720D02*
X14595080Y-7530720D01*
X14595080Y-7541360D02*
X14625080Y-7571360D01*
X14625080Y-7541360D02*
X14595080Y-7571360D01*
X14595080Y-7582000D02*
X14625080Y-7612000D01*
X14625080Y-7582000D02*
X14595080Y-7612000D01*
X14595080Y-7622640D02*
X14625080Y-7652640D01*
X14625080Y-7622640D02*
X14595080Y-7652640D01*
X14595080Y-7663280D02*
X14625080Y-7693280D01*
X14625080Y-7663280D02*
X14595080Y-7693280D01*
X14595080Y-7703920D02*
X14625080Y-7733920D01*
X14625080Y-7703920D02*
X14595080Y-7733920D01*
X14595080Y-7744560D02*
X14625080Y-7774560D01*
X14625080Y-7744560D02*
X14595080Y-7774560D01*
X14595080Y-7785200D02*
X14625080Y-7815200D01*
X14625080Y-7785200D02*
X14595080Y-7815200D01*
X14595080Y-7825840D02*
X14625080Y-7855840D01*
X14625080Y-7825840D02*
X14595080Y-7855840D01*
X14606650Y-11683470D02*
X14636650Y-11713470D01*
X14636650Y-11683470D02*
X14606650Y-11713470D01*
X14615400Y-13294600D02*
X14645400Y-13324600D01*
X14645400Y-13294600D02*
X14615400Y-13324600D01*
X14635720Y-7378800D02*
X14665720Y-7408800D01*
X14665720Y-7378800D02*
X14635720Y-7408800D01*
X14635720Y-7419440D02*
X14665720Y-7449440D01*
X14665720Y-7419440D02*
X14635720Y-7449440D01*
X14635720Y-7460080D02*
X14665720Y-7490080D01*
X14665720Y-7460080D02*
X14635720Y-7490080D01*
X14635720Y-7500720D02*
X14665720Y-7530720D01*
X14665720Y-7500720D02*
X14635720Y-7530720D01*
X14635720Y-7541360D02*
X14665720Y-7571360D01*
X14665720Y-7541360D02*
X14635720Y-7571360D01*
X14635720Y-7582000D02*
X14665720Y-7612000D01*
X14665720Y-7582000D02*
X14635720Y-7612000D01*
X14635720Y-7622640D02*
X14665720Y-7652640D01*
X14665720Y-7622640D02*
X14635720Y-7652640D01*
X14635720Y-7663280D02*
X14665720Y-7693280D01*
X14665720Y-7663280D02*
X14635720Y-7693280D01*
X14635720Y-7703920D02*
X14665720Y-7733920D01*
X14665720Y-7703920D02*
X14635720Y-7733920D01*
X14635720Y-7744560D02*
X14665720Y-7774560D01*
X14665720Y-7744560D02*
X14635720Y-7774560D01*
X14635720Y-7785200D02*
X14665720Y-7815200D01*
X14665720Y-7785200D02*
X14635720Y-7815200D01*
X14635720Y-7825840D02*
X14665720Y-7855840D01*
X14665720Y-7825840D02*
X14635720Y-7855840D01*
X14640800Y-7963000D02*
X14670800Y-7993000D01*
X14670800Y-7963000D02*
X14640800Y-7993000D01*
X14640800Y-8013800D02*
X14670800Y-8043800D01*
X14670800Y-8013800D02*
X14640800Y-8043800D01*
X14640800Y-8064600D02*
X14670800Y-8094600D01*
X14670800Y-8064600D02*
X14640800Y-8094600D01*
X14640800Y-8115400D02*
X14670800Y-8145400D01*
X14670800Y-8115400D02*
X14640800Y-8145400D01*
X14640800Y-8166200D02*
X14670800Y-8196200D01*
X14670800Y-8166200D02*
X14640800Y-8196200D01*
X14640800Y-8217000D02*
X14670800Y-8247000D01*
X14670800Y-8217000D02*
X14640800Y-8247000D01*
X14640800Y-8267800D02*
X14670800Y-8297800D01*
X14670800Y-8267800D02*
X14640800Y-8297800D01*
X14676360Y-7378800D02*
X14706360Y-7408800D01*
X14706360Y-7378800D02*
X14676360Y-7408800D01*
X14676360Y-7419440D02*
X14706360Y-7449440D01*
X14706360Y-7419440D02*
X14676360Y-7449440D01*
X14676360Y-7460080D02*
X14706360Y-7490080D01*
X14706360Y-7460080D02*
X14676360Y-7490080D01*
X14676360Y-7500720D02*
X14706360Y-7530720D01*
X14706360Y-7500720D02*
X14676360Y-7530720D01*
X14676360Y-7541360D02*
X14706360Y-7571360D01*
X14706360Y-7541360D02*
X14676360Y-7571360D01*
X14676360Y-7582000D02*
X14706360Y-7612000D01*
X14706360Y-7582000D02*
X14676360Y-7612000D01*
X14676360Y-7622640D02*
X14706360Y-7652640D01*
X14706360Y-7622640D02*
X14676360Y-7652640D01*
X14676360Y-7663280D02*
X14706360Y-7693280D01*
X14706360Y-7663280D02*
X14676360Y-7693280D01*
X14676360Y-7703920D02*
X14706360Y-7733920D01*
X14706360Y-7703920D02*
X14676360Y-7733920D01*
X14676360Y-7744560D02*
X14706360Y-7774560D01*
X14706360Y-7744560D02*
X14676360Y-7774560D01*
X14676360Y-7785200D02*
X14706360Y-7815200D01*
X14706360Y-7785200D02*
X14676360Y-7815200D01*
X14676360Y-7825840D02*
X14706360Y-7855840D01*
X14706360Y-7825840D02*
X14676360Y-7855840D01*
X14691600Y-7963000D02*
X14721600Y-7993000D01*
X14721600Y-7963000D02*
X14691600Y-7993000D01*
X14691600Y-8013800D02*
X14721600Y-8043800D01*
X14721600Y-8013800D02*
X14691600Y-8043800D01*
X14691600Y-8064600D02*
X14721600Y-8094600D01*
X14721600Y-8064600D02*
X14691600Y-8094600D01*
X14691600Y-8115400D02*
X14721600Y-8145400D01*
X14721600Y-8115400D02*
X14691600Y-8145400D01*
X14691600Y-8166200D02*
X14721600Y-8196200D01*
X14721600Y-8166200D02*
X14691600Y-8196200D01*
X14691600Y-8217000D02*
X14721600Y-8247000D01*
X14721600Y-8217000D02*
X14691600Y-8247000D01*
X14691600Y-8267800D02*
X14721600Y-8297800D01*
X14721600Y-8267800D02*
X14691600Y-8297800D01*
X14691600Y-12304000D02*
X14721600Y-12334000D01*
X14721600Y-12304000D02*
X14691600Y-12334000D01*
X14691600Y-13015200D02*
X14721600Y-13045200D01*
X14721600Y-13015200D02*
X14691600Y-13045200D01*
X14717000Y-7378800D02*
X14747000Y-7408800D01*
X14747000Y-7378800D02*
X14717000Y-7408800D01*
X14717000Y-7419440D02*
X14747000Y-7449440D01*
X14747000Y-7419440D02*
X14717000Y-7449440D01*
X14717000Y-7460080D02*
X14747000Y-7490080D01*
X14747000Y-7460080D02*
X14717000Y-7490080D01*
X14717000Y-7500720D02*
X14747000Y-7530720D01*
X14747000Y-7500720D02*
X14717000Y-7530720D01*
X14717000Y-7541360D02*
X14747000Y-7571360D01*
X14747000Y-7541360D02*
X14717000Y-7571360D01*
X14717000Y-7582000D02*
X14747000Y-7612000D01*
X14747000Y-7582000D02*
X14717000Y-7612000D01*
X14717000Y-7622640D02*
X14747000Y-7652640D01*
X14747000Y-7622640D02*
X14717000Y-7652640D01*
X14717000Y-7663280D02*
X14747000Y-7693280D01*
X14747000Y-7663280D02*
X14717000Y-7693280D01*
X14717000Y-7703920D02*
X14747000Y-7733920D01*
X14747000Y-7703920D02*
X14717000Y-7733920D01*
X14717000Y-7744560D02*
X14747000Y-7774560D01*
X14747000Y-7744560D02*
X14717000Y-7774560D01*
X14717000Y-7785200D02*
X14747000Y-7815200D01*
X14747000Y-7785200D02*
X14717000Y-7815200D01*
X14717000Y-7825840D02*
X14747000Y-7855840D01*
X14747000Y-7825840D02*
X14717000Y-7855840D01*
X14717000Y-14590000D02*
X14747000Y-14620000D01*
X14747000Y-14590000D02*
X14717000Y-14620000D01*
X14717000Y-14640800D02*
X14747000Y-14670800D01*
X14747000Y-14640800D02*
X14717000Y-14670800D01*
X14717000Y-14691600D02*
X14747000Y-14721600D01*
X14747000Y-14691600D02*
X14717000Y-14721600D01*
X14717000Y-14742400D02*
X14747000Y-14772400D01*
X14747000Y-14742400D02*
X14717000Y-14772400D01*
X14717000Y-14793200D02*
X14747000Y-14823200D01*
X14747000Y-14793200D02*
X14717000Y-14823200D01*
X14717000Y-14844000D02*
X14747000Y-14874000D01*
X14747000Y-14844000D02*
X14717000Y-14874000D01*
X14717000Y-14894800D02*
X14747000Y-14924800D01*
X14747000Y-14894800D02*
X14717000Y-14924800D01*
X14717000Y-14945600D02*
X14747000Y-14975600D01*
X14747000Y-14945600D02*
X14717000Y-14975600D01*
X14742400Y-9182200D02*
X14772400Y-9212200D01*
X14772400Y-9182200D02*
X14742400Y-9212200D01*
X14759149Y-10721476D02*
X14789149Y-10751476D01*
X14789149Y-10721476D02*
X14759149Y-10751476D01*
X14767800Y-11110200D02*
X14797800Y-11140200D01*
X14797800Y-11110200D02*
X14767800Y-11140200D01*
X14767800Y-11536720D02*
X14797800Y-11566720D01*
X14797800Y-11536720D02*
X14767800Y-11566720D01*
X14818600Y-11008600D02*
X14848600Y-11038600D01*
X14848600Y-11008600D02*
X14818600Y-11038600D01*
X14818600Y-12177000D02*
X14848600Y-12207000D01*
X14848600Y-12177000D02*
X14818600Y-12207000D01*
X14818600Y-14564600D02*
X14848600Y-14594600D01*
X14848600Y-14564600D02*
X14818600Y-14594600D01*
X14818600Y-14615400D02*
X14848600Y-14645400D01*
X14848600Y-14615400D02*
X14818600Y-14645400D01*
X14818600Y-14666200D02*
X14848600Y-14696200D01*
X14848600Y-14666200D02*
X14818600Y-14696200D01*
X14818600Y-14793200D02*
X14848600Y-14823200D01*
X14848600Y-14793200D02*
X14818600Y-14823200D01*
X14818600Y-14844000D02*
X14848600Y-14874000D01*
X14848600Y-14844000D02*
X14818600Y-14874000D01*
X14818600Y-14894800D02*
X14848600Y-14924800D01*
X14848600Y-14894800D02*
X14818600Y-14924800D01*
X14833150Y-11693950D02*
X14863150Y-11723950D01*
X14863150Y-11693950D02*
X14833150Y-11723950D01*
X14844000Y-11770600D02*
X14874000Y-11800600D01*
X14874000Y-11770600D02*
X14844000Y-11800600D01*
X14844000Y-11821400D02*
X14874000Y-11851400D01*
X14874000Y-11821400D02*
X14844000Y-11851400D01*
X14844000Y-11872200D02*
X14874000Y-11902200D01*
X14874000Y-11872200D02*
X14844000Y-11902200D01*
X14860250Y-9131400D02*
X14890250Y-9161400D01*
X14890250Y-9131400D02*
X14860250Y-9161400D01*
X14869400Y-14564600D02*
X14899400Y-14594600D01*
X14899400Y-14564600D02*
X14869400Y-14594600D01*
X14869400Y-14615400D02*
X14899400Y-14645400D01*
X14899400Y-14615400D02*
X14869400Y-14645400D01*
X14869400Y-14666200D02*
X14899400Y-14696200D01*
X14899400Y-14666200D02*
X14869400Y-14696200D01*
X14869400Y-14793200D02*
X14899400Y-14823200D01*
X14899400Y-14793200D02*
X14869400Y-14823200D01*
X14869400Y-14844000D02*
X14899400Y-14874000D01*
X14899400Y-14844000D02*
X14869400Y-14874000D01*
X14869400Y-14894800D02*
X14899400Y-14924800D01*
X14899400Y-14894800D02*
X14869400Y-14924800D01*
X14894800Y-11770600D02*
X14924800Y-11800600D01*
X14924800Y-11770600D02*
X14894800Y-11800600D01*
X14894800Y-11821400D02*
X14924800Y-11851400D01*
X14924800Y-11821400D02*
X14894800Y-11851400D01*
X14894800Y-11872200D02*
X14924800Y-11902200D01*
X14924800Y-11872200D02*
X14894800Y-11902200D01*
X14945600Y-14513800D02*
X14975600Y-14543800D01*
X14975600Y-14513800D02*
X14945600Y-14543800D01*
X14945600Y-14564600D02*
X14975600Y-14594600D01*
X14975600Y-14564600D02*
X14945600Y-14594600D01*
X14945600Y-14615400D02*
X14975600Y-14645400D01*
X14975600Y-14615400D02*
X14945600Y-14645400D01*
X14945600Y-14666200D02*
X14975600Y-14696200D01*
X14975600Y-14666200D02*
X14945600Y-14696200D01*
X14945600Y-14717000D02*
X14975600Y-14747000D01*
X14975600Y-14717000D02*
X14945600Y-14747000D01*
X14945600Y-14767800D02*
X14975600Y-14797800D01*
X14975600Y-14767800D02*
X14945600Y-14797800D01*
X14945600Y-14818600D02*
X14975600Y-14848600D01*
X14975600Y-14818600D02*
X14945600Y-14848600D01*
X14945600Y-14869400D02*
X14975600Y-14899400D01*
X14975600Y-14869400D02*
X14945600Y-14899400D01*
X14945600Y-14920200D02*
X14975600Y-14950200D01*
X14975600Y-14920200D02*
X14945600Y-14950200D01*
X15021800Y-8928200D02*
X15051800Y-8958200D01*
X15051800Y-8928200D02*
X15021800Y-8958200D01*
X15123400Y-8722170D02*
X15153400Y-8752170D01*
X15153400Y-8722170D02*
X15123400Y-8752170D01*
X15148800Y-7810600D02*
X15178800Y-7840600D01*
X15178800Y-7810600D02*
X15148800Y-7840600D01*
X15208750Y-7810600D02*
X15238750Y-7840600D01*
X15238750Y-7810600D02*
X15208750Y-7840600D01*
D13*
X12760400Y-9705200D02*
G75*
G03*
X12760400Y-9705200I-35000J0D01*
G01*
X12760400Y-10134600D02*
G75*
G03*
X12760400Y-10134600I-35000J0D01*
G01*
X13090600Y-9705200D02*
G75*
G03*
X13090600Y-9705200I-35000J0D01*
G01*
X13090600Y-10134600D02*
G75*
G03*
X13090600Y-10134600I-35000J0D01*
G01*
X14462200Y-9705200D02*
G75*
G03*
X14462200Y-9705200I-35000J0D01*
G01*
X14462200Y-10134600D02*
G75*
G03*
X14462200Y-10134600I-35000J0D01*
G01*
X14792400Y-9705200D02*
G75*
G03*
X14792400Y-9705200I-35000J0D01*
G01*
X14792400Y-10134600D02*
G75*
G03*
X14792400Y-10134600I-35000J0D01*
G01*
D10*
X10166000Y-11481600D02*
X10166000Y-11581600D01*
X10116000Y-11531600D02*
X10216000Y-11531600D01*
X10337800Y-12732200D02*
X10337800Y-12832200D01*
X10287800Y-12782200D02*
X10387800Y-12782200D01*
X10337800Y-13482200D02*
X10337800Y-13582200D01*
X10287800Y-13532200D02*
X10387800Y-13532200D01*
X10916000Y-11481600D02*
X10916000Y-11581600D01*
X10866000Y-11531600D02*
X10966000Y-11531600D01*
D14*
X14974091Y-9388491D02*
X14974091Y-9310709D01*
X14896309Y-9310709D01*
X14896309Y-9388491D01*
X14974091Y-9388491D01*
X15355091Y-9388491D02*
X15355091Y-9310709D01*
X15277309Y-9310709D01*
X15277309Y-9388491D01*
X15355091Y-9388491D01*
X15355091Y-9718691D02*
X15355091Y-9640909D01*
X15277309Y-9640909D01*
X15277309Y-9718691D01*
X15355091Y-9718691D01*
D15*
X10277600Y-10630750D02*
X10334750Y-10573600D01*
X10277600Y-10516450D01*
X10220450Y-10573600D01*
X10277600Y-10630750D01*
X10277600Y-11080750D02*
X10334750Y-11023600D01*
X10277600Y-10966450D01*
X10220450Y-11023600D01*
X10277600Y-11080750D01*
X10295700Y-12069350D02*
X10352850Y-12012200D01*
X10295700Y-11955050D01*
X10238550Y-12012200D01*
X10295700Y-12069350D01*
X10295700Y-12519350D02*
X10352850Y-12462200D01*
X10295700Y-12405050D01*
X10238550Y-12462200D01*
X10295700Y-12519350D01*
X11277600Y-10630750D02*
X11334750Y-10573600D01*
X11277600Y-10516450D01*
X11220450Y-10573600D01*
X11277600Y-10630750D01*
X11277600Y-11080750D02*
X11334750Y-11023600D01*
X11277600Y-10966450D01*
X11220450Y-11023600D01*
X11277600Y-11080750D01*
X11295700Y-12069350D02*
X11352850Y-12012200D01*
X11295700Y-11955050D01*
X11238550Y-12012200D01*
X11295700Y-12069350D01*
X11295700Y-12519350D02*
X11352850Y-12462200D01*
X11295700Y-12405050D01*
X11238550Y-12462200D01*
X11295700Y-12519350D01*
D16*
X11893900Y-10674700D02*
X12013900Y-10794700D01*
X12013900Y-10674700D02*
X11893900Y-10794700D01*
X12013900Y-10734700D02*
G75*
G03*
X12013900Y-10734700I-60000J0D01*
G01*
X11893900Y-12198700D02*
X12013900Y-12318700D01*
X12013900Y-12198700D02*
X11893900Y-12318700D01*
X12013900Y-12258700D02*
G75*
G03*
X12013900Y-12258700I-60000J0D01*
G01*
X11893900Y-12452700D02*
X12013900Y-12572700D01*
X12013900Y-12452700D02*
X11893900Y-12572700D01*
X12013900Y-12512700D02*
G75*
G03*
X12013900Y-12512700I-60000J0D01*
G01*
X12147900Y-12198700D02*
X12267900Y-12318700D01*
X12267900Y-12198700D02*
X12147900Y-12318700D01*
X12267900Y-12258700D02*
G75*
G03*
X12267900Y-12258700I-60000J0D01*
G01*
X12147900Y-12706700D02*
X12267900Y-12826700D01*
X12267900Y-12706700D02*
X12147900Y-12826700D01*
X12267900Y-12766700D02*
G75*
G03*
X12267900Y-12766700I-60000J0D01*
G01*
X12401900Y-12452700D02*
X12521900Y-12572700D01*
X12521900Y-12452700D02*
X12401900Y-12572700D01*
X12521900Y-12512700D02*
G75*
G03*
X12521900Y-12512700I-60000J0D01*
G01*
X12401900Y-12706700D02*
X12521900Y-12826700D01*
X12521900Y-12706700D02*
X12401900Y-12826700D01*
X12521900Y-12766700D02*
G75*
G03*
X12521900Y-12766700I-60000J0D01*
G01*
X13417900Y-10674700D02*
X13537900Y-10794700D01*
X13537900Y-10674700D02*
X13417900Y-10794700D01*
X13537900Y-10734700D02*
G75*
G03*
X13537900Y-10734700I-60000J0D01*
G01*
X13417900Y-10928700D02*
X13537900Y-11048700D01*
X13537900Y-10928700D02*
X13417900Y-11048700D01*
X13537900Y-10988700D02*
G75*
G03*
X13537900Y-10988700I-60000J0D01*
G01*
X13587622Y-13960800D02*
X13707622Y-14080800D01*
X13707622Y-13960800D02*
X13587622Y-14080800D01*
X13707622Y-14020800D02*
G75*
G03*
X13707622Y-14020800I-60000J0D01*
G01*
X13671900Y-10674700D02*
X13791900Y-10794700D01*
X13791900Y-10674700D02*
X13671900Y-10794700D01*
X13791900Y-10734700D02*
G75*
G03*
X13791900Y-10734700I-60000J0D01*
G01*
X13671900Y-11182700D02*
X13791900Y-11302700D01*
X13791900Y-11182700D02*
X13671900Y-11302700D01*
X13791900Y-11242700D02*
G75*
G03*
X13791900Y-11242700I-60000J0D01*
G01*
X13925900Y-10928700D02*
X14045900Y-11048700D01*
X14045900Y-10928700D02*
X13925900Y-11048700D01*
X14045900Y-10988700D02*
G75*
G03*
X14045900Y-10988700I-60000J0D01*
G01*
X13925900Y-11182700D02*
X14045900Y-11302700D01*
X14045900Y-11182700D02*
X13925900Y-11302700D01*
X14045900Y-11242700D02*
G75*
G03*
X14045900Y-11242700I-60000J0D01*
G01*
X14337622Y-13960800D02*
X14457622Y-14080800D01*
X14457622Y-13960800D02*
X14337622Y-14080800D01*
X14457622Y-14020800D02*
G75*
G03*
X14457622Y-14020800I-60000J0D01*
G01*
D17*
X10327600Y-14286000D02*
X10457600Y-14416000D01*
X10457600Y-14286000D02*
X10327600Y-14416000D01*
X10392600Y-14286000D02*
X10392600Y-14416000D01*
X10327600Y-14351000D02*
X10457600Y-14351000D01*
X10827600Y-14286000D02*
X10957600Y-14416000D01*
X10957600Y-14286000D02*
X10827600Y-14416000D01*
X10892600Y-14286000D02*
X10892600Y-14416000D01*
X10827600Y-14351000D02*
X10957600Y-14351000D01*
D18*
X13909700Y-12690500D02*
X14062100Y-12842900D01*
X14062100Y-12690500D02*
X13909700Y-12842900D01*
X14039782Y-12820582D02*
X14039782Y-12712818D01*
X13932018Y-12712818D01*
X13932018Y-12820582D01*
X14039782Y-12820582D01*
D19*
X10335900Y-10123300D02*
X10510900Y-10298300D01*
X10510900Y-10123300D02*
X10335900Y-10298300D01*
X10423400Y-10298300D02*
X10510900Y-10210800D01*
X10423400Y-10123300D01*
X10335900Y-10210800D01*
X10423400Y-10298300D01*
X10875900Y-10123300D02*
X11050900Y-10298300D01*
X11050900Y-10123300D02*
X10875900Y-10298300D01*
X10963400Y-10298300D02*
X11050900Y-10210800D01*
X10963400Y-10123300D01*
X10875900Y-10210800D01*
X10963400Y-10298300D01*
X12637900Y-7458700D02*
X12812900Y-7633700D01*
X12812900Y-7458700D02*
X12637900Y-7633700D01*
X12725400Y-7633700D02*
X12812900Y-7546200D01*
X12725400Y-7458700D01*
X12637900Y-7546200D01*
X12725400Y-7633700D01*
X13374500Y-9566900D02*
X13549500Y-9741900D01*
X13549500Y-9566900D02*
X13374500Y-9741900D01*
X13462000Y-9741900D02*
X13549500Y-9654400D01*
X13462000Y-9566900D01*
X13374500Y-9654400D01*
X13462000Y-9741900D01*
X13374500Y-10097900D02*
X13549500Y-10272900D01*
X13549500Y-10097900D02*
X13374500Y-10272900D01*
X13462000Y-10272900D02*
X13549500Y-10185400D01*
X13462000Y-10097900D01*
X13374500Y-10185400D01*
X13462000Y-10272900D01*
X13907900Y-9566900D02*
X14082900Y-9741900D01*
X14082900Y-9566900D02*
X13907900Y-9741900D01*
X13995400Y-9741900D02*
X14082900Y-9654400D01*
X13995400Y-9566900D01*
X13907900Y-9654400D01*
X13995400Y-9741900D01*
X13907900Y-10097900D02*
X14082900Y-10272900D01*
X14082900Y-10097900D02*
X13907900Y-10272900D01*
X13995400Y-10272900D02*
X14082900Y-10185400D01*
X13995400Y-10097900D01*
X13907900Y-10185400D01*
X13995400Y-10272900D01*
X15203300Y-8830300D02*
X15378300Y-9005300D01*
X15378300Y-8830300D02*
X15203300Y-9005300D01*
X15290800Y-9005300D02*
X15378300Y-8917800D01*
X15290800Y-8830300D01*
X15203300Y-8917800D01*
X15290800Y-9005300D01*
D11*
X10242619Y-15317524D02*
X10242619Y-15117524D01*
X10242619Y-15117524D02*
X10290238Y-15117524D01*
X10290238Y-15117524D02*
X10318810Y-15127048D01*
X10318810Y-15127048D02*
X10337857Y-15146095D01*
X10337857Y-15146095D02*
X10347381Y-15165143D01*
X10347381Y-15165143D02*
X10356905Y-15203238D01*
X10356905Y-15203238D02*
X10356905Y-15231809D01*
X10356905Y-15231809D02*
X10347381Y-15269905D01*
X10347381Y-15269905D02*
X10337857Y-15288952D01*
X10337857Y-15288952D02*
X10318810Y-15308000D01*
X10318810Y-15308000D02*
X10290238Y-15317524D01*
X10290238Y-15317524D02*
X10242619Y-15317524D01*
X10442619Y-15317524D02*
X10442619Y-15184190D01*
X10442619Y-15222286D02*
X10452143Y-15203238D01*
X10452143Y-15203238D02*
X10461667Y-15193714D01*
X10461667Y-15193714D02*
X10480714Y-15184190D01*
X10480714Y-15184190D02*
X10499762Y-15184190D01*
X10566429Y-15317524D02*
X10566429Y-15184190D01*
X10566429Y-15117524D02*
X10556905Y-15127048D01*
X10556905Y-15127048D02*
X10566429Y-15136571D01*
X10566429Y-15136571D02*
X10575952Y-15127048D01*
X10575952Y-15127048D02*
X10566429Y-15117524D01*
X10566429Y-15117524D02*
X10566429Y-15136571D01*
X10690238Y-15317524D02*
X10671190Y-15308000D01*
X10671190Y-15308000D02*
X10661667Y-15288952D01*
X10661667Y-15288952D02*
X10661667Y-15117524D01*
X10795000Y-15317524D02*
X10775952Y-15308000D01*
X10775952Y-15308000D02*
X10766429Y-15288952D01*
X10766429Y-15288952D02*
X10766429Y-15117524D01*
X11023571Y-15317524D02*
X11023571Y-15117524D01*
X11023571Y-15117524D02*
X11090238Y-15260381D01*
X11090238Y-15260381D02*
X11156905Y-15117524D01*
X11156905Y-15117524D02*
X11156905Y-15317524D01*
X11337857Y-15317524D02*
X11337857Y-15212762D01*
X11337857Y-15212762D02*
X11328333Y-15193714D01*
X11328333Y-15193714D02*
X11309286Y-15184190D01*
X11309286Y-15184190D02*
X11271190Y-15184190D01*
X11271190Y-15184190D02*
X11252143Y-15193714D01*
X11337857Y-15308000D02*
X11318809Y-15317524D01*
X11318809Y-15317524D02*
X11271190Y-15317524D01*
X11271190Y-15317524D02*
X11252143Y-15308000D01*
X11252143Y-15308000D02*
X11242619Y-15288952D01*
X11242619Y-15288952D02*
X11242619Y-15269905D01*
X11242619Y-15269905D02*
X11252143Y-15250857D01*
X11252143Y-15250857D02*
X11271190Y-15241333D01*
X11271190Y-15241333D02*
X11318809Y-15241333D01*
X11318809Y-15241333D02*
X11337857Y-15231809D01*
X11433095Y-15184190D02*
X11433095Y-15384190D01*
X11433095Y-15193714D02*
X11452143Y-15184190D01*
X11452143Y-15184190D02*
X11490238Y-15184190D01*
X11490238Y-15184190D02*
X11509286Y-15193714D01*
X11509286Y-15193714D02*
X11518809Y-15203238D01*
X11518809Y-15203238D02*
X11528333Y-15222286D01*
X11528333Y-15222286D02*
X11528333Y-15279428D01*
X11528333Y-15279428D02*
X11518809Y-15298476D01*
X11518809Y-15298476D02*
X11509286Y-15308000D01*
X11509286Y-15308000D02*
X11490238Y-15317524D01*
X11490238Y-15317524D02*
X11452143Y-15317524D01*
X11452143Y-15317524D02*
X11433095Y-15308000D01*
X11614048Y-15298476D02*
X11623571Y-15308000D01*
X11623571Y-15308000D02*
X11614048Y-15317524D01*
X11614048Y-15317524D02*
X11604524Y-15308000D01*
X11604524Y-15308000D02*
X11614048Y-15298476D01*
X11614048Y-15298476D02*
X11614048Y-15317524D01*
X11614048Y-15193714D02*
X11623571Y-15203238D01*
X11623571Y-15203238D02*
X11614048Y-15212762D01*
X11614048Y-15212762D02*
X11604524Y-15203238D01*
X11604524Y-15203238D02*
X11614048Y-15193714D01*
X11614048Y-15193714D02*
X11614048Y-15212762D01*
D12*
X9965000Y-15630000D02*
X9995000Y-15660000D01*
X9995000Y-15630000D02*
X9965000Y-15660000D01*
D11*
X10280714Y-15537524D02*
X10299762Y-15537524D01*
X10299762Y-15537524D02*
X10318810Y-15547048D01*
X10318810Y-15547048D02*
X10328333Y-15556571D01*
X10328333Y-15556571D02*
X10337857Y-15575619D01*
X10337857Y-15575619D02*
X10347381Y-15613714D01*
X10347381Y-15613714D02*
X10347381Y-15661333D01*
X10347381Y-15661333D02*
X10337857Y-15699428D01*
X10337857Y-15699428D02*
X10328333Y-15718476D01*
X10328333Y-15718476D02*
X10318810Y-15728000D01*
X10318810Y-15728000D02*
X10299762Y-15737524D01*
X10299762Y-15737524D02*
X10280714Y-15737524D01*
X10280714Y-15737524D02*
X10261667Y-15728000D01*
X10261667Y-15728000D02*
X10252143Y-15718476D01*
X10252143Y-15718476D02*
X10242619Y-15699428D01*
X10242619Y-15699428D02*
X10233095Y-15661333D01*
X10233095Y-15661333D02*
X10233095Y-15613714D01*
X10233095Y-15613714D02*
X10242619Y-15575619D01*
X10242619Y-15575619D02*
X10252143Y-15556571D01*
X10252143Y-15556571D02*
X10261667Y-15547048D01*
X10261667Y-15547048D02*
X10280714Y-15537524D01*
X10433095Y-15718476D02*
X10442619Y-15728000D01*
X10442619Y-15728000D02*
X10433095Y-15737524D01*
X10433095Y-15737524D02*
X10423571Y-15728000D01*
X10423571Y-15728000D02*
X10433095Y-15718476D01*
X10433095Y-15718476D02*
X10433095Y-15737524D01*
X10509286Y-15537524D02*
X10633095Y-15537524D01*
X10633095Y-15537524D02*
X10566429Y-15613714D01*
X10566429Y-15613714D02*
X10595000Y-15613714D01*
X10595000Y-15613714D02*
X10614048Y-15623238D01*
X10614048Y-15623238D02*
X10623571Y-15632762D01*
X10623571Y-15632762D02*
X10633095Y-15651809D01*
X10633095Y-15651809D02*
X10633095Y-15699428D01*
X10633095Y-15699428D02*
X10623571Y-15718476D01*
X10623571Y-15718476D02*
X10614048Y-15728000D01*
X10614048Y-15728000D02*
X10595000Y-15737524D01*
X10595000Y-15737524D02*
X10537857Y-15737524D01*
X10537857Y-15737524D02*
X10518810Y-15728000D01*
X10518810Y-15728000D02*
X10509286Y-15718476D01*
X10756905Y-15537524D02*
X10775952Y-15537524D01*
X10775952Y-15537524D02*
X10795000Y-15547048D01*
X10795000Y-15547048D02*
X10804524Y-15556571D01*
X10804524Y-15556571D02*
X10814048Y-15575619D01*
X10814048Y-15575619D02*
X10823571Y-15613714D01*
X10823571Y-15613714D02*
X10823571Y-15661333D01*
X10823571Y-15661333D02*
X10814048Y-15699428D01*
X10814048Y-15699428D02*
X10804524Y-15718476D01*
X10804524Y-15718476D02*
X10795000Y-15728000D01*
X10795000Y-15728000D02*
X10775952Y-15737524D01*
X10775952Y-15737524D02*
X10756905Y-15737524D01*
X10756905Y-15737524D02*
X10737857Y-15728000D01*
X10737857Y-15728000D02*
X10728333Y-15718476D01*
X10728333Y-15718476D02*
X10718810Y-15699428D01*
X10718810Y-15699428D02*
X10709286Y-15661333D01*
X10709286Y-15661333D02*
X10709286Y-15613714D01*
X10709286Y-15613714D02*
X10718810Y-15575619D01*
X10718810Y-15575619D02*
X10728333Y-15556571D01*
X10728333Y-15556571D02*
X10737857Y-15547048D01*
X10737857Y-15547048D02*
X10756905Y-15537524D01*
X10947381Y-15537524D02*
X10966429Y-15537524D01*
X10966429Y-15537524D02*
X10985476Y-15547048D01*
X10985476Y-15547048D02*
X10995000Y-15556571D01*
X10995000Y-15556571D02*
X11004524Y-15575619D01*
X11004524Y-15575619D02*
X11014048Y-15613714D01*
X11014048Y-15613714D02*
X11014048Y-15661333D01*
X11014048Y-15661333D02*
X11004524Y-15699428D01*
X11004524Y-15699428D02*
X10995000Y-15718476D01*
X10995000Y-15718476D02*
X10985476Y-15728000D01*
X10985476Y-15728000D02*
X10966429Y-15737524D01*
X10966429Y-15737524D02*
X10947381Y-15737524D01*
X10947381Y-15737524D02*
X10928333Y-15728000D01*
X10928333Y-15728000D02*
X10918810Y-15718476D01*
X10918810Y-15718476D02*
X10909286Y-15699428D01*
X10909286Y-15699428D02*
X10899762Y-15661333D01*
X10899762Y-15661333D02*
X10899762Y-15613714D01*
X10899762Y-15613714D02*
X10909286Y-15575619D01*
X10909286Y-15575619D02*
X10918810Y-15556571D01*
X10918810Y-15556571D02*
X10928333Y-15547048D01*
X10928333Y-15547048D02*
X10947381Y-15537524D01*
X11099762Y-15737524D02*
X11099762Y-15604190D01*
X11099762Y-15623238D02*
X11109286Y-15613714D01*
X11109286Y-15613714D02*
X11128333Y-15604190D01*
X11128333Y-15604190D02*
X11156905Y-15604190D01*
X11156905Y-15604190D02*
X11175952Y-15613714D01*
X11175952Y-15613714D02*
X11185476Y-15632762D01*
X11185476Y-15632762D02*
X11185476Y-15737524D01*
X11185476Y-15632762D02*
X11195000Y-15613714D01*
X11195000Y-15613714D02*
X11214048Y-15604190D01*
X11214048Y-15604190D02*
X11242619Y-15604190D01*
X11242619Y-15604190D02*
X11261667Y-15613714D01*
X11261667Y-15613714D02*
X11271190Y-15632762D01*
X11271190Y-15632762D02*
X11271190Y-15737524D01*
X11366429Y-15737524D02*
X11366429Y-15604190D01*
X11366429Y-15623238D02*
X11375952Y-15613714D01*
X11375952Y-15613714D02*
X11395000Y-15604190D01*
X11395000Y-15604190D02*
X11423571Y-15604190D01*
X11423571Y-15604190D02*
X11442619Y-15613714D01*
X11442619Y-15613714D02*
X11452143Y-15632762D01*
X11452143Y-15632762D02*
X11452143Y-15737524D01*
X11452143Y-15632762D02*
X11461667Y-15613714D01*
X11461667Y-15613714D02*
X11480714Y-15604190D01*
X11480714Y-15604190D02*
X11509286Y-15604190D01*
X11509286Y-15604190D02*
X11528333Y-15613714D01*
X11528333Y-15613714D02*
X11537857Y-15632762D01*
X11537857Y-15632762D02*
X11537857Y-15737524D01*
X11928333Y-15528000D02*
X11756905Y-15785143D01*
X12185476Y-15537524D02*
X12204524Y-15537524D01*
X12204524Y-15537524D02*
X12223572Y-15547048D01*
X12223572Y-15547048D02*
X12233095Y-15556571D01*
X12233095Y-15556571D02*
X12242619Y-15575619D01*
X12242619Y-15575619D02*
X12252143Y-15613714D01*
X12252143Y-15613714D02*
X12252143Y-15661333D01*
X12252143Y-15661333D02*
X12242619Y-15699428D01*
X12242619Y-15699428D02*
X12233095Y-15718476D01*
X12233095Y-15718476D02*
X12223572Y-15728000D01*
X12223572Y-15728000D02*
X12204524Y-15737524D01*
X12204524Y-15737524D02*
X12185476Y-15737524D01*
X12185476Y-15737524D02*
X12166429Y-15728000D01*
X12166429Y-15728000D02*
X12156905Y-15718476D01*
X12156905Y-15718476D02*
X12147381Y-15699428D01*
X12147381Y-15699428D02*
X12137857Y-15661333D01*
X12137857Y-15661333D02*
X12137857Y-15613714D01*
X12137857Y-15613714D02*
X12147381Y-15575619D01*
X12147381Y-15575619D02*
X12156905Y-15556571D01*
X12156905Y-15556571D02*
X12166429Y-15547048D01*
X12166429Y-15547048D02*
X12185476Y-15537524D01*
X12337857Y-15718476D02*
X12347381Y-15728000D01*
X12347381Y-15728000D02*
X12337857Y-15737524D01*
X12337857Y-15737524D02*
X12328333Y-15728000D01*
X12328333Y-15728000D02*
X12337857Y-15718476D01*
X12337857Y-15718476D02*
X12337857Y-15737524D01*
X12471191Y-15537524D02*
X12490238Y-15537524D01*
X12490238Y-15537524D02*
X12509286Y-15547048D01*
X12509286Y-15547048D02*
X12518810Y-15556571D01*
X12518810Y-15556571D02*
X12528333Y-15575619D01*
X12528333Y-15575619D02*
X12537857Y-15613714D01*
X12537857Y-15613714D02*
X12537857Y-15661333D01*
X12537857Y-15661333D02*
X12528333Y-15699428D01*
X12528333Y-15699428D02*
X12518810Y-15718476D01*
X12518810Y-15718476D02*
X12509286Y-15728000D01*
X12509286Y-15728000D02*
X12490238Y-15737524D01*
X12490238Y-15737524D02*
X12471191Y-15737524D01*
X12471191Y-15737524D02*
X12452143Y-15728000D01*
X12452143Y-15728000D02*
X12442619Y-15718476D01*
X12442619Y-15718476D02*
X12433095Y-15699428D01*
X12433095Y-15699428D02*
X12423572Y-15661333D01*
X12423572Y-15661333D02*
X12423572Y-15613714D01*
X12423572Y-15613714D02*
X12433095Y-15575619D01*
X12433095Y-15575619D02*
X12442619Y-15556571D01*
X12442619Y-15556571D02*
X12452143Y-15547048D01*
X12452143Y-15547048D02*
X12471191Y-15537524D01*
X12728333Y-15737524D02*
X12614048Y-15737524D01*
X12671191Y-15737524D02*
X12671191Y-15537524D01*
X12671191Y-15537524D02*
X12652143Y-15566095D01*
X12652143Y-15566095D02*
X12633095Y-15585143D01*
X12633095Y-15585143D02*
X12614048Y-15594667D01*
X12918810Y-15737524D02*
X12804524Y-15737524D01*
X12861667Y-15737524D02*
X12861667Y-15537524D01*
X12861667Y-15537524D02*
X12842619Y-15566095D01*
X12842619Y-15566095D02*
X12823572Y-15585143D01*
X12823572Y-15585143D02*
X12804524Y-15594667D01*
X13033095Y-15623238D02*
X13014048Y-15613714D01*
X13014048Y-15613714D02*
X13004524Y-15604190D01*
X13004524Y-15604190D02*
X12995000Y-15585143D01*
X12995000Y-15585143D02*
X12995000Y-15575619D01*
X12995000Y-15575619D02*
X13004524Y-15556571D01*
X13004524Y-15556571D02*
X13014048Y-15547048D01*
X13014048Y-15547048D02*
X13033095Y-15537524D01*
X13033095Y-15537524D02*
X13071191Y-15537524D01*
X13071191Y-15537524D02*
X13090238Y-15547048D01*
X13090238Y-15547048D02*
X13099762Y-15556571D01*
X13099762Y-15556571D02*
X13109286Y-15575619D01*
X13109286Y-15575619D02*
X13109286Y-15585143D01*
X13109286Y-15585143D02*
X13099762Y-15604190D01*
X13099762Y-15604190D02*
X13090238Y-15613714D01*
X13090238Y-15613714D02*
X13071191Y-15623238D01*
X13071191Y-15623238D02*
X13033095Y-15623238D01*
X13033095Y-15623238D02*
X13014048Y-15632762D01*
X13014048Y-15632762D02*
X13004524Y-15642286D01*
X13004524Y-15642286D02*
X12995000Y-15661333D01*
X12995000Y-15661333D02*
X12995000Y-15699428D01*
X12995000Y-15699428D02*
X13004524Y-15718476D01*
X13004524Y-15718476D02*
X13014048Y-15728000D01*
X13014048Y-15728000D02*
X13033095Y-15737524D01*
X13033095Y-15737524D02*
X13071191Y-15737524D01*
X13071191Y-15737524D02*
X13090238Y-15728000D01*
X13090238Y-15728000D02*
X13099762Y-15718476D01*
X13099762Y-15718476D02*
X13109286Y-15699428D01*
X13109286Y-15699428D02*
X13109286Y-15661333D01*
X13109286Y-15661333D02*
X13099762Y-15642286D01*
X13099762Y-15642286D02*
X13090238Y-15632762D01*
X13090238Y-15632762D02*
X13071191Y-15623238D01*
X13185476Y-15537524D02*
X13185476Y-15575619D01*
X13261667Y-15537524D02*
X13261667Y-15575619D01*
X13556905Y-15813714D02*
X13547381Y-15804190D01*
X13547381Y-15804190D02*
X13528334Y-15775619D01*
X13528334Y-15775619D02*
X13518810Y-15756571D01*
X13518810Y-15756571D02*
X13509286Y-15728000D01*
X13509286Y-15728000D02*
X13499762Y-15680381D01*
X13499762Y-15680381D02*
X13499762Y-15642286D01*
X13499762Y-15642286D02*
X13509286Y-15594667D01*
X13509286Y-15594667D02*
X13518810Y-15566095D01*
X13518810Y-15566095D02*
X13528334Y-15547048D01*
X13528334Y-15547048D02*
X13547381Y-15518476D01*
X13547381Y-15518476D02*
X13556905Y-15508952D01*
X13728334Y-15537524D02*
X13633095Y-15537524D01*
X13633095Y-15537524D02*
X13623572Y-15632762D01*
X13623572Y-15632762D02*
X13633095Y-15623238D01*
X13633095Y-15623238D02*
X13652143Y-15613714D01*
X13652143Y-15613714D02*
X13699762Y-15613714D01*
X13699762Y-15613714D02*
X13718810Y-15623238D01*
X13718810Y-15623238D02*
X13728334Y-15632762D01*
X13728334Y-15632762D02*
X13737857Y-15651809D01*
X13737857Y-15651809D02*
X13737857Y-15699428D01*
X13737857Y-15699428D02*
X13728334Y-15718476D01*
X13728334Y-15718476D02*
X13718810Y-15728000D01*
X13718810Y-15728000D02*
X13699762Y-15737524D01*
X13699762Y-15737524D02*
X13652143Y-15737524D01*
X13652143Y-15737524D02*
X13633095Y-15728000D01*
X13633095Y-15728000D02*
X13623572Y-15718476D01*
X13804524Y-15537524D02*
X13928334Y-15537524D01*
X13928334Y-15537524D02*
X13861667Y-15613714D01*
X13861667Y-15613714D02*
X13890238Y-15613714D01*
X13890238Y-15613714D02*
X13909286Y-15623238D01*
X13909286Y-15623238D02*
X13918810Y-15632762D01*
X13918810Y-15632762D02*
X13928334Y-15651809D01*
X13928334Y-15651809D02*
X13928334Y-15699428D01*
X13928334Y-15699428D02*
X13918810Y-15718476D01*
X13918810Y-15718476D02*
X13909286Y-15728000D01*
X13909286Y-15728000D02*
X13890238Y-15737524D01*
X13890238Y-15737524D02*
X13833095Y-15737524D01*
X13833095Y-15737524D02*
X13814048Y-15728000D01*
X13814048Y-15728000D02*
X13804524Y-15718476D01*
X14099762Y-15604190D02*
X14099762Y-15737524D01*
X14052143Y-15528000D02*
X14004524Y-15670857D01*
X14004524Y-15670857D02*
X14128334Y-15670857D01*
X14356905Y-15737524D02*
X14356905Y-15537524D01*
X14442619Y-15737524D02*
X14442619Y-15632762D01*
X14442619Y-15632762D02*
X14433096Y-15613714D01*
X14433096Y-15613714D02*
X14414048Y-15604190D01*
X14414048Y-15604190D02*
X14385476Y-15604190D01*
X14385476Y-15604190D02*
X14366429Y-15613714D01*
X14366429Y-15613714D02*
X14356905Y-15623238D01*
X14566429Y-15737524D02*
X14547381Y-15728000D01*
X14547381Y-15728000D02*
X14537857Y-15718476D01*
X14537857Y-15718476D02*
X14528334Y-15699428D01*
X14528334Y-15699428D02*
X14528334Y-15642286D01*
X14528334Y-15642286D02*
X14537857Y-15623238D01*
X14537857Y-15623238D02*
X14547381Y-15613714D01*
X14547381Y-15613714D02*
X14566429Y-15604190D01*
X14566429Y-15604190D02*
X14595000Y-15604190D01*
X14595000Y-15604190D02*
X14614048Y-15613714D01*
X14614048Y-15613714D02*
X14623572Y-15623238D01*
X14623572Y-15623238D02*
X14633096Y-15642286D01*
X14633096Y-15642286D02*
X14633096Y-15699428D01*
X14633096Y-15699428D02*
X14623572Y-15718476D01*
X14623572Y-15718476D02*
X14614048Y-15728000D01*
X14614048Y-15728000D02*
X14595000Y-15737524D01*
X14595000Y-15737524D02*
X14566429Y-15737524D01*
X14747381Y-15737524D02*
X14728334Y-15728000D01*
X14728334Y-15728000D02*
X14718810Y-15708952D01*
X14718810Y-15708952D02*
X14718810Y-15537524D01*
X14899762Y-15728000D02*
X14880715Y-15737524D01*
X14880715Y-15737524D02*
X14842619Y-15737524D01*
X14842619Y-15737524D02*
X14823572Y-15728000D01*
X14823572Y-15728000D02*
X14814048Y-15708952D01*
X14814048Y-15708952D02*
X14814048Y-15632762D01*
X14814048Y-15632762D02*
X14823572Y-15613714D01*
X14823572Y-15613714D02*
X14842619Y-15604190D01*
X14842619Y-15604190D02*
X14880715Y-15604190D01*
X14880715Y-15604190D02*
X14899762Y-15613714D01*
X14899762Y-15613714D02*
X14909286Y-15632762D01*
X14909286Y-15632762D02*
X14909286Y-15651809D01*
X14909286Y-15651809D02*
X14814048Y-15670857D01*
X14985477Y-15728000D02*
X15004524Y-15737524D01*
X15004524Y-15737524D02*
X15042619Y-15737524D01*
X15042619Y-15737524D02*
X15061667Y-15728000D01*
X15061667Y-15728000D02*
X15071191Y-15708952D01*
X15071191Y-15708952D02*
X15071191Y-15699428D01*
X15071191Y-15699428D02*
X15061667Y-15680381D01*
X15061667Y-15680381D02*
X15042619Y-15670857D01*
X15042619Y-15670857D02*
X15014048Y-15670857D01*
X15014048Y-15670857D02*
X14995000Y-15661333D01*
X14995000Y-15661333D02*
X14985477Y-15642286D01*
X14985477Y-15642286D02*
X14985477Y-15632762D01*
X14985477Y-15632762D02*
X14995000Y-15613714D01*
X14995000Y-15613714D02*
X15014048Y-15604190D01*
X15014048Y-15604190D02*
X15042619Y-15604190D01*
X15042619Y-15604190D02*
X15061667Y-15613714D01*
X15137858Y-15813714D02*
X15147381Y-15804190D01*
X15147381Y-15804190D02*
X15166429Y-15775619D01*
X15166429Y-15775619D02*
X15175953Y-15756571D01*
X15175953Y-15756571D02*
X15185477Y-15728000D01*
X15185477Y-15728000D02*
X15195000Y-15680381D01*
X15195000Y-15680381D02*
X15195000Y-15642286D01*
X15195000Y-15642286D02*
X15185477Y-15594667D01*
X15185477Y-15594667D02*
X15175953Y-15566095D01*
X15175953Y-15566095D02*
X15166429Y-15547048D01*
X15166429Y-15547048D02*
X15147381Y-15518476D01*
X15147381Y-15518476D02*
X15137858Y-15508952D01*
D13*
X9995000Y-15909000D02*
G75*
G03*
X9995000Y-15909000I-35000J0D01*
G01*
D11*
X10280714Y-15801524D02*
X10299762Y-15801524D01*
X10299762Y-15801524D02*
X10318810Y-15811048D01*
X10318810Y-15811048D02*
X10328333Y-15820571D01*
X10328333Y-15820571D02*
X10337857Y-15839619D01*
X10337857Y-15839619D02*
X10347381Y-15877714D01*
X10347381Y-15877714D02*
X10347381Y-15925333D01*
X10347381Y-15925333D02*
X10337857Y-15963428D01*
X10337857Y-15963428D02*
X10328333Y-15982476D01*
X10328333Y-15982476D02*
X10318810Y-15992000D01*
X10318810Y-15992000D02*
X10299762Y-16001524D01*
X10299762Y-16001524D02*
X10280714Y-16001524D01*
X10280714Y-16001524D02*
X10261667Y-15992000D01*
X10261667Y-15992000D02*
X10252143Y-15982476D01*
X10252143Y-15982476D02*
X10242619Y-15963428D01*
X10242619Y-15963428D02*
X10233095Y-15925333D01*
X10233095Y-15925333D02*
X10233095Y-15877714D01*
X10233095Y-15877714D02*
X10242619Y-15839619D01*
X10242619Y-15839619D02*
X10252143Y-15820571D01*
X10252143Y-15820571D02*
X10261667Y-15811048D01*
X10261667Y-15811048D02*
X10280714Y-15801524D01*
X10433095Y-15982476D02*
X10442619Y-15992000D01*
X10442619Y-15992000D02*
X10433095Y-16001524D01*
X10433095Y-16001524D02*
X10423571Y-15992000D01*
X10423571Y-15992000D02*
X10433095Y-15982476D01*
X10433095Y-15982476D02*
X10433095Y-16001524D01*
X10509286Y-15801524D02*
X10642619Y-15801524D01*
X10642619Y-15801524D02*
X10556905Y-16001524D01*
X10756905Y-15801524D02*
X10775952Y-15801524D01*
X10775952Y-15801524D02*
X10795000Y-15811048D01*
X10795000Y-15811048D02*
X10804524Y-15820571D01*
X10804524Y-15820571D02*
X10814048Y-15839619D01*
X10814048Y-15839619D02*
X10823571Y-15877714D01*
X10823571Y-15877714D02*
X10823571Y-15925333D01*
X10823571Y-15925333D02*
X10814048Y-15963428D01*
X10814048Y-15963428D02*
X10804524Y-15982476D01*
X10804524Y-15982476D02*
X10795000Y-15992000D01*
X10795000Y-15992000D02*
X10775952Y-16001524D01*
X10775952Y-16001524D02*
X10756905Y-16001524D01*
X10756905Y-16001524D02*
X10737857Y-15992000D01*
X10737857Y-15992000D02*
X10728333Y-15982476D01*
X10728333Y-15982476D02*
X10718810Y-15963428D01*
X10718810Y-15963428D02*
X10709286Y-15925333D01*
X10709286Y-15925333D02*
X10709286Y-15877714D01*
X10709286Y-15877714D02*
X10718810Y-15839619D01*
X10718810Y-15839619D02*
X10728333Y-15820571D01*
X10728333Y-15820571D02*
X10737857Y-15811048D01*
X10737857Y-15811048D02*
X10756905Y-15801524D01*
X10947381Y-15801524D02*
X10966429Y-15801524D01*
X10966429Y-15801524D02*
X10985476Y-15811048D01*
X10985476Y-15811048D02*
X10995000Y-15820571D01*
X10995000Y-15820571D02*
X11004524Y-15839619D01*
X11004524Y-15839619D02*
X11014048Y-15877714D01*
X11014048Y-15877714D02*
X11014048Y-15925333D01*
X11014048Y-15925333D02*
X11004524Y-15963428D01*
X11004524Y-15963428D02*
X10995000Y-15982476D01*
X10995000Y-15982476D02*
X10985476Y-15992000D01*
X10985476Y-15992000D02*
X10966429Y-16001524D01*
X10966429Y-16001524D02*
X10947381Y-16001524D01*
X10947381Y-16001524D02*
X10928333Y-15992000D01*
X10928333Y-15992000D02*
X10918810Y-15982476D01*
X10918810Y-15982476D02*
X10909286Y-15963428D01*
X10909286Y-15963428D02*
X10899762Y-15925333D01*
X10899762Y-15925333D02*
X10899762Y-15877714D01*
X10899762Y-15877714D02*
X10909286Y-15839619D01*
X10909286Y-15839619D02*
X10918810Y-15820571D01*
X10918810Y-15820571D02*
X10928333Y-15811048D01*
X10928333Y-15811048D02*
X10947381Y-15801524D01*
X11099762Y-16001524D02*
X11099762Y-15868190D01*
X11099762Y-15887238D02*
X11109286Y-15877714D01*
X11109286Y-15877714D02*
X11128333Y-15868190D01*
X11128333Y-15868190D02*
X11156905Y-15868190D01*
X11156905Y-15868190D02*
X11175952Y-15877714D01*
X11175952Y-15877714D02*
X11185476Y-15896762D01*
X11185476Y-15896762D02*
X11185476Y-16001524D01*
X11185476Y-15896762D02*
X11195000Y-15877714D01*
X11195000Y-15877714D02*
X11214048Y-15868190D01*
X11214048Y-15868190D02*
X11242619Y-15868190D01*
X11242619Y-15868190D02*
X11261667Y-15877714D01*
X11261667Y-15877714D02*
X11271190Y-15896762D01*
X11271190Y-15896762D02*
X11271190Y-16001524D01*
X11366429Y-16001524D02*
X11366429Y-15868190D01*
X11366429Y-15887238D02*
X11375952Y-15877714D01*
X11375952Y-15877714D02*
X11395000Y-15868190D01*
X11395000Y-15868190D02*
X11423571Y-15868190D01*
X11423571Y-15868190D02*
X11442619Y-15877714D01*
X11442619Y-15877714D02*
X11452143Y-15896762D01*
X11452143Y-15896762D02*
X11452143Y-16001524D01*
X11452143Y-15896762D02*
X11461667Y-15877714D01*
X11461667Y-15877714D02*
X11480714Y-15868190D01*
X11480714Y-15868190D02*
X11509286Y-15868190D01*
X11509286Y-15868190D02*
X11528333Y-15877714D01*
X11528333Y-15877714D02*
X11537857Y-15896762D01*
X11537857Y-15896762D02*
X11537857Y-16001524D01*
X11928333Y-15792000D02*
X11756905Y-16049143D01*
X12185476Y-15801524D02*
X12204524Y-15801524D01*
X12204524Y-15801524D02*
X12223572Y-15811048D01*
X12223572Y-15811048D02*
X12233095Y-15820571D01*
X12233095Y-15820571D02*
X12242619Y-15839619D01*
X12242619Y-15839619D02*
X12252143Y-15877714D01*
X12252143Y-15877714D02*
X12252143Y-15925333D01*
X12252143Y-15925333D02*
X12242619Y-15963428D01*
X12242619Y-15963428D02*
X12233095Y-15982476D01*
X12233095Y-15982476D02*
X12223572Y-15992000D01*
X12223572Y-15992000D02*
X12204524Y-16001524D01*
X12204524Y-16001524D02*
X12185476Y-16001524D01*
X12185476Y-16001524D02*
X12166429Y-15992000D01*
X12166429Y-15992000D02*
X12156905Y-15982476D01*
X12156905Y-15982476D02*
X12147381Y-15963428D01*
X12147381Y-15963428D02*
X12137857Y-15925333D01*
X12137857Y-15925333D02*
X12137857Y-15877714D01*
X12137857Y-15877714D02*
X12147381Y-15839619D01*
X12147381Y-15839619D02*
X12156905Y-15820571D01*
X12156905Y-15820571D02*
X12166429Y-15811048D01*
X12166429Y-15811048D02*
X12185476Y-15801524D01*
X12337857Y-15982476D02*
X12347381Y-15992000D01*
X12347381Y-15992000D02*
X12337857Y-16001524D01*
X12337857Y-16001524D02*
X12328333Y-15992000D01*
X12328333Y-15992000D02*
X12337857Y-15982476D01*
X12337857Y-15982476D02*
X12337857Y-16001524D01*
X12471191Y-15801524D02*
X12490238Y-15801524D01*
X12490238Y-15801524D02*
X12509286Y-15811048D01*
X12509286Y-15811048D02*
X12518810Y-15820571D01*
X12518810Y-15820571D02*
X12528333Y-15839619D01*
X12528333Y-15839619D02*
X12537857Y-15877714D01*
X12537857Y-15877714D02*
X12537857Y-15925333D01*
X12537857Y-15925333D02*
X12528333Y-15963428D01*
X12528333Y-15963428D02*
X12518810Y-15982476D01*
X12518810Y-15982476D02*
X12509286Y-15992000D01*
X12509286Y-15992000D02*
X12490238Y-16001524D01*
X12490238Y-16001524D02*
X12471191Y-16001524D01*
X12471191Y-16001524D02*
X12452143Y-15992000D01*
X12452143Y-15992000D02*
X12442619Y-15982476D01*
X12442619Y-15982476D02*
X12433095Y-15963428D01*
X12433095Y-15963428D02*
X12423572Y-15925333D01*
X12423572Y-15925333D02*
X12423572Y-15877714D01*
X12423572Y-15877714D02*
X12433095Y-15839619D01*
X12433095Y-15839619D02*
X12442619Y-15820571D01*
X12442619Y-15820571D02*
X12452143Y-15811048D01*
X12452143Y-15811048D02*
X12471191Y-15801524D01*
X12614048Y-15820571D02*
X12623572Y-15811048D01*
X12623572Y-15811048D02*
X12642619Y-15801524D01*
X12642619Y-15801524D02*
X12690238Y-15801524D01*
X12690238Y-15801524D02*
X12709286Y-15811048D01*
X12709286Y-15811048D02*
X12718810Y-15820571D01*
X12718810Y-15820571D02*
X12728333Y-15839619D01*
X12728333Y-15839619D02*
X12728333Y-15858667D01*
X12728333Y-15858667D02*
X12718810Y-15887238D01*
X12718810Y-15887238D02*
X12604524Y-16001524D01*
X12604524Y-16001524D02*
X12728333Y-16001524D01*
X12795000Y-15801524D02*
X12928333Y-15801524D01*
X12928333Y-15801524D02*
X12842619Y-16001524D01*
X13090238Y-15801524D02*
X13052143Y-15801524D01*
X13052143Y-15801524D02*
X13033095Y-15811048D01*
X13033095Y-15811048D02*
X13023572Y-15820571D01*
X13023572Y-15820571D02*
X13004524Y-15849143D01*
X13004524Y-15849143D02*
X12995000Y-15887238D01*
X12995000Y-15887238D02*
X12995000Y-15963428D01*
X12995000Y-15963428D02*
X13004524Y-15982476D01*
X13004524Y-15982476D02*
X13014048Y-15992000D01*
X13014048Y-15992000D02*
X13033095Y-16001524D01*
X13033095Y-16001524D02*
X13071191Y-16001524D01*
X13071191Y-16001524D02*
X13090238Y-15992000D01*
X13090238Y-15992000D02*
X13099762Y-15982476D01*
X13099762Y-15982476D02*
X13109286Y-15963428D01*
X13109286Y-15963428D02*
X13109286Y-15915809D01*
X13109286Y-15915809D02*
X13099762Y-15896762D01*
X13099762Y-15896762D02*
X13090238Y-15887238D01*
X13090238Y-15887238D02*
X13071191Y-15877714D01*
X13071191Y-15877714D02*
X13033095Y-15877714D01*
X13033095Y-15877714D02*
X13014048Y-15887238D01*
X13014048Y-15887238D02*
X13004524Y-15896762D01*
X13004524Y-15896762D02*
X12995000Y-15915809D01*
X13185476Y-15801524D02*
X13185476Y-15839619D01*
X13261667Y-15801524D02*
X13261667Y-15839619D01*
X13556905Y-16077714D02*
X13547381Y-16068190D01*
X13547381Y-16068190D02*
X13528334Y-16039619D01*
X13528334Y-16039619D02*
X13518810Y-16020571D01*
X13518810Y-16020571D02*
X13509286Y-15992000D01*
X13509286Y-15992000D02*
X13499762Y-15944381D01*
X13499762Y-15944381D02*
X13499762Y-15906286D01*
X13499762Y-15906286D02*
X13509286Y-15858667D01*
X13509286Y-15858667D02*
X13518810Y-15830095D01*
X13518810Y-15830095D02*
X13528334Y-15811048D01*
X13528334Y-15811048D02*
X13547381Y-15782476D01*
X13547381Y-15782476D02*
X13556905Y-15772952D01*
X13661667Y-15887238D02*
X13642619Y-15877714D01*
X13642619Y-15877714D02*
X13633095Y-15868190D01*
X13633095Y-15868190D02*
X13623572Y-15849143D01*
X13623572Y-15849143D02*
X13623572Y-15839619D01*
X13623572Y-15839619D02*
X13633095Y-15820571D01*
X13633095Y-15820571D02*
X13642619Y-15811048D01*
X13642619Y-15811048D02*
X13661667Y-15801524D01*
X13661667Y-15801524D02*
X13699762Y-15801524D01*
X13699762Y-15801524D02*
X13718810Y-15811048D01*
X13718810Y-15811048D02*
X13728334Y-15820571D01*
X13728334Y-15820571D02*
X13737857Y-15839619D01*
X13737857Y-15839619D02*
X13737857Y-15849143D01*
X13737857Y-15849143D02*
X13728334Y-15868190D01*
X13728334Y-15868190D02*
X13718810Y-15877714D01*
X13718810Y-15877714D02*
X13699762Y-15887238D01*
X13699762Y-15887238D02*
X13661667Y-15887238D01*
X13661667Y-15887238D02*
X13642619Y-15896762D01*
X13642619Y-15896762D02*
X13633095Y-15906286D01*
X13633095Y-15906286D02*
X13623572Y-15925333D01*
X13623572Y-15925333D02*
X13623572Y-15963428D01*
X13623572Y-15963428D02*
X13633095Y-15982476D01*
X13633095Y-15982476D02*
X13642619Y-15992000D01*
X13642619Y-15992000D02*
X13661667Y-16001524D01*
X13661667Y-16001524D02*
X13699762Y-16001524D01*
X13699762Y-16001524D02*
X13718810Y-15992000D01*
X13718810Y-15992000D02*
X13728334Y-15982476D01*
X13728334Y-15982476D02*
X13737857Y-15963428D01*
X13737857Y-15963428D02*
X13737857Y-15925333D01*
X13737857Y-15925333D02*
X13728334Y-15906286D01*
X13728334Y-15906286D02*
X13718810Y-15896762D01*
X13718810Y-15896762D02*
X13699762Y-15887238D01*
X13975953Y-16001524D02*
X13975953Y-15801524D01*
X14061667Y-16001524D02*
X14061667Y-15896762D01*
X14061667Y-15896762D02*
X14052143Y-15877714D01*
X14052143Y-15877714D02*
X14033096Y-15868190D01*
X14033096Y-15868190D02*
X14004524Y-15868190D01*
X14004524Y-15868190D02*
X13985476Y-15877714D01*
X13985476Y-15877714D02*
X13975953Y-15887238D01*
X14185476Y-16001524D02*
X14166429Y-15992000D01*
X14166429Y-15992000D02*
X14156905Y-15982476D01*
X14156905Y-15982476D02*
X14147381Y-15963428D01*
X14147381Y-15963428D02*
X14147381Y-15906286D01*
X14147381Y-15906286D02*
X14156905Y-15887238D01*
X14156905Y-15887238D02*
X14166429Y-15877714D01*
X14166429Y-15877714D02*
X14185476Y-15868190D01*
X14185476Y-15868190D02*
X14214048Y-15868190D01*
X14214048Y-15868190D02*
X14233096Y-15877714D01*
X14233096Y-15877714D02*
X14242619Y-15887238D01*
X14242619Y-15887238D02*
X14252143Y-15906286D01*
X14252143Y-15906286D02*
X14252143Y-15963428D01*
X14252143Y-15963428D02*
X14242619Y-15982476D01*
X14242619Y-15982476D02*
X14233096Y-15992000D01*
X14233096Y-15992000D02*
X14214048Y-16001524D01*
X14214048Y-16001524D02*
X14185476Y-16001524D01*
X14366429Y-16001524D02*
X14347381Y-15992000D01*
X14347381Y-15992000D02*
X14337857Y-15972952D01*
X14337857Y-15972952D02*
X14337857Y-15801524D01*
X14518810Y-15992000D02*
X14499762Y-16001524D01*
X14499762Y-16001524D02*
X14461667Y-16001524D01*
X14461667Y-16001524D02*
X14442619Y-15992000D01*
X14442619Y-15992000D02*
X14433096Y-15972952D01*
X14433096Y-15972952D02*
X14433096Y-15896762D01*
X14433096Y-15896762D02*
X14442619Y-15877714D01*
X14442619Y-15877714D02*
X14461667Y-15868190D01*
X14461667Y-15868190D02*
X14499762Y-15868190D01*
X14499762Y-15868190D02*
X14518810Y-15877714D01*
X14518810Y-15877714D02*
X14528334Y-15896762D01*
X14528334Y-15896762D02*
X14528334Y-15915809D01*
X14528334Y-15915809D02*
X14433096Y-15934857D01*
X14604524Y-15992000D02*
X14623572Y-16001524D01*
X14623572Y-16001524D02*
X14661667Y-16001524D01*
X14661667Y-16001524D02*
X14680715Y-15992000D01*
X14680715Y-15992000D02*
X14690238Y-15972952D01*
X14690238Y-15972952D02*
X14690238Y-15963428D01*
X14690238Y-15963428D02*
X14680715Y-15944381D01*
X14680715Y-15944381D02*
X14661667Y-15934857D01*
X14661667Y-15934857D02*
X14633096Y-15934857D01*
X14633096Y-15934857D02*
X14614048Y-15925333D01*
X14614048Y-15925333D02*
X14604524Y-15906286D01*
X14604524Y-15906286D02*
X14604524Y-15896762D01*
X14604524Y-15896762D02*
X14614048Y-15877714D01*
X14614048Y-15877714D02*
X14633096Y-15868190D01*
X14633096Y-15868190D02*
X14661667Y-15868190D01*
X14661667Y-15868190D02*
X14680715Y-15877714D01*
X14756905Y-16077714D02*
X14766429Y-16068190D01*
X14766429Y-16068190D02*
X14785477Y-16039619D01*
X14785477Y-16039619D02*
X14795000Y-16020571D01*
X14795000Y-16020571D02*
X14804524Y-15992000D01*
X14804524Y-15992000D02*
X14814048Y-15944381D01*
X14814048Y-15944381D02*
X14814048Y-15906286D01*
X14814048Y-15906286D02*
X14804524Y-15858667D01*
X14804524Y-15858667D02*
X14795000Y-15830095D01*
X14795000Y-15830095D02*
X14785477Y-15811048D01*
X14785477Y-15811048D02*
X14766429Y-15782476D01*
X14766429Y-15782476D02*
X14756905Y-15772952D01*
D10*
X9945000Y-16123000D02*
X9945000Y-16223000D01*
X9895000Y-16173000D02*
X9995000Y-16173000D01*
D11*
X10347381Y-16265524D02*
X10233095Y-16265524D01*
X10290238Y-16265524D02*
X10290238Y-16065524D01*
X10290238Y-16065524D02*
X10271190Y-16094095D01*
X10271190Y-16094095D02*
X10252143Y-16113143D01*
X10252143Y-16113143D02*
X10233095Y-16122667D01*
X10433095Y-16246476D02*
X10442619Y-16256000D01*
X10442619Y-16256000D02*
X10433095Y-16265524D01*
X10433095Y-16265524D02*
X10423571Y-16256000D01*
X10423571Y-16256000D02*
X10433095Y-16246476D01*
X10433095Y-16246476D02*
X10433095Y-16265524D01*
X10566429Y-16065524D02*
X10585476Y-16065524D01*
X10585476Y-16065524D02*
X10604524Y-16075048D01*
X10604524Y-16075048D02*
X10614048Y-16084571D01*
X10614048Y-16084571D02*
X10623571Y-16103619D01*
X10623571Y-16103619D02*
X10633095Y-16141714D01*
X10633095Y-16141714D02*
X10633095Y-16189333D01*
X10633095Y-16189333D02*
X10623571Y-16227428D01*
X10623571Y-16227428D02*
X10614048Y-16246476D01*
X10614048Y-16246476D02*
X10604524Y-16256000D01*
X10604524Y-16256000D02*
X10585476Y-16265524D01*
X10585476Y-16265524D02*
X10566429Y-16265524D01*
X10566429Y-16265524D02*
X10547381Y-16256000D01*
X10547381Y-16256000D02*
X10537857Y-16246476D01*
X10537857Y-16246476D02*
X10528333Y-16227428D01*
X10528333Y-16227428D02*
X10518810Y-16189333D01*
X10518810Y-16189333D02*
X10518810Y-16141714D01*
X10518810Y-16141714D02*
X10528333Y-16103619D01*
X10528333Y-16103619D02*
X10537857Y-16084571D01*
X10537857Y-16084571D02*
X10547381Y-16075048D01*
X10547381Y-16075048D02*
X10566429Y-16065524D01*
X10756905Y-16065524D02*
X10775952Y-16065524D01*
X10775952Y-16065524D02*
X10795000Y-16075048D01*
X10795000Y-16075048D02*
X10804524Y-16084571D01*
X10804524Y-16084571D02*
X10814048Y-16103619D01*
X10814048Y-16103619D02*
X10823571Y-16141714D01*
X10823571Y-16141714D02*
X10823571Y-16189333D01*
X10823571Y-16189333D02*
X10814048Y-16227428D01*
X10814048Y-16227428D02*
X10804524Y-16246476D01*
X10804524Y-16246476D02*
X10795000Y-16256000D01*
X10795000Y-16256000D02*
X10775952Y-16265524D01*
X10775952Y-16265524D02*
X10756905Y-16265524D01*
X10756905Y-16265524D02*
X10737857Y-16256000D01*
X10737857Y-16256000D02*
X10728333Y-16246476D01*
X10728333Y-16246476D02*
X10718810Y-16227428D01*
X10718810Y-16227428D02*
X10709286Y-16189333D01*
X10709286Y-16189333D02*
X10709286Y-16141714D01*
X10709286Y-16141714D02*
X10718810Y-16103619D01*
X10718810Y-16103619D02*
X10728333Y-16084571D01*
X10728333Y-16084571D02*
X10737857Y-16075048D01*
X10737857Y-16075048D02*
X10756905Y-16065524D01*
X10947381Y-16065524D02*
X10966429Y-16065524D01*
X10966429Y-16065524D02*
X10985476Y-16075048D01*
X10985476Y-16075048D02*
X10995000Y-16084571D01*
X10995000Y-16084571D02*
X11004524Y-16103619D01*
X11004524Y-16103619D02*
X11014048Y-16141714D01*
X11014048Y-16141714D02*
X11014048Y-16189333D01*
X11014048Y-16189333D02*
X11004524Y-16227428D01*
X11004524Y-16227428D02*
X10995000Y-16246476D01*
X10995000Y-16246476D02*
X10985476Y-16256000D01*
X10985476Y-16256000D02*
X10966429Y-16265524D01*
X10966429Y-16265524D02*
X10947381Y-16265524D01*
X10947381Y-16265524D02*
X10928333Y-16256000D01*
X10928333Y-16256000D02*
X10918810Y-16246476D01*
X10918810Y-16246476D02*
X10909286Y-16227428D01*
X10909286Y-16227428D02*
X10899762Y-16189333D01*
X10899762Y-16189333D02*
X10899762Y-16141714D01*
X10899762Y-16141714D02*
X10909286Y-16103619D01*
X10909286Y-16103619D02*
X10918810Y-16084571D01*
X10918810Y-16084571D02*
X10928333Y-16075048D01*
X10928333Y-16075048D02*
X10947381Y-16065524D01*
X11099762Y-16265524D02*
X11099762Y-16132190D01*
X11099762Y-16151238D02*
X11109286Y-16141714D01*
X11109286Y-16141714D02*
X11128333Y-16132190D01*
X11128333Y-16132190D02*
X11156905Y-16132190D01*
X11156905Y-16132190D02*
X11175952Y-16141714D01*
X11175952Y-16141714D02*
X11185476Y-16160762D01*
X11185476Y-16160762D02*
X11185476Y-16265524D01*
X11185476Y-16160762D02*
X11195000Y-16141714D01*
X11195000Y-16141714D02*
X11214048Y-16132190D01*
X11214048Y-16132190D02*
X11242619Y-16132190D01*
X11242619Y-16132190D02*
X11261667Y-16141714D01*
X11261667Y-16141714D02*
X11271190Y-16160762D01*
X11271190Y-16160762D02*
X11271190Y-16265524D01*
X11366429Y-16265524D02*
X11366429Y-16132190D01*
X11366429Y-16151238D02*
X11375952Y-16141714D01*
X11375952Y-16141714D02*
X11395000Y-16132190D01*
X11395000Y-16132190D02*
X11423571Y-16132190D01*
X11423571Y-16132190D02*
X11442619Y-16141714D01*
X11442619Y-16141714D02*
X11452143Y-16160762D01*
X11452143Y-16160762D02*
X11452143Y-16265524D01*
X11452143Y-16160762D02*
X11461667Y-16141714D01*
X11461667Y-16141714D02*
X11480714Y-16132190D01*
X11480714Y-16132190D02*
X11509286Y-16132190D01*
X11509286Y-16132190D02*
X11528333Y-16141714D01*
X11528333Y-16141714D02*
X11537857Y-16160762D01*
X11537857Y-16160762D02*
X11537857Y-16265524D01*
X11928333Y-16056000D02*
X11756905Y-16313143D01*
X12185476Y-16065524D02*
X12204524Y-16065524D01*
X12204524Y-16065524D02*
X12223572Y-16075048D01*
X12223572Y-16075048D02*
X12233095Y-16084571D01*
X12233095Y-16084571D02*
X12242619Y-16103619D01*
X12242619Y-16103619D02*
X12252143Y-16141714D01*
X12252143Y-16141714D02*
X12252143Y-16189333D01*
X12252143Y-16189333D02*
X12242619Y-16227428D01*
X12242619Y-16227428D02*
X12233095Y-16246476D01*
X12233095Y-16246476D02*
X12223572Y-16256000D01*
X12223572Y-16256000D02*
X12204524Y-16265524D01*
X12204524Y-16265524D02*
X12185476Y-16265524D01*
X12185476Y-16265524D02*
X12166429Y-16256000D01*
X12166429Y-16256000D02*
X12156905Y-16246476D01*
X12156905Y-16246476D02*
X12147381Y-16227428D01*
X12147381Y-16227428D02*
X12137857Y-16189333D01*
X12137857Y-16189333D02*
X12137857Y-16141714D01*
X12137857Y-16141714D02*
X12147381Y-16103619D01*
X12147381Y-16103619D02*
X12156905Y-16084571D01*
X12156905Y-16084571D02*
X12166429Y-16075048D01*
X12166429Y-16075048D02*
X12185476Y-16065524D01*
X12337857Y-16246476D02*
X12347381Y-16256000D01*
X12347381Y-16256000D02*
X12337857Y-16265524D01*
X12337857Y-16265524D02*
X12328333Y-16256000D01*
X12328333Y-16256000D02*
X12337857Y-16246476D01*
X12337857Y-16246476D02*
X12337857Y-16265524D01*
X12471191Y-16065524D02*
X12490238Y-16065524D01*
X12490238Y-16065524D02*
X12509286Y-16075048D01*
X12509286Y-16075048D02*
X12518810Y-16084571D01*
X12518810Y-16084571D02*
X12528333Y-16103619D01*
X12528333Y-16103619D02*
X12537857Y-16141714D01*
X12537857Y-16141714D02*
X12537857Y-16189333D01*
X12537857Y-16189333D02*
X12528333Y-16227428D01*
X12528333Y-16227428D02*
X12518810Y-16246476D01*
X12518810Y-16246476D02*
X12509286Y-16256000D01*
X12509286Y-16256000D02*
X12490238Y-16265524D01*
X12490238Y-16265524D02*
X12471191Y-16265524D01*
X12471191Y-16265524D02*
X12452143Y-16256000D01*
X12452143Y-16256000D02*
X12442619Y-16246476D01*
X12442619Y-16246476D02*
X12433095Y-16227428D01*
X12433095Y-16227428D02*
X12423572Y-16189333D01*
X12423572Y-16189333D02*
X12423572Y-16141714D01*
X12423572Y-16141714D02*
X12433095Y-16103619D01*
X12433095Y-16103619D02*
X12442619Y-16084571D01*
X12442619Y-16084571D02*
X12452143Y-16075048D01*
X12452143Y-16075048D02*
X12471191Y-16065524D01*
X12604524Y-16065524D02*
X12728333Y-16065524D01*
X12728333Y-16065524D02*
X12661667Y-16141714D01*
X12661667Y-16141714D02*
X12690238Y-16141714D01*
X12690238Y-16141714D02*
X12709286Y-16151238D01*
X12709286Y-16151238D02*
X12718810Y-16160762D01*
X12718810Y-16160762D02*
X12728333Y-16179809D01*
X12728333Y-16179809D02*
X12728333Y-16227428D01*
X12728333Y-16227428D02*
X12718810Y-16246476D01*
X12718810Y-16246476D02*
X12709286Y-16256000D01*
X12709286Y-16256000D02*
X12690238Y-16265524D01*
X12690238Y-16265524D02*
X12633095Y-16265524D01*
X12633095Y-16265524D02*
X12614048Y-16256000D01*
X12614048Y-16256000D02*
X12604524Y-16246476D01*
X12823572Y-16265524D02*
X12861667Y-16265524D01*
X12861667Y-16265524D02*
X12880714Y-16256000D01*
X12880714Y-16256000D02*
X12890238Y-16246476D01*
X12890238Y-16246476D02*
X12909286Y-16217905D01*
X12909286Y-16217905D02*
X12918810Y-16179809D01*
X12918810Y-16179809D02*
X12918810Y-16103619D01*
X12918810Y-16103619D02*
X12909286Y-16084571D01*
X12909286Y-16084571D02*
X12899762Y-16075048D01*
X12899762Y-16075048D02*
X12880714Y-16065524D01*
X12880714Y-16065524D02*
X12842619Y-16065524D01*
X12842619Y-16065524D02*
X12823572Y-16075048D01*
X12823572Y-16075048D02*
X12814048Y-16084571D01*
X12814048Y-16084571D02*
X12804524Y-16103619D01*
X12804524Y-16103619D02*
X12804524Y-16151238D01*
X12804524Y-16151238D02*
X12814048Y-16170286D01*
X12814048Y-16170286D02*
X12823572Y-16179809D01*
X12823572Y-16179809D02*
X12842619Y-16189333D01*
X12842619Y-16189333D02*
X12880714Y-16189333D01*
X12880714Y-16189333D02*
X12899762Y-16179809D01*
X12899762Y-16179809D02*
X12909286Y-16170286D01*
X12909286Y-16170286D02*
X12918810Y-16151238D01*
X13090238Y-16132190D02*
X13090238Y-16265524D01*
X13042619Y-16056000D02*
X12995000Y-16198857D01*
X12995000Y-16198857D02*
X13118810Y-16198857D01*
X13185476Y-16065524D02*
X13185476Y-16103619D01*
X13261667Y-16065524D02*
X13261667Y-16103619D01*
X13556905Y-16341714D02*
X13547381Y-16332190D01*
X13547381Y-16332190D02*
X13528334Y-16303619D01*
X13528334Y-16303619D02*
X13518810Y-16284571D01*
X13518810Y-16284571D02*
X13509286Y-16256000D01*
X13509286Y-16256000D02*
X13499762Y-16208381D01*
X13499762Y-16208381D02*
X13499762Y-16170286D01*
X13499762Y-16170286D02*
X13509286Y-16122667D01*
X13509286Y-16122667D02*
X13518810Y-16094095D01*
X13518810Y-16094095D02*
X13528334Y-16075048D01*
X13528334Y-16075048D02*
X13547381Y-16046476D01*
X13547381Y-16046476D02*
X13556905Y-16036952D01*
X13718810Y-16132190D02*
X13718810Y-16265524D01*
X13671191Y-16056000D02*
X13623572Y-16198857D01*
X13623572Y-16198857D02*
X13747381Y-16198857D01*
X13975953Y-16265524D02*
X13975953Y-16065524D01*
X14061667Y-16265524D02*
X14061667Y-16160762D01*
X14061667Y-16160762D02*
X14052143Y-16141714D01*
X14052143Y-16141714D02*
X14033096Y-16132190D01*
X14033096Y-16132190D02*
X14004524Y-16132190D01*
X14004524Y-16132190D02*
X13985476Y-16141714D01*
X13985476Y-16141714D02*
X13975953Y-16151238D01*
X14185476Y-16265524D02*
X14166429Y-16256000D01*
X14166429Y-16256000D02*
X14156905Y-16246476D01*
X14156905Y-16246476D02*
X14147381Y-16227428D01*
X14147381Y-16227428D02*
X14147381Y-16170286D01*
X14147381Y-16170286D02*
X14156905Y-16151238D01*
X14156905Y-16151238D02*
X14166429Y-16141714D01*
X14166429Y-16141714D02*
X14185476Y-16132190D01*
X14185476Y-16132190D02*
X14214048Y-16132190D01*
X14214048Y-16132190D02*
X14233096Y-16141714D01*
X14233096Y-16141714D02*
X14242619Y-16151238D01*
X14242619Y-16151238D02*
X14252143Y-16170286D01*
X14252143Y-16170286D02*
X14252143Y-16227428D01*
X14252143Y-16227428D02*
X14242619Y-16246476D01*
X14242619Y-16246476D02*
X14233096Y-16256000D01*
X14233096Y-16256000D02*
X14214048Y-16265524D01*
X14214048Y-16265524D02*
X14185476Y-16265524D01*
X14366429Y-16265524D02*
X14347381Y-16256000D01*
X14347381Y-16256000D02*
X14337857Y-16236952D01*
X14337857Y-16236952D02*
X14337857Y-16065524D01*
X14518810Y-16256000D02*
X14499762Y-16265524D01*
X14499762Y-16265524D02*
X14461667Y-16265524D01*
X14461667Y-16265524D02*
X14442619Y-16256000D01*
X14442619Y-16256000D02*
X14433096Y-16236952D01*
X14433096Y-16236952D02*
X14433096Y-16160762D01*
X14433096Y-16160762D02*
X14442619Y-16141714D01*
X14442619Y-16141714D02*
X14461667Y-16132190D01*
X14461667Y-16132190D02*
X14499762Y-16132190D01*
X14499762Y-16132190D02*
X14518810Y-16141714D01*
X14518810Y-16141714D02*
X14528334Y-16160762D01*
X14528334Y-16160762D02*
X14528334Y-16179809D01*
X14528334Y-16179809D02*
X14433096Y-16198857D01*
X14604524Y-16256000D02*
X14623572Y-16265524D01*
X14623572Y-16265524D02*
X14661667Y-16265524D01*
X14661667Y-16265524D02*
X14680715Y-16256000D01*
X14680715Y-16256000D02*
X14690238Y-16236952D01*
X14690238Y-16236952D02*
X14690238Y-16227428D01*
X14690238Y-16227428D02*
X14680715Y-16208381D01*
X14680715Y-16208381D02*
X14661667Y-16198857D01*
X14661667Y-16198857D02*
X14633096Y-16198857D01*
X14633096Y-16198857D02*
X14614048Y-16189333D01*
X14614048Y-16189333D02*
X14604524Y-16170286D01*
X14604524Y-16170286D02*
X14604524Y-16160762D01*
X14604524Y-16160762D02*
X14614048Y-16141714D01*
X14614048Y-16141714D02*
X14633096Y-16132190D01*
X14633096Y-16132190D02*
X14661667Y-16132190D01*
X14661667Y-16132190D02*
X14680715Y-16141714D01*
X14756905Y-16341714D02*
X14766429Y-16332190D01*
X14766429Y-16332190D02*
X14785477Y-16303619D01*
X14785477Y-16303619D02*
X14795000Y-16284571D01*
X14795000Y-16284571D02*
X14804524Y-16256000D01*
X14804524Y-16256000D02*
X14814048Y-16208381D01*
X14814048Y-16208381D02*
X14814048Y-16170286D01*
X14814048Y-16170286D02*
X14804524Y-16122667D01*
X14804524Y-16122667D02*
X14795000Y-16094095D01*
X14795000Y-16094095D02*
X14785477Y-16075048D01*
X14785477Y-16075048D02*
X14766429Y-16046476D01*
X14766429Y-16046476D02*
X14756905Y-16036952D01*
D14*
X9978891Y-16475891D02*
X9978891Y-16398109D01*
X9901109Y-16398109D01*
X9901109Y-16475891D01*
X9978891Y-16475891D01*
D11*
X10347381Y-16529524D02*
X10233095Y-16529524D01*
X10290238Y-16529524D02*
X10290238Y-16329524D01*
X10290238Y-16329524D02*
X10271190Y-16358095D01*
X10271190Y-16358095D02*
X10252143Y-16377143D01*
X10252143Y-16377143D02*
X10233095Y-16386667D01*
X10433095Y-16510476D02*
X10442619Y-16520000D01*
X10442619Y-16520000D02*
X10433095Y-16529524D01*
X10433095Y-16529524D02*
X10423571Y-16520000D01*
X10423571Y-16520000D02*
X10433095Y-16510476D01*
X10433095Y-16510476D02*
X10433095Y-16529524D01*
X10633095Y-16529524D02*
X10518810Y-16529524D01*
X10575952Y-16529524D02*
X10575952Y-16329524D01*
X10575952Y-16329524D02*
X10556905Y-16358095D01*
X10556905Y-16358095D02*
X10537857Y-16377143D01*
X10537857Y-16377143D02*
X10518810Y-16386667D01*
X10756905Y-16329524D02*
X10775952Y-16329524D01*
X10775952Y-16329524D02*
X10795000Y-16339048D01*
X10795000Y-16339048D02*
X10804524Y-16348571D01*
X10804524Y-16348571D02*
X10814048Y-16367619D01*
X10814048Y-16367619D02*
X10823571Y-16405714D01*
X10823571Y-16405714D02*
X10823571Y-16453333D01*
X10823571Y-16453333D02*
X10814048Y-16491428D01*
X10814048Y-16491428D02*
X10804524Y-16510476D01*
X10804524Y-16510476D02*
X10795000Y-16520000D01*
X10795000Y-16520000D02*
X10775952Y-16529524D01*
X10775952Y-16529524D02*
X10756905Y-16529524D01*
X10756905Y-16529524D02*
X10737857Y-16520000D01*
X10737857Y-16520000D02*
X10728333Y-16510476D01*
X10728333Y-16510476D02*
X10718810Y-16491428D01*
X10718810Y-16491428D02*
X10709286Y-16453333D01*
X10709286Y-16453333D02*
X10709286Y-16405714D01*
X10709286Y-16405714D02*
X10718810Y-16367619D01*
X10718810Y-16367619D02*
X10728333Y-16348571D01*
X10728333Y-16348571D02*
X10737857Y-16339048D01*
X10737857Y-16339048D02*
X10756905Y-16329524D01*
X10947381Y-16329524D02*
X10966429Y-16329524D01*
X10966429Y-16329524D02*
X10985476Y-16339048D01*
X10985476Y-16339048D02*
X10995000Y-16348571D01*
X10995000Y-16348571D02*
X11004524Y-16367619D01*
X11004524Y-16367619D02*
X11014048Y-16405714D01*
X11014048Y-16405714D02*
X11014048Y-16453333D01*
X11014048Y-16453333D02*
X11004524Y-16491428D01*
X11004524Y-16491428D02*
X10995000Y-16510476D01*
X10995000Y-16510476D02*
X10985476Y-16520000D01*
X10985476Y-16520000D02*
X10966429Y-16529524D01*
X10966429Y-16529524D02*
X10947381Y-16529524D01*
X10947381Y-16529524D02*
X10928333Y-16520000D01*
X10928333Y-16520000D02*
X10918810Y-16510476D01*
X10918810Y-16510476D02*
X10909286Y-16491428D01*
X10909286Y-16491428D02*
X10899762Y-16453333D01*
X10899762Y-16453333D02*
X10899762Y-16405714D01*
X10899762Y-16405714D02*
X10909286Y-16367619D01*
X10909286Y-16367619D02*
X10918810Y-16348571D01*
X10918810Y-16348571D02*
X10928333Y-16339048D01*
X10928333Y-16339048D02*
X10947381Y-16329524D01*
X11099762Y-16529524D02*
X11099762Y-16396190D01*
X11099762Y-16415238D02*
X11109286Y-16405714D01*
X11109286Y-16405714D02*
X11128333Y-16396190D01*
X11128333Y-16396190D02*
X11156905Y-16396190D01*
X11156905Y-16396190D02*
X11175952Y-16405714D01*
X11175952Y-16405714D02*
X11185476Y-16424762D01*
X11185476Y-16424762D02*
X11185476Y-16529524D01*
X11185476Y-16424762D02*
X11195000Y-16405714D01*
X11195000Y-16405714D02*
X11214048Y-16396190D01*
X11214048Y-16396190D02*
X11242619Y-16396190D01*
X11242619Y-16396190D02*
X11261667Y-16405714D01*
X11261667Y-16405714D02*
X11271190Y-16424762D01*
X11271190Y-16424762D02*
X11271190Y-16529524D01*
X11366429Y-16529524D02*
X11366429Y-16396190D01*
X11366429Y-16415238D02*
X11375952Y-16405714D01*
X11375952Y-16405714D02*
X11395000Y-16396190D01*
X11395000Y-16396190D02*
X11423571Y-16396190D01*
X11423571Y-16396190D02*
X11442619Y-16405714D01*
X11442619Y-16405714D02*
X11452143Y-16424762D01*
X11452143Y-16424762D02*
X11452143Y-16529524D01*
X11452143Y-16424762D02*
X11461667Y-16405714D01*
X11461667Y-16405714D02*
X11480714Y-16396190D01*
X11480714Y-16396190D02*
X11509286Y-16396190D01*
X11509286Y-16396190D02*
X11528333Y-16405714D01*
X11528333Y-16405714D02*
X11537857Y-16424762D01*
X11537857Y-16424762D02*
X11537857Y-16529524D01*
X11928333Y-16320000D02*
X11756905Y-16577143D01*
X12185476Y-16329524D02*
X12204524Y-16329524D01*
X12204524Y-16329524D02*
X12223572Y-16339048D01*
X12223572Y-16339048D02*
X12233095Y-16348571D01*
X12233095Y-16348571D02*
X12242619Y-16367619D01*
X12242619Y-16367619D02*
X12252143Y-16405714D01*
X12252143Y-16405714D02*
X12252143Y-16453333D01*
X12252143Y-16453333D02*
X12242619Y-16491428D01*
X12242619Y-16491428D02*
X12233095Y-16510476D01*
X12233095Y-16510476D02*
X12223572Y-16520000D01*
X12223572Y-16520000D02*
X12204524Y-16529524D01*
X12204524Y-16529524D02*
X12185476Y-16529524D01*
X12185476Y-16529524D02*
X12166429Y-16520000D01*
X12166429Y-16520000D02*
X12156905Y-16510476D01*
X12156905Y-16510476D02*
X12147381Y-16491428D01*
X12147381Y-16491428D02*
X12137857Y-16453333D01*
X12137857Y-16453333D02*
X12137857Y-16405714D01*
X12137857Y-16405714D02*
X12147381Y-16367619D01*
X12147381Y-16367619D02*
X12156905Y-16348571D01*
X12156905Y-16348571D02*
X12166429Y-16339048D01*
X12166429Y-16339048D02*
X12185476Y-16329524D01*
X12337857Y-16510476D02*
X12347381Y-16520000D01*
X12347381Y-16520000D02*
X12337857Y-16529524D01*
X12337857Y-16529524D02*
X12328333Y-16520000D01*
X12328333Y-16520000D02*
X12337857Y-16510476D01*
X12337857Y-16510476D02*
X12337857Y-16529524D01*
X12471191Y-16329524D02*
X12490238Y-16329524D01*
X12490238Y-16329524D02*
X12509286Y-16339048D01*
X12509286Y-16339048D02*
X12518810Y-16348571D01*
X12518810Y-16348571D02*
X12528333Y-16367619D01*
X12528333Y-16367619D02*
X12537857Y-16405714D01*
X12537857Y-16405714D02*
X12537857Y-16453333D01*
X12537857Y-16453333D02*
X12528333Y-16491428D01*
X12528333Y-16491428D02*
X12518810Y-16510476D01*
X12518810Y-16510476D02*
X12509286Y-16520000D01*
X12509286Y-16520000D02*
X12490238Y-16529524D01*
X12490238Y-16529524D02*
X12471191Y-16529524D01*
X12471191Y-16529524D02*
X12452143Y-16520000D01*
X12452143Y-16520000D02*
X12442619Y-16510476D01*
X12442619Y-16510476D02*
X12433095Y-16491428D01*
X12433095Y-16491428D02*
X12423572Y-16453333D01*
X12423572Y-16453333D02*
X12423572Y-16405714D01*
X12423572Y-16405714D02*
X12433095Y-16367619D01*
X12433095Y-16367619D02*
X12442619Y-16348571D01*
X12442619Y-16348571D02*
X12452143Y-16339048D01*
X12452143Y-16339048D02*
X12471191Y-16329524D01*
X12709286Y-16396190D02*
X12709286Y-16529524D01*
X12661667Y-16320000D02*
X12614048Y-16462857D01*
X12614048Y-16462857D02*
X12737857Y-16462857D01*
X12795000Y-16329524D02*
X12918810Y-16329524D01*
X12918810Y-16329524D02*
X12852143Y-16405714D01*
X12852143Y-16405714D02*
X12880714Y-16405714D01*
X12880714Y-16405714D02*
X12899762Y-16415238D01*
X12899762Y-16415238D02*
X12909286Y-16424762D01*
X12909286Y-16424762D02*
X12918810Y-16443809D01*
X12918810Y-16443809D02*
X12918810Y-16491428D01*
X12918810Y-16491428D02*
X12909286Y-16510476D01*
X12909286Y-16510476D02*
X12899762Y-16520000D01*
X12899762Y-16520000D02*
X12880714Y-16529524D01*
X12880714Y-16529524D02*
X12823572Y-16529524D01*
X12823572Y-16529524D02*
X12804524Y-16520000D01*
X12804524Y-16520000D02*
X12795000Y-16510476D01*
X12985476Y-16329524D02*
X13109286Y-16329524D01*
X13109286Y-16329524D02*
X13042619Y-16405714D01*
X13042619Y-16405714D02*
X13071191Y-16405714D01*
X13071191Y-16405714D02*
X13090238Y-16415238D01*
X13090238Y-16415238D02*
X13099762Y-16424762D01*
X13099762Y-16424762D02*
X13109286Y-16443809D01*
X13109286Y-16443809D02*
X13109286Y-16491428D01*
X13109286Y-16491428D02*
X13099762Y-16510476D01*
X13099762Y-16510476D02*
X13090238Y-16520000D01*
X13090238Y-16520000D02*
X13071191Y-16529524D01*
X13071191Y-16529524D02*
X13014048Y-16529524D01*
X13014048Y-16529524D02*
X12995000Y-16520000D01*
X12995000Y-16520000D02*
X12985476Y-16510476D01*
X13185476Y-16329524D02*
X13185476Y-16367619D01*
X13261667Y-16329524D02*
X13261667Y-16367619D01*
X13556905Y-16605714D02*
X13547381Y-16596190D01*
X13547381Y-16596190D02*
X13528334Y-16567619D01*
X13528334Y-16567619D02*
X13518810Y-16548571D01*
X13518810Y-16548571D02*
X13509286Y-16520000D01*
X13509286Y-16520000D02*
X13499762Y-16472381D01*
X13499762Y-16472381D02*
X13499762Y-16434286D01*
X13499762Y-16434286D02*
X13509286Y-16386667D01*
X13509286Y-16386667D02*
X13518810Y-16358095D01*
X13518810Y-16358095D02*
X13528334Y-16339048D01*
X13528334Y-16339048D02*
X13547381Y-16310476D01*
X13547381Y-16310476D02*
X13556905Y-16300952D01*
X13614048Y-16329524D02*
X13737857Y-16329524D01*
X13737857Y-16329524D02*
X13671191Y-16405714D01*
X13671191Y-16405714D02*
X13699762Y-16405714D01*
X13699762Y-16405714D02*
X13718810Y-16415238D01*
X13718810Y-16415238D02*
X13728334Y-16424762D01*
X13728334Y-16424762D02*
X13737857Y-16443809D01*
X13737857Y-16443809D02*
X13737857Y-16491428D01*
X13737857Y-16491428D02*
X13728334Y-16510476D01*
X13728334Y-16510476D02*
X13718810Y-16520000D01*
X13718810Y-16520000D02*
X13699762Y-16529524D01*
X13699762Y-16529524D02*
X13642619Y-16529524D01*
X13642619Y-16529524D02*
X13623572Y-16520000D01*
X13623572Y-16520000D02*
X13614048Y-16510476D01*
X13975953Y-16529524D02*
X13975953Y-16329524D01*
X14061667Y-16529524D02*
X14061667Y-16424762D01*
X14061667Y-16424762D02*
X14052143Y-16405714D01*
X14052143Y-16405714D02*
X14033096Y-16396190D01*
X14033096Y-16396190D02*
X14004524Y-16396190D01*
X14004524Y-16396190D02*
X13985476Y-16405714D01*
X13985476Y-16405714D02*
X13975953Y-16415238D01*
X14185476Y-16529524D02*
X14166429Y-16520000D01*
X14166429Y-16520000D02*
X14156905Y-16510476D01*
X14156905Y-16510476D02*
X14147381Y-16491428D01*
X14147381Y-16491428D02*
X14147381Y-16434286D01*
X14147381Y-16434286D02*
X14156905Y-16415238D01*
X14156905Y-16415238D02*
X14166429Y-16405714D01*
X14166429Y-16405714D02*
X14185476Y-16396190D01*
X14185476Y-16396190D02*
X14214048Y-16396190D01*
X14214048Y-16396190D02*
X14233096Y-16405714D01*
X14233096Y-16405714D02*
X14242619Y-16415238D01*
X14242619Y-16415238D02*
X14252143Y-16434286D01*
X14252143Y-16434286D02*
X14252143Y-16491428D01*
X14252143Y-16491428D02*
X14242619Y-16510476D01*
X14242619Y-16510476D02*
X14233096Y-16520000D01*
X14233096Y-16520000D02*
X14214048Y-16529524D01*
X14214048Y-16529524D02*
X14185476Y-16529524D01*
X14366429Y-16529524D02*
X14347381Y-16520000D01*
X14347381Y-16520000D02*
X14337857Y-16500952D01*
X14337857Y-16500952D02*
X14337857Y-16329524D01*
X14518810Y-16520000D02*
X14499762Y-16529524D01*
X14499762Y-16529524D02*
X14461667Y-16529524D01*
X14461667Y-16529524D02*
X14442619Y-16520000D01*
X14442619Y-16520000D02*
X14433096Y-16500952D01*
X14433096Y-16500952D02*
X14433096Y-16424762D01*
X14433096Y-16424762D02*
X14442619Y-16405714D01*
X14442619Y-16405714D02*
X14461667Y-16396190D01*
X14461667Y-16396190D02*
X14499762Y-16396190D01*
X14499762Y-16396190D02*
X14518810Y-16405714D01*
X14518810Y-16405714D02*
X14528334Y-16424762D01*
X14528334Y-16424762D02*
X14528334Y-16443809D01*
X14528334Y-16443809D02*
X14433096Y-16462857D01*
X14604524Y-16520000D02*
X14623572Y-16529524D01*
X14623572Y-16529524D02*
X14661667Y-16529524D01*
X14661667Y-16529524D02*
X14680715Y-16520000D01*
X14680715Y-16520000D02*
X14690238Y-16500952D01*
X14690238Y-16500952D02*
X14690238Y-16491428D01*
X14690238Y-16491428D02*
X14680715Y-16472381D01*
X14680715Y-16472381D02*
X14661667Y-16462857D01*
X14661667Y-16462857D02*
X14633096Y-16462857D01*
X14633096Y-16462857D02*
X14614048Y-16453333D01*
X14614048Y-16453333D02*
X14604524Y-16434286D01*
X14604524Y-16434286D02*
X14604524Y-16424762D01*
X14604524Y-16424762D02*
X14614048Y-16405714D01*
X14614048Y-16405714D02*
X14633096Y-16396190D01*
X14633096Y-16396190D02*
X14661667Y-16396190D01*
X14661667Y-16396190D02*
X14680715Y-16405714D01*
X14756905Y-16605714D02*
X14766429Y-16596190D01*
X14766429Y-16596190D02*
X14785477Y-16567619D01*
X14785477Y-16567619D02*
X14795000Y-16548571D01*
X14795000Y-16548571D02*
X14804524Y-16520000D01*
X14804524Y-16520000D02*
X14814048Y-16472381D01*
X14814048Y-16472381D02*
X14814048Y-16434286D01*
X14814048Y-16434286D02*
X14804524Y-16386667D01*
X14804524Y-16386667D02*
X14795000Y-16358095D01*
X14795000Y-16358095D02*
X14785477Y-16339048D01*
X14785477Y-16339048D02*
X14766429Y-16310476D01*
X14766429Y-16310476D02*
X14756905Y-16300952D01*
D15*
X9937850Y-16758150D02*
X9995000Y-16701000D01*
X9937850Y-16643850D01*
X9880700Y-16701000D01*
X9937850Y-16758150D01*
D11*
X10347381Y-16793524D02*
X10233095Y-16793524D01*
X10290238Y-16793524D02*
X10290238Y-16593524D01*
X10290238Y-16593524D02*
X10271190Y-16622095D01*
X10271190Y-16622095D02*
X10252143Y-16641143D01*
X10252143Y-16641143D02*
X10233095Y-16650667D01*
X10433095Y-16774476D02*
X10442619Y-16784000D01*
X10442619Y-16784000D02*
X10433095Y-16793524D01*
X10433095Y-16793524D02*
X10423571Y-16784000D01*
X10423571Y-16784000D02*
X10433095Y-16774476D01*
X10433095Y-16774476D02*
X10433095Y-16793524D01*
X10633095Y-16793524D02*
X10518810Y-16793524D01*
X10575952Y-16793524D02*
X10575952Y-16593524D01*
X10575952Y-16593524D02*
X10556905Y-16622095D01*
X10556905Y-16622095D02*
X10537857Y-16641143D01*
X10537857Y-16641143D02*
X10518810Y-16650667D01*
X10804524Y-16660190D02*
X10804524Y-16793524D01*
X10756905Y-16584000D02*
X10709286Y-16726857D01*
X10709286Y-16726857D02*
X10833095Y-16726857D01*
X10890238Y-16593524D02*
X11014048Y-16593524D01*
X11014048Y-16593524D02*
X10947381Y-16669714D01*
X10947381Y-16669714D02*
X10975952Y-16669714D01*
X10975952Y-16669714D02*
X10995000Y-16679238D01*
X10995000Y-16679238D02*
X11004524Y-16688762D01*
X11004524Y-16688762D02*
X11014048Y-16707809D01*
X11014048Y-16707809D02*
X11014048Y-16755428D01*
X11014048Y-16755428D02*
X11004524Y-16774476D01*
X11004524Y-16774476D02*
X10995000Y-16784000D01*
X10995000Y-16784000D02*
X10975952Y-16793524D01*
X10975952Y-16793524D02*
X10918810Y-16793524D01*
X10918810Y-16793524D02*
X10899762Y-16784000D01*
X10899762Y-16784000D02*
X10890238Y-16774476D01*
X11099762Y-16793524D02*
X11099762Y-16660190D01*
X11099762Y-16679238D02*
X11109286Y-16669714D01*
X11109286Y-16669714D02*
X11128333Y-16660190D01*
X11128333Y-16660190D02*
X11156905Y-16660190D01*
X11156905Y-16660190D02*
X11175952Y-16669714D01*
X11175952Y-16669714D02*
X11185476Y-16688762D01*
X11185476Y-16688762D02*
X11185476Y-16793524D01*
X11185476Y-16688762D02*
X11195000Y-16669714D01*
X11195000Y-16669714D02*
X11214048Y-16660190D01*
X11214048Y-16660190D02*
X11242619Y-16660190D01*
X11242619Y-16660190D02*
X11261667Y-16669714D01*
X11261667Y-16669714D02*
X11271190Y-16688762D01*
X11271190Y-16688762D02*
X11271190Y-16793524D01*
X11366429Y-16793524D02*
X11366429Y-16660190D01*
X11366429Y-16679238D02*
X11375952Y-16669714D01*
X11375952Y-16669714D02*
X11395000Y-16660190D01*
X11395000Y-16660190D02*
X11423571Y-16660190D01*
X11423571Y-16660190D02*
X11442619Y-16669714D01*
X11442619Y-16669714D02*
X11452143Y-16688762D01*
X11452143Y-16688762D02*
X11452143Y-16793524D01*
X11452143Y-16688762D02*
X11461667Y-16669714D01*
X11461667Y-16669714D02*
X11480714Y-16660190D01*
X11480714Y-16660190D02*
X11509286Y-16660190D01*
X11509286Y-16660190D02*
X11528333Y-16669714D01*
X11528333Y-16669714D02*
X11537857Y-16688762D01*
X11537857Y-16688762D02*
X11537857Y-16793524D01*
X11928333Y-16584000D02*
X11756905Y-16841143D01*
X12185476Y-16593524D02*
X12204524Y-16593524D01*
X12204524Y-16593524D02*
X12223572Y-16603048D01*
X12223572Y-16603048D02*
X12233095Y-16612571D01*
X12233095Y-16612571D02*
X12242619Y-16631619D01*
X12242619Y-16631619D02*
X12252143Y-16669714D01*
X12252143Y-16669714D02*
X12252143Y-16717333D01*
X12252143Y-16717333D02*
X12242619Y-16755428D01*
X12242619Y-16755428D02*
X12233095Y-16774476D01*
X12233095Y-16774476D02*
X12223572Y-16784000D01*
X12223572Y-16784000D02*
X12204524Y-16793524D01*
X12204524Y-16793524D02*
X12185476Y-16793524D01*
X12185476Y-16793524D02*
X12166429Y-16784000D01*
X12166429Y-16784000D02*
X12156905Y-16774476D01*
X12156905Y-16774476D02*
X12147381Y-16755428D01*
X12147381Y-16755428D02*
X12137857Y-16717333D01*
X12137857Y-16717333D02*
X12137857Y-16669714D01*
X12137857Y-16669714D02*
X12147381Y-16631619D01*
X12147381Y-16631619D02*
X12156905Y-16612571D01*
X12156905Y-16612571D02*
X12166429Y-16603048D01*
X12166429Y-16603048D02*
X12185476Y-16593524D01*
X12337857Y-16774476D02*
X12347381Y-16784000D01*
X12347381Y-16784000D02*
X12337857Y-16793524D01*
X12337857Y-16793524D02*
X12328333Y-16784000D01*
X12328333Y-16784000D02*
X12337857Y-16774476D01*
X12337857Y-16774476D02*
X12337857Y-16793524D01*
X12471191Y-16593524D02*
X12490238Y-16593524D01*
X12490238Y-16593524D02*
X12509286Y-16603048D01*
X12509286Y-16603048D02*
X12518810Y-16612571D01*
X12518810Y-16612571D02*
X12528333Y-16631619D01*
X12528333Y-16631619D02*
X12537857Y-16669714D01*
X12537857Y-16669714D02*
X12537857Y-16717333D01*
X12537857Y-16717333D02*
X12528333Y-16755428D01*
X12528333Y-16755428D02*
X12518810Y-16774476D01*
X12518810Y-16774476D02*
X12509286Y-16784000D01*
X12509286Y-16784000D02*
X12490238Y-16793524D01*
X12490238Y-16793524D02*
X12471191Y-16793524D01*
X12471191Y-16793524D02*
X12452143Y-16784000D01*
X12452143Y-16784000D02*
X12442619Y-16774476D01*
X12442619Y-16774476D02*
X12433095Y-16755428D01*
X12433095Y-16755428D02*
X12423572Y-16717333D01*
X12423572Y-16717333D02*
X12423572Y-16669714D01*
X12423572Y-16669714D02*
X12433095Y-16631619D01*
X12433095Y-16631619D02*
X12442619Y-16612571D01*
X12442619Y-16612571D02*
X12452143Y-16603048D01*
X12452143Y-16603048D02*
X12471191Y-16593524D01*
X12709286Y-16660190D02*
X12709286Y-16793524D01*
X12661667Y-16584000D02*
X12614048Y-16726857D01*
X12614048Y-16726857D02*
X12737857Y-16726857D01*
X12909286Y-16593524D02*
X12814048Y-16593524D01*
X12814048Y-16593524D02*
X12804524Y-16688762D01*
X12804524Y-16688762D02*
X12814048Y-16679238D01*
X12814048Y-16679238D02*
X12833095Y-16669714D01*
X12833095Y-16669714D02*
X12880714Y-16669714D01*
X12880714Y-16669714D02*
X12899762Y-16679238D01*
X12899762Y-16679238D02*
X12909286Y-16688762D01*
X12909286Y-16688762D02*
X12918810Y-16707809D01*
X12918810Y-16707809D02*
X12918810Y-16755428D01*
X12918810Y-16755428D02*
X12909286Y-16774476D01*
X12909286Y-16774476D02*
X12899762Y-16784000D01*
X12899762Y-16784000D02*
X12880714Y-16793524D01*
X12880714Y-16793524D02*
X12833095Y-16793524D01*
X12833095Y-16793524D02*
X12814048Y-16784000D01*
X12814048Y-16784000D02*
X12804524Y-16774476D01*
X13042619Y-16593524D02*
X13061667Y-16593524D01*
X13061667Y-16593524D02*
X13080714Y-16603048D01*
X13080714Y-16603048D02*
X13090238Y-16612571D01*
X13090238Y-16612571D02*
X13099762Y-16631619D01*
X13099762Y-16631619D02*
X13109286Y-16669714D01*
X13109286Y-16669714D02*
X13109286Y-16717333D01*
X13109286Y-16717333D02*
X13099762Y-16755428D01*
X13099762Y-16755428D02*
X13090238Y-16774476D01*
X13090238Y-16774476D02*
X13080714Y-16784000D01*
X13080714Y-16784000D02*
X13061667Y-16793524D01*
X13061667Y-16793524D02*
X13042619Y-16793524D01*
X13042619Y-16793524D02*
X13023572Y-16784000D01*
X13023572Y-16784000D02*
X13014048Y-16774476D01*
X13014048Y-16774476D02*
X13004524Y-16755428D01*
X13004524Y-16755428D02*
X12995000Y-16717333D01*
X12995000Y-16717333D02*
X12995000Y-16669714D01*
X12995000Y-16669714D02*
X13004524Y-16631619D01*
X13004524Y-16631619D02*
X13014048Y-16612571D01*
X13014048Y-16612571D02*
X13023572Y-16603048D01*
X13023572Y-16603048D02*
X13042619Y-16593524D01*
X13185476Y-16593524D02*
X13185476Y-16631619D01*
X13261667Y-16593524D02*
X13261667Y-16631619D01*
X13556905Y-16869714D02*
X13547381Y-16860190D01*
X13547381Y-16860190D02*
X13528334Y-16831619D01*
X13528334Y-16831619D02*
X13518810Y-16812571D01*
X13518810Y-16812571D02*
X13509286Y-16784000D01*
X13509286Y-16784000D02*
X13499762Y-16736381D01*
X13499762Y-16736381D02*
X13499762Y-16698286D01*
X13499762Y-16698286D02*
X13509286Y-16650667D01*
X13509286Y-16650667D02*
X13518810Y-16622095D01*
X13518810Y-16622095D02*
X13528334Y-16603048D01*
X13528334Y-16603048D02*
X13547381Y-16574476D01*
X13547381Y-16574476D02*
X13556905Y-16564952D01*
X13661667Y-16679238D02*
X13642619Y-16669714D01*
X13642619Y-16669714D02*
X13633095Y-16660190D01*
X13633095Y-16660190D02*
X13623572Y-16641143D01*
X13623572Y-16641143D02*
X13623572Y-16631619D01*
X13623572Y-16631619D02*
X13633095Y-16612571D01*
X13633095Y-16612571D02*
X13642619Y-16603048D01*
X13642619Y-16603048D02*
X13661667Y-16593524D01*
X13661667Y-16593524D02*
X13699762Y-16593524D01*
X13699762Y-16593524D02*
X13718810Y-16603048D01*
X13718810Y-16603048D02*
X13728334Y-16612571D01*
X13728334Y-16612571D02*
X13737857Y-16631619D01*
X13737857Y-16631619D02*
X13737857Y-16641143D01*
X13737857Y-16641143D02*
X13728334Y-16660190D01*
X13728334Y-16660190D02*
X13718810Y-16669714D01*
X13718810Y-16669714D02*
X13699762Y-16679238D01*
X13699762Y-16679238D02*
X13661667Y-16679238D01*
X13661667Y-16679238D02*
X13642619Y-16688762D01*
X13642619Y-16688762D02*
X13633095Y-16698286D01*
X13633095Y-16698286D02*
X13623572Y-16717333D01*
X13623572Y-16717333D02*
X13623572Y-16755428D01*
X13623572Y-16755428D02*
X13633095Y-16774476D01*
X13633095Y-16774476D02*
X13642619Y-16784000D01*
X13642619Y-16784000D02*
X13661667Y-16793524D01*
X13661667Y-16793524D02*
X13699762Y-16793524D01*
X13699762Y-16793524D02*
X13718810Y-16784000D01*
X13718810Y-16784000D02*
X13728334Y-16774476D01*
X13728334Y-16774476D02*
X13737857Y-16755428D01*
X13737857Y-16755428D02*
X13737857Y-16717333D01*
X13737857Y-16717333D02*
X13728334Y-16698286D01*
X13728334Y-16698286D02*
X13718810Y-16688762D01*
X13718810Y-16688762D02*
X13699762Y-16679238D01*
X13975953Y-16793524D02*
X13975953Y-16593524D01*
X14061667Y-16793524D02*
X14061667Y-16688762D01*
X14061667Y-16688762D02*
X14052143Y-16669714D01*
X14052143Y-16669714D02*
X14033096Y-16660190D01*
X14033096Y-16660190D02*
X14004524Y-16660190D01*
X14004524Y-16660190D02*
X13985476Y-16669714D01*
X13985476Y-16669714D02*
X13975953Y-16679238D01*
X14185476Y-16793524D02*
X14166429Y-16784000D01*
X14166429Y-16784000D02*
X14156905Y-16774476D01*
X14156905Y-16774476D02*
X14147381Y-16755428D01*
X14147381Y-16755428D02*
X14147381Y-16698286D01*
X14147381Y-16698286D02*
X14156905Y-16679238D01*
X14156905Y-16679238D02*
X14166429Y-16669714D01*
X14166429Y-16669714D02*
X14185476Y-16660190D01*
X14185476Y-16660190D02*
X14214048Y-16660190D01*
X14214048Y-16660190D02*
X14233096Y-16669714D01*
X14233096Y-16669714D02*
X14242619Y-16679238D01*
X14242619Y-16679238D02*
X14252143Y-16698286D01*
X14252143Y-16698286D02*
X14252143Y-16755428D01*
X14252143Y-16755428D02*
X14242619Y-16774476D01*
X14242619Y-16774476D02*
X14233096Y-16784000D01*
X14233096Y-16784000D02*
X14214048Y-16793524D01*
X14214048Y-16793524D02*
X14185476Y-16793524D01*
X14366429Y-16793524D02*
X14347381Y-16784000D01*
X14347381Y-16784000D02*
X14337857Y-16764952D01*
X14337857Y-16764952D02*
X14337857Y-16593524D01*
X14518810Y-16784000D02*
X14499762Y-16793524D01*
X14499762Y-16793524D02*
X14461667Y-16793524D01*
X14461667Y-16793524D02*
X14442619Y-16784000D01*
X14442619Y-16784000D02*
X14433096Y-16764952D01*
X14433096Y-16764952D02*
X14433096Y-16688762D01*
X14433096Y-16688762D02*
X14442619Y-16669714D01*
X14442619Y-16669714D02*
X14461667Y-16660190D01*
X14461667Y-16660190D02*
X14499762Y-16660190D01*
X14499762Y-16660190D02*
X14518810Y-16669714D01*
X14518810Y-16669714D02*
X14528334Y-16688762D01*
X14528334Y-16688762D02*
X14528334Y-16707809D01*
X14528334Y-16707809D02*
X14433096Y-16726857D01*
X14604524Y-16784000D02*
X14623572Y-16793524D01*
X14623572Y-16793524D02*
X14661667Y-16793524D01*
X14661667Y-16793524D02*
X14680715Y-16784000D01*
X14680715Y-16784000D02*
X14690238Y-16764952D01*
X14690238Y-16764952D02*
X14690238Y-16755428D01*
X14690238Y-16755428D02*
X14680715Y-16736381D01*
X14680715Y-16736381D02*
X14661667Y-16726857D01*
X14661667Y-16726857D02*
X14633096Y-16726857D01*
X14633096Y-16726857D02*
X14614048Y-16717333D01*
X14614048Y-16717333D02*
X14604524Y-16698286D01*
X14604524Y-16698286D02*
X14604524Y-16688762D01*
X14604524Y-16688762D02*
X14614048Y-16669714D01*
X14614048Y-16669714D02*
X14633096Y-16660190D01*
X14633096Y-16660190D02*
X14661667Y-16660190D01*
X14661667Y-16660190D02*
X14680715Y-16669714D01*
X14756905Y-16869714D02*
X14766429Y-16860190D01*
X14766429Y-16860190D02*
X14785477Y-16831619D01*
X14785477Y-16831619D02*
X14795000Y-16812571D01*
X14795000Y-16812571D02*
X14804524Y-16784000D01*
X14804524Y-16784000D02*
X14814048Y-16736381D01*
X14814048Y-16736381D02*
X14814048Y-16698286D01*
X14814048Y-16698286D02*
X14804524Y-16650667D01*
X14804524Y-16650667D02*
X14795000Y-16622095D01*
X14795000Y-16622095D02*
X14785477Y-16603048D01*
X14785477Y-16603048D02*
X14766429Y-16574476D01*
X14766429Y-16574476D02*
X14756905Y-16564952D01*
D16*
X9875000Y-16905000D02*
X9995000Y-17025000D01*
X9995000Y-16905000D02*
X9875000Y-17025000D01*
X9995000Y-16965000D02*
G75*
G03*
X9995000Y-16965000I-60000J0D01*
G01*
D11*
X10347381Y-17057524D02*
X10233095Y-17057524D01*
X10290238Y-17057524D02*
X10290238Y-16857524D01*
X10290238Y-16857524D02*
X10271190Y-16886095D01*
X10271190Y-16886095D02*
X10252143Y-16905143D01*
X10252143Y-16905143D02*
X10233095Y-16914667D01*
X10433095Y-17038476D02*
X10442619Y-17048000D01*
X10442619Y-17048000D02*
X10433095Y-17057524D01*
X10433095Y-17057524D02*
X10423571Y-17048000D01*
X10423571Y-17048000D02*
X10433095Y-17038476D01*
X10433095Y-17038476D02*
X10433095Y-17057524D01*
X10518810Y-16876571D02*
X10528333Y-16867048D01*
X10528333Y-16867048D02*
X10547381Y-16857524D01*
X10547381Y-16857524D02*
X10595000Y-16857524D01*
X10595000Y-16857524D02*
X10614048Y-16867048D01*
X10614048Y-16867048D02*
X10623571Y-16876571D01*
X10623571Y-16876571D02*
X10633095Y-16895619D01*
X10633095Y-16895619D02*
X10633095Y-16914667D01*
X10633095Y-16914667D02*
X10623571Y-16943238D01*
X10623571Y-16943238D02*
X10509286Y-17057524D01*
X10509286Y-17057524D02*
X10633095Y-17057524D01*
X10756905Y-16857524D02*
X10775952Y-16857524D01*
X10775952Y-16857524D02*
X10795000Y-16867048D01*
X10795000Y-16867048D02*
X10804524Y-16876571D01*
X10804524Y-16876571D02*
X10814048Y-16895619D01*
X10814048Y-16895619D02*
X10823571Y-16933714D01*
X10823571Y-16933714D02*
X10823571Y-16981333D01*
X10823571Y-16981333D02*
X10814048Y-17019429D01*
X10814048Y-17019429D02*
X10804524Y-17038476D01*
X10804524Y-17038476D02*
X10795000Y-17048000D01*
X10795000Y-17048000D02*
X10775952Y-17057524D01*
X10775952Y-17057524D02*
X10756905Y-17057524D01*
X10756905Y-17057524D02*
X10737857Y-17048000D01*
X10737857Y-17048000D02*
X10728333Y-17038476D01*
X10728333Y-17038476D02*
X10718810Y-17019429D01*
X10718810Y-17019429D02*
X10709286Y-16981333D01*
X10709286Y-16981333D02*
X10709286Y-16933714D01*
X10709286Y-16933714D02*
X10718810Y-16895619D01*
X10718810Y-16895619D02*
X10728333Y-16876571D01*
X10728333Y-16876571D02*
X10737857Y-16867048D01*
X10737857Y-16867048D02*
X10756905Y-16857524D01*
X10947381Y-16857524D02*
X10966429Y-16857524D01*
X10966429Y-16857524D02*
X10985476Y-16867048D01*
X10985476Y-16867048D02*
X10995000Y-16876571D01*
X10995000Y-16876571D02*
X11004524Y-16895619D01*
X11004524Y-16895619D02*
X11014048Y-16933714D01*
X11014048Y-16933714D02*
X11014048Y-16981333D01*
X11014048Y-16981333D02*
X11004524Y-17019429D01*
X11004524Y-17019429D02*
X10995000Y-17038476D01*
X10995000Y-17038476D02*
X10985476Y-17048000D01*
X10985476Y-17048000D02*
X10966429Y-17057524D01*
X10966429Y-17057524D02*
X10947381Y-17057524D01*
X10947381Y-17057524D02*
X10928333Y-17048000D01*
X10928333Y-17048000D02*
X10918810Y-17038476D01*
X10918810Y-17038476D02*
X10909286Y-17019429D01*
X10909286Y-17019429D02*
X10899762Y-16981333D01*
X10899762Y-16981333D02*
X10899762Y-16933714D01*
X10899762Y-16933714D02*
X10909286Y-16895619D01*
X10909286Y-16895619D02*
X10918810Y-16876571D01*
X10918810Y-16876571D02*
X10928333Y-16867048D01*
X10928333Y-16867048D02*
X10947381Y-16857524D01*
X11099762Y-17057524D02*
X11099762Y-16924190D01*
X11099762Y-16943238D02*
X11109286Y-16933714D01*
X11109286Y-16933714D02*
X11128333Y-16924190D01*
X11128333Y-16924190D02*
X11156905Y-16924190D01*
X11156905Y-16924190D02*
X11175952Y-16933714D01*
X11175952Y-16933714D02*
X11185476Y-16952762D01*
X11185476Y-16952762D02*
X11185476Y-17057524D01*
X11185476Y-16952762D02*
X11195000Y-16933714D01*
X11195000Y-16933714D02*
X11214048Y-16924190D01*
X11214048Y-16924190D02*
X11242619Y-16924190D01*
X11242619Y-16924190D02*
X11261667Y-16933714D01*
X11261667Y-16933714D02*
X11271190Y-16952762D01*
X11271190Y-16952762D02*
X11271190Y-17057524D01*
X11366429Y-17057524D02*
X11366429Y-16924190D01*
X11366429Y-16943238D02*
X11375952Y-16933714D01*
X11375952Y-16933714D02*
X11395000Y-16924190D01*
X11395000Y-16924190D02*
X11423571Y-16924190D01*
X11423571Y-16924190D02*
X11442619Y-16933714D01*
X11442619Y-16933714D02*
X11452143Y-16952762D01*
X11452143Y-16952762D02*
X11452143Y-17057524D01*
X11452143Y-16952762D02*
X11461667Y-16933714D01*
X11461667Y-16933714D02*
X11480714Y-16924190D01*
X11480714Y-16924190D02*
X11509286Y-16924190D01*
X11509286Y-16924190D02*
X11528333Y-16933714D01*
X11528333Y-16933714D02*
X11537857Y-16952762D01*
X11537857Y-16952762D02*
X11537857Y-17057524D01*
X11928333Y-16848000D02*
X11756905Y-17105143D01*
X12185476Y-16857524D02*
X12204524Y-16857524D01*
X12204524Y-16857524D02*
X12223572Y-16867048D01*
X12223572Y-16867048D02*
X12233095Y-16876571D01*
X12233095Y-16876571D02*
X12242619Y-16895619D01*
X12242619Y-16895619D02*
X12252143Y-16933714D01*
X12252143Y-16933714D02*
X12252143Y-16981333D01*
X12252143Y-16981333D02*
X12242619Y-17019429D01*
X12242619Y-17019429D02*
X12233095Y-17038476D01*
X12233095Y-17038476D02*
X12223572Y-17048000D01*
X12223572Y-17048000D02*
X12204524Y-17057524D01*
X12204524Y-17057524D02*
X12185476Y-17057524D01*
X12185476Y-17057524D02*
X12166429Y-17048000D01*
X12166429Y-17048000D02*
X12156905Y-17038476D01*
X12156905Y-17038476D02*
X12147381Y-17019429D01*
X12147381Y-17019429D02*
X12137857Y-16981333D01*
X12137857Y-16981333D02*
X12137857Y-16933714D01*
X12137857Y-16933714D02*
X12147381Y-16895619D01*
X12147381Y-16895619D02*
X12156905Y-16876571D01*
X12156905Y-16876571D02*
X12166429Y-16867048D01*
X12166429Y-16867048D02*
X12185476Y-16857524D01*
X12337857Y-17038476D02*
X12347381Y-17048000D01*
X12347381Y-17048000D02*
X12337857Y-17057524D01*
X12337857Y-17057524D02*
X12328333Y-17048000D01*
X12328333Y-17048000D02*
X12337857Y-17038476D01*
X12337857Y-17038476D02*
X12337857Y-17057524D01*
X12471191Y-16857524D02*
X12490238Y-16857524D01*
X12490238Y-16857524D02*
X12509286Y-16867048D01*
X12509286Y-16867048D02*
X12518810Y-16876571D01*
X12518810Y-16876571D02*
X12528333Y-16895619D01*
X12528333Y-16895619D02*
X12537857Y-16933714D01*
X12537857Y-16933714D02*
X12537857Y-16981333D01*
X12537857Y-16981333D02*
X12528333Y-17019429D01*
X12528333Y-17019429D02*
X12518810Y-17038476D01*
X12518810Y-17038476D02*
X12509286Y-17048000D01*
X12509286Y-17048000D02*
X12490238Y-17057524D01*
X12490238Y-17057524D02*
X12471191Y-17057524D01*
X12471191Y-17057524D02*
X12452143Y-17048000D01*
X12452143Y-17048000D02*
X12442619Y-17038476D01*
X12442619Y-17038476D02*
X12433095Y-17019429D01*
X12433095Y-17019429D02*
X12423572Y-16981333D01*
X12423572Y-16981333D02*
X12423572Y-16933714D01*
X12423572Y-16933714D02*
X12433095Y-16895619D01*
X12433095Y-16895619D02*
X12442619Y-16876571D01*
X12442619Y-16876571D02*
X12452143Y-16867048D01*
X12452143Y-16867048D02*
X12471191Y-16857524D01*
X12709286Y-16924190D02*
X12709286Y-17057524D01*
X12661667Y-16848000D02*
X12614048Y-16990857D01*
X12614048Y-16990857D02*
X12737857Y-16990857D01*
X12795000Y-16857524D02*
X12928333Y-16857524D01*
X12928333Y-16857524D02*
X12842619Y-17057524D01*
X12995000Y-16876571D02*
X13004524Y-16867048D01*
X13004524Y-16867048D02*
X13023572Y-16857524D01*
X13023572Y-16857524D02*
X13071191Y-16857524D01*
X13071191Y-16857524D02*
X13090238Y-16867048D01*
X13090238Y-16867048D02*
X13099762Y-16876571D01*
X13099762Y-16876571D02*
X13109286Y-16895619D01*
X13109286Y-16895619D02*
X13109286Y-16914667D01*
X13109286Y-16914667D02*
X13099762Y-16943238D01*
X13099762Y-16943238D02*
X12985476Y-17057524D01*
X12985476Y-17057524D02*
X13109286Y-17057524D01*
X13185476Y-16857524D02*
X13185476Y-16895619D01*
X13261667Y-16857524D02*
X13261667Y-16895619D01*
X13556905Y-17133714D02*
X13547381Y-17124190D01*
X13547381Y-17124190D02*
X13528334Y-17095619D01*
X13528334Y-17095619D02*
X13518810Y-17076571D01*
X13518810Y-17076571D02*
X13509286Y-17048000D01*
X13509286Y-17048000D02*
X13499762Y-17000381D01*
X13499762Y-17000381D02*
X13499762Y-16962286D01*
X13499762Y-16962286D02*
X13509286Y-16914667D01*
X13509286Y-16914667D02*
X13518810Y-16886095D01*
X13518810Y-16886095D02*
X13528334Y-16867048D01*
X13528334Y-16867048D02*
X13547381Y-16838476D01*
X13547381Y-16838476D02*
X13556905Y-16828952D01*
X13737857Y-17057524D02*
X13623572Y-17057524D01*
X13680714Y-17057524D02*
X13680714Y-16857524D01*
X13680714Y-16857524D02*
X13661667Y-16886095D01*
X13661667Y-16886095D02*
X13642619Y-16905143D01*
X13642619Y-16905143D02*
X13623572Y-16914667D01*
X13918810Y-16857524D02*
X13823572Y-16857524D01*
X13823572Y-16857524D02*
X13814048Y-16952762D01*
X13814048Y-16952762D02*
X13823572Y-16943238D01*
X13823572Y-16943238D02*
X13842619Y-16933714D01*
X13842619Y-16933714D02*
X13890238Y-16933714D01*
X13890238Y-16933714D02*
X13909286Y-16943238D01*
X13909286Y-16943238D02*
X13918810Y-16952762D01*
X13918810Y-16952762D02*
X13928334Y-16971810D01*
X13928334Y-16971810D02*
X13928334Y-17019429D01*
X13928334Y-17019429D02*
X13918810Y-17038476D01*
X13918810Y-17038476D02*
X13909286Y-17048000D01*
X13909286Y-17048000D02*
X13890238Y-17057524D01*
X13890238Y-17057524D02*
X13842619Y-17057524D01*
X13842619Y-17057524D02*
X13823572Y-17048000D01*
X13823572Y-17048000D02*
X13814048Y-17038476D01*
X14166429Y-17057524D02*
X14166429Y-16857524D01*
X14252143Y-17057524D02*
X14252143Y-16952762D01*
X14252143Y-16952762D02*
X14242619Y-16933714D01*
X14242619Y-16933714D02*
X14223572Y-16924190D01*
X14223572Y-16924190D02*
X14195000Y-16924190D01*
X14195000Y-16924190D02*
X14175953Y-16933714D01*
X14175953Y-16933714D02*
X14166429Y-16943238D01*
X14375953Y-17057524D02*
X14356905Y-17048000D01*
X14356905Y-17048000D02*
X14347381Y-17038476D01*
X14347381Y-17038476D02*
X14337857Y-17019429D01*
X14337857Y-17019429D02*
X14337857Y-16962286D01*
X14337857Y-16962286D02*
X14347381Y-16943238D01*
X14347381Y-16943238D02*
X14356905Y-16933714D01*
X14356905Y-16933714D02*
X14375953Y-16924190D01*
X14375953Y-16924190D02*
X14404524Y-16924190D01*
X14404524Y-16924190D02*
X14423572Y-16933714D01*
X14423572Y-16933714D02*
X14433096Y-16943238D01*
X14433096Y-16943238D02*
X14442619Y-16962286D01*
X14442619Y-16962286D02*
X14442619Y-17019429D01*
X14442619Y-17019429D02*
X14433096Y-17038476D01*
X14433096Y-17038476D02*
X14423572Y-17048000D01*
X14423572Y-17048000D02*
X14404524Y-17057524D01*
X14404524Y-17057524D02*
X14375953Y-17057524D01*
X14556905Y-17057524D02*
X14537857Y-17048000D01*
X14537857Y-17048000D02*
X14528334Y-17028952D01*
X14528334Y-17028952D02*
X14528334Y-16857524D01*
X14709286Y-17048000D02*
X14690238Y-17057524D01*
X14690238Y-17057524D02*
X14652143Y-17057524D01*
X14652143Y-17057524D02*
X14633096Y-17048000D01*
X14633096Y-17048000D02*
X14623572Y-17028952D01*
X14623572Y-17028952D02*
X14623572Y-16952762D01*
X14623572Y-16952762D02*
X14633096Y-16933714D01*
X14633096Y-16933714D02*
X14652143Y-16924190D01*
X14652143Y-16924190D02*
X14690238Y-16924190D01*
X14690238Y-16924190D02*
X14709286Y-16933714D01*
X14709286Y-16933714D02*
X14718810Y-16952762D01*
X14718810Y-16952762D02*
X14718810Y-16971810D01*
X14718810Y-16971810D02*
X14623572Y-16990857D01*
X14795000Y-17048000D02*
X14814048Y-17057524D01*
X14814048Y-17057524D02*
X14852143Y-17057524D01*
X14852143Y-17057524D02*
X14871191Y-17048000D01*
X14871191Y-17048000D02*
X14880715Y-17028952D01*
X14880715Y-17028952D02*
X14880715Y-17019429D01*
X14880715Y-17019429D02*
X14871191Y-17000381D01*
X14871191Y-17000381D02*
X14852143Y-16990857D01*
X14852143Y-16990857D02*
X14823572Y-16990857D01*
X14823572Y-16990857D02*
X14804524Y-16981333D01*
X14804524Y-16981333D02*
X14795000Y-16962286D01*
X14795000Y-16962286D02*
X14795000Y-16952762D01*
X14795000Y-16952762D02*
X14804524Y-16933714D01*
X14804524Y-16933714D02*
X14823572Y-16924190D01*
X14823572Y-16924190D02*
X14852143Y-16924190D01*
X14852143Y-16924190D02*
X14871191Y-16933714D01*
X14947381Y-17133714D02*
X14956905Y-17124190D01*
X14956905Y-17124190D02*
X14975953Y-17095619D01*
X14975953Y-17095619D02*
X14985477Y-17076571D01*
X14985477Y-17076571D02*
X14995000Y-17048000D01*
X14995000Y-17048000D02*
X15004524Y-17000381D01*
X15004524Y-17000381D02*
X15004524Y-16962286D01*
X15004524Y-16962286D02*
X14995000Y-16914667D01*
X14995000Y-16914667D02*
X14985477Y-16886095D01*
X14985477Y-16886095D02*
X14975953Y-16867048D01*
X14975953Y-16867048D02*
X14956905Y-16838476D01*
X14956905Y-16838476D02*
X14947381Y-16828952D01*
D17*
X9865000Y-17164000D02*
X9995000Y-17294000D01*
X9995000Y-17164000D02*
X9865000Y-17294000D01*
X9930000Y-17164000D02*
X9930000Y-17294000D01*
X9865000Y-17229000D02*
X9995000Y-17229000D01*
D11*
X10347381Y-17321524D02*
X10233095Y-17321524D01*
X10290238Y-17321524D02*
X10290238Y-17121524D01*
X10290238Y-17121524D02*
X10271190Y-17150095D01*
X10271190Y-17150095D02*
X10252143Y-17169143D01*
X10252143Y-17169143D02*
X10233095Y-17178667D01*
X10433095Y-17302476D02*
X10442619Y-17312000D01*
X10442619Y-17312000D02*
X10433095Y-17321524D01*
X10433095Y-17321524D02*
X10423571Y-17312000D01*
X10423571Y-17312000D02*
X10433095Y-17302476D01*
X10433095Y-17302476D02*
X10433095Y-17321524D01*
X10509286Y-17121524D02*
X10633095Y-17121524D01*
X10633095Y-17121524D02*
X10566429Y-17197714D01*
X10566429Y-17197714D02*
X10595000Y-17197714D01*
X10595000Y-17197714D02*
X10614048Y-17207238D01*
X10614048Y-17207238D02*
X10623571Y-17216762D01*
X10623571Y-17216762D02*
X10633095Y-17235810D01*
X10633095Y-17235810D02*
X10633095Y-17283429D01*
X10633095Y-17283429D02*
X10623571Y-17302476D01*
X10623571Y-17302476D02*
X10614048Y-17312000D01*
X10614048Y-17312000D02*
X10595000Y-17321524D01*
X10595000Y-17321524D02*
X10537857Y-17321524D01*
X10537857Y-17321524D02*
X10518810Y-17312000D01*
X10518810Y-17312000D02*
X10509286Y-17302476D01*
X10756905Y-17121524D02*
X10775952Y-17121524D01*
X10775952Y-17121524D02*
X10795000Y-17131048D01*
X10795000Y-17131048D02*
X10804524Y-17140571D01*
X10804524Y-17140571D02*
X10814048Y-17159619D01*
X10814048Y-17159619D02*
X10823571Y-17197714D01*
X10823571Y-17197714D02*
X10823571Y-17245333D01*
X10823571Y-17245333D02*
X10814048Y-17283429D01*
X10814048Y-17283429D02*
X10804524Y-17302476D01*
X10804524Y-17302476D02*
X10795000Y-17312000D01*
X10795000Y-17312000D02*
X10775952Y-17321524D01*
X10775952Y-17321524D02*
X10756905Y-17321524D01*
X10756905Y-17321524D02*
X10737857Y-17312000D01*
X10737857Y-17312000D02*
X10728333Y-17302476D01*
X10728333Y-17302476D02*
X10718810Y-17283429D01*
X10718810Y-17283429D02*
X10709286Y-17245333D01*
X10709286Y-17245333D02*
X10709286Y-17197714D01*
X10709286Y-17197714D02*
X10718810Y-17159619D01*
X10718810Y-17159619D02*
X10728333Y-17140571D01*
X10728333Y-17140571D02*
X10737857Y-17131048D01*
X10737857Y-17131048D02*
X10756905Y-17121524D01*
X10947381Y-17121524D02*
X10966429Y-17121524D01*
X10966429Y-17121524D02*
X10985476Y-17131048D01*
X10985476Y-17131048D02*
X10995000Y-17140571D01*
X10995000Y-17140571D02*
X11004524Y-17159619D01*
X11004524Y-17159619D02*
X11014048Y-17197714D01*
X11014048Y-17197714D02*
X11014048Y-17245333D01*
X11014048Y-17245333D02*
X11004524Y-17283429D01*
X11004524Y-17283429D02*
X10995000Y-17302476D01*
X10995000Y-17302476D02*
X10985476Y-17312000D01*
X10985476Y-17312000D02*
X10966429Y-17321524D01*
X10966429Y-17321524D02*
X10947381Y-17321524D01*
X10947381Y-17321524D02*
X10928333Y-17312000D01*
X10928333Y-17312000D02*
X10918810Y-17302476D01*
X10918810Y-17302476D02*
X10909286Y-17283429D01*
X10909286Y-17283429D02*
X10899762Y-17245333D01*
X10899762Y-17245333D02*
X10899762Y-17197714D01*
X10899762Y-17197714D02*
X10909286Y-17159619D01*
X10909286Y-17159619D02*
X10918810Y-17140571D01*
X10918810Y-17140571D02*
X10928333Y-17131048D01*
X10928333Y-17131048D02*
X10947381Y-17121524D01*
X11099762Y-17321524D02*
X11099762Y-17188190D01*
X11099762Y-17207238D02*
X11109286Y-17197714D01*
X11109286Y-17197714D02*
X11128333Y-17188190D01*
X11128333Y-17188190D02*
X11156905Y-17188190D01*
X11156905Y-17188190D02*
X11175952Y-17197714D01*
X11175952Y-17197714D02*
X11185476Y-17216762D01*
X11185476Y-17216762D02*
X11185476Y-17321524D01*
X11185476Y-17216762D02*
X11195000Y-17197714D01*
X11195000Y-17197714D02*
X11214048Y-17188190D01*
X11214048Y-17188190D02*
X11242619Y-17188190D01*
X11242619Y-17188190D02*
X11261667Y-17197714D01*
X11261667Y-17197714D02*
X11271190Y-17216762D01*
X11271190Y-17216762D02*
X11271190Y-17321524D01*
X11366429Y-17321524D02*
X11366429Y-17188190D01*
X11366429Y-17207238D02*
X11375952Y-17197714D01*
X11375952Y-17197714D02*
X11395000Y-17188190D01*
X11395000Y-17188190D02*
X11423571Y-17188190D01*
X11423571Y-17188190D02*
X11442619Y-17197714D01*
X11442619Y-17197714D02*
X11452143Y-17216762D01*
X11452143Y-17216762D02*
X11452143Y-17321524D01*
X11452143Y-17216762D02*
X11461667Y-17197714D01*
X11461667Y-17197714D02*
X11480714Y-17188190D01*
X11480714Y-17188190D02*
X11509286Y-17188190D01*
X11509286Y-17188190D02*
X11528333Y-17197714D01*
X11528333Y-17197714D02*
X11537857Y-17216762D01*
X11537857Y-17216762D02*
X11537857Y-17321524D01*
X11928333Y-17112000D02*
X11756905Y-17369143D01*
X12185476Y-17121524D02*
X12204524Y-17121524D01*
X12204524Y-17121524D02*
X12223572Y-17131048D01*
X12223572Y-17131048D02*
X12233095Y-17140571D01*
X12233095Y-17140571D02*
X12242619Y-17159619D01*
X12242619Y-17159619D02*
X12252143Y-17197714D01*
X12252143Y-17197714D02*
X12252143Y-17245333D01*
X12252143Y-17245333D02*
X12242619Y-17283429D01*
X12242619Y-17283429D02*
X12233095Y-17302476D01*
X12233095Y-17302476D02*
X12223572Y-17312000D01*
X12223572Y-17312000D02*
X12204524Y-17321524D01*
X12204524Y-17321524D02*
X12185476Y-17321524D01*
X12185476Y-17321524D02*
X12166429Y-17312000D01*
X12166429Y-17312000D02*
X12156905Y-17302476D01*
X12156905Y-17302476D02*
X12147381Y-17283429D01*
X12147381Y-17283429D02*
X12137857Y-17245333D01*
X12137857Y-17245333D02*
X12137857Y-17197714D01*
X12137857Y-17197714D02*
X12147381Y-17159619D01*
X12147381Y-17159619D02*
X12156905Y-17140571D01*
X12156905Y-17140571D02*
X12166429Y-17131048D01*
X12166429Y-17131048D02*
X12185476Y-17121524D01*
X12337857Y-17302476D02*
X12347381Y-17312000D01*
X12347381Y-17312000D02*
X12337857Y-17321524D01*
X12337857Y-17321524D02*
X12328333Y-17312000D01*
X12328333Y-17312000D02*
X12337857Y-17302476D01*
X12337857Y-17302476D02*
X12337857Y-17321524D01*
X12471191Y-17121524D02*
X12490238Y-17121524D01*
X12490238Y-17121524D02*
X12509286Y-17131048D01*
X12509286Y-17131048D02*
X12518810Y-17140571D01*
X12518810Y-17140571D02*
X12528333Y-17159619D01*
X12528333Y-17159619D02*
X12537857Y-17197714D01*
X12537857Y-17197714D02*
X12537857Y-17245333D01*
X12537857Y-17245333D02*
X12528333Y-17283429D01*
X12528333Y-17283429D02*
X12518810Y-17302476D01*
X12518810Y-17302476D02*
X12509286Y-17312000D01*
X12509286Y-17312000D02*
X12490238Y-17321524D01*
X12490238Y-17321524D02*
X12471191Y-17321524D01*
X12471191Y-17321524D02*
X12452143Y-17312000D01*
X12452143Y-17312000D02*
X12442619Y-17302476D01*
X12442619Y-17302476D02*
X12433095Y-17283429D01*
X12433095Y-17283429D02*
X12423572Y-17245333D01*
X12423572Y-17245333D02*
X12423572Y-17197714D01*
X12423572Y-17197714D02*
X12433095Y-17159619D01*
X12433095Y-17159619D02*
X12442619Y-17140571D01*
X12442619Y-17140571D02*
X12452143Y-17131048D01*
X12452143Y-17131048D02*
X12471191Y-17121524D01*
X12718810Y-17121524D02*
X12623572Y-17121524D01*
X12623572Y-17121524D02*
X12614048Y-17216762D01*
X12614048Y-17216762D02*
X12623572Y-17207238D01*
X12623572Y-17207238D02*
X12642619Y-17197714D01*
X12642619Y-17197714D02*
X12690238Y-17197714D01*
X12690238Y-17197714D02*
X12709286Y-17207238D01*
X12709286Y-17207238D02*
X12718810Y-17216762D01*
X12718810Y-17216762D02*
X12728333Y-17235810D01*
X12728333Y-17235810D02*
X12728333Y-17283429D01*
X12728333Y-17283429D02*
X12718810Y-17302476D01*
X12718810Y-17302476D02*
X12709286Y-17312000D01*
X12709286Y-17312000D02*
X12690238Y-17321524D01*
X12690238Y-17321524D02*
X12642619Y-17321524D01*
X12642619Y-17321524D02*
X12623572Y-17312000D01*
X12623572Y-17312000D02*
X12614048Y-17302476D01*
X12918810Y-17321524D02*
X12804524Y-17321524D01*
X12861667Y-17321524D02*
X12861667Y-17121524D01*
X12861667Y-17121524D02*
X12842619Y-17150095D01*
X12842619Y-17150095D02*
X12823572Y-17169143D01*
X12823572Y-17169143D02*
X12804524Y-17178667D01*
X12995000Y-17140571D02*
X13004524Y-17131048D01*
X13004524Y-17131048D02*
X13023572Y-17121524D01*
X13023572Y-17121524D02*
X13071191Y-17121524D01*
X13071191Y-17121524D02*
X13090238Y-17131048D01*
X13090238Y-17131048D02*
X13099762Y-17140571D01*
X13099762Y-17140571D02*
X13109286Y-17159619D01*
X13109286Y-17159619D02*
X13109286Y-17178667D01*
X13109286Y-17178667D02*
X13099762Y-17207238D01*
X13099762Y-17207238D02*
X12985476Y-17321524D01*
X12985476Y-17321524D02*
X13109286Y-17321524D01*
X13185476Y-17121524D02*
X13185476Y-17159619D01*
X13261667Y-17121524D02*
X13261667Y-17159619D01*
X13556905Y-17397714D02*
X13547381Y-17388190D01*
X13547381Y-17388190D02*
X13528334Y-17359619D01*
X13528334Y-17359619D02*
X13518810Y-17340571D01*
X13518810Y-17340571D02*
X13509286Y-17312000D01*
X13509286Y-17312000D02*
X13499762Y-17264381D01*
X13499762Y-17264381D02*
X13499762Y-17226286D01*
X13499762Y-17226286D02*
X13509286Y-17178667D01*
X13509286Y-17178667D02*
X13518810Y-17150095D01*
X13518810Y-17150095D02*
X13528334Y-17131048D01*
X13528334Y-17131048D02*
X13547381Y-17102476D01*
X13547381Y-17102476D02*
X13556905Y-17092952D01*
X13623572Y-17140571D02*
X13633095Y-17131048D01*
X13633095Y-17131048D02*
X13652143Y-17121524D01*
X13652143Y-17121524D02*
X13699762Y-17121524D01*
X13699762Y-17121524D02*
X13718810Y-17131048D01*
X13718810Y-17131048D02*
X13728334Y-17140571D01*
X13728334Y-17140571D02*
X13737857Y-17159619D01*
X13737857Y-17159619D02*
X13737857Y-17178667D01*
X13737857Y-17178667D02*
X13728334Y-17207238D01*
X13728334Y-17207238D02*
X13614048Y-17321524D01*
X13614048Y-17321524D02*
X13737857Y-17321524D01*
X13975953Y-17321524D02*
X13975953Y-17121524D01*
X14061667Y-17321524D02*
X14061667Y-17216762D01*
X14061667Y-17216762D02*
X14052143Y-17197714D01*
X14052143Y-17197714D02*
X14033096Y-17188190D01*
X14033096Y-17188190D02*
X14004524Y-17188190D01*
X14004524Y-17188190D02*
X13985476Y-17197714D01*
X13985476Y-17197714D02*
X13975953Y-17207238D01*
X14185476Y-17321524D02*
X14166429Y-17312000D01*
X14166429Y-17312000D02*
X14156905Y-17302476D01*
X14156905Y-17302476D02*
X14147381Y-17283429D01*
X14147381Y-17283429D02*
X14147381Y-17226286D01*
X14147381Y-17226286D02*
X14156905Y-17207238D01*
X14156905Y-17207238D02*
X14166429Y-17197714D01*
X14166429Y-17197714D02*
X14185476Y-17188190D01*
X14185476Y-17188190D02*
X14214048Y-17188190D01*
X14214048Y-17188190D02*
X14233096Y-17197714D01*
X14233096Y-17197714D02*
X14242619Y-17207238D01*
X14242619Y-17207238D02*
X14252143Y-17226286D01*
X14252143Y-17226286D02*
X14252143Y-17283429D01*
X14252143Y-17283429D02*
X14242619Y-17302476D01*
X14242619Y-17302476D02*
X14233096Y-17312000D01*
X14233096Y-17312000D02*
X14214048Y-17321524D01*
X14214048Y-17321524D02*
X14185476Y-17321524D01*
X14366429Y-17321524D02*
X14347381Y-17312000D01*
X14347381Y-17312000D02*
X14337857Y-17292952D01*
X14337857Y-17292952D02*
X14337857Y-17121524D01*
X14518810Y-17312000D02*
X14499762Y-17321524D01*
X14499762Y-17321524D02*
X14461667Y-17321524D01*
X14461667Y-17321524D02*
X14442619Y-17312000D01*
X14442619Y-17312000D02*
X14433096Y-17292952D01*
X14433096Y-17292952D02*
X14433096Y-17216762D01*
X14433096Y-17216762D02*
X14442619Y-17197714D01*
X14442619Y-17197714D02*
X14461667Y-17188190D01*
X14461667Y-17188190D02*
X14499762Y-17188190D01*
X14499762Y-17188190D02*
X14518810Y-17197714D01*
X14518810Y-17197714D02*
X14528334Y-17216762D01*
X14528334Y-17216762D02*
X14528334Y-17235810D01*
X14528334Y-17235810D02*
X14433096Y-17254857D01*
X14604524Y-17312000D02*
X14623572Y-17321524D01*
X14623572Y-17321524D02*
X14661667Y-17321524D01*
X14661667Y-17321524D02*
X14680715Y-17312000D01*
X14680715Y-17312000D02*
X14690238Y-17292952D01*
X14690238Y-17292952D02*
X14690238Y-17283429D01*
X14690238Y-17283429D02*
X14680715Y-17264381D01*
X14680715Y-17264381D02*
X14661667Y-17254857D01*
X14661667Y-17254857D02*
X14633096Y-17254857D01*
X14633096Y-17254857D02*
X14614048Y-17245333D01*
X14614048Y-17245333D02*
X14604524Y-17226286D01*
X14604524Y-17226286D02*
X14604524Y-17216762D01*
X14604524Y-17216762D02*
X14614048Y-17197714D01*
X14614048Y-17197714D02*
X14633096Y-17188190D01*
X14633096Y-17188190D02*
X14661667Y-17188190D01*
X14661667Y-17188190D02*
X14680715Y-17197714D01*
X14756905Y-17397714D02*
X14766429Y-17388190D01*
X14766429Y-17388190D02*
X14785477Y-17359619D01*
X14785477Y-17359619D02*
X14795000Y-17340571D01*
X14795000Y-17340571D02*
X14804524Y-17312000D01*
X14804524Y-17312000D02*
X14814048Y-17264381D01*
X14814048Y-17264381D02*
X14814048Y-17226286D01*
X14814048Y-17226286D02*
X14804524Y-17178667D01*
X14804524Y-17178667D02*
X14795000Y-17150095D01*
X14795000Y-17150095D02*
X14785477Y-17131048D01*
X14785477Y-17131048D02*
X14766429Y-17102476D01*
X14766429Y-17102476D02*
X14756905Y-17092952D01*
D18*
X9842600Y-17416800D02*
X9995000Y-17569200D01*
X9995000Y-17416800D02*
X9842600Y-17569200D01*
X9972682Y-17546882D02*
X9972682Y-17439118D01*
X9864918Y-17439118D01*
X9864918Y-17546882D01*
X9972682Y-17546882D01*
D11*
X10347381Y-17585524D02*
X10233095Y-17585524D01*
X10290238Y-17585524D02*
X10290238Y-17385524D01*
X10290238Y-17385524D02*
X10271190Y-17414095D01*
X10271190Y-17414095D02*
X10252143Y-17433143D01*
X10252143Y-17433143D02*
X10233095Y-17442667D01*
X10433095Y-17566476D02*
X10442619Y-17576000D01*
X10442619Y-17576000D02*
X10433095Y-17585524D01*
X10433095Y-17585524D02*
X10423571Y-17576000D01*
X10423571Y-17576000D02*
X10433095Y-17566476D01*
X10433095Y-17566476D02*
X10433095Y-17585524D01*
X10623571Y-17385524D02*
X10528333Y-17385524D01*
X10528333Y-17385524D02*
X10518810Y-17480762D01*
X10518810Y-17480762D02*
X10528333Y-17471238D01*
X10528333Y-17471238D02*
X10547381Y-17461714D01*
X10547381Y-17461714D02*
X10595000Y-17461714D01*
X10595000Y-17461714D02*
X10614048Y-17471238D01*
X10614048Y-17471238D02*
X10623571Y-17480762D01*
X10623571Y-17480762D02*
X10633095Y-17499810D01*
X10633095Y-17499810D02*
X10633095Y-17547429D01*
X10633095Y-17547429D02*
X10623571Y-17566476D01*
X10623571Y-17566476D02*
X10614048Y-17576000D01*
X10614048Y-17576000D02*
X10595000Y-17585524D01*
X10595000Y-17585524D02*
X10547381Y-17585524D01*
X10547381Y-17585524D02*
X10528333Y-17576000D01*
X10528333Y-17576000D02*
X10518810Y-17566476D01*
X10709286Y-17404571D02*
X10718810Y-17395048D01*
X10718810Y-17395048D02*
X10737857Y-17385524D01*
X10737857Y-17385524D02*
X10785476Y-17385524D01*
X10785476Y-17385524D02*
X10804524Y-17395048D01*
X10804524Y-17395048D02*
X10814048Y-17404571D01*
X10814048Y-17404571D02*
X10823571Y-17423619D01*
X10823571Y-17423619D02*
X10823571Y-17442667D01*
X10823571Y-17442667D02*
X10814048Y-17471238D01*
X10814048Y-17471238D02*
X10699762Y-17585524D01*
X10699762Y-17585524D02*
X10823571Y-17585524D01*
X10995000Y-17452190D02*
X10995000Y-17585524D01*
X10947381Y-17376000D02*
X10899762Y-17518857D01*
X10899762Y-17518857D02*
X11023571Y-17518857D01*
X11099762Y-17585524D02*
X11099762Y-17452190D01*
X11099762Y-17471238D02*
X11109286Y-17461714D01*
X11109286Y-17461714D02*
X11128333Y-17452190D01*
X11128333Y-17452190D02*
X11156905Y-17452190D01*
X11156905Y-17452190D02*
X11175952Y-17461714D01*
X11175952Y-17461714D02*
X11185476Y-17480762D01*
X11185476Y-17480762D02*
X11185476Y-17585524D01*
X11185476Y-17480762D02*
X11195000Y-17461714D01*
X11195000Y-17461714D02*
X11214048Y-17452190D01*
X11214048Y-17452190D02*
X11242619Y-17452190D01*
X11242619Y-17452190D02*
X11261667Y-17461714D01*
X11261667Y-17461714D02*
X11271190Y-17480762D01*
X11271190Y-17480762D02*
X11271190Y-17585524D01*
X11366429Y-17585524D02*
X11366429Y-17452190D01*
X11366429Y-17471238D02*
X11375952Y-17461714D01*
X11375952Y-17461714D02*
X11395000Y-17452190D01*
X11395000Y-17452190D02*
X11423571Y-17452190D01*
X11423571Y-17452190D02*
X11442619Y-17461714D01*
X11442619Y-17461714D02*
X11452143Y-17480762D01*
X11452143Y-17480762D02*
X11452143Y-17585524D01*
X11452143Y-17480762D02*
X11461667Y-17461714D01*
X11461667Y-17461714D02*
X11480714Y-17452190D01*
X11480714Y-17452190D02*
X11509286Y-17452190D01*
X11509286Y-17452190D02*
X11528333Y-17461714D01*
X11528333Y-17461714D02*
X11537857Y-17480762D01*
X11537857Y-17480762D02*
X11537857Y-17585524D01*
X11928333Y-17376000D02*
X11756905Y-17633143D01*
X12185476Y-17385524D02*
X12204524Y-17385524D01*
X12204524Y-17385524D02*
X12223572Y-17395048D01*
X12223572Y-17395048D02*
X12233095Y-17404571D01*
X12233095Y-17404571D02*
X12242619Y-17423619D01*
X12242619Y-17423619D02*
X12252143Y-17461714D01*
X12252143Y-17461714D02*
X12252143Y-17509333D01*
X12252143Y-17509333D02*
X12242619Y-17547429D01*
X12242619Y-17547429D02*
X12233095Y-17566476D01*
X12233095Y-17566476D02*
X12223572Y-17576000D01*
X12223572Y-17576000D02*
X12204524Y-17585524D01*
X12204524Y-17585524D02*
X12185476Y-17585524D01*
X12185476Y-17585524D02*
X12166429Y-17576000D01*
X12166429Y-17576000D02*
X12156905Y-17566476D01*
X12156905Y-17566476D02*
X12147381Y-17547429D01*
X12147381Y-17547429D02*
X12137857Y-17509333D01*
X12137857Y-17509333D02*
X12137857Y-17461714D01*
X12137857Y-17461714D02*
X12147381Y-17423619D01*
X12147381Y-17423619D02*
X12156905Y-17404571D01*
X12156905Y-17404571D02*
X12166429Y-17395048D01*
X12166429Y-17395048D02*
X12185476Y-17385524D01*
X12337857Y-17566476D02*
X12347381Y-17576000D01*
X12347381Y-17576000D02*
X12337857Y-17585524D01*
X12337857Y-17585524D02*
X12328333Y-17576000D01*
X12328333Y-17576000D02*
X12337857Y-17566476D01*
X12337857Y-17566476D02*
X12337857Y-17585524D01*
X12471191Y-17385524D02*
X12490238Y-17385524D01*
X12490238Y-17385524D02*
X12509286Y-17395048D01*
X12509286Y-17395048D02*
X12518810Y-17404571D01*
X12518810Y-17404571D02*
X12528333Y-17423619D01*
X12528333Y-17423619D02*
X12537857Y-17461714D01*
X12537857Y-17461714D02*
X12537857Y-17509333D01*
X12537857Y-17509333D02*
X12528333Y-17547429D01*
X12528333Y-17547429D02*
X12518810Y-17566476D01*
X12518810Y-17566476D02*
X12509286Y-17576000D01*
X12509286Y-17576000D02*
X12490238Y-17585524D01*
X12490238Y-17585524D02*
X12471191Y-17585524D01*
X12471191Y-17585524D02*
X12452143Y-17576000D01*
X12452143Y-17576000D02*
X12442619Y-17566476D01*
X12442619Y-17566476D02*
X12433095Y-17547429D01*
X12433095Y-17547429D02*
X12423572Y-17509333D01*
X12423572Y-17509333D02*
X12423572Y-17461714D01*
X12423572Y-17461714D02*
X12433095Y-17423619D01*
X12433095Y-17423619D02*
X12442619Y-17404571D01*
X12442619Y-17404571D02*
X12452143Y-17395048D01*
X12452143Y-17395048D02*
X12471191Y-17385524D01*
X12709286Y-17385524D02*
X12671191Y-17385524D01*
X12671191Y-17385524D02*
X12652143Y-17395048D01*
X12652143Y-17395048D02*
X12642619Y-17404571D01*
X12642619Y-17404571D02*
X12623572Y-17433143D01*
X12623572Y-17433143D02*
X12614048Y-17471238D01*
X12614048Y-17471238D02*
X12614048Y-17547429D01*
X12614048Y-17547429D02*
X12623572Y-17566476D01*
X12623572Y-17566476D02*
X12633095Y-17576000D01*
X12633095Y-17576000D02*
X12652143Y-17585524D01*
X12652143Y-17585524D02*
X12690238Y-17585524D01*
X12690238Y-17585524D02*
X12709286Y-17576000D01*
X12709286Y-17576000D02*
X12718810Y-17566476D01*
X12718810Y-17566476D02*
X12728333Y-17547429D01*
X12728333Y-17547429D02*
X12728333Y-17499810D01*
X12728333Y-17499810D02*
X12718810Y-17480762D01*
X12718810Y-17480762D02*
X12709286Y-17471238D01*
X12709286Y-17471238D02*
X12690238Y-17461714D01*
X12690238Y-17461714D02*
X12652143Y-17461714D01*
X12652143Y-17461714D02*
X12633095Y-17471238D01*
X12633095Y-17471238D02*
X12623572Y-17480762D01*
X12623572Y-17480762D02*
X12614048Y-17499810D01*
X12852143Y-17385524D02*
X12871191Y-17385524D01*
X12871191Y-17385524D02*
X12890238Y-17395048D01*
X12890238Y-17395048D02*
X12899762Y-17404571D01*
X12899762Y-17404571D02*
X12909286Y-17423619D01*
X12909286Y-17423619D02*
X12918810Y-17461714D01*
X12918810Y-17461714D02*
X12918810Y-17509333D01*
X12918810Y-17509333D02*
X12909286Y-17547429D01*
X12909286Y-17547429D02*
X12899762Y-17566476D01*
X12899762Y-17566476D02*
X12890238Y-17576000D01*
X12890238Y-17576000D02*
X12871191Y-17585524D01*
X12871191Y-17585524D02*
X12852143Y-17585524D01*
X12852143Y-17585524D02*
X12833095Y-17576000D01*
X12833095Y-17576000D02*
X12823572Y-17566476D01*
X12823572Y-17566476D02*
X12814048Y-17547429D01*
X12814048Y-17547429D02*
X12804524Y-17509333D01*
X12804524Y-17509333D02*
X12804524Y-17461714D01*
X12804524Y-17461714D02*
X12814048Y-17423619D01*
X12814048Y-17423619D02*
X12823572Y-17404571D01*
X12823572Y-17404571D02*
X12833095Y-17395048D01*
X12833095Y-17395048D02*
X12852143Y-17385524D01*
X13042619Y-17385524D02*
X13061667Y-17385524D01*
X13061667Y-17385524D02*
X13080714Y-17395048D01*
X13080714Y-17395048D02*
X13090238Y-17404571D01*
X13090238Y-17404571D02*
X13099762Y-17423619D01*
X13099762Y-17423619D02*
X13109286Y-17461714D01*
X13109286Y-17461714D02*
X13109286Y-17509333D01*
X13109286Y-17509333D02*
X13099762Y-17547429D01*
X13099762Y-17547429D02*
X13090238Y-17566476D01*
X13090238Y-17566476D02*
X13080714Y-17576000D01*
X13080714Y-17576000D02*
X13061667Y-17585524D01*
X13061667Y-17585524D02*
X13042619Y-17585524D01*
X13042619Y-17585524D02*
X13023572Y-17576000D01*
X13023572Y-17576000D02*
X13014048Y-17566476D01*
X13014048Y-17566476D02*
X13004524Y-17547429D01*
X13004524Y-17547429D02*
X12995000Y-17509333D01*
X12995000Y-17509333D02*
X12995000Y-17461714D01*
X12995000Y-17461714D02*
X13004524Y-17423619D01*
X13004524Y-17423619D02*
X13014048Y-17404571D01*
X13014048Y-17404571D02*
X13023572Y-17395048D01*
X13023572Y-17395048D02*
X13042619Y-17385524D01*
X13185476Y-17385524D02*
X13185476Y-17423619D01*
X13261667Y-17385524D02*
X13261667Y-17423619D01*
X13556905Y-17661714D02*
X13547381Y-17652190D01*
X13547381Y-17652190D02*
X13528334Y-17623619D01*
X13528334Y-17623619D02*
X13518810Y-17604571D01*
X13518810Y-17604571D02*
X13509286Y-17576000D01*
X13509286Y-17576000D02*
X13499762Y-17528381D01*
X13499762Y-17528381D02*
X13499762Y-17490286D01*
X13499762Y-17490286D02*
X13509286Y-17442667D01*
X13509286Y-17442667D02*
X13518810Y-17414095D01*
X13518810Y-17414095D02*
X13528334Y-17395048D01*
X13528334Y-17395048D02*
X13547381Y-17366476D01*
X13547381Y-17366476D02*
X13556905Y-17356952D01*
X13737857Y-17585524D02*
X13623572Y-17585524D01*
X13680714Y-17585524D02*
X13680714Y-17385524D01*
X13680714Y-17385524D02*
X13661667Y-17414095D01*
X13661667Y-17414095D02*
X13642619Y-17433143D01*
X13642619Y-17433143D02*
X13623572Y-17442667D01*
X13975953Y-17585524D02*
X13975953Y-17385524D01*
X14061667Y-17585524D02*
X14061667Y-17480762D01*
X14061667Y-17480762D02*
X14052143Y-17461714D01*
X14052143Y-17461714D02*
X14033096Y-17452190D01*
X14033096Y-17452190D02*
X14004524Y-17452190D01*
X14004524Y-17452190D02*
X13985476Y-17461714D01*
X13985476Y-17461714D02*
X13975953Y-17471238D01*
X14185476Y-17585524D02*
X14166429Y-17576000D01*
X14166429Y-17576000D02*
X14156905Y-17566476D01*
X14156905Y-17566476D02*
X14147381Y-17547429D01*
X14147381Y-17547429D02*
X14147381Y-17490286D01*
X14147381Y-17490286D02*
X14156905Y-17471238D01*
X14156905Y-17471238D02*
X14166429Y-17461714D01*
X14166429Y-17461714D02*
X14185476Y-17452190D01*
X14185476Y-17452190D02*
X14214048Y-17452190D01*
X14214048Y-17452190D02*
X14233096Y-17461714D01*
X14233096Y-17461714D02*
X14242619Y-17471238D01*
X14242619Y-17471238D02*
X14252143Y-17490286D01*
X14252143Y-17490286D02*
X14252143Y-17547429D01*
X14252143Y-17547429D02*
X14242619Y-17566476D01*
X14242619Y-17566476D02*
X14233096Y-17576000D01*
X14233096Y-17576000D02*
X14214048Y-17585524D01*
X14214048Y-17585524D02*
X14185476Y-17585524D01*
X14366429Y-17585524D02*
X14347381Y-17576000D01*
X14347381Y-17576000D02*
X14337857Y-17556952D01*
X14337857Y-17556952D02*
X14337857Y-17385524D01*
X14518810Y-17576000D02*
X14499762Y-17585524D01*
X14499762Y-17585524D02*
X14461667Y-17585524D01*
X14461667Y-17585524D02*
X14442619Y-17576000D01*
X14442619Y-17576000D02*
X14433096Y-17556952D01*
X14433096Y-17556952D02*
X14433096Y-17480762D01*
X14433096Y-17480762D02*
X14442619Y-17461714D01*
X14442619Y-17461714D02*
X14461667Y-17452190D01*
X14461667Y-17452190D02*
X14499762Y-17452190D01*
X14499762Y-17452190D02*
X14518810Y-17461714D01*
X14518810Y-17461714D02*
X14528334Y-17480762D01*
X14528334Y-17480762D02*
X14528334Y-17499810D01*
X14528334Y-17499810D02*
X14433096Y-17518857D01*
X14595000Y-17661714D02*
X14604524Y-17652190D01*
X14604524Y-17652190D02*
X14623572Y-17623619D01*
X14623572Y-17623619D02*
X14633096Y-17604571D01*
X14633096Y-17604571D02*
X14642619Y-17576000D01*
X14642619Y-17576000D02*
X14652143Y-17528381D01*
X14652143Y-17528381D02*
X14652143Y-17490286D01*
X14652143Y-17490286D02*
X14642619Y-17442667D01*
X14642619Y-17442667D02*
X14633096Y-17414095D01*
X14633096Y-17414095D02*
X14623572Y-17395048D01*
X14623572Y-17395048D02*
X14604524Y-17366476D01*
X14604524Y-17366476D02*
X14595000Y-17356952D01*
D19*
X9820000Y-17677900D02*
X9995000Y-17852900D01*
X9995000Y-17677900D02*
X9820000Y-17852900D01*
X9907500Y-17852900D02*
X9995000Y-17765400D01*
X9907500Y-17677900D01*
X9820000Y-17765400D01*
X9907500Y-17852900D01*
D11*
X10347381Y-17857924D02*
X10233095Y-17857924D01*
X10290238Y-17857924D02*
X10290238Y-17657924D01*
X10290238Y-17657924D02*
X10271190Y-17686495D01*
X10271190Y-17686495D02*
X10252143Y-17705543D01*
X10252143Y-17705543D02*
X10233095Y-17715067D01*
X10433095Y-17838876D02*
X10442619Y-17848400D01*
X10442619Y-17848400D02*
X10433095Y-17857924D01*
X10433095Y-17857924D02*
X10423571Y-17848400D01*
X10423571Y-17848400D02*
X10433095Y-17838876D01*
X10433095Y-17838876D02*
X10433095Y-17857924D01*
X10509286Y-17657924D02*
X10642619Y-17657924D01*
X10642619Y-17657924D02*
X10556905Y-17857924D01*
X10814048Y-17657924D02*
X10718810Y-17657924D01*
X10718810Y-17657924D02*
X10709286Y-17753162D01*
X10709286Y-17753162D02*
X10718810Y-17743638D01*
X10718810Y-17743638D02*
X10737857Y-17734114D01*
X10737857Y-17734114D02*
X10785476Y-17734114D01*
X10785476Y-17734114D02*
X10804524Y-17743638D01*
X10804524Y-17743638D02*
X10814048Y-17753162D01*
X10814048Y-17753162D02*
X10823571Y-17772210D01*
X10823571Y-17772210D02*
X10823571Y-17819829D01*
X10823571Y-17819829D02*
X10814048Y-17838876D01*
X10814048Y-17838876D02*
X10804524Y-17848400D01*
X10804524Y-17848400D02*
X10785476Y-17857924D01*
X10785476Y-17857924D02*
X10737857Y-17857924D01*
X10737857Y-17857924D02*
X10718810Y-17848400D01*
X10718810Y-17848400D02*
X10709286Y-17838876D01*
X10947381Y-17657924D02*
X10966429Y-17657924D01*
X10966429Y-17657924D02*
X10985476Y-17667448D01*
X10985476Y-17667448D02*
X10995000Y-17676971D01*
X10995000Y-17676971D02*
X11004524Y-17696019D01*
X11004524Y-17696019D02*
X11014048Y-17734114D01*
X11014048Y-17734114D02*
X11014048Y-17781733D01*
X11014048Y-17781733D02*
X11004524Y-17819829D01*
X11004524Y-17819829D02*
X10995000Y-17838876D01*
X10995000Y-17838876D02*
X10985476Y-17848400D01*
X10985476Y-17848400D02*
X10966429Y-17857924D01*
X10966429Y-17857924D02*
X10947381Y-17857924D01*
X10947381Y-17857924D02*
X10928333Y-17848400D01*
X10928333Y-17848400D02*
X10918810Y-17838876D01*
X10918810Y-17838876D02*
X10909286Y-17819829D01*
X10909286Y-17819829D02*
X10899762Y-17781733D01*
X10899762Y-17781733D02*
X10899762Y-17734114D01*
X10899762Y-17734114D02*
X10909286Y-17696019D01*
X10909286Y-17696019D02*
X10918810Y-17676971D01*
X10918810Y-17676971D02*
X10928333Y-17667448D01*
X10928333Y-17667448D02*
X10947381Y-17657924D01*
X11099762Y-17857924D02*
X11099762Y-17724590D01*
X11099762Y-17743638D02*
X11109286Y-17734114D01*
X11109286Y-17734114D02*
X11128333Y-17724590D01*
X11128333Y-17724590D02*
X11156905Y-17724590D01*
X11156905Y-17724590D02*
X11175952Y-17734114D01*
X11175952Y-17734114D02*
X11185476Y-17753162D01*
X11185476Y-17753162D02*
X11185476Y-17857924D01*
X11185476Y-17753162D02*
X11195000Y-17734114D01*
X11195000Y-17734114D02*
X11214048Y-17724590D01*
X11214048Y-17724590D02*
X11242619Y-17724590D01*
X11242619Y-17724590D02*
X11261667Y-17734114D01*
X11261667Y-17734114D02*
X11271190Y-17753162D01*
X11271190Y-17753162D02*
X11271190Y-17857924D01*
X11366429Y-17857924D02*
X11366429Y-17724590D01*
X11366429Y-17743638D02*
X11375952Y-17734114D01*
X11375952Y-17734114D02*
X11395000Y-17724590D01*
X11395000Y-17724590D02*
X11423571Y-17724590D01*
X11423571Y-17724590D02*
X11442619Y-17734114D01*
X11442619Y-17734114D02*
X11452143Y-17753162D01*
X11452143Y-17753162D02*
X11452143Y-17857924D01*
X11452143Y-17753162D02*
X11461667Y-17734114D01*
X11461667Y-17734114D02*
X11480714Y-17724590D01*
X11480714Y-17724590D02*
X11509286Y-17724590D01*
X11509286Y-17724590D02*
X11528333Y-17734114D01*
X11528333Y-17734114D02*
X11537857Y-17753162D01*
X11537857Y-17753162D02*
X11537857Y-17857924D01*
X11928333Y-17648400D02*
X11756905Y-17905543D01*
X12185476Y-17657924D02*
X12204524Y-17657924D01*
X12204524Y-17657924D02*
X12223572Y-17667448D01*
X12223572Y-17667448D02*
X12233095Y-17676971D01*
X12233095Y-17676971D02*
X12242619Y-17696019D01*
X12242619Y-17696019D02*
X12252143Y-17734114D01*
X12252143Y-17734114D02*
X12252143Y-17781733D01*
X12252143Y-17781733D02*
X12242619Y-17819829D01*
X12242619Y-17819829D02*
X12233095Y-17838876D01*
X12233095Y-17838876D02*
X12223572Y-17848400D01*
X12223572Y-17848400D02*
X12204524Y-17857924D01*
X12204524Y-17857924D02*
X12185476Y-17857924D01*
X12185476Y-17857924D02*
X12166429Y-17848400D01*
X12166429Y-17848400D02*
X12156905Y-17838876D01*
X12156905Y-17838876D02*
X12147381Y-17819829D01*
X12147381Y-17819829D02*
X12137857Y-17781733D01*
X12137857Y-17781733D02*
X12137857Y-17734114D01*
X12137857Y-17734114D02*
X12147381Y-17696019D01*
X12147381Y-17696019D02*
X12156905Y-17676971D01*
X12156905Y-17676971D02*
X12166429Y-17667448D01*
X12166429Y-17667448D02*
X12185476Y-17657924D01*
X12337857Y-17838876D02*
X12347381Y-17848400D01*
X12347381Y-17848400D02*
X12337857Y-17857924D01*
X12337857Y-17857924D02*
X12328333Y-17848400D01*
X12328333Y-17848400D02*
X12337857Y-17838876D01*
X12337857Y-17838876D02*
X12337857Y-17857924D01*
X12471191Y-17657924D02*
X12490238Y-17657924D01*
X12490238Y-17657924D02*
X12509286Y-17667448D01*
X12509286Y-17667448D02*
X12518810Y-17676971D01*
X12518810Y-17676971D02*
X12528333Y-17696019D01*
X12528333Y-17696019D02*
X12537857Y-17734114D01*
X12537857Y-17734114D02*
X12537857Y-17781733D01*
X12537857Y-17781733D02*
X12528333Y-17819829D01*
X12528333Y-17819829D02*
X12518810Y-17838876D01*
X12518810Y-17838876D02*
X12509286Y-17848400D01*
X12509286Y-17848400D02*
X12490238Y-17857924D01*
X12490238Y-17857924D02*
X12471191Y-17857924D01*
X12471191Y-17857924D02*
X12452143Y-17848400D01*
X12452143Y-17848400D02*
X12442619Y-17838876D01*
X12442619Y-17838876D02*
X12433095Y-17819829D01*
X12433095Y-17819829D02*
X12423572Y-17781733D01*
X12423572Y-17781733D02*
X12423572Y-17734114D01*
X12423572Y-17734114D02*
X12433095Y-17696019D01*
X12433095Y-17696019D02*
X12442619Y-17676971D01*
X12442619Y-17676971D02*
X12452143Y-17667448D01*
X12452143Y-17667448D02*
X12471191Y-17657924D01*
X12709286Y-17657924D02*
X12671191Y-17657924D01*
X12671191Y-17657924D02*
X12652143Y-17667448D01*
X12652143Y-17667448D02*
X12642619Y-17676971D01*
X12642619Y-17676971D02*
X12623572Y-17705543D01*
X12623572Y-17705543D02*
X12614048Y-17743638D01*
X12614048Y-17743638D02*
X12614048Y-17819829D01*
X12614048Y-17819829D02*
X12623572Y-17838876D01*
X12623572Y-17838876D02*
X12633095Y-17848400D01*
X12633095Y-17848400D02*
X12652143Y-17857924D01*
X12652143Y-17857924D02*
X12690238Y-17857924D01*
X12690238Y-17857924D02*
X12709286Y-17848400D01*
X12709286Y-17848400D02*
X12718810Y-17838876D01*
X12718810Y-17838876D02*
X12728333Y-17819829D01*
X12728333Y-17819829D02*
X12728333Y-17772210D01*
X12728333Y-17772210D02*
X12718810Y-17753162D01*
X12718810Y-17753162D02*
X12709286Y-17743638D01*
X12709286Y-17743638D02*
X12690238Y-17734114D01*
X12690238Y-17734114D02*
X12652143Y-17734114D01*
X12652143Y-17734114D02*
X12633095Y-17743638D01*
X12633095Y-17743638D02*
X12623572Y-17753162D01*
X12623572Y-17753162D02*
X12614048Y-17772210D01*
X12842619Y-17743638D02*
X12823572Y-17734114D01*
X12823572Y-17734114D02*
X12814048Y-17724590D01*
X12814048Y-17724590D02*
X12804524Y-17705543D01*
X12804524Y-17705543D02*
X12804524Y-17696019D01*
X12804524Y-17696019D02*
X12814048Y-17676971D01*
X12814048Y-17676971D02*
X12823572Y-17667448D01*
X12823572Y-17667448D02*
X12842619Y-17657924D01*
X12842619Y-17657924D02*
X12880714Y-17657924D01*
X12880714Y-17657924D02*
X12899762Y-17667448D01*
X12899762Y-17667448D02*
X12909286Y-17676971D01*
X12909286Y-17676971D02*
X12918810Y-17696019D01*
X12918810Y-17696019D02*
X12918810Y-17705543D01*
X12918810Y-17705543D02*
X12909286Y-17724590D01*
X12909286Y-17724590D02*
X12899762Y-17734114D01*
X12899762Y-17734114D02*
X12880714Y-17743638D01*
X12880714Y-17743638D02*
X12842619Y-17743638D01*
X12842619Y-17743638D02*
X12823572Y-17753162D01*
X12823572Y-17753162D02*
X12814048Y-17762686D01*
X12814048Y-17762686D02*
X12804524Y-17781733D01*
X12804524Y-17781733D02*
X12804524Y-17819829D01*
X12804524Y-17819829D02*
X12814048Y-17838876D01*
X12814048Y-17838876D02*
X12823572Y-17848400D01*
X12823572Y-17848400D02*
X12842619Y-17857924D01*
X12842619Y-17857924D02*
X12880714Y-17857924D01*
X12880714Y-17857924D02*
X12899762Y-17848400D01*
X12899762Y-17848400D02*
X12909286Y-17838876D01*
X12909286Y-17838876D02*
X12918810Y-17819829D01*
X12918810Y-17819829D02*
X12918810Y-17781733D01*
X12918810Y-17781733D02*
X12909286Y-17762686D01*
X12909286Y-17762686D02*
X12899762Y-17753162D01*
X12899762Y-17753162D02*
X12880714Y-17743638D01*
X13014048Y-17857924D02*
X13052143Y-17857924D01*
X13052143Y-17857924D02*
X13071191Y-17848400D01*
X13071191Y-17848400D02*
X13080714Y-17838876D01*
X13080714Y-17838876D02*
X13099762Y-17810305D01*
X13099762Y-17810305D02*
X13109286Y-17772210D01*
X13109286Y-17772210D02*
X13109286Y-17696019D01*
X13109286Y-17696019D02*
X13099762Y-17676971D01*
X13099762Y-17676971D02*
X13090238Y-17667448D01*
X13090238Y-17667448D02*
X13071191Y-17657924D01*
X13071191Y-17657924D02*
X13033095Y-17657924D01*
X13033095Y-17657924D02*
X13014048Y-17667448D01*
X13014048Y-17667448D02*
X13004524Y-17676971D01*
X13004524Y-17676971D02*
X12995000Y-17696019D01*
X12995000Y-17696019D02*
X12995000Y-17743638D01*
X12995000Y-17743638D02*
X13004524Y-17762686D01*
X13004524Y-17762686D02*
X13014048Y-17772210D01*
X13014048Y-17772210D02*
X13033095Y-17781733D01*
X13033095Y-17781733D02*
X13071191Y-17781733D01*
X13071191Y-17781733D02*
X13090238Y-17772210D01*
X13090238Y-17772210D02*
X13099762Y-17762686D01*
X13099762Y-17762686D02*
X13109286Y-17743638D01*
X13185476Y-17657924D02*
X13185476Y-17696019D01*
X13261667Y-17657924D02*
X13261667Y-17696019D01*
X13556905Y-17934114D02*
X13547381Y-17924590D01*
X13547381Y-17924590D02*
X13528334Y-17896019D01*
X13528334Y-17896019D02*
X13518810Y-17876971D01*
X13518810Y-17876971D02*
X13509286Y-17848400D01*
X13509286Y-17848400D02*
X13499762Y-17800781D01*
X13499762Y-17800781D02*
X13499762Y-17762686D01*
X13499762Y-17762686D02*
X13509286Y-17715067D01*
X13509286Y-17715067D02*
X13518810Y-17686495D01*
X13518810Y-17686495D02*
X13528334Y-17667448D01*
X13528334Y-17667448D02*
X13547381Y-17638876D01*
X13547381Y-17638876D02*
X13556905Y-17629352D01*
X13661667Y-17743638D02*
X13642619Y-17734114D01*
X13642619Y-17734114D02*
X13633095Y-17724590D01*
X13633095Y-17724590D02*
X13623572Y-17705543D01*
X13623572Y-17705543D02*
X13623572Y-17696019D01*
X13623572Y-17696019D02*
X13633095Y-17676971D01*
X13633095Y-17676971D02*
X13642619Y-17667448D01*
X13642619Y-17667448D02*
X13661667Y-17657924D01*
X13661667Y-17657924D02*
X13699762Y-17657924D01*
X13699762Y-17657924D02*
X13718810Y-17667448D01*
X13718810Y-17667448D02*
X13728334Y-17676971D01*
X13728334Y-17676971D02*
X13737857Y-17696019D01*
X13737857Y-17696019D02*
X13737857Y-17705543D01*
X13737857Y-17705543D02*
X13728334Y-17724590D01*
X13728334Y-17724590D02*
X13718810Y-17734114D01*
X13718810Y-17734114D02*
X13699762Y-17743638D01*
X13699762Y-17743638D02*
X13661667Y-17743638D01*
X13661667Y-17743638D02*
X13642619Y-17753162D01*
X13642619Y-17753162D02*
X13633095Y-17762686D01*
X13633095Y-17762686D02*
X13623572Y-17781733D01*
X13623572Y-17781733D02*
X13623572Y-17819829D01*
X13623572Y-17819829D02*
X13633095Y-17838876D01*
X13633095Y-17838876D02*
X13642619Y-17848400D01*
X13642619Y-17848400D02*
X13661667Y-17857924D01*
X13661667Y-17857924D02*
X13699762Y-17857924D01*
X13699762Y-17857924D02*
X13718810Y-17848400D01*
X13718810Y-17848400D02*
X13728334Y-17838876D01*
X13728334Y-17838876D02*
X13737857Y-17819829D01*
X13737857Y-17819829D02*
X13737857Y-17781733D01*
X13737857Y-17781733D02*
X13728334Y-17762686D01*
X13728334Y-17762686D02*
X13718810Y-17753162D01*
X13718810Y-17753162D02*
X13699762Y-17743638D01*
X13975953Y-17857924D02*
X13975953Y-17657924D01*
X14061667Y-17857924D02*
X14061667Y-17753162D01*
X14061667Y-17753162D02*
X14052143Y-17734114D01*
X14052143Y-17734114D02*
X14033096Y-17724590D01*
X14033096Y-17724590D02*
X14004524Y-17724590D01*
X14004524Y-17724590D02*
X13985476Y-17734114D01*
X13985476Y-17734114D02*
X13975953Y-17743638D01*
X14185476Y-17857924D02*
X14166429Y-17848400D01*
X14166429Y-17848400D02*
X14156905Y-17838876D01*
X14156905Y-17838876D02*
X14147381Y-17819829D01*
X14147381Y-17819829D02*
X14147381Y-17762686D01*
X14147381Y-17762686D02*
X14156905Y-17743638D01*
X14156905Y-17743638D02*
X14166429Y-17734114D01*
X14166429Y-17734114D02*
X14185476Y-17724590D01*
X14185476Y-17724590D02*
X14214048Y-17724590D01*
X14214048Y-17724590D02*
X14233096Y-17734114D01*
X14233096Y-17734114D02*
X14242619Y-17743638D01*
X14242619Y-17743638D02*
X14252143Y-17762686D01*
X14252143Y-17762686D02*
X14252143Y-17819829D01*
X14252143Y-17819829D02*
X14242619Y-17838876D01*
X14242619Y-17838876D02*
X14233096Y-17848400D01*
X14233096Y-17848400D02*
X14214048Y-17857924D01*
X14214048Y-17857924D02*
X14185476Y-17857924D01*
X14366429Y-17857924D02*
X14347381Y-17848400D01*
X14347381Y-17848400D02*
X14337857Y-17829352D01*
X14337857Y-17829352D02*
X14337857Y-17657924D01*
X14518810Y-17848400D02*
X14499762Y-17857924D01*
X14499762Y-17857924D02*
X14461667Y-17857924D01*
X14461667Y-17857924D02*
X14442619Y-17848400D01*
X14442619Y-17848400D02*
X14433096Y-17829352D01*
X14433096Y-17829352D02*
X14433096Y-17753162D01*
X14433096Y-17753162D02*
X14442619Y-17734114D01*
X14442619Y-17734114D02*
X14461667Y-17724590D01*
X14461667Y-17724590D02*
X14499762Y-17724590D01*
X14499762Y-17724590D02*
X14518810Y-17734114D01*
X14518810Y-17734114D02*
X14528334Y-17753162D01*
X14528334Y-17753162D02*
X14528334Y-17772210D01*
X14528334Y-17772210D02*
X14433096Y-17791257D01*
X14604524Y-17848400D02*
X14623572Y-17857924D01*
X14623572Y-17857924D02*
X14661667Y-17857924D01*
X14661667Y-17857924D02*
X14680715Y-17848400D01*
X14680715Y-17848400D02*
X14690238Y-17829352D01*
X14690238Y-17829352D02*
X14690238Y-17819829D01*
X14690238Y-17819829D02*
X14680715Y-17800781D01*
X14680715Y-17800781D02*
X14661667Y-17791257D01*
X14661667Y-17791257D02*
X14633096Y-17791257D01*
X14633096Y-17791257D02*
X14614048Y-17781733D01*
X14614048Y-17781733D02*
X14604524Y-17762686D01*
X14604524Y-17762686D02*
X14604524Y-17753162D01*
X14604524Y-17753162D02*
X14614048Y-17734114D01*
X14614048Y-17734114D02*
X14633096Y-17724590D01*
X14633096Y-17724590D02*
X14661667Y-17724590D01*
X14661667Y-17724590D02*
X14680715Y-17734114D01*
X14756905Y-17934114D02*
X14766429Y-17924590D01*
X14766429Y-17924590D02*
X14785477Y-17896019D01*
X14785477Y-17896019D02*
X14795000Y-17876971D01*
X14795000Y-17876971D02*
X14804524Y-17848400D01*
X14804524Y-17848400D02*
X14814048Y-17800781D01*
X14814048Y-17800781D02*
X14814048Y-17762686D01*
X14814048Y-17762686D02*
X14804524Y-17715067D01*
X14804524Y-17715067D02*
X14795000Y-17686495D01*
X14795000Y-17686495D02*
X14785477Y-17667448D01*
X14785477Y-17667448D02*
X14766429Y-17638876D01*
X14766429Y-17638876D02*
X14756905Y-17629352D01*
M02*
