%TF.GenerationSoftware,KiCad,Pcbnew,7.99.0-950-gc4668c1d3a-dirty*%
%TF.CreationDate,2023-06-21T04:14:00+08:00*%
%TF.ProjectId,LightningReed,4c696768-746e-4696-9e67-526565642e6b,rev?*%
%TF.SameCoordinates,Original*%
%TF.FileFunction,Soldermask,Bot*%
%TF.FilePolarity,Negative*%
%FSLAX46Y46*%
G04 Gerber Fmt 4.6, Leading zero omitted, Abs format (unit mm)*
G04 Created by KiCad (PCBNEW 7.99.0-950-gc4668c1d3a-dirty) date 2023-06-21 04:14:00*
%MOMM*%
%LPD*%
G01*
G04 APERTURE LIST*
G04 Aperture macros list*
%AMRoundRect*
0 Rectangle with rounded corners*
0 $1 Rounding radius*
0 $2 $3 $4 $5 $6 $7 $8 $9 X,Y pos of 4 corners*
0 Add a 4 corners polygon primitive as box body*
4,1,4,$2,$3,$4,$5,$6,$7,$8,$9,$2,$3,0*
0 Add four circle primitives for the rounded corners*
1,1,$1+$1,$2,$3*
1,1,$1+$1,$4,$5*
1,1,$1+$1,$6,$7*
1,1,$1+$1,$8,$9*
0 Add four rect primitives between the rounded corners*
20,1,$1+$1,$2,$3,$4,$5,0*
20,1,$1+$1,$4,$5,$6,$7,0*
20,1,$1+$1,$6,$7,$8,$9,0*
20,1,$1+$1,$8,$9,$2,$3,0*%
G04 Aperture macros list end*
%ADD10R,0.600000X0.450000*%
%ADD11RoundRect,0.250001X-0.799999X-0.799999X0.799999X-0.799999X0.799999X0.799999X-0.799999X0.799999X0*%
%ADD12RoundRect,0.250000X-0.600000X-0.600000X0.600000X-0.600000X0.600000X0.600000X-0.600000X0.600000X0*%
%ADD13C,2.286000*%
%ADD14RoundRect,0.150000X-0.587500X-0.150000X0.587500X-0.150000X0.587500X0.150000X-0.587500X0.150000X0*%
%ADD15RoundRect,0.200000X-0.200000X-0.275000X0.200000X-0.275000X0.200000X0.275000X-0.200000X0.275000X0*%
%ADD16RoundRect,0.200000X-0.275000X0.200000X-0.275000X-0.200000X0.275000X-0.200000X0.275000X0.200000X0*%
%ADD17RoundRect,0.250000X0.250000X0.475000X-0.250000X0.475000X-0.250000X-0.475000X0.250000X-0.475000X0*%
%ADD18RoundRect,0.250000X-1.125000X-1.125000X1.125000X-1.125000X1.125000X1.125000X-1.125000X1.125000X0*%
%ADD19C,2.600000*%
%ADD20C,2.000000*%
%ADD21R,0.450000X0.600000*%
%ADD22R,2.400000X2.400000*%
%ADD23C,2.400000*%
%ADD24RoundRect,0.225000X0.225000X0.250000X-0.225000X0.250000X-0.225000X-0.250000X0.225000X-0.250000X0*%
%ADD25RoundRect,0.200000X0.275000X-0.200000X0.275000X0.200000X-0.275000X0.200000X-0.275000X-0.200000X0*%
%ADD26RoundRect,0.225000X-0.250000X0.225000X-0.250000X-0.225000X0.250000X-0.225000X0.250000X0.225000X0*%
%ADD27C,2.750000*%
%ADD28R,0.600000X0.700000*%
%ADD29RoundRect,0.150000X0.150000X-0.512500X0.150000X0.512500X-0.150000X0.512500X-0.150000X-0.512500X0*%
%ADD30R,3.150000X1.960000*%
%ADD31RoundRect,0.250000X-0.262500X-0.450000X0.262500X-0.450000X0.262500X0.450000X-0.262500X0.450000X0*%
%ADD32RoundRect,0.250000X0.312500X0.625000X-0.312500X0.625000X-0.312500X-0.625000X0.312500X-0.625000X0*%
%ADD33RoundRect,0.250000X-0.325000X-1.100000X0.325000X-1.100000X0.325000X1.100000X-0.325000X1.100000X0*%
%ADD34RoundRect,0.225000X0.250000X-0.225000X0.250000X0.225000X-0.250000X0.225000X-0.250000X-0.225000X0*%
%ADD35RoundRect,0.218750X-0.218750X-0.381250X0.218750X-0.381250X0.218750X0.381250X-0.218750X0.381250X0*%
%ADD36RoundRect,0.250000X-0.312500X-0.625000X0.312500X-0.625000X0.312500X0.625000X-0.312500X0.625000X0*%
%ADD37RoundRect,0.250000X-0.450000X0.262500X-0.450000X-0.262500X0.450000X-0.262500X0.450000X0.262500X0*%
%ADD38RoundRect,0.225000X-0.225000X-0.250000X0.225000X-0.250000X0.225000X0.250000X-0.225000X0.250000X0*%
%ADD39RoundRect,0.250000X1.100000X-0.325000X1.100000X0.325000X-1.100000X0.325000X-1.100000X-0.325000X0*%
%ADD40R,0.700000X0.700000*%
%ADD41R,4.350000X4.510000*%
%ADD42RoundRect,0.250000X-0.625000X0.312500X-0.625000X-0.312500X0.625000X-0.312500X0.625000X0.312500X0*%
%ADD43RoundRect,0.250000X-0.650000X0.325000X-0.650000X-0.325000X0.650000X-0.325000X0.650000X0.325000X0*%
%ADD44RoundRect,0.150000X0.587500X0.150000X-0.587500X0.150000X-0.587500X-0.150000X0.587500X-0.150000X0*%
%ADD45R,4.510000X4.350000*%
%ADD46R,0.900000X1.200000*%
%ADD47RoundRect,0.150000X0.725000X0.150000X-0.725000X0.150000X-0.725000X-0.150000X0.725000X-0.150000X0*%
%ADD48R,1.100000X1.100000*%
%ADD49RoundRect,0.200000X0.200000X0.275000X-0.200000X0.275000X-0.200000X-0.275000X0.200000X-0.275000X0*%
%ADD50R,1.470660X2.105660*%
%ADD51RoundRect,0.150000X0.512500X0.150000X-0.512500X0.150000X-0.512500X-0.150000X0.512500X-0.150000X0*%
%ADD52RoundRect,0.150000X-0.150000X0.662500X-0.150000X-0.662500X0.150000X-0.662500X0.150000X0.662500X0*%
%ADD53R,4.600000X1.100000*%
%ADD54R,9.400000X10.800000*%
%ADD55RoundRect,0.150000X0.150000X-0.587500X0.150000X0.587500X-0.150000X0.587500X-0.150000X-0.587500X0*%
%ADD56RoundRect,0.250000X-1.100000X0.325000X-1.100000X-0.325000X1.100000X-0.325000X1.100000X0.325000X0*%
%ADD57RoundRect,0.250000X-0.250000X-0.475000X0.250000X-0.475000X0.250000X0.475000X-0.250000X0.475000X0*%
%ADD58RoundRect,0.150000X-0.150000X0.587500X-0.150000X-0.587500X0.150000X-0.587500X0.150000X0.587500X0*%
%ADD59RoundRect,0.250000X0.325000X0.650000X-0.325000X0.650000X-0.325000X-0.650000X0.325000X-0.650000X0*%
%ADD60R,1.500000X2.000000*%
%ADD61R,3.800000X2.000000*%
%ADD62RoundRect,0.250000X0.625000X-0.312500X0.625000X0.312500X-0.625000X0.312500X-0.625000X-0.312500X0*%
%ADD63R,2.350000X3.500000*%
%ADD64RoundRect,0.250000X0.262500X0.450000X-0.262500X0.450000X-0.262500X-0.450000X0.262500X-0.450000X0*%
%ADD65RoundRect,0.249999X-0.450001X-1.450001X0.450001X-1.450001X0.450001X1.450001X-0.450001X1.450001X0*%
%ADD66RoundRect,0.062500X-0.062500X0.375000X-0.062500X-0.375000X0.062500X-0.375000X0.062500X0.375000X0*%
%ADD67RoundRect,0.062500X-0.375000X0.062500X-0.375000X-0.062500X0.375000X-0.062500X0.375000X0.062500X0*%
%ADD68R,1.450000X1.450000*%
%ADD69R,1.200000X0.900000*%
%ADD70R,1.400000X1.300000*%
G04 APERTURE END LIST*
D10*
%TO.C,D13*%
X139158000Y-105664000D03*
X141258000Y-105664000D03*
%TD*%
D11*
%TO.C,TP3*%
X153162000Y-96798000D03*
%TD*%
D12*
%TO.C,TP11*%
X130556000Y-97052000D03*
%TD*%
D13*
%TO.C,L2*%
X102957000Y-120122000D03*
X102957000Y-124622000D03*
X112957000Y-120122000D03*
X112957000Y-124622000D03*
%TD*%
D14*
%TO.C,Q10*%
X137238500Y-125410000D03*
X137238500Y-123510000D03*
X139113500Y-124460000D03*
%TD*%
D15*
%TO.C,TH1*%
X124143000Y-115062000D03*
X125793000Y-115062000D03*
%TD*%
D16*
%TO.C,R48*%
X132334000Y-108141000D03*
X132334000Y-109791000D03*
%TD*%
D17*
%TO.C,C28*%
X112842000Y-102870000D03*
X114742000Y-102870000D03*
%TD*%
D10*
%TO.C,D11*%
X116044000Y-111760000D03*
X118144000Y-111760000D03*
%TD*%
D18*
%TO.C,REF\u002A\u002A*%
X127254000Y-75462000D03*
%TD*%
D19*
%TO.C,L3*%
X103926000Y-143510000D03*
X108926000Y-143510000D03*
%TD*%
D16*
%TO.C,R51*%
X130810000Y-109791000D03*
X130810000Y-108141000D03*
%TD*%
D20*
%TO.C,T1*%
X122079000Y-127667000D03*
X124619000Y-127667000D03*
D13*
X139859000Y-127667000D03*
D20*
X119539000Y-125127000D03*
X124619000Y-125127000D03*
X119539000Y-122587000D03*
X122079000Y-122587000D03*
X137319000Y-112427000D03*
X139859000Y-112427000D03*
X134779000Y-109887000D03*
X139859000Y-109887000D03*
X119539000Y-107347000D03*
X134779000Y-107347000D03*
X137319000Y-107347000D03*
%TD*%
D12*
%TO.C,TP10*%
X130556000Y-101346000D03*
%TD*%
D18*
%TO.C,TP8*%
X134620000Y-101854000D03*
%TD*%
D21*
%TO.C,D14*%
X143002000Y-109508000D03*
X143002000Y-107408000D03*
%TD*%
D18*
%TO.C,TP5*%
X139954000Y-96544000D03*
%TD*%
D13*
%TO.C,L1*%
X102776000Y-105736000D03*
X102776000Y-110236000D03*
X112776000Y-105736000D03*
X112776000Y-110236000D03*
%TD*%
D18*
%TO.C,TP7*%
X134620000Y-96544000D03*
%TD*%
D12*
%TO.C,TP15*%
X144272000Y-97052000D03*
%TD*%
%TO.C,TP14*%
X147574000Y-101346000D03*
%TD*%
D18*
%TO.C,TP6*%
X139954000Y-101854000D03*
%TD*%
D12*
%TO.C,TP9*%
X127254000Y-101346000D03*
%TD*%
D16*
%TO.C,R49*%
X140970000Y-125285000D03*
X140970000Y-123635000D03*
%TD*%
D20*
%TO.C,C1*%
X101660000Y-115316000D03*
X109160000Y-115316000D03*
%TD*%
D22*
%TO.C,C10*%
X136476220Y-140208000D03*
D23*
X143976220Y-140208000D03*
%TD*%
D24*
%TO.C,C33*%
X125489000Y-103378000D03*
X123939000Y-103378000D03*
%TD*%
D12*
%TO.C,TP13*%
X144272000Y-101346000D03*
%TD*%
D16*
%TO.C,R46*%
X133350000Y-111951000D03*
X133350000Y-113601000D03*
%TD*%
D25*
%TO.C,R50*%
X129286000Y-109791000D03*
X129286000Y-108141000D03*
%TD*%
D24*
%TO.C,C34*%
X132347000Y-105918000D03*
X130797000Y-105918000D03*
%TD*%
D12*
%TO.C,TP16*%
X147574000Y-97052000D03*
%TD*%
D26*
%TO.C,C32*%
X134874000Y-112001000D03*
X134874000Y-113551000D03*
%TD*%
D11*
%TO.C,TP4*%
X153162000Y-93496000D03*
%TD*%
D12*
%TO.C,TP12*%
X127254000Y-97052000D03*
%TD*%
D18*
%TO.C,P1*%
X104234000Y-102108000D03*
D27*
X109634000Y-102108000D03*
%TD*%
D11*
%TO.C,TP2*%
X149352000Y-93496000D03*
%TD*%
D20*
%TO.C,C2*%
X103378000Y-135322000D03*
X103378000Y-127822000D03*
%TD*%
D18*
%TO.C,TP1*%
X152908000Y-89178000D03*
%TD*%
D16*
%TO.C,R37*%
X109728000Y-117285000D03*
X109728000Y-118935000D03*
%TD*%
D28*
%TO.C,D17*%
X134304000Y-81304000D03*
X132904000Y-81304000D03*
%TD*%
D24*
%TO.C,C7*%
X142253000Y-147574000D03*
X140703000Y-147574000D03*
%TD*%
D29*
%TO.C,U9*%
X134808000Y-83214500D03*
X132908000Y-83214500D03*
X132908000Y-85489500D03*
X133858000Y-85489500D03*
X134808000Y-85489500D03*
%TD*%
D30*
%TO.C,F1*%
X107758500Y-105500000D03*
X107758500Y-110400000D03*
%TD*%
D31*
%TO.C,R41*%
X131421500Y-127762000D03*
X133246500Y-127762000D03*
%TD*%
D24*
%TO.C,C23*%
X114834000Y-101092000D03*
X113284000Y-101092000D03*
%TD*%
D32*
%TO.C,R30*%
X139384500Y-121412000D03*
X136459500Y-121412000D03*
%TD*%
D33*
%TO.C,C27*%
X130351000Y-130556000D03*
X133301000Y-130556000D03*
%TD*%
D34*
%TO.C,C45*%
X131318000Y-83323000D03*
X131318000Y-84873000D03*
%TD*%
D35*
%TO.C,L6*%
X142032500Y-76732000D03*
X139907500Y-76732000D03*
%TD*%
D36*
%TO.C,R6*%
X145603500Y-148590000D03*
X148528500Y-148590000D03*
%TD*%
D37*
%TO.C,R61*%
X138176000Y-88312500D03*
X138176000Y-86487500D03*
%TD*%
D25*
%TO.C,R27*%
X146558000Y-137144500D03*
X146558000Y-135494500D03*
%TD*%
D36*
%TO.C,R7*%
X145603500Y-146304000D03*
X148528500Y-146304000D03*
%TD*%
D32*
%TO.C,R19*%
X148782500Y-118364000D03*
X145857500Y-118364000D03*
%TD*%
D38*
%TO.C,C38*%
X141491000Y-86384000D03*
X139941000Y-86384000D03*
%TD*%
D39*
%TO.C,C22*%
X129286000Y-118569000D03*
X129286000Y-115619000D03*
%TD*%
D38*
%TO.C,C31*%
X127241000Y-113538000D03*
X128791000Y-113538000D03*
%TD*%
D40*
%TO.C,Q7*%
X121152000Y-117983000D03*
X121152000Y-119253000D03*
X121152000Y-120523000D03*
X121152000Y-116713000D03*
D41*
X124282000Y-118618000D03*
D40*
X126752000Y-116713000D03*
X126752000Y-117983000D03*
X126752000Y-119253000D03*
X126752000Y-120523000D03*
%TD*%
D42*
%TO.C,R4*%
X138684000Y-143571500D03*
X138684000Y-146496500D03*
%TD*%
D43*
%TO.C,C40*%
X135128000Y-76527000D03*
X135128000Y-79477000D03*
%TD*%
D15*
%TO.C,R5*%
X133287000Y-143002000D03*
X134937000Y-143002000D03*
%TD*%
D38*
%TO.C,C8*%
X138925000Y-141732000D03*
X140475000Y-141732000D03*
%TD*%
D44*
%TO.C,Q5*%
X143685500Y-144084000D03*
X143685500Y-145984000D03*
X141810500Y-145034000D03*
%TD*%
D24*
%TO.C,C5*%
X133617000Y-141478000D03*
X132067000Y-141478000D03*
%TD*%
D16*
%TO.C,R9*%
X136652000Y-143701000D03*
X136652000Y-145351000D03*
%TD*%
D38*
%TO.C,C30*%
X130289000Y-112014000D03*
X131839000Y-112014000D03*
%TD*%
D40*
%TO.C,Q8*%
X118237000Y-114980000D03*
X116967000Y-114980000D03*
X115697000Y-114980000D03*
X119507000Y-114980000D03*
D45*
X117602000Y-118110000D03*
D40*
X119507000Y-120580000D03*
X118237000Y-120580000D03*
X116967000Y-120580000D03*
X115697000Y-120580000D03*
%TD*%
D24*
%TO.C,C25*%
X113043000Y-116586000D03*
X111493000Y-116586000D03*
%TD*%
D46*
%TO.C,D10*%
X134746000Y-121412000D03*
X131446000Y-121412000D03*
%TD*%
D47*
%TO.C,U5*%
X121955000Y-100965000D03*
X121955000Y-102235000D03*
X121955000Y-103505000D03*
X121955000Y-104775000D03*
X116805000Y-104775000D03*
X116805000Y-103505000D03*
X116805000Y-102235000D03*
X116805000Y-100965000D03*
%TD*%
D48*
%TO.C,D9*%
X129670000Y-127762000D03*
X126870000Y-127762000D03*
%TD*%
D25*
%TO.C,R26*%
X140970000Y-118681000D03*
X140970000Y-117031000D03*
%TD*%
D48*
%TO.C,D8*%
X129670000Y-125222000D03*
X126870000Y-125222000D03*
%TD*%
D49*
%TO.C,R36*%
X113093000Y-113030000D03*
X111443000Y-113030000D03*
%TD*%
D48*
%TO.C,D3*%
X115316000Y-134236000D03*
X115316000Y-137036000D03*
%TD*%
D50*
%TO.C,D2*%
X110500160Y-130543300D03*
X105399840Y-130543300D03*
X105399840Y-122440700D03*
X110500160Y-122440700D03*
%TD*%
D38*
%TO.C,C36*%
X152921000Y-86384000D03*
X151371000Y-86384000D03*
%TD*%
D44*
%TO.C,Q4*%
X146987500Y-129352000D03*
X146987500Y-131252000D03*
X145112500Y-130302000D03*
%TD*%
D15*
%TO.C,R29*%
X147257000Y-142669500D03*
X148907000Y-142669500D03*
%TD*%
D51*
%TO.C,U1*%
X134741500Y-144592000D03*
X134741500Y-145542000D03*
X134741500Y-146492000D03*
X132466500Y-146492000D03*
X132466500Y-145542000D03*
X132466500Y-144592000D03*
%TD*%
D43*
%TO.C,C39*%
X137668000Y-76527000D03*
X137668000Y-79477000D03*
%TD*%
D52*
%TO.C,U7*%
X144653000Y-94143500D03*
X145923000Y-94143500D03*
X145923000Y-87768500D03*
X144653000Y-87768500D03*
%TD*%
D49*
%TO.C,R32*%
X122745000Y-115062000D03*
X121095000Y-115062000D03*
%TD*%
D53*
%TO.C,Q1*%
X127441000Y-141224000D03*
D54*
X118291000Y-143764000D03*
D53*
X127441000Y-146304000D03*
%TD*%
D24*
%TO.C,C12*%
X147079000Y-112776000D03*
X145529000Y-112776000D03*
%TD*%
D16*
%TO.C,R42*%
X134874000Y-125921000D03*
X134874000Y-127571000D03*
%TD*%
D32*
%TO.C,R3*%
X138876500Y-148590000D03*
X135951500Y-148590000D03*
%TD*%
D24*
%TO.C,C13*%
X147079000Y-111252000D03*
X145529000Y-111252000D03*
%TD*%
D49*
%TO.C,R34*%
X121221000Y-113538000D03*
X119571000Y-113538000D03*
%TD*%
D55*
%TO.C,Q6*%
X149032000Y-140813000D03*
X147132000Y-140813000D03*
X148082000Y-138938000D03*
%TD*%
D15*
%TO.C,R60*%
X152971000Y-84860000D03*
X151321000Y-84860000D03*
%TD*%
D26*
%TO.C,C14*%
X144018000Y-117081000D03*
X144018000Y-118631000D03*
%TD*%
D15*
%TO.C,R44*%
X124143000Y-113538000D03*
X125793000Y-113538000D03*
%TD*%
D34*
%TO.C,C24*%
X116586000Y-107963000D03*
X116586000Y-106413000D03*
%TD*%
D56*
%TO.C,C21*%
X135890000Y-118569000D03*
X135890000Y-115619000D03*
%TD*%
D57*
%TO.C,C4*%
X131638000Y-139700000D03*
X133538000Y-139700000D03*
%TD*%
D55*
%TO.C,Q2*%
X143952000Y-115159000D03*
X142052000Y-115159000D03*
X143002000Y-113284000D03*
%TD*%
D16*
%TO.C,R8*%
X143764000Y-147511000D03*
X143764000Y-149161000D03*
%TD*%
D58*
%TO.C,Q9*%
X131384000Y-123776500D03*
X133284000Y-123776500D03*
X132334000Y-125651500D03*
%TD*%
D15*
%TO.C,R15*%
X138621000Y-137668000D03*
X140271000Y-137668000D03*
%TD*%
D24*
%TO.C,C26*%
X129807000Y-121158000D03*
X128257000Y-121158000D03*
%TD*%
D43*
%TO.C,C41*%
X132588000Y-76527000D03*
X132588000Y-79477000D03*
%TD*%
D59*
%TO.C,C18*%
X111965000Y-138430000D03*
X109015000Y-138430000D03*
%TD*%
D25*
%TO.C,R47*%
X122936000Y-108013000D03*
X122936000Y-106363000D03*
%TD*%
%TO.C,R62*%
X136398000Y-83019000D03*
X136398000Y-84669000D03*
%TD*%
D32*
%TO.C,R2*%
X134050500Y-148590000D03*
X131125500Y-148590000D03*
%TD*%
D60*
%TO.C,Q3*%
X148350000Y-127102000D03*
X146050000Y-127102000D03*
D61*
X146050000Y-120802000D03*
D60*
X143750000Y-127102000D03*
%TD*%
D14*
%TO.C,D12*%
X135128000Y-130932000D03*
X135128000Y-129032000D03*
X137003000Y-129982000D03*
%TD*%
D25*
%TO.C,R17*%
X142494000Y-118681000D03*
X142494000Y-117031000D03*
%TD*%
D34*
%TO.C,C15*%
X148844000Y-131064000D03*
X148844000Y-129514000D03*
%TD*%
D62*
%TO.C,R39*%
X116332000Y-125414500D03*
X116332000Y-122489500D03*
%TD*%
D49*
%TO.C,R59*%
X148273000Y-86384000D03*
X149923000Y-86384000D03*
%TD*%
D63*
%TO.C,L5*%
X146512000Y-81304000D03*
X140462000Y-81304000D03*
%TD*%
D38*
%TO.C,C17*%
X145529000Y-144272000D03*
X147079000Y-144272000D03*
%TD*%
D44*
%TO.C,U8*%
X148414500Y-89432000D03*
X150289500Y-90382000D03*
X150289500Y-88482000D03*
%TD*%
D64*
%TO.C,R40*%
X129690500Y-122936000D03*
X127865500Y-122936000D03*
%TD*%
D44*
%TO.C,U2*%
X147749500Y-116266000D03*
X145874500Y-115316000D03*
X147749500Y-114366000D03*
%TD*%
D65*
%TO.C,C19*%
X119362000Y-133096000D03*
X123462000Y-133096000D03*
%TD*%
D49*
%TO.C,R45*%
X131889000Y-113538000D03*
X130239000Y-113538000D03*
%TD*%
D34*
%TO.C,C11*%
X138684000Y-136157000D03*
X138684000Y-134607000D03*
%TD*%
D66*
%TO.C,U4*%
X125488000Y-106766500D03*
X125988000Y-106766500D03*
X126488000Y-106766500D03*
X126988000Y-106766500D03*
D67*
X127675500Y-107454000D03*
X127675500Y-107954000D03*
X127675500Y-108454000D03*
X127675500Y-108954000D03*
D66*
X126988000Y-109641500D03*
X126488000Y-109641500D03*
X125988000Y-109641500D03*
X125488000Y-109641500D03*
D67*
X124800500Y-108954000D03*
X124800500Y-108454000D03*
X124800500Y-107954000D03*
X124800500Y-107454000D03*
D68*
X126238000Y-108204000D03*
%TD*%
D15*
%TO.C,R1*%
X127445000Y-137160000D03*
X129095000Y-137160000D03*
%TD*%
D49*
%TO.C,R33*%
X121221000Y-112014000D03*
X119571000Y-112014000D03*
%TD*%
D24*
%TO.C,C6*%
X142253000Y-149098000D03*
X140703000Y-149098000D03*
%TD*%
D15*
%TO.C,R28*%
X143193000Y-142494000D03*
X144843000Y-142494000D03*
%TD*%
D69*
%TO.C,D6*%
X148590000Y-132970000D03*
X148590000Y-136270000D03*
%TD*%
D70*
%TO.C,D1*%
X115316000Y-132260000D03*
X115316000Y-129360000D03*
%TD*%
D32*
%TO.C,R38*%
X106110500Y-138430000D03*
X103185500Y-138430000D03*
%TD*%
D15*
%TO.C,R43*%
X124143000Y-112014000D03*
X125793000Y-112014000D03*
%TD*%
D25*
%TO.C,R31*%
X122682000Y-113601000D03*
X122682000Y-111951000D03*
%TD*%
D34*
%TO.C,C47*%
X131318000Y-86625000D03*
X131318000Y-88175000D03*
%TD*%
D56*
%TO.C,C20*%
X132588000Y-118569000D03*
X132588000Y-115619000D03*
%TD*%
M02*
