%TF.GenerationSoftware,KiCad,Pcbnew,7.99.0-950-gc4668c1d3a-dirty*%
%TF.CreationDate,2023-06-21T04:13:59+08:00*%
%TF.ProjectId,LightningReed,4c696768-746e-4696-9e67-526565642e6b,rev?*%
%TF.SameCoordinates,Original*%
%TF.FileFunction,Copper,L1,Top*%
%TF.FilePolarity,Positive*%
%FSLAX46Y46*%
G04 Gerber Fmt 4.6, Leading zero omitted, Abs format (unit mm)*
G04 Created by KiCad (PCBNEW 7.99.0-950-gc4668c1d3a-dirty) date 2023-06-21 04:13:59*
%MOMM*%
%LPD*%
G01*
G04 APERTURE LIST*
G04 Aperture macros list*
%AMRoundRect*
0 Rectangle with rounded corners*
0 $1 Rounding radius*
0 $2 $3 $4 $5 $6 $7 $8 $9 X,Y pos of 4 corners*
0 Add a 4 corners polygon primitive as box body*
4,1,4,$2,$3,$4,$5,$6,$7,$8,$9,$2,$3,0*
0 Add four circle primitives for the rounded corners*
1,1,$1+$1,$2,$3*
1,1,$1+$1,$4,$5*
1,1,$1+$1,$6,$7*
1,1,$1+$1,$8,$9*
0 Add four rect primitives between the rounded corners*
20,1,$1+$1,$2,$3,$4,$5,0*
20,1,$1+$1,$4,$5,$6,$7,0*
20,1,$1+$1,$6,$7,$8,$9,0*
20,1,$1+$1,$8,$9,$2,$3,0*%
%AMFreePoly0*
4,1,9,3.862500,-0.866500,0.737500,-0.866500,0.737500,-0.450000,-0.737500,-0.450000,-0.737500,0.450000,0.737500,0.450000,0.737500,0.866500,3.862500,0.866500,3.862500,-0.866500,3.862500,-0.866500,$1*%
G04 Aperture macros list end*
%TA.AperFunction,SMDPad,CuDef*%
%ADD10R,1.100000X1.100000*%
%TD*%
%TA.AperFunction,SMDPad,CuDef*%
%ADD11R,1.100000X4.600000*%
%TD*%
%TA.AperFunction,SMDPad,CuDef*%
%ADD12R,10.800000X9.400000*%
%TD*%
%TA.AperFunction,ComponentPad*%
%ADD13RoundRect,0.250001X-0.799999X-0.799999X0.799999X-0.799999X0.799999X0.799999X-0.799999X0.799999X0*%
%TD*%
%TA.AperFunction,SMDPad,CuDef*%
%ADD14RoundRect,0.250000X1.000000X-1.750000X1.000000X1.750000X-1.000000X1.750000X-1.000000X-1.750000X0*%
%TD*%
%TA.AperFunction,ComponentPad*%
%ADD15RoundRect,0.250000X-0.600000X-0.600000X0.600000X-0.600000X0.600000X0.600000X-0.600000X0.600000X0*%
%TD*%
%TA.AperFunction,ComponentPad*%
%ADD16C,2.286000*%
%TD*%
%TA.AperFunction,SMDPad,CuDef*%
%ADD17RoundRect,0.200000X0.275000X-0.200000X0.275000X0.200000X-0.275000X0.200000X-0.275000X-0.200000X0*%
%TD*%
%TA.AperFunction,SMDPad,CuDef*%
%ADD18RoundRect,0.200000X-0.275000X0.200000X-0.275000X-0.200000X0.275000X-0.200000X0.275000X0.200000X0*%
%TD*%
%TA.AperFunction,SMDPad,CuDef*%
%ADD19RoundRect,0.250000X-0.625000X0.312500X-0.625000X-0.312500X0.625000X-0.312500X0.625000X0.312500X0*%
%TD*%
%TA.AperFunction,SMDPad,CuDef*%
%ADD20RoundRect,0.200000X-0.200000X-0.275000X0.200000X-0.275000X0.200000X0.275000X-0.200000X0.275000X0*%
%TD*%
%TA.AperFunction,SMDPad,CuDef*%
%ADD21RoundRect,0.225000X-0.250000X0.225000X-0.250000X-0.225000X0.250000X-0.225000X0.250000X0.225000X0*%
%TD*%
%TA.AperFunction,SMDPad,CuDef*%
%ADD22RoundRect,0.250000X-0.450000X0.262500X-0.450000X-0.262500X0.450000X-0.262500X0.450000X0.262500X0*%
%TD*%
%TA.AperFunction,SMDPad,CuDef*%
%ADD23R,1.200000X0.900000*%
%TD*%
%TA.AperFunction,SMDPad,CuDef*%
%ADD24RoundRect,0.250000X0.312500X0.625000X-0.312500X0.625000X-0.312500X-0.625000X0.312500X-0.625000X0*%
%TD*%
%TA.AperFunction,ComponentPad*%
%ADD25RoundRect,0.250000X-1.125000X-1.125000X1.125000X-1.125000X1.125000X1.125000X-1.125000X1.125000X0*%
%TD*%
%TA.AperFunction,SMDPad,CuDef*%
%ADD26RoundRect,0.150000X-0.150000X0.512500X-0.150000X-0.512500X0.150000X-0.512500X0.150000X0.512500X0*%
%TD*%
%TA.AperFunction,ComponentPad*%
%ADD27C,2.600000*%
%TD*%
%TA.AperFunction,ComponentPad*%
%ADD28C,2.000000*%
%TD*%
%TA.AperFunction,SMDPad,CuDef*%
%ADD29RoundRect,0.250000X0.325000X0.650000X-0.325000X0.650000X-0.325000X-0.650000X0.325000X-0.650000X0*%
%TD*%
%TA.AperFunction,SMDPad,CuDef*%
%ADD30R,5.400000X2.900000*%
%TD*%
%TA.AperFunction,SMDPad,CuDef*%
%ADD31RoundRect,0.250000X0.625000X-0.312500X0.625000X0.312500X-0.625000X0.312500X-0.625000X-0.312500X0*%
%TD*%
%TA.AperFunction,SMDPad,CuDef*%
%ADD32RoundRect,0.225000X-0.225000X-0.250000X0.225000X-0.250000X0.225000X0.250000X-0.225000X0.250000X0*%
%TD*%
%TA.AperFunction,SMDPad,CuDef*%
%ADD33RoundRect,0.150000X-0.587500X-0.150000X0.587500X-0.150000X0.587500X0.150000X-0.587500X0.150000X0*%
%TD*%
%TA.AperFunction,SMDPad,CuDef*%
%ADD34RoundRect,0.200000X0.200000X0.275000X-0.200000X0.275000X-0.200000X-0.275000X0.200000X-0.275000X0*%
%TD*%
%TA.AperFunction,ComponentPad*%
%ADD35R,2.400000X2.400000*%
%TD*%
%TA.AperFunction,ComponentPad*%
%ADD36C,2.400000*%
%TD*%
%TA.AperFunction,SMDPad,CuDef*%
%ADD37RoundRect,0.225000X0.225000X0.250000X-0.225000X0.250000X-0.225000X-0.250000X0.225000X-0.250000X0*%
%TD*%
%TA.AperFunction,SMDPad,CuDef*%
%ADD38RoundRect,0.250000X-0.475000X0.250000X-0.475000X-0.250000X0.475000X-0.250000X0.475000X0.250000X0*%
%TD*%
%TA.AperFunction,SMDPad,CuDef*%
%ADD39RoundRect,0.250000X-0.312500X-0.625000X0.312500X-0.625000X0.312500X0.625000X-0.312500X0.625000X0*%
%TD*%
%TA.AperFunction,SMDPad,CuDef*%
%ADD40R,1.300000X0.900000*%
%TD*%
%TA.AperFunction,SMDPad,CuDef*%
%ADD41FreePoly0,180.000000*%
%TD*%
%TA.AperFunction,SMDPad,CuDef*%
%ADD42R,0.450000X0.600000*%
%TD*%
%TA.AperFunction,SMDPad,CuDef*%
%ADD43RoundRect,0.249999X-0.450001X-1.450001X0.450001X-1.450001X0.450001X1.450001X-0.450001X1.450001X0*%
%TD*%
%TA.AperFunction,ComponentPad*%
%ADD44C,2.750000*%
%TD*%
%TA.AperFunction,SMDPad,CuDef*%
%ADD45RoundRect,0.150000X0.150000X-0.587500X0.150000X0.587500X-0.150000X0.587500X-0.150000X-0.587500X0*%
%TD*%
%TA.AperFunction,SMDPad,CuDef*%
%ADD46RoundRect,0.250000X-0.325000X-1.100000X0.325000X-1.100000X0.325000X1.100000X-0.325000X1.100000X0*%
%TD*%
%TA.AperFunction,ViaPad*%
%ADD47C,0.400000*%
%TD*%
%TA.AperFunction,Conductor*%
%ADD48C,0.609600*%
%TD*%
%TA.AperFunction,Conductor*%
%ADD49C,0.254000*%
%TD*%
%TA.AperFunction,Conductor*%
%ADD50C,0.508000*%
%TD*%
%TA.AperFunction,Conductor*%
%ADD51C,0.304800*%
%TD*%
%TA.AperFunction,Conductor*%
%ADD52C,1.016000*%
%TD*%
%TA.AperFunction,Conductor*%
%ADD53C,0.406400*%
%TD*%
%TA.AperFunction,Conductor*%
%ADD54C,0.635000*%
%TD*%
%TA.AperFunction,Conductor*%
%ADD55C,0.812800*%
%TD*%
%TA.AperFunction,Conductor*%
%ADD56C,2.540000*%
%TD*%
G04 APERTURE END LIST*
D10*
%TO.P,D5,1,K*%
%TO.N,Net-(D5-K)*%
X145920000Y-123190000D03*
%TO.P,D5,2,A*%
%TO.N,/VDD3*%
X148720000Y-123190000D03*
%TD*%
D11*
%TO.P,Q12,3,S*%
%TO.N,Net-(Q12-S)*%
X139954000Y-90635000D03*
D12*
%TO.P,Q12,2,D*%
%TO.N,VCOM*%
X137414000Y-81485000D03*
D11*
%TO.P,Q12,1,G*%
%TO.N,Net-(Q12-G)*%
X134874000Y-90635000D03*
%TD*%
D13*
%TO.P,TP3,1,1*%
%TO.N,GNDS*%
X153162000Y-96798000D03*
%TD*%
D14*
%TO.P,C43,2*%
%TO.N,GNDS*%
X149352000Y-76034000D03*
%TO.P,C43,1*%
%TO.N,LINE*%
X149352000Y-84034000D03*
%TD*%
D15*
%TO.P,TP11,1,1*%
%TO.N,VS*%
X130556000Y-97052000D03*
%TD*%
D16*
%TO.P,L2,1,1*%
%TO.N,Net-(C1-Pad1)*%
X102957000Y-120122000D03*
%TO.P,L2,2,2*%
%TO.N,Net-(D2-Pad4)*%
X102957000Y-124622000D03*
%TO.P,L2,3,3*%
%TO.N,Net-(C1-Pad2)*%
X112957000Y-120122000D03*
%TO.P,L2,4,4*%
%TO.N,Net-(D2-Pad3)*%
X112957000Y-124622000D03*
%TD*%
D17*
%TO.P,R55,2*%
%TO.N,Net-(R54-Pad1)*%
X146304000Y-87337000D03*
%TO.P,R55,1*%
%TO.N,Net-(C35-Pad1)*%
X146304000Y-88987000D03*
%TD*%
D18*
%TO.P,R16,1*%
%TO.N,Net-(U3-+)*%
X145288000Y-114936000D03*
%TO.P,R16,2*%
%TO.N,/5V_LDO*%
X145288000Y-116586000D03*
%TD*%
D19*
%TO.P,R23,1*%
%TO.N,Net-(R22-Pad2)*%
X146304000Y-125283500D03*
%TO.P,R23,2*%
%TO.N,Net-(Q3-D)*%
X146304000Y-128208500D03*
%TD*%
D20*
%TO.P,R53,1*%
%TO.N,Net-(R52-Pad2)*%
X147257000Y-103886000D03*
%TO.P,R53,2*%
%TO.N,Net-(Q11-D)*%
X148907000Y-103886000D03*
%TD*%
D21*
%TO.P,C9,1*%
%TO.N,Net-(U1-VOSNS)*%
X131318000Y-145275000D03*
%TO.P,C9,2*%
%TO.N,GNDPWR*%
X131318000Y-146825000D03*
%TD*%
D22*
%TO.P,R25,1*%
%TO.N,/AC_SENSE*%
X144018000Y-119229500D03*
%TO.P,R25,2*%
%TO.N,Net-(C16-Pad1)*%
X144018000Y-121054500D03*
%TD*%
D23*
%TO.P,D15,2,A*%
%TO.N,/VAUX*%
X127254000Y-94384000D03*
%TO.P,D15,1,K*%
%TO.N,Net-(D15-K)*%
X127254000Y-91084000D03*
%TD*%
D24*
%TO.P,R24,1*%
%TO.N,/BROWN_OUT*%
X148782500Y-120650000D03*
%TO.P,R24,2*%
%TO.N,Net-(C16-Pad1)*%
X145857500Y-120650000D03*
%TD*%
D25*
%TO.P,REF\u002A\u002A,1*%
%TO.N,GNDS*%
X127254000Y-75462000D03*
%TD*%
D26*
%TO.P,U3,1*%
%TO.N,Net-(Q2-G)*%
X148778000Y-113924500D03*
%TO.P,U3,2,V+*%
%TO.N,/5V_LDO*%
X147828000Y-113924500D03*
%TO.P,U3,3,+*%
%TO.N,Net-(U3-+)*%
X146878000Y-113924500D03*
%TO.P,U3,4,-*%
%TO.N,/AC_SENSE*%
X146878000Y-116199500D03*
%TO.P,U3,5,V-*%
%TO.N,GNDPWR*%
X148778000Y-116199500D03*
%TD*%
D27*
%TO.P,L3,1,1*%
%TO.N,HT*%
X103926000Y-143510000D03*
%TO.P,L3,2,2*%
%TO.N,Net-(D1-A)*%
X108926000Y-143510000D03*
%TD*%
D28*
%TO.P,T1,1,SD*%
%TO.N,GNDPWR*%
X122079000Y-127667000D03*
%TO.P,T1,2,SC*%
%TO.N,Net-(D9-A)*%
X124619000Y-127667000D03*
D16*
%TO.P,T1,3*%
%TO.N,N/C*%
X139859000Y-127667000D03*
D28*
%TO.P,T1,4,AB*%
%TO.N,VDC*%
X119539000Y-125127000D03*
%TO.P,T1,5,SD*%
%TO.N,/VSV*%
X124619000Y-125127000D03*
%TO.P,T1,6*%
%TO.N,N/C*%
X119539000Y-122587000D03*
%TO.P,T1,7,AA*%
%TO.N,/VSW*%
X122079000Y-122587000D03*
%TO.P,T1,8,SC*%
%TO.N,Net-(T1-SC-Pad8)*%
X137319000Y-112427000D03*
%TO.P,T1,9,SA*%
%TO.N,Net-(T1-SA)*%
X139859000Y-112427000D03*
%TO.P,T1,10,SD*%
%TO.N,Net-(T1-SD-Pad10)*%
X134779000Y-109887000D03*
%TO.P,T1,11*%
%TO.N,N/C*%
X139859000Y-109887000D03*
%TO.P,T1,12*%
X119539000Y-107347000D03*
%TO.P,T1,13,SB*%
%TO.N,Net-(T1-SB)*%
X134779000Y-107347000D03*
%TO.P,T1,14*%
%TO.N,N/C*%
X137319000Y-107347000D03*
%TD*%
D15*
%TO.P,TP10,1,1*%
%TO.N,Net-(T1-SD-Pad10)*%
X130556000Y-101346000D03*
%TD*%
D17*
%TO.P,R56,2*%
%TO.N,Net-(R54-Pad1)*%
X144780000Y-87337000D03*
%TO.P,R56,1*%
%TO.N,Net-(C35-Pad2)*%
X144780000Y-88987000D03*
%TD*%
D25*
%TO.P,TP8,1,1*%
%TO.N,Net-(T1-SB)*%
X134620000Y-101854000D03*
%TD*%
D29*
%TO.P,C42,2*%
%TO.N,GNDS*%
X127557000Y-78510000D03*
%TO.P,C42,1*%
%TO.N,VCOM*%
X130507000Y-78510000D03*
%TD*%
D30*
%TO.P,L4,1,1*%
%TO.N,Net-(D3-A)*%
X119634000Y-137798000D03*
%TO.P,L4,2,2*%
%TO.N,Net-(D1-A)*%
X119634000Y-147698000D03*
%TD*%
D31*
%TO.P,R22,1*%
%TO.N,Net-(R21-Pad2)*%
X148590000Y-128208500D03*
%TO.P,R22,2*%
%TO.N,Net-(R22-Pad2)*%
X148590000Y-125283500D03*
%TD*%
D25*
%TO.P,TP5,1,1*%
%TO.N,Net-(Q12-S)*%
X139954000Y-96544000D03*
%TD*%
D18*
%TO.P,R63,2*%
%TO.N,Net-(D15-K)*%
X127254000Y-87971000D03*
%TO.P,R63,1*%
%TO.N,Net-(D16-K)*%
X127254000Y-86321000D03*
%TD*%
D16*
%TO.P,L1,1,1*%
%TO.N,Net-(F1-Pad2)*%
X102776000Y-105736000D03*
%TO.P,L1,2,2*%
%TO.N,Net-(C1-Pad1)*%
X102776000Y-110236000D03*
%TO.P,L1,3,3*%
%TO.N,Net-(P1-AC_N)*%
X112776000Y-105736000D03*
%TO.P,L1,4,4*%
%TO.N,Net-(C1-Pad2)*%
X112776000Y-110236000D03*
%TD*%
D25*
%TO.P,TP7,1,1*%
%TO.N,GNDS*%
X134620000Y-96544000D03*
%TD*%
D15*
%TO.P,TP15,1,1*%
%TO.N,Net-(TP15-Pad1)*%
X144272000Y-97052000D03*
%TD*%
%TO.P,TP14,1,1*%
%TO.N,GNDPWR*%
X147574000Y-101346000D03*
%TD*%
D32*
%TO.P,C37,2*%
%TO.N,/CTL*%
X149378000Y-90448000D03*
%TO.P,C37,1*%
%TO.N,Net-(U8-K)*%
X147828000Y-90448000D03*
%TD*%
D25*
%TO.P,TP6,1,1*%
%TO.N,Net-(T1-SA)*%
X139954000Y-101854000D03*
%TD*%
D15*
%TO.P,TP9,1,1*%
%TO.N,Net-(T1-SC-Pad8)*%
X127254000Y-101346000D03*
%TD*%
D20*
%TO.P,R54,2*%
%TO.N,LINE*%
X149415000Y-87400000D03*
%TO.P,R54,1*%
%TO.N,Net-(R54-Pad1)*%
X147765000Y-87400000D03*
%TD*%
D33*
%TO.P,Q11,1,G*%
%TO.N,/RUN*%
X145874500Y-105476000D03*
%TO.P,Q11,2,S*%
%TO.N,GNDPWR*%
X145874500Y-107376000D03*
%TO.P,Q11,3,D*%
%TO.N,Net-(Q11-D)*%
X147749500Y-106426000D03*
%TD*%
D34*
%TO.P,R18,1*%
%TO.N,Net-(Q2-G)*%
X148653000Y-112268000D03*
%TO.P,R18,2*%
%TO.N,Net-(U3-+)*%
X147003000Y-112268000D03*
%TD*%
D28*
%TO.P,C1,1*%
%TO.N,Net-(C1-Pad1)*%
X101660000Y-115316000D03*
%TO.P,C1,2*%
%TO.N,Net-(C1-Pad2)*%
X109160000Y-115316000D03*
%TD*%
D34*
%TO.P,R58,2*%
%TO.N,Net-(R54-Pad1)*%
X147765000Y-88924000D03*
%TO.P,R58,1*%
%TO.N,/CTL*%
X149415000Y-88924000D03*
%TD*%
D35*
%TO.P,C10,1*%
%TO.N,VDC*%
X136476220Y-140208000D03*
D36*
%TO.P,C10,2*%
%TO.N,GNDPWR*%
X143976220Y-140208000D03*
%TD*%
D37*
%TO.P,C46,2*%
%TO.N,VS*%
X127495000Y-80542000D03*
%TO.P,C46,1*%
%TO.N,Net-(D17-K)*%
X129045000Y-80542000D03*
%TD*%
D20*
%TO.P,R52,1*%
%TO.N,Net-(R52-Pad1)*%
X144209000Y-103886000D03*
%TO.P,R52,2*%
%TO.N,Net-(R52-Pad2)*%
X145859000Y-103886000D03*
%TD*%
D38*
%TO.P,C16,1*%
%TO.N,Net-(C16-Pad1)*%
X144018000Y-122748000D03*
%TO.P,C16,2*%
%TO.N,GNDPWR*%
X144018000Y-124648000D03*
%TD*%
D39*
%TO.P,R20,1*%
%TO.N,Net-(C16-Pad1)*%
X145857500Y-118364000D03*
%TO.P,R20,2*%
%TO.N,Net-(R19-Pad1)*%
X148782500Y-118364000D03*
%TD*%
D15*
%TO.P,TP13,1,1*%
%TO.N,Net-(R52-Pad1)*%
X144272000Y-101346000D03*
%TD*%
D40*
%TO.P,U6,1,ADJ*%
%TO.N,Net-(U6-ADJ)*%
X115442000Y-116816000D03*
D41*
%TO.P,U6,2,VO*%
%TO.N,Net-(D7-A)*%
X115354500Y-115316000D03*
D40*
%TO.P,U6,3,VI*%
%TO.N,VDD*%
X115442000Y-113816000D03*
%TD*%
D37*
%TO.P,C35,2*%
%TO.N,Net-(C35-Pad2)*%
X144767000Y-90448000D03*
%TO.P,C35,1*%
%TO.N,Net-(C35-Pad1)*%
X146317000Y-90448000D03*
%TD*%
D42*
%TO.P,D16,2,A*%
%TO.N,VS*%
X129032000Y-87942000D03*
%TO.P,D16,1,K*%
%TO.N,Net-(D16-K)*%
X129032000Y-85842000D03*
%TD*%
D31*
%TO.P,R10,1*%
%TO.N,Net-(R10-Pad1)*%
X127762000Y-137098500D03*
%TO.P,R10,2*%
%TO.N,VDC*%
X127762000Y-134173500D03*
%TD*%
D42*
%TO.P,D4,1,K*%
%TO.N,/BROWN_OUT*%
X146304000Y-131860000D03*
%TO.P,D4,2,A*%
%TO.N,GNDPWR*%
X146304000Y-129760000D03*
%TD*%
D15*
%TO.P,TP16,1,1*%
%TO.N,Net-(TP16-Pad1)*%
X147574000Y-97052000D03*
%TD*%
D31*
%TO.P,R12,1*%
%TO.N,Net-(R12-Pad1)*%
X127762000Y-146750500D03*
%TO.P,R12,2*%
%TO.N,Net-(R11-Pad1)*%
X127762000Y-143825500D03*
%TD*%
D43*
%TO.P,C3,1*%
%TO.N,Net-(D1-A)*%
X107678000Y-134874000D03*
%TO.P,C3,2*%
%TO.N,GNDPWR*%
X111778000Y-134874000D03*
%TD*%
D18*
%TO.P,R13,1*%
%TO.N,Net-(U1-VOSNS)*%
X129794000Y-145225000D03*
%TO.P,R13,2*%
%TO.N,Net-(R12-Pad1)*%
X129794000Y-146875000D03*
%TD*%
D13*
%TO.P,TP4,1,1*%
%TO.N,/CTL*%
X153162000Y-93496000D03*
%TD*%
D34*
%TO.P,R57,2*%
%TO.N,Net-(C35-Pad2)*%
X144717000Y-91972000D03*
%TO.P,R57,1*%
%TO.N,Net-(U8-K)*%
X146367000Y-91972000D03*
%TD*%
D37*
%TO.P,C44,2*%
%TO.N,Net-(D15-K)*%
X127241000Y-89432000D03*
%TO.P,C44,1*%
%TO.N,VS*%
X128791000Y-89432000D03*
%TD*%
D10*
%TO.P,D7,1,K*%
%TO.N,Net-(D7-K)*%
X119250000Y-103378000D03*
%TO.P,D7,2,A*%
%TO.N,Net-(D7-A)*%
X122050000Y-103378000D03*
%TD*%
D15*
%TO.P,TP12,1,1*%
%TO.N,/VAUX*%
X127254000Y-97052000D03*
%TD*%
D25*
%TO.P,P1,1,AC_P*%
%TO.N,Net-(P1-AC_P)*%
X104234000Y-102108000D03*
D44*
%TO.P,P1,2,AC_N*%
%TO.N,Net-(P1-AC_N)*%
X109634000Y-102108000D03*
%TD*%
D13*
%TO.P,TP2,1,1*%
%TO.N,VCOM*%
X149352000Y-93496000D03*
%TD*%
D31*
%TO.P,R21,1*%
%TO.N,VDC*%
X148590000Y-132780500D03*
%TO.P,R21,2*%
%TO.N,Net-(R21-Pad2)*%
X148590000Y-129855500D03*
%TD*%
D28*
%TO.P,C2,1*%
%TO.N,HT*%
X103378000Y-135322000D03*
%TO.P,C2,2*%
%TO.N,GNDPWR*%
X103378000Y-127822000D03*
%TD*%
D20*
%TO.P,R35,1*%
%TO.N,Net-(U5-HB)*%
X119063000Y-101346000D03*
%TO.P,R35,2*%
%TO.N,Net-(D7-K)*%
X120713000Y-101346000D03*
%TD*%
D45*
%TO.P,Q13,3,D*%
%TO.N,Net-(D15-K)*%
X128270000Y-82398500D03*
%TO.P,Q13,2,S*%
%TO.N,Net-(D17-K)*%
X129220000Y-84273500D03*
%TO.P,Q13,1,G*%
%TO.N,Net-(D16-K)*%
X127320000Y-84273500D03*
%TD*%
D31*
%TO.P,R11,1*%
%TO.N,Net-(R11-Pad1)*%
X127762000Y-141924500D03*
%TO.P,R11,2*%
%TO.N,Net-(R10-Pad1)*%
X127762000Y-138999500D03*
%TD*%
D46*
%TO.P,C29,1*%
%TO.N,GNDPWR*%
X113841000Y-102362000D03*
%TO.P,C29,2*%
%TO.N,VDD*%
X116791000Y-102362000D03*
%TD*%
D25*
%TO.P,TP1,1,1*%
%TO.N,LINE*%
X152908000Y-89178000D03*
%TD*%
D18*
%TO.P,R14,1*%
%TO.N,GNDPWR*%
X129794000Y-142177000D03*
%TO.P,R14,2*%
%TO.N,Net-(U1-VOSNS)*%
X129794000Y-143827000D03*
%TD*%
D47*
%TO.N,/CTL*%
X151384000Y-87371700D03*
%TO.N,GNDPWR*%
X147066000Y-130302000D03*
X128016000Y-109728000D03*
%TO.N,/RUN*%
X143256000Y-103632000D03*
%TO.N,Net-(D14-K)*%
X138684000Y-115062000D03*
%TO.N,/VSV*%
X137668000Y-114808000D03*
%TO.N,Net-(D14-K)*%
X139446000Y-125222000D03*
%TO.N,Net-(D13-K)*%
X141224000Y-110744000D03*
X136906000Y-104902000D03*
X139269200Y-115570000D03*
X140208000Y-123444000D03*
%TO.N,/VSW*%
X134112000Y-123952000D03*
X130302000Y-126238000D03*
%TO.N,GNDPWR*%
X129286000Y-110490000D03*
X131064000Y-111252000D03*
X123444000Y-101600000D03*
%TO.N,/PWML*%
X123571000Y-100965000D03*
%TO.N,GNDPWR*%
X124714000Y-109728000D03*
X147741494Y-107364761D03*
%TO.N,/VSV*%
X136906000Y-117348000D03*
X134112000Y-117602000D03*
%TO.N,GNDPWR*%
X125984000Y-104394000D03*
%TO.N,/VDD3*%
X135128000Y-119634000D03*
X120396000Y-112776000D03*
%TO.N,Net-(D7-A)*%
X118872000Y-110744000D03*
X116306998Y-110236000D03*
%TO.N,VDD*%
X118872000Y-111506000D03*
X115824000Y-102870000D03*
%TO.N,GNDPWR*%
X114742000Y-102870000D03*
%TO.N,/VREF*%
X129540000Y-113538000D03*
X123444000Y-108966000D03*
%TO.N,GNDPWR*%
X112268000Y-100746497D03*
X125730000Y-101346000D03*
%TO.N,HT*%
X110490000Y-130302000D03*
X141478000Y-120904000D03*
X110490000Y-130810000D03*
X109982000Y-130810000D03*
X109982000Y-130302000D03*
X110998000Y-130302000D03*
X110998000Y-131318000D03*
X109982000Y-131318000D03*
X110998000Y-129794000D03*
X110490000Y-131318000D03*
X110998000Y-130810000D03*
X109982000Y-129794000D03*
X110490000Y-129794000D03*
%TO.N,GNDPWR*%
X125476000Y-139192000D03*
X143256000Y-146558000D03*
X112014000Y-136144000D03*
X141732000Y-146812000D03*
X112014000Y-134620000D03*
X143256000Y-145034000D03*
X145542000Y-146304000D03*
X111506000Y-134620000D03*
X129032000Y-105410000D03*
X141732000Y-145796000D03*
X146304000Y-133096000D03*
X143764000Y-146558000D03*
X112014000Y-135128000D03*
X144272000Y-146558000D03*
X143002000Y-146050000D03*
X144526000Y-146050000D03*
X130810000Y-142494000D03*
X142240000Y-146304000D03*
X143256000Y-145542000D03*
X131318000Y-146825000D03*
X145529000Y-111252000D03*
X145542000Y-109474000D03*
X111506000Y-136144000D03*
X125476000Y-135128000D03*
X142748000Y-129032000D03*
X141224000Y-146050000D03*
X148481500Y-117089500D03*
X129151000Y-121158000D03*
X143002000Y-116078000D03*
X144272000Y-145034000D03*
X143764000Y-146050000D03*
X144272000Y-145542000D03*
X112014000Y-135636000D03*
X111506000Y-135128000D03*
X143764000Y-145542000D03*
X111506000Y-135636000D03*
X142494000Y-117884500D03*
X128524000Y-128778000D03*
X112014000Y-133604000D03*
X141732000Y-146304000D03*
X112014000Y-134112000D03*
X111506000Y-134112000D03*
X143764000Y-145034000D03*
X145542000Y-146812000D03*
X145542000Y-145796000D03*
X111506000Y-133604000D03*
X142240000Y-146812000D03*
X126238000Y-108204000D03*
%TO.N,Net-(D3-A)*%
X120396000Y-137668000D03*
X121920000Y-137160000D03*
X120904000Y-136652000D03*
X117856000Y-137668000D03*
X118364000Y-137668000D03*
X119380000Y-137668000D03*
X118872000Y-136652000D03*
X121412000Y-137668000D03*
X119380000Y-136652000D03*
X120396000Y-137160000D03*
X118872000Y-137668000D03*
X118364000Y-136652000D03*
X118364000Y-137160000D03*
X120904000Y-137160000D03*
X121920000Y-136652000D03*
X117856000Y-136652000D03*
X117856000Y-137160000D03*
X119888000Y-136652000D03*
X118872000Y-137160000D03*
X119888000Y-137668000D03*
X121920000Y-137668000D03*
X119888000Y-137160000D03*
X117348000Y-137668000D03*
X121412000Y-136652000D03*
X117348000Y-137160000D03*
X120396000Y-136652000D03*
X121412000Y-137160000D03*
X120904000Y-137668000D03*
X117348000Y-136652000D03*
X119380000Y-137160000D03*
%TO.N,Net-(Q1-S)*%
X127000000Y-147828000D03*
X124968000Y-147828000D03*
X124714000Y-147320000D03*
X127000000Y-144780000D03*
X149606000Y-146304000D03*
X126492000Y-147828000D03*
X148844000Y-148590000D03*
X148844000Y-149098000D03*
X148336000Y-148082000D03*
X124714000Y-146812000D03*
X148336000Y-148590000D03*
X127762000Y-145288000D03*
X128270000Y-145288000D03*
X148844000Y-148082000D03*
X124714000Y-145288000D03*
X131318000Y-141478000D03*
X147320000Y-147574000D03*
X127254000Y-145288000D03*
X128524000Y-144780000D03*
X128778000Y-145288000D03*
X149606000Y-149352000D03*
X125476000Y-146050000D03*
X149606000Y-148844000D03*
X125984000Y-146050000D03*
X148844000Y-146304000D03*
X125222000Y-147320000D03*
X124968000Y-144780000D03*
X126746000Y-145288000D03*
X147320000Y-148082000D03*
X149606000Y-148336000D03*
X149606000Y-146812000D03*
X149606000Y-145288000D03*
X148844000Y-145796000D03*
X147320000Y-149606000D03*
X148336000Y-149098000D03*
X148336000Y-146812000D03*
X147320000Y-146558000D03*
X126238000Y-145288000D03*
X149606000Y-147320000D03*
X149606000Y-147828000D03*
X125730000Y-145288000D03*
X149606000Y-145796000D03*
X148336000Y-145796000D03*
X125730000Y-147320000D03*
X147320000Y-146050000D03*
X124714000Y-146304000D03*
X126492000Y-144780000D03*
X125984000Y-147828000D03*
X124714000Y-145796000D03*
X125476000Y-146558000D03*
X125984000Y-146558000D03*
X125476000Y-144780000D03*
X148336000Y-146304000D03*
X147320000Y-147066000D03*
X148844000Y-146812000D03*
X147320000Y-149098000D03*
X147320000Y-148590000D03*
X126238000Y-147320000D03*
X125476000Y-147828000D03*
X125222000Y-145288000D03*
X125984000Y-144780000D03*
%TO.N,/COMP*%
X137409506Y-146812021D03*
X140462000Y-146558000D03*
%TO.N,Net-(U1-ZCD)*%
X137414000Y-142240000D03*
X136652000Y-144605300D03*
%TO.N,Net-(U1-VOSNS)*%
X135636000Y-144272000D03*
%TO.N,VDC*%
X119634000Y-131826000D03*
X117602000Y-132080000D03*
X119126000Y-133858000D03*
X119634000Y-132842000D03*
X118110000Y-133096000D03*
X119126000Y-131826000D03*
X118110000Y-132588000D03*
X117602000Y-131572000D03*
X117602000Y-135128000D03*
X119126000Y-133350000D03*
X117602000Y-133096000D03*
X117602000Y-132588000D03*
X117602000Y-134112000D03*
X117602000Y-131064000D03*
X119126000Y-132842000D03*
X118110000Y-134620000D03*
X119634000Y-132334000D03*
X117602000Y-134620000D03*
X118110000Y-135128000D03*
X119126000Y-134366000D03*
X118110000Y-133604000D03*
X118110000Y-131572000D03*
X119126000Y-132334000D03*
X118110000Y-134112000D03*
X119634000Y-133858000D03*
X134366000Y-118569000D03*
X118110000Y-132080000D03*
X118110000Y-131064000D03*
X130810000Y-118569000D03*
X117602000Y-133604000D03*
X119634000Y-133350000D03*
X119634000Y-134366000D03*
%TO.N,Net-(U1-VCC)*%
X136906000Y-146304000D03*
X139827000Y-139827000D03*
%TO.N,/VDD3*%
X147828000Y-115517200D03*
X142494000Y-123444000D03*
%TO.N,/5V_LDO*%
X147828000Y-111252000D03*
%TO.N,/AC_SENSE*%
X146216500Y-116984700D03*
X140970000Y-117776700D03*
X144018000Y-117676700D03*
%TO.N,/VCC_PFC*%
X145034000Y-132588000D03*
X141901912Y-136644583D03*
%TO.N,Net-(U5-HB)*%
X118110000Y-101346000D03*
%TO.N,VDD*%
X116586000Y-111760000D03*
X123952000Y-107696000D03*
X116840000Y-109728000D03*
%TO.N,Net-(Q8-S)*%
X116332000Y-122682000D03*
X115824000Y-122174000D03*
X112268000Y-132080000D03*
X116586000Y-113538000D03*
X123190000Y-107188000D03*
X116840000Y-122174000D03*
X117094000Y-113538000D03*
X116332000Y-122174000D03*
X120741109Y-104778300D03*
X116840000Y-105664000D03*
X123190000Y-104902000D03*
X117094000Y-114046000D03*
X118364000Y-113375503D03*
X117602000Y-114046000D03*
X117602000Y-113538000D03*
X116840000Y-122682000D03*
X111760000Y-117856000D03*
X115824000Y-122682000D03*
X116586000Y-113030000D03*
X117094000Y-113030000D03*
X116586000Y-114046000D03*
%TO.N,Net-(D7-A)*%
X120396000Y-103378000D03*
X114554000Y-111506000D03*
X113297200Y-115316000D03*
%TO.N,/VDD2*%
X132334000Y-121412000D03*
X144272000Y-134366000D03*
%TO.N,/BUR*%
X131064000Y-113792000D03*
X123444000Y-110236000D03*
%TO.N,Net-(C35-Pad2)*%
X144767000Y-89686000D03*
%TO.N,/CTL*%
X148752497Y-91464000D03*
%TO.N,Net-(U8-K)*%
X147574000Y-91972000D03*
%TO.N,Net-(Q12-S)*%
X139954000Y-87400000D03*
%TO.N,VCOM*%
X136398000Y-83844000D03*
X140208000Y-80288000D03*
X135636000Y-79780000D03*
X141224000Y-80288000D03*
X140208000Y-82320000D03*
X133096000Y-79272000D03*
X140716000Y-81812000D03*
X135128000Y-79272000D03*
X141224000Y-80796000D03*
X142494000Y-85114000D03*
X139700000Y-82828000D03*
X138176000Y-79272000D03*
X141224000Y-81304000D03*
X132588000Y-79780000D03*
X134620000Y-79272000D03*
X139700000Y-80796000D03*
X141224000Y-82320000D03*
X137160000Y-79272000D03*
X135128000Y-79780000D03*
X139700000Y-81812000D03*
X137668000Y-79272000D03*
X140716000Y-82320000D03*
X140208000Y-81812000D03*
X140208000Y-80796000D03*
X140208000Y-79780000D03*
X135636000Y-79272000D03*
X140208000Y-82828000D03*
X133096000Y-79780000D03*
X140716000Y-80288000D03*
X141986000Y-85114000D03*
X134620000Y-79780000D03*
X140716000Y-79780000D03*
X138176000Y-79780000D03*
X139700000Y-79780000D03*
X137668000Y-79780000D03*
X141224000Y-82828000D03*
X139700000Y-82320000D03*
X139700000Y-80288000D03*
X139700000Y-81304000D03*
X140716000Y-81304000D03*
X141224000Y-81812000D03*
X140716000Y-80796000D03*
X140208000Y-81304000D03*
X137160000Y-79780000D03*
X132588000Y-79272000D03*
X140716000Y-82828000D03*
X141224000Y-79780000D03*
%TO.N,GNDS*%
X145694400Y-75157200D03*
X146507200Y-78408400D03*
X146100800Y-75563600D03*
X143662400Y-75157200D03*
X146100800Y-76376400D03*
X150368000Y-89432000D03*
X146913600Y-77595600D03*
X143662400Y-77189200D03*
X151638000Y-78256000D03*
X147320000Y-76376400D03*
X144475200Y-77595600D03*
X146913600Y-75970000D03*
X144475200Y-75157200D03*
X145288000Y-75970000D03*
X144881600Y-75563600D03*
X146100800Y-75157200D03*
X146507200Y-73938000D03*
X143256000Y-73938000D03*
X144881600Y-75970000D03*
X144068800Y-75970000D03*
X145288000Y-75157200D03*
X147320000Y-77189200D03*
X146100800Y-77189200D03*
X144068800Y-74750800D03*
X143662400Y-78002000D03*
X145694400Y-77595600D03*
X144881600Y-77595600D03*
X146913600Y-74344400D03*
X144881600Y-74750800D03*
X147320000Y-77595600D03*
X144475200Y-74344400D03*
X147320000Y-78002000D03*
X144881600Y-76376400D03*
X147320000Y-78408400D03*
X147320000Y-74750800D03*
X145288000Y-77595600D03*
X146100800Y-78002000D03*
X146507200Y-75157200D03*
X144068800Y-75563600D03*
X143662400Y-77595600D03*
X145288000Y-76782800D03*
X146100800Y-78408400D03*
X143256000Y-74750800D03*
X145288000Y-78408400D03*
X146507200Y-78002000D03*
X145694400Y-74750800D03*
X143662400Y-75563600D03*
X145694400Y-77189200D03*
X145694400Y-75563600D03*
X144475200Y-78002000D03*
X146507200Y-75563600D03*
X145694400Y-76782800D03*
X143256000Y-78002000D03*
X146913600Y-75563600D03*
X143662400Y-78408400D03*
X144068800Y-76782800D03*
X144881600Y-77189200D03*
X143256000Y-77189200D03*
X146100800Y-73938000D03*
X144068800Y-74344400D03*
X146507200Y-77595600D03*
X144475200Y-74750800D03*
X147320000Y-74344400D03*
X146913600Y-78408400D03*
X145694400Y-73938000D03*
X145694400Y-74344400D03*
X146100800Y-74750800D03*
X143662400Y-75970000D03*
X144475200Y-73938000D03*
X144475200Y-76376400D03*
X146507200Y-75970000D03*
X145288000Y-73938000D03*
X147320000Y-76782800D03*
X143662400Y-74750800D03*
X144881600Y-75157200D03*
X146100800Y-77595600D03*
X146913600Y-77189200D03*
X145288000Y-78002000D03*
X143256000Y-77595600D03*
X144881600Y-76782800D03*
X143662400Y-76782800D03*
X144475200Y-77189200D03*
X143256000Y-74344400D03*
X143256000Y-75970000D03*
X144068800Y-78408400D03*
X147320000Y-73938000D03*
X144068800Y-75157200D03*
X144881600Y-73938000D03*
X144068800Y-77595600D03*
X145288000Y-74344400D03*
X143256000Y-76782800D03*
X144068800Y-78002000D03*
X146913600Y-74750800D03*
X144068800Y-76376400D03*
X144881600Y-78408400D03*
X144475200Y-78408400D03*
X144475200Y-75563600D03*
X144475200Y-75970000D03*
X144068800Y-77189200D03*
X145694400Y-76376400D03*
X145694400Y-78408400D03*
X143256000Y-76376400D03*
X143662400Y-74344400D03*
X145288000Y-75563600D03*
X143662400Y-76376400D03*
X143662400Y-73938000D03*
X143256000Y-78408400D03*
X146507200Y-77189200D03*
X147320000Y-75970000D03*
X145694400Y-75970000D03*
X146507200Y-74750800D03*
X145288000Y-74750800D03*
X146913600Y-75157200D03*
X146913600Y-73938000D03*
X145288000Y-77189200D03*
X146913600Y-76376400D03*
X146100800Y-75970000D03*
X146507200Y-74344400D03*
X144475200Y-76782800D03*
X144881600Y-74344400D03*
X146100800Y-76782800D03*
X152237503Y-78256000D03*
X145694400Y-78002000D03*
X146507200Y-76376400D03*
X145288000Y-76376400D03*
X143256000Y-75563600D03*
X146913600Y-76782800D03*
X143256000Y-75157200D03*
X146100800Y-74344400D03*
X144881600Y-78002000D03*
X147320000Y-75563600D03*
X144068800Y-73938000D03*
X147320000Y-75157200D03*
X146507200Y-76782800D03*
X146913600Y-78002000D03*
%TO.N,LINE*%
X146050000Y-82828000D03*
X147066000Y-80288000D03*
X147066000Y-82828000D03*
X146050000Y-82320000D03*
X146050000Y-80796000D03*
X147066000Y-81812000D03*
X145542000Y-80796000D03*
X147066000Y-82320000D03*
X147066000Y-80796000D03*
X145542000Y-80288000D03*
X146558000Y-82320000D03*
X146558000Y-81304000D03*
X145542000Y-81812000D03*
X145542000Y-82828000D03*
X146558000Y-82828000D03*
X146050000Y-81304000D03*
X146558000Y-80288000D03*
X146050000Y-79780000D03*
X147066000Y-81304000D03*
X147066000Y-79780000D03*
X146050000Y-81812000D03*
X145542000Y-81304000D03*
X146558000Y-79780000D03*
X146558000Y-81812000D03*
X146050000Y-80288000D03*
X146558000Y-80796000D03*
X145542000Y-79780000D03*
X145542000Y-82320000D03*
%TO.N,VS*%
X127508000Y-81558000D03*
%TO.N,Net-(D17-K)*%
X131318000Y-81558000D03*
%TO.N,Net-(D1-A)*%
X115062000Y-129540000D03*
X115062000Y-129032000D03*
X115570000Y-129032000D03*
X115570000Y-129540000D03*
%TO.N,Net-(D2-Pad3)*%
X105918000Y-122174000D03*
X104902000Y-122682000D03*
X104902000Y-121666000D03*
X105918000Y-122682000D03*
X104902000Y-122174000D03*
X105918000Y-123190000D03*
X105410000Y-123190000D03*
X105410000Y-121666000D03*
X104902000Y-123190000D03*
X105410000Y-122174000D03*
X105410000Y-122682000D03*
X105918000Y-121666000D03*
%TO.N,/BROWN_OUT*%
X144780000Y-125730000D03*
X144780000Y-129540000D03*
X148336000Y-121920000D03*
%TO.N,Net-(D5-K)*%
X147066000Y-123190000D03*
%TO.N,Net-(D12-K)*%
X131572000Y-122682000D03*
X134874000Y-124714000D03*
%TO.N,Net-(D16-K)*%
X129032000Y-86638000D03*
X127331239Y-82914506D03*
%TO.N,Net-(F1-Pad2)*%
X108458000Y-110998000D03*
X106426000Y-109728000D03*
X107442000Y-110236000D03*
X106426000Y-110744000D03*
X108458000Y-109982000D03*
X106934000Y-110998000D03*
X108966000Y-110236000D03*
X107950000Y-109728000D03*
X108458000Y-110490000D03*
X107950000Y-110236000D03*
X106934000Y-110490000D03*
X106426000Y-110236000D03*
X108966000Y-110744000D03*
X106934000Y-109982000D03*
X107950000Y-110744000D03*
X107442000Y-109728000D03*
X108966000Y-109728000D03*
X107442000Y-110744000D03*
%TO.N,Net-(Q2-G)*%
X148336000Y-110236000D03*
%TO.N,Net-(Q12-G)*%
X134874000Y-86689300D03*
%TO.N,Net-(U3-+)*%
X143256000Y-117856000D03*
%TO.N,Net-(R19-Pad1)*%
X148590000Y-117856000D03*
X148590000Y-118364000D03*
X149098000Y-118872000D03*
X149098000Y-117856000D03*
X148590000Y-118872000D03*
X149098000Y-118364000D03*
%TO.N,Net-(Q3-D)*%
X146050000Y-127102000D03*
%TO.N,Net-(U6-ADJ)*%
X110998000Y-115062000D03*
%TO.N,/PWML*%
X124714000Y-104394000D03*
%TD*%
D48*
%TO.N,/CTL*%
X150967300Y-87371700D02*
X149415000Y-88924000D01*
X151384000Y-87371700D02*
X150967300Y-87371700D01*
D49*
%TO.N,GNDPWR*%
X147066000Y-130302000D02*
X147066000Y-131064000D01*
D50*
X127762000Y-109474000D02*
X128016000Y-109728000D01*
X127762000Y-107188000D02*
X127762000Y-109474000D01*
X127762000Y-106426000D02*
X127762000Y-107188000D01*
X127762000Y-107188000D02*
X127762000Y-107696000D01*
D49*
%TO.N,/RUN*%
X144084000Y-105476000D02*
X145874500Y-105476000D01*
X143256000Y-103632000D02*
X143256000Y-104648000D01*
X143256000Y-104648000D02*
X144084000Y-105476000D01*
%TO.N,Net-(D14-K)*%
X138684000Y-119888000D02*
X138684000Y-115062000D01*
X138684000Y-120396000D02*
X138684000Y-119888000D01*
X139700000Y-121412000D02*
X138684000Y-120396000D01*
X139700000Y-123190000D02*
X139700000Y-121412000D01*
%TO.N,/VSV*%
X136906000Y-117348000D02*
X137668000Y-117348000D01*
X137668000Y-114808000D02*
X137922000Y-115062000D01*
X137922000Y-117094000D02*
X137668000Y-117348000D01*
X137922000Y-115062000D02*
X137922000Y-117094000D01*
%TO.N,Net-(D14-K)*%
X139446000Y-125222000D02*
X139681500Y-124986500D01*
X139681500Y-124986500D02*
X139681500Y-123208500D01*
X139681500Y-123208500D02*
X139700000Y-123190000D01*
%TO.N,Net-(D13-K)*%
X140208000Y-121158000D02*
X140208000Y-123444000D01*
X139269200Y-115570000D02*
X139269200Y-120219200D01*
X139269200Y-120219200D02*
X140208000Y-121158000D01*
D48*
%TO.N,/VDD2*%
X141986000Y-126238000D02*
X141732000Y-125984000D01*
X136906000Y-125984000D02*
X141732000Y-125984000D01*
X135890000Y-124968000D02*
X136906000Y-125984000D01*
D51*
%TO.N,HT*%
X139675100Y-119863100D02*
X139675100Y-116586000D01*
X140208000Y-115062000D02*
X140208000Y-116053100D01*
X140208000Y-116053100D02*
X139675100Y-116586000D01*
X110998000Y-109220000D02*
X110998000Y-111760000D01*
X111760000Y-108458000D02*
X110998000Y-109220000D01*
X114467605Y-103990900D02*
X114808000Y-104331295D01*
X131572000Y-113030000D02*
X129812505Y-113030000D01*
X112987100Y-103681078D02*
X113296922Y-103990900D01*
X112987100Y-102767900D02*
X112987100Y-103681078D01*
X112607871Y-102767900D02*
X112987100Y-102767900D01*
X111862100Y-101121102D02*
X111862100Y-102022130D01*
X111716100Y-100975102D02*
X111862100Y-101121102D01*
X110998000Y-111760000D02*
X107188000Y-111760000D01*
X112039395Y-100194597D02*
X111716100Y-100517892D01*
X140716000Y-120904000D02*
X139675100Y-119863100D01*
X114808000Y-104331295D02*
X114808000Y-108458000D01*
X124968000Y-103124000D02*
X124968000Y-101346000D01*
X132290100Y-113748100D02*
X131572000Y-113030000D01*
X111862100Y-102022130D02*
X112607871Y-102767900D01*
X124968000Y-101346000D02*
X123816597Y-100194597D01*
X113296922Y-103990900D02*
X114467605Y-103990900D01*
X140208000Y-115062000D02*
X138894100Y-113748100D01*
X111716100Y-100517892D02*
X111716100Y-100975102D01*
X141478000Y-120904000D02*
X140716000Y-120904000D01*
X138894100Y-113748100D02*
X132290100Y-113748100D01*
X125349000Y-103505000D02*
X124968000Y-103124000D01*
X114808000Y-108458000D02*
X111760000Y-108458000D01*
X129812505Y-113030000D02*
X125349000Y-108566495D01*
X123816597Y-100194597D02*
X112039395Y-100194597D01*
X125349000Y-108566495D02*
X125349000Y-103505000D01*
X107188000Y-111760000D02*
X101092000Y-117856000D01*
X101092000Y-117856000D02*
X101092000Y-129794000D01*
D49*
%TO.N,Net-(D13-K)*%
X136906000Y-104902000D02*
X137668000Y-104902000D01*
X137668000Y-104902000D02*
X141224000Y-108458000D01*
X141224000Y-108458000D02*
X141224000Y-110744000D01*
%TO.N,/VSW*%
X134112000Y-123952000D02*
X130556000Y-123952000D01*
X130302000Y-124206000D02*
X130302000Y-126238000D01*
X130556000Y-123952000D02*
X130302000Y-124206000D01*
D52*
%TO.N,Net-(T1-SC-Pad8)*%
X130556000Y-109220000D02*
X130556000Y-104648000D01*
X133763000Y-112427000D02*
X130556000Y-109220000D01*
X130556000Y-104648000D02*
X127254000Y-101346000D01*
X137319000Y-112427000D02*
X133763000Y-112427000D01*
D49*
%TO.N,GNDPWR*%
X129286000Y-110744000D02*
X129286000Y-110490000D01*
X129286000Y-110744000D02*
X129286000Y-110998000D01*
X129286000Y-110998000D02*
X129540000Y-111252000D01*
X129540000Y-111252000D02*
X131064000Y-111252000D01*
X123190000Y-103886000D02*
X123190000Y-101854000D01*
X123444000Y-101600000D02*
X123190000Y-101854000D01*
%TO.N,/PWML*%
X124714000Y-103632000D02*
X124206000Y-103124000D01*
X124714000Y-104394000D02*
X124714000Y-103632000D01*
X124206000Y-103124000D02*
X124206000Y-101600000D01*
X124206000Y-101600000D02*
X123571000Y-100965000D01*
%TO.N,GNDPWR*%
X124460000Y-105156000D02*
X123190000Y-103886000D01*
X124714000Y-109728000D02*
X124714000Y-105410000D01*
X124714000Y-105410000D02*
X124460000Y-105156000D01*
D50*
X147741494Y-107364761D02*
X147730255Y-107376000D01*
X147730255Y-107376000D02*
X145874500Y-107376000D01*
D48*
%TO.N,Net-(R52-Pad1)*%
X144209000Y-103886000D02*
X144209000Y-101409000D01*
X144209000Y-101409000D02*
X144272000Y-101346000D01*
%TO.N,Net-(R52-Pad2)*%
X147257000Y-103886000D02*
X145859000Y-103886000D01*
%TO.N,Net-(Q11-D)*%
X147749500Y-106426000D02*
X148590000Y-106426000D01*
X148590000Y-106426000D02*
X148907000Y-106109000D01*
X148907000Y-106109000D02*
X148907000Y-103886000D01*
D49*
%TO.N,/VSV*%
X124619000Y-125127000D02*
X126079000Y-125127000D01*
X128750445Y-117856000D02*
X133858000Y-117856000D01*
X126079000Y-125127000D02*
X126949700Y-124256300D01*
X126949700Y-124256300D02*
X126949700Y-119656744D01*
X126949700Y-119656744D02*
X128750445Y-117856000D01*
X133858000Y-117856000D02*
X134112000Y-117602000D01*
%TO.N,GNDPWR*%
X125984000Y-104394000D02*
X127508000Y-104394000D01*
X127508000Y-104394000D02*
X127762000Y-104648000D01*
X127762000Y-104648000D02*
X127762000Y-106426000D01*
%TO.N,/VDD3*%
X124714000Y-112776000D02*
X125730000Y-113792000D01*
X134874000Y-115062000D02*
X135128000Y-115316000D01*
X120396000Y-112776000D02*
X124714000Y-112776000D01*
X135128000Y-115316000D02*
X135128000Y-119634000D01*
X129286000Y-114554000D02*
X134366000Y-114554000D01*
X126492000Y-114554000D02*
X129286000Y-114554000D01*
X134366000Y-114554000D02*
X134874000Y-115062000D01*
X125730000Y-113792000D02*
X126492000Y-114554000D01*
D48*
%TO.N,Net-(Q8-S)*%
X117856000Y-105664000D02*
X117856000Y-112268000D01*
X117856000Y-112268000D02*
X118364000Y-112776000D01*
X118364000Y-112776000D02*
X118364000Y-113375503D01*
%TO.N,Net-(D7-A)*%
X114808000Y-110744000D02*
X115316000Y-110236000D01*
X115316000Y-110236000D02*
X116306998Y-110236000D01*
D49*
%TO.N,GNDPWR*%
X112268000Y-100746497D02*
X112268000Y-101854000D01*
X112268000Y-101854000D02*
X112776000Y-102362000D01*
X112776000Y-102362000D02*
X113841000Y-102362000D01*
%TO.N,VDD*%
X115824000Y-102870000D02*
X116283000Y-102870000D01*
X116283000Y-102870000D02*
X116791000Y-102362000D01*
%TO.N,GNDPWR*%
X114742000Y-102870000D02*
X114742000Y-102550000D01*
X114742000Y-102550000D02*
X114554000Y-102362000D01*
X114554000Y-102362000D02*
X113841000Y-102362000D01*
%TO.N,/VREF*%
X124943100Y-111227100D02*
X127254000Y-113538000D01*
X124943100Y-110973100D02*
X124943100Y-111227100D01*
X123444000Y-109474000D02*
X124943100Y-110973100D01*
X123444000Y-108966000D02*
X123444000Y-109474000D01*
X127254000Y-113538000D02*
X129540000Y-113538000D01*
%TO.N,/BUR*%
X123444000Y-110236000D02*
X123444000Y-110744000D01*
X123444000Y-110744000D02*
X126746000Y-114046000D01*
X126746000Y-114046000D02*
X130810000Y-114046000D01*
X130810000Y-114046000D02*
X131064000Y-113792000D01*
%TO.N,GNDPWR*%
X127508000Y-104394000D02*
X125730000Y-102616000D01*
X125730000Y-102616000D02*
X125730000Y-101346000D01*
D50*
X127762000Y-105918000D02*
X127762000Y-106426000D01*
D53*
X130493000Y-142177000D02*
X130810000Y-142494000D01*
D50*
X144018000Y-128778000D02*
X143764000Y-129032000D01*
X142748000Y-116332000D02*
X142494000Y-116586000D01*
X128270000Y-105410000D02*
X127762000Y-105918000D01*
X144018000Y-124648000D02*
X144018000Y-128778000D01*
D53*
X146304000Y-130302000D02*
X146558000Y-130556000D01*
D50*
X142131500Y-121920000D02*
X142131500Y-120633311D01*
D48*
X140970000Y-147574000D02*
X141732000Y-146812000D01*
D50*
X143002000Y-114808000D02*
X144725500Y-113084500D01*
D48*
X128778000Y-121158000D02*
X130302000Y-121158000D01*
D53*
X129794000Y-142177000D02*
X130493000Y-142177000D01*
D48*
X128524000Y-121412000D02*
X128524000Y-128778000D01*
X130302000Y-121158000D02*
X130810000Y-120650000D01*
D50*
X145529000Y-109487000D02*
X145542000Y-109474000D01*
X140208000Y-117094000D02*
X140462000Y-116840000D01*
X142494000Y-117884500D02*
X142494000Y-116586000D01*
X141640189Y-120142000D02*
X140970000Y-120142000D01*
X143002000Y-115570000D02*
X143002000Y-116078000D01*
X143764000Y-129032000D02*
X142748000Y-129032000D01*
X144725500Y-113084500D02*
X144725500Y-111814500D01*
X145288000Y-111252000D02*
X145529000Y-111252000D01*
X141920000Y-124648000D02*
X141478000Y-124206000D01*
D51*
X148778000Y-116199500D02*
X148778000Y-116793000D01*
D50*
X143002000Y-116078000D02*
X142748000Y-116332000D01*
X142131500Y-120633311D02*
X141640189Y-120142000D01*
X144018000Y-124648000D02*
X141920000Y-124648000D01*
X142240000Y-116840000D02*
X142748000Y-116332000D01*
D53*
X146558000Y-130556000D02*
X147066000Y-131064000D01*
D50*
X140462000Y-116840000D02*
X142240000Y-116840000D01*
X140208000Y-119380000D02*
X140208000Y-117094000D01*
D48*
X129151000Y-121158000D02*
X128778000Y-121158000D01*
X132067000Y-147574000D02*
X140970000Y-147574000D01*
D50*
X127254000Y-108204000D02*
X126238000Y-108204000D01*
D51*
X148778000Y-116793000D02*
X148481500Y-117089500D01*
D50*
X144725500Y-111814500D02*
X145288000Y-111252000D01*
X140970000Y-120142000D02*
X140208000Y-119380000D01*
D48*
X131318000Y-146825000D02*
X132067000Y-147574000D01*
D53*
X147066000Y-132842000D02*
X146812000Y-133096000D01*
X147066000Y-131064000D02*
X147066000Y-132334000D01*
D50*
X129032000Y-105410000D02*
X128270000Y-105410000D01*
D53*
X147066000Y-132334000D02*
X147066000Y-132842000D01*
D50*
X141478000Y-124206000D02*
X141478000Y-122573500D01*
X145529000Y-111252000D02*
X145529000Y-109487000D01*
D53*
X146812000Y-133096000D02*
X146304000Y-133096000D01*
D48*
X128778000Y-121158000D02*
X128524000Y-121412000D01*
D53*
X146304000Y-129760000D02*
X146304000Y-130302000D01*
X125476000Y-139192000D02*
X125476000Y-135128000D01*
D50*
X127762000Y-107696000D02*
X127254000Y-108204000D01*
X141478000Y-122573500D02*
X142131500Y-121920000D01*
X143002000Y-115570000D02*
X143002000Y-114808000D01*
D48*
%TO.N,Net-(Q1-S)*%
X125476000Y-140970000D02*
X125476000Y-144780000D01*
X129794000Y-140462000D02*
X125984000Y-140462000D01*
X130810000Y-141478000D02*
X129794000Y-140462000D01*
X125984000Y-140462000D02*
X125476000Y-140970000D01*
X131318000Y-141478000D02*
X130810000Y-141478000D01*
D51*
%TO.N,/COMP*%
X139192000Y-146558000D02*
X140462000Y-146558000D01*
X137409506Y-146812021D02*
X138937979Y-146812021D01*
X138937979Y-146812021D02*
X139192000Y-146558000D01*
D48*
%TO.N,Net-(U1-ZCD)*%
X136906000Y-142240000D02*
X137414000Y-142240000D01*
X136652000Y-142494000D02*
X136652000Y-144605300D01*
X136652000Y-142494000D02*
X136906000Y-142240000D01*
%TO.N,Net-(U1-VOSNS)*%
X131318000Y-145275000D02*
X131318000Y-143764000D01*
X129794000Y-145225000D02*
X129794000Y-143827000D01*
X135636000Y-143510000D02*
X135636000Y-144272000D01*
X135382000Y-143256000D02*
X135636000Y-143510000D01*
X131318000Y-143764000D02*
X131826000Y-143256000D01*
X131268000Y-145225000D02*
X131318000Y-145275000D01*
X129794000Y-145225000D02*
X131268000Y-145225000D01*
X131826000Y-143256000D02*
X135382000Y-143256000D01*
%TO.N,VDC*%
X130810000Y-118569000D02*
X128827000Y-118569000D01*
X147828000Y-137414000D02*
X143256000Y-137414000D01*
X128827000Y-118569000D02*
X127508000Y-119888000D01*
X143002000Y-137668000D02*
X139192000Y-137668000D01*
X143256000Y-137414000D02*
X143002000Y-137668000D01*
X148590000Y-132780500D02*
X148590000Y-136652000D01*
X127508000Y-119888000D02*
X127508000Y-131318000D01*
X148590000Y-136652000D02*
X147828000Y-137414000D01*
X134366000Y-118569000D02*
X130810000Y-118569000D01*
%TO.N,Net-(U1-VCC)*%
X137922000Y-145288000D02*
X136906000Y-146304000D01*
X139827000Y-139827000D02*
X140208000Y-140208000D01*
X140208000Y-140208000D02*
X140208000Y-144780000D01*
X139700000Y-145288000D02*
X137922000Y-145288000D01*
X140208000Y-144780000D02*
X139700000Y-145288000D01*
D50*
%TO.N,/VDD3*%
X147828000Y-117094000D02*
X147828000Y-115517200D01*
X143141200Y-123698000D02*
X142748000Y-123698000D01*
X148590000Y-123190000D02*
X147066000Y-121666000D01*
X148720000Y-124076000D02*
X148590000Y-124206000D01*
X148720000Y-123190000D02*
X148590000Y-123190000D01*
X148590000Y-124206000D02*
X145210622Y-124206000D01*
X144702622Y-123698000D02*
X143141200Y-123698000D01*
X147066000Y-117856000D02*
X147828000Y-117094000D01*
X148720000Y-123190000D02*
X148720000Y-124076000D01*
X145210622Y-124206000D02*
X144702622Y-123698000D01*
X142748000Y-123698000D02*
X142494000Y-123444000D01*
X147066000Y-121666000D02*
X147066000Y-117856000D01*
D51*
%TO.N,/5V_LDO*%
X146050000Y-115316000D02*
X146304000Y-115062000D01*
X147828000Y-113924500D02*
X147828000Y-114736695D01*
X145288000Y-116586000D02*
X146050000Y-115824000D01*
X147828000Y-113924500D02*
X147828000Y-111252000D01*
X147828000Y-114736695D02*
X147502695Y-115062000D01*
X146304000Y-115062000D02*
X147502695Y-115062000D01*
X146050000Y-115824000D02*
X146050000Y-115316000D01*
D50*
%TO.N,/AC_SENSE*%
X146878000Y-116774000D02*
X146667300Y-116984700D01*
D48*
X141327500Y-119229500D02*
X140970000Y-118872000D01*
X144018000Y-117676700D02*
X144018000Y-119229500D01*
D50*
X146667300Y-116984700D02*
X146216500Y-116984700D01*
D48*
X144018000Y-119229500D02*
X141327500Y-119229500D01*
X140970000Y-118872000D02*
X140970000Y-117776700D01*
D50*
X146878000Y-116199500D02*
X146878000Y-116774000D01*
D48*
%TO.N,/VCC_PFC*%
X145034000Y-135636000D02*
X144399000Y-136271000D01*
X145034000Y-132588000D02*
X145034000Y-135636000D01*
D54*
X142148495Y-136398000D02*
X144272000Y-136398000D01*
X141901912Y-136644583D02*
X142148495Y-136398000D01*
X144272000Y-136398000D02*
X144399000Y-136271000D01*
D48*
%TO.N,Net-(C16-Pad1)*%
X144018000Y-121054500D02*
X145453000Y-121054500D01*
X145453000Y-121054500D02*
X145857500Y-120650000D01*
X144018000Y-122748000D02*
X144018000Y-121054500D01*
X145857500Y-120650000D02*
X145857500Y-118364000D01*
%TO.N,Net-(U5-HB)*%
X119063000Y-101346000D02*
X118110000Y-101346000D01*
%TO.N,VDD*%
X115973200Y-105260800D02*
X115973200Y-108861200D01*
D49*
X122682000Y-108204000D02*
X122682000Y-109982000D01*
X121158000Y-111506000D02*
X118872000Y-111506000D01*
X123171000Y-107715000D02*
X122682000Y-108204000D01*
D48*
X115973200Y-108861200D02*
X116840000Y-109728000D01*
X116840000Y-109728000D02*
X117046400Y-109934400D01*
X115442000Y-112904000D02*
X115442000Y-113816000D01*
X116586000Y-111760000D02*
X115442000Y-112904000D01*
D49*
X123933000Y-107715000D02*
X123952000Y-107696000D01*
D48*
X116791000Y-104443000D02*
X115973200Y-105260800D01*
X117046400Y-109934400D02*
X117046400Y-111299600D01*
D49*
X122682000Y-109982000D02*
X121158000Y-111506000D01*
X123171000Y-107715000D02*
X123933000Y-107715000D01*
D48*
X116791000Y-102362000D02*
X116791000Y-104443000D01*
X117046400Y-111299600D02*
X116586000Y-111760000D01*
%TO.N,Net-(Q8-S)*%
X112014000Y-118110000D02*
X118110000Y-118110000D01*
D52*
X113792000Y-127000000D02*
X112776000Y-127000000D01*
X112268000Y-127508000D02*
X112268000Y-132080000D01*
D48*
X116840000Y-105664000D02*
X117856000Y-105664000D01*
D52*
X112776000Y-127000000D02*
X112268000Y-127508000D01*
D49*
X123444000Y-106934000D02*
X123444000Y-105156000D01*
X123190000Y-107188000D02*
X123444000Y-106934000D01*
D48*
X118364000Y-117856000D02*
X118364000Y-113375503D01*
X118110000Y-118110000D02*
X118364000Y-117856000D01*
X111760000Y-117856000D02*
X112014000Y-118110000D01*
X120741109Y-104778300D02*
X118741700Y-104778300D01*
X118741700Y-104778300D02*
X117856000Y-105664000D01*
D52*
X115824000Y-127000000D02*
X113792000Y-127000000D01*
X116332000Y-126492000D02*
X115824000Y-127000000D01*
X116332000Y-122682000D02*
X116332000Y-126492000D01*
D49*
X123444000Y-105156000D02*
X123190000Y-104902000D01*
D48*
%TO.N,Net-(D7-A)*%
X120904000Y-110744000D02*
X118872000Y-110744000D01*
X122050000Y-103378000D02*
X122050000Y-109598000D01*
X122050000Y-109598000D02*
X120904000Y-110744000D01*
X114554000Y-110998000D02*
X114554000Y-111506000D01*
X122050000Y-103378000D02*
X120396000Y-103378000D01*
X114808000Y-110744000D02*
X114554000Y-110998000D01*
%TO.N,/VDD2*%
X141986000Y-130048000D02*
X141986000Y-126238000D01*
X135890000Y-122428000D02*
X134874000Y-121412000D01*
X142494000Y-130556000D02*
X141986000Y-130048000D01*
X143256000Y-130556000D02*
X142494000Y-130556000D01*
X144272000Y-134366000D02*
X144272000Y-131572000D01*
X144272000Y-131572000D02*
X143256000Y-130556000D01*
X134874000Y-121412000D02*
X132334000Y-121412000D01*
X135890000Y-124968000D02*
X135890000Y-122428000D01*
%TO.N,Net-(C35-Pad1)*%
X146317000Y-89000000D02*
X146304000Y-88987000D01*
X146317000Y-90448000D02*
X146317000Y-89000000D01*
%TO.N,Net-(C35-Pad2)*%
X144767000Y-90448000D02*
X144767000Y-91922000D01*
X144767000Y-90448000D02*
X144767000Y-89686000D01*
X144767000Y-89000000D02*
X144780000Y-88987000D01*
X144767000Y-89686000D02*
X144767000Y-89000000D01*
X144767000Y-91922000D02*
X144717000Y-91972000D01*
%TO.N,/CTL*%
X149378000Y-88961000D02*
X149415000Y-88924000D01*
X149378000Y-90448000D02*
X149378000Y-88961000D01*
X149098000Y-91464000D02*
X148752497Y-91464000D01*
X149378000Y-91184000D02*
X149098000Y-91464000D01*
X149378000Y-90448000D02*
X149378000Y-91184000D01*
%TO.N,Net-(U8-K)*%
X147828000Y-91718000D02*
X147828000Y-90448000D01*
X147574000Y-91972000D02*
X147828000Y-91718000D01*
X146367000Y-91972000D02*
X147574000Y-91972000D01*
D52*
%TO.N,Net-(Q12-S)*%
X139954000Y-96544000D02*
X139954000Y-90635000D01*
D48*
X139954000Y-90635000D02*
X139954000Y-87400000D01*
%TO.N,GNDS*%
X150520700Y-89432000D02*
X150368000Y-89432000D01*
D55*
X127557000Y-78510000D02*
X127557000Y-75765000D01*
D48*
X151028700Y-96442700D02*
X151384000Y-96798000D01*
X151028700Y-89940000D02*
X150520700Y-89432000D01*
X151028700Y-89940000D02*
X151028700Y-96442700D01*
X151384000Y-96798000D02*
X153162000Y-96798000D01*
D55*
X127557000Y-75765000D02*
X127254000Y-75462000D01*
D48*
%TO.N,LINE*%
X149415000Y-84097000D02*
X149352000Y-84034000D01*
X149415000Y-87400000D02*
X149415000Y-84097000D01*
D53*
%TO.N,VS*%
X128791000Y-88657000D02*
X129032000Y-88416000D01*
X130048000Y-94766000D02*
X130556000Y-95274000D01*
X129032000Y-87942000D02*
X129032000Y-88416000D01*
X129032000Y-94766000D02*
X130048000Y-94766000D01*
X128791000Y-89432000D02*
X128791000Y-88657000D01*
X127495000Y-81545000D02*
X127508000Y-81558000D01*
X128791000Y-94525000D02*
X129032000Y-94766000D01*
X130556000Y-95274000D02*
X130556000Y-97052000D01*
X127495000Y-80542000D02*
X127495000Y-81545000D01*
X128791000Y-89432000D02*
X128791000Y-94525000D01*
D48*
%TO.N,Net-(D15-K)*%
X128270000Y-86955000D02*
X127254000Y-87971000D01*
D54*
X127241000Y-89432000D02*
X127241000Y-87984000D01*
D48*
X128270000Y-82398500D02*
X128270000Y-86955000D01*
D54*
X127241000Y-89432000D02*
X127241000Y-91071000D01*
X127241000Y-91071000D02*
X127254000Y-91084000D01*
X127241000Y-87984000D02*
X127254000Y-87971000D01*
D53*
%TO.N,Net-(D17-K)*%
X129220000Y-81746000D02*
X129220000Y-84273500D01*
X129045000Y-81571000D02*
X129286000Y-81812000D01*
X129286000Y-81812000D02*
X131064000Y-81812000D01*
X129045000Y-81571000D02*
X129220000Y-81746000D01*
X131064000Y-81812000D02*
X131318000Y-81558000D01*
X129045000Y-80542000D02*
X129045000Y-81571000D01*
%TO.N,/BROWN_OUT*%
X144780000Y-130556000D02*
X144780000Y-129540000D01*
X146304000Y-131860000D02*
X146304000Y-131318000D01*
X146304000Y-131318000D02*
X146050000Y-131064000D01*
X148590000Y-121920000D02*
X148336000Y-121920000D01*
X148782500Y-121727500D02*
X148590000Y-121920000D01*
X144780000Y-125730000D02*
X144780000Y-129540000D01*
X145288000Y-131064000D02*
X144780000Y-130556000D01*
X148782500Y-120650000D02*
X148782500Y-121727500D01*
X146050000Y-131064000D02*
X145288000Y-131064000D01*
D48*
%TO.N,Net-(D5-K)*%
X147066000Y-123190000D02*
X145920000Y-123190000D01*
%TO.N,Net-(D7-K)*%
X119380000Y-102362000D02*
X120459000Y-102362000D01*
X119250000Y-102492000D02*
X119380000Y-102362000D01*
X120459000Y-102362000D02*
X120713000Y-102108000D01*
X119250000Y-103378000D02*
X119250000Y-102492000D01*
X120713000Y-102108000D02*
X120713000Y-101346000D01*
%TO.N,Net-(D12-K)*%
X131572000Y-122682000D02*
X134366000Y-122682000D01*
X134874000Y-123190000D02*
X134874000Y-124714000D01*
X134366000Y-122682000D02*
X134874000Y-123190000D01*
D55*
%TO.N,/VAUX*%
X127254000Y-94384000D02*
X127254000Y-97052000D01*
D53*
%TO.N,Net-(D16-K)*%
X127331239Y-82914506D02*
X127320000Y-82925745D01*
X127320000Y-82925745D02*
X127320000Y-84273500D01*
D48*
X127320000Y-86255000D02*
X127254000Y-86321000D01*
D53*
X129032000Y-85842000D02*
X129032000Y-86638000D01*
D48*
X127320000Y-84273500D02*
X127320000Y-86255000D01*
%TO.N,Net-(Q2-G)*%
X148653000Y-112268000D02*
X148653000Y-113093000D01*
X148653000Y-113093000D02*
X148778000Y-113218000D01*
X148778000Y-113924500D02*
X148778000Y-113218000D01*
X148653000Y-112268000D02*
X148653000Y-110553000D01*
X148653000Y-110553000D02*
X148336000Y-110236000D01*
%TO.N,Net-(Q12-G)*%
X134874000Y-90635000D02*
X134874000Y-86689300D01*
%TO.N,Net-(R10-Pad1)*%
X127762000Y-138999500D02*
X127762000Y-137098500D01*
%TO.N,Net-(R11-Pad1)*%
X127762000Y-143825500D02*
X127762000Y-141924500D01*
%TO.N,Net-(R12-Pad1)*%
X127886500Y-146875000D02*
X127762000Y-146750500D01*
X129794000Y-146875000D02*
X127886500Y-146875000D01*
D53*
%TO.N,Net-(U3-+)*%
X143256000Y-117856000D02*
X143256000Y-117094000D01*
D48*
X145542000Y-113792000D02*
X145288000Y-114046000D01*
X146878000Y-113924500D02*
X146878000Y-113218000D01*
X145542000Y-112776000D02*
X145542000Y-113792000D01*
X147003000Y-113093000D02*
X146878000Y-113218000D01*
X146050000Y-112268000D02*
X145542000Y-112776000D01*
D53*
X144018000Y-116332000D02*
X144018000Y-115316000D01*
X144398000Y-114936000D02*
X145288000Y-114936000D01*
X144018000Y-115316000D02*
X144398000Y-114936000D01*
D48*
X147003000Y-112268000D02*
X147003000Y-113093000D01*
D53*
X143256000Y-117094000D02*
X144018000Y-116332000D01*
D48*
X145288000Y-114046000D02*
X145288000Y-114936000D01*
X147003000Y-112268000D02*
X146050000Y-112268000D01*
%TO.N,Net-(R21-Pad2)*%
X148590000Y-128208500D02*
X148590000Y-129855500D01*
%TO.N,Net-(R22-Pad2)*%
X148590000Y-125283500D02*
X146304000Y-125283500D01*
%TO.N,Net-(Q3-D)*%
X146304000Y-127356000D02*
X146050000Y-127102000D01*
X146304000Y-128208500D02*
X146304000Y-127356000D01*
%TO.N,Net-(U6-ADJ)*%
X111482000Y-116816000D02*
X110998000Y-116332000D01*
X115442000Y-116816000D02*
X111482000Y-116816000D01*
X110998000Y-116332000D02*
X110998000Y-115062000D01*
%TO.N,Net-(R54-Pad1)*%
X147702000Y-87337000D02*
X147765000Y-87400000D01*
X146304000Y-87337000D02*
X147702000Y-87337000D01*
X144780000Y-87337000D02*
X146304000Y-87337000D01*
X147765000Y-88924000D02*
X147765000Y-87400000D01*
D56*
%TO.N,Net-(T1-SB)*%
X134620000Y-104902000D02*
X134620000Y-101854000D01*
X134779000Y-105061000D02*
X134620000Y-104902000D01*
X134779000Y-107347000D02*
X134779000Y-105061000D01*
D52*
%TO.N,Net-(T1-SD-Pad10)*%
X132334000Y-103124000D02*
X132334000Y-108871000D01*
X133350000Y-109887000D02*
X134779000Y-109887000D01*
X132334000Y-108871000D02*
X133350000Y-109887000D01*
X130556000Y-101346000D02*
X132334000Y-103124000D01*
D56*
%TO.N,Net-(T1-SA)*%
X143002000Y-107696000D02*
X143002000Y-111506000D01*
X143002000Y-111506000D02*
X142081000Y-112427000D01*
X142081000Y-112427000D02*
X139859000Y-112427000D01*
X139954000Y-101854000D02*
X139954000Y-104648000D01*
X139954000Y-104648000D02*
X143002000Y-107696000D01*
%TD*%
%TA.AperFunction,Conductor*%
%TO.N,Net-(P1-AC_N)*%
G36*
X111351604Y-100095685D02*
G01*
X111397359Y-100148489D01*
X111407303Y-100217647D01*
X111384881Y-100272888D01*
X111382808Y-100275739D01*
X111372519Y-100295933D01*
X111362356Y-100312516D01*
X111349031Y-100330857D01*
X111349028Y-100330862D01*
X111342022Y-100352423D01*
X111334580Y-100370391D01*
X111324292Y-100390583D01*
X111324289Y-100390590D01*
X111320742Y-100412982D01*
X111316204Y-100431885D01*
X111309200Y-100453446D01*
X111309199Y-101039548D01*
X111316203Y-101061104D01*
X111320744Y-101080016D01*
X111324291Y-101102410D01*
X111334579Y-101122600D01*
X111342026Y-101140576D01*
X111349031Y-101162136D01*
X111362351Y-101180468D01*
X111372518Y-101197059D01*
X111382806Y-101217251D01*
X111382807Y-101217252D01*
X111382808Y-101217253D01*
X111405734Y-101240179D01*
X111418881Y-101253326D01*
X111452366Y-101314649D01*
X111455200Y-101341007D01*
X111455200Y-102086579D01*
X111462204Y-102108135D01*
X111466745Y-102127052D01*
X111470290Y-102149434D01*
X111480581Y-102169633D01*
X111488023Y-102187600D01*
X111495030Y-102209163D01*
X111495031Y-102209164D01*
X111508354Y-102227502D01*
X111518518Y-102244089D01*
X111528805Y-102264278D01*
X111550171Y-102285644D01*
X111550184Y-102285658D01*
X111551733Y-102287207D01*
X111551734Y-102287208D01*
X111977683Y-102713156D01*
X112011166Y-102774475D01*
X112014000Y-102800834D01*
X112014000Y-104140000D01*
X112819216Y-104140000D01*
X112886255Y-104159685D01*
X112906894Y-104176316D01*
X112997426Y-104266848D01*
X113033749Y-104303171D01*
X113033759Y-104303180D01*
X113054771Y-104324192D01*
X113074962Y-104334480D01*
X113091550Y-104344645D01*
X113109890Y-104357969D01*
X113131444Y-104364972D01*
X113149418Y-104372417D01*
X113169616Y-104382709D01*
X113192007Y-104386254D01*
X113210928Y-104390797D01*
X113232475Y-104397799D01*
X113262341Y-104397799D01*
X113262365Y-104397800D01*
X113264898Y-104397800D01*
X114247700Y-104397800D01*
X114314739Y-104417485D01*
X114335374Y-104434112D01*
X114364782Y-104463520D01*
X114398266Y-104524839D01*
X114401100Y-104551199D01*
X114401100Y-107572000D01*
X114381415Y-107639039D01*
X114328611Y-107684794D01*
X114277100Y-107696000D01*
X107312000Y-107696000D01*
X107244961Y-107676315D01*
X107199206Y-107623511D01*
X107188000Y-107572000D01*
X107188000Y-100200000D01*
X107207685Y-100132961D01*
X107260489Y-100087206D01*
X107312000Y-100076000D01*
X111284565Y-100076000D01*
X111351604Y-100095685D01*
G37*
%TD.AperFunction*%
%TD*%
%TA.AperFunction,Conductor*%
%TO.N,Net-(D1-A)*%
G36*
X109417039Y-132861685D02*
G01*
X109462794Y-132914489D01*
X109473999Y-132966000D01*
X109474000Y-141478000D01*
X122812000Y-141478000D01*
X122879039Y-141497685D01*
X122924794Y-141550489D01*
X122936000Y-141602000D01*
X122936000Y-149482000D01*
X122916315Y-149549039D01*
X122863511Y-149594794D01*
X122812000Y-149606000D01*
X106550000Y-149606000D01*
X106482961Y-149586315D01*
X106437206Y-149533511D01*
X106426000Y-149482000D01*
X106426000Y-132966000D01*
X106445685Y-132898961D01*
X106498489Y-132853206D01*
X106550000Y-132842000D01*
X109350000Y-132842000D01*
X109417039Y-132861685D01*
G37*
%TD.AperFunction*%
%TD*%
%TA.AperFunction,Conductor*%
%TO.N,Net-(Q1-S)*%
G36*
X126839228Y-144545685D02*
G01*
X126846498Y-144550732D01*
X126889552Y-144582961D01*
X126892733Y-144585342D01*
X127028658Y-144636040D01*
X127088745Y-144642500D01*
X128435254Y-144642499D01*
X128495342Y-144636040D01*
X128631267Y-144585342D01*
X128655895Y-144566905D01*
X128677502Y-144550732D01*
X128742967Y-144526316D01*
X128751811Y-144526000D01*
X128908000Y-144526000D01*
X128975039Y-144545685D01*
X129020794Y-144598489D01*
X129032000Y-144650000D01*
X129032000Y-145672000D01*
X129012315Y-145739039D01*
X128959511Y-145784794D01*
X128908000Y-145796000D01*
X126492000Y-145796000D01*
X126492000Y-147574000D01*
X127130000Y-147574000D01*
X127197039Y-147593685D01*
X127242794Y-147646489D01*
X127254000Y-147698000D01*
X127254000Y-148082000D01*
X124460000Y-148082000D01*
X124460000Y-144650000D01*
X124479685Y-144582961D01*
X124532489Y-144537206D01*
X124584000Y-144526000D01*
X126772189Y-144526000D01*
X126839228Y-144545685D01*
G37*
%TD.AperFunction*%
%TD*%
%TA.AperFunction,Conductor*%
%TO.N,Net-(D1-A)*%
G36*
X116783039Y-128035685D02*
G01*
X116828794Y-128088489D01*
X116840000Y-128140000D01*
X116840000Y-136038444D01*
X116820315Y-136105483D01*
X116784892Y-136141545D01*
X116750516Y-136164514D01*
X116694266Y-136248699D01*
X116694264Y-136248703D01*
X116679500Y-136322928D01*
X116679500Y-139273063D01*
X116694266Y-139347301D01*
X116750515Y-139431484D01*
X116784891Y-139454453D01*
X116829696Y-139508065D01*
X116840000Y-139557555D01*
X116840000Y-141478000D01*
X113030000Y-141478000D01*
X113030000Y-132177013D01*
X113030420Y-132169807D01*
X113030500Y-132169122D01*
X113030500Y-128140000D01*
X113050185Y-128072961D01*
X113102989Y-128027206D01*
X113154500Y-128016000D01*
X116716000Y-128016000D01*
X116783039Y-128035685D01*
G37*
%TD.AperFunction*%
%TD*%
%TA.AperFunction,Conductor*%
%TO.N,Net-(D2-Pad3)*%
G36*
X111449039Y-121177685D02*
G01*
X111494794Y-121230489D01*
X111506000Y-121282000D01*
X111506000Y-121920000D01*
X114684000Y-121920000D01*
X114751039Y-121939685D01*
X114796794Y-121992489D01*
X114808000Y-122044000D01*
X114808000Y-126113500D01*
X114788315Y-126180539D01*
X114735511Y-126226294D01*
X114684000Y-126237500D01*
X112840583Y-126237500D01*
X112822611Y-126236191D01*
X112798327Y-126232634D01*
X112798324Y-126232633D01*
X112750796Y-126236792D01*
X112745406Y-126237264D01*
X112740003Y-126237500D01*
X112731576Y-126237500D01*
X112730898Y-126237580D01*
X112723694Y-126238000D01*
X104518000Y-126238000D01*
X104450961Y-126218315D01*
X104405206Y-126165511D01*
X104394000Y-126114000D01*
X104394000Y-121282000D01*
X104413685Y-121214961D01*
X104466489Y-121169206D01*
X104518000Y-121158000D01*
X111382000Y-121158000D01*
X111449039Y-121177685D01*
G37*
%TD.AperFunction*%
%TD*%
%TA.AperFunction,Conductor*%
%TO.N,Net-(Q1-S)*%
G36*
X149803039Y-145053685D02*
G01*
X149848794Y-145106489D01*
X149860000Y-145158000D01*
X149860000Y-149736000D01*
X149840315Y-149803039D01*
X149787511Y-149848794D01*
X149736000Y-149860000D01*
X124584000Y-149860000D01*
X124516961Y-149840315D01*
X124471206Y-149787511D01*
X124460000Y-149736000D01*
X124460000Y-148082000D01*
X127254000Y-148082000D01*
X131793707Y-148082000D01*
X131833694Y-148090309D01*
X131833913Y-148089531D01*
X131842078Y-148091818D01*
X131842079Y-148091819D01*
X131885439Y-148103968D01*
X131891449Y-148105989D01*
X131933333Y-148122506D01*
X131942231Y-148123420D01*
X131951631Y-148124387D01*
X131972408Y-148128335D01*
X131990126Y-148133300D01*
X132035147Y-148133300D01*
X132041489Y-148133624D01*
X132086274Y-148138229D01*
X132104404Y-148135102D01*
X132125473Y-148133300D01*
X140959395Y-148133300D01*
X140961512Y-148133336D01*
X140969243Y-148133599D01*
X141027734Y-148135598D01*
X141071479Y-148124936D01*
X141077698Y-148123754D01*
X141122316Y-148117623D01*
X141139191Y-148110292D01*
X141159234Y-148103551D01*
X141177110Y-148099196D01*
X141179388Y-148097914D01*
X141182272Y-148097159D01*
X141185000Y-148096084D01*
X141185129Y-148096411D01*
X141240163Y-148082000D01*
X147066000Y-148082000D01*
X147066000Y-145158000D01*
X147085685Y-145090961D01*
X147138489Y-145045206D01*
X147190000Y-145034000D01*
X149736000Y-145034000D01*
X149803039Y-145053685D01*
G37*
%TD.AperFunction*%
%TD*%
%TA.AperFunction,Conductor*%
%TO.N,VDC*%
G36*
X118978062Y-123709618D02*
G01*
X119108297Y-123770347D01*
X119320326Y-123827161D01*
X119476521Y-123840825D01*
X119538998Y-123846292D01*
X119539000Y-123846292D01*
X119539002Y-123846292D01*
X119593668Y-123841509D01*
X119757674Y-123827161D01*
X119969703Y-123770347D01*
X120099937Y-123709618D01*
X120152342Y-123698000D01*
X120780000Y-123698000D01*
X120847039Y-123717685D01*
X120892794Y-123770489D01*
X120904000Y-123822000D01*
X120904000Y-127191498D01*
X120897024Y-127231060D01*
X120897054Y-127231068D01*
X120896962Y-127231408D01*
X120896522Y-127233908D01*
X120895653Y-127236292D01*
X120838839Y-127448324D01*
X120838838Y-127448331D01*
X120819708Y-127666997D01*
X120819708Y-127667002D01*
X120838838Y-127885668D01*
X120838839Y-127885675D01*
X120895653Y-128097703D01*
X120896522Y-128100089D01*
X120896962Y-128102588D01*
X120897055Y-128102933D01*
X120897024Y-128102941D01*
X120904000Y-128142500D01*
X120904000Y-130810000D01*
X117856000Y-130810000D01*
X117856000Y-123822000D01*
X117875685Y-123754961D01*
X117928489Y-123709206D01*
X117980000Y-123698000D01*
X118925658Y-123698000D01*
X118978062Y-123709618D01*
G37*
%TD.AperFunction*%
%TD*%
%TA.AperFunction,Conductor*%
%TO.N,Net-(F1-Pad2)*%
G36*
X106623039Y-104413685D02*
G01*
X106668794Y-104466489D01*
X106680000Y-104517999D01*
X106680000Y-108204000D01*
X110366000Y-108204000D01*
X110433039Y-108223685D01*
X110478794Y-108276489D01*
X110490000Y-108328000D01*
X110490000Y-111229100D01*
X110470315Y-111296139D01*
X110417511Y-111341894D01*
X110366000Y-111353100D01*
X107252447Y-111353100D01*
X107123554Y-111353100D01*
X107116963Y-111355241D01*
X107101993Y-111360104D01*
X107083090Y-111364642D01*
X107060698Y-111368189D01*
X107060691Y-111368192D01*
X107040499Y-111378480D01*
X107022531Y-111385922D01*
X107000970Y-111392928D01*
X107000969Y-111392929D01*
X106982624Y-111406257D01*
X106966044Y-111416417D01*
X106947525Y-111425853D01*
X106945845Y-111426710D01*
X106945844Y-111426711D01*
X106905502Y-111467052D01*
X106905498Y-111467058D01*
X106902893Y-111469664D01*
X106841576Y-111503161D01*
X106815195Y-111506000D01*
X104518000Y-111506000D01*
X104450961Y-111486315D01*
X104405206Y-111433511D01*
X104394000Y-111382000D01*
X104394000Y-108712000D01*
X100708000Y-108712000D01*
X100640961Y-108692315D01*
X100595206Y-108639511D01*
X100584000Y-108588000D01*
X100584000Y-104518000D01*
X100603685Y-104450961D01*
X100656489Y-104405206D01*
X100708000Y-104394000D01*
X106556000Y-104394000D01*
X106623039Y-104413685D01*
G37*
%TD.AperFunction*%
%TD*%
%TA.AperFunction,Conductor*%
%TO.N,LINE*%
G36*
X154686000Y-90832000D02*
G01*
X154666315Y-90899039D01*
X154613511Y-90944794D01*
X154562000Y-90956000D01*
X151712000Y-90956000D01*
X151644961Y-90936315D01*
X151599206Y-90883511D01*
X151588000Y-90832000D01*
X151588000Y-89950591D01*
X151588036Y-89948475D01*
X151588345Y-89939397D01*
X151590298Y-89882266D01*
X151579635Y-89838512D01*
X151578455Y-89832307D01*
X151572323Y-89787684D01*
X151564988Y-89770798D01*
X151558254Y-89750773D01*
X151553896Y-89732889D01*
X151553894Y-89732886D01*
X151553894Y-89732884D01*
X151544128Y-89715516D01*
X151531823Y-89693633D01*
X151529004Y-89687957D01*
X151511069Y-89646666D01*
X151511069Y-89646665D01*
X151499460Y-89632396D01*
X151487564Y-89614917D01*
X151478543Y-89598873D01*
X151446706Y-89567036D01*
X151442449Y-89562319D01*
X151414043Y-89527404D01*
X151414041Y-89527401D01*
X151399008Y-89516789D01*
X151382837Y-89503167D01*
X151166319Y-89286648D01*
X151132834Y-89225325D01*
X151130000Y-89198967D01*
X151130000Y-88055000D01*
X151149685Y-87987961D01*
X151202489Y-87942206D01*
X151254000Y-87931000D01*
X151422256Y-87931000D01*
X151434552Y-87929309D01*
X151536316Y-87915323D01*
X151677335Y-87854069D01*
X151796599Y-87757041D01*
X151885263Y-87631433D01*
X151936750Y-87486563D01*
X151947242Y-87333173D01*
X151947241Y-87333168D01*
X151915963Y-87182647D01*
X151915961Y-87182644D01*
X151915961Y-87182641D01*
X151845227Y-87046131D01*
X151740286Y-86933766D01*
X151740285Y-86933765D01*
X151608923Y-86853882D01*
X151608922Y-86853881D01*
X151608921Y-86853881D01*
X151460874Y-86812400D01*
X151460873Y-86812400D01*
X151254000Y-86812400D01*
X151186961Y-86792715D01*
X151141206Y-86739911D01*
X151130000Y-86688400D01*
X151130000Y-86384000D01*
X154686000Y-86384000D01*
X154686000Y-90832000D01*
G37*
%TD.AperFunction*%
%TD*%
%TA.AperFunction,Conductor*%
%TO.N,GNDS*%
G36*
X154883039Y-73703685D02*
G01*
X154928794Y-73756489D01*
X154940000Y-73808000D01*
X154940000Y-78640000D01*
X154920315Y-78707039D01*
X154867511Y-78752794D01*
X154816000Y-78764000D01*
X143192499Y-78764000D01*
X143125460Y-78744315D01*
X143079705Y-78691511D01*
X143068499Y-78640000D01*
X143068499Y-76759936D01*
X143068499Y-76759934D01*
X143053734Y-76685699D01*
X143053733Y-76685697D01*
X143053732Y-76685695D01*
X143022898Y-76639549D01*
X143002020Y-76572872D01*
X143002000Y-76570658D01*
X143002000Y-73808000D01*
X143021685Y-73740961D01*
X143074489Y-73695206D01*
X143126000Y-73684000D01*
X154816000Y-73684000D01*
X154883039Y-73703685D01*
G37*
%TD.AperFunction*%
%TD*%
%TA.AperFunction,Conductor*%
%TO.N,Net-(Q8-S)*%
G36*
X117799039Y-112795685D02*
G01*
X117844794Y-112848489D01*
X117856000Y-112900000D01*
X117856000Y-123066000D01*
X117836315Y-123133039D01*
X117783511Y-123178794D01*
X117732000Y-123190000D01*
X115186000Y-123190000D01*
X115118961Y-123170315D01*
X115073206Y-123117511D01*
X115062000Y-123066000D01*
X115062000Y-117644499D01*
X115081685Y-117577460D01*
X115134489Y-117531705D01*
X115185996Y-117520499D01*
X116117066Y-117520499D01*
X116191301Y-117505734D01*
X116275484Y-117449484D01*
X116331734Y-117365301D01*
X116346500Y-117291067D01*
X116346499Y-116340934D01*
X116334382Y-116280012D01*
X116332000Y-116255823D01*
X116332000Y-115876174D01*
X116334383Y-115851982D01*
X116351486Y-115766000D01*
X116351486Y-114866000D01*
X116334383Y-114780016D01*
X116332000Y-114755825D01*
X116332000Y-114376163D01*
X116334380Y-114351996D01*
X116346500Y-114291067D01*
X116346499Y-113340934D01*
X116334379Y-113280002D01*
X116332000Y-113255833D01*
X116331999Y-112899999D01*
X116351685Y-112832960D01*
X116404489Y-112787205D01*
X116456000Y-112776000D01*
X117732000Y-112776000D01*
X117799039Y-112795685D01*
G37*
%TD.AperFunction*%
%TD*%
%TA.AperFunction,Conductor*%
%TO.N,HT*%
G36*
X111449039Y-126765685D02*
G01*
X111494794Y-126818489D01*
X111506000Y-126870000D01*
X111506000Y-127410985D01*
X111505581Y-127418188D01*
X111504663Y-127426041D01*
X111504622Y-127426036D01*
X111503820Y-127433889D01*
X111503860Y-127433893D01*
X111503231Y-127441084D01*
X111505473Y-127518188D01*
X111505499Y-127519990D01*
X111505499Y-132124407D01*
X111505500Y-132124412D01*
X111505580Y-132125101D01*
X111506000Y-132132300D01*
X111506000Y-132464000D01*
X111486315Y-132531039D01*
X111433511Y-132576794D01*
X111382000Y-132588000D01*
X106172000Y-132588000D01*
X106172000Y-146180000D01*
X106152315Y-146247039D01*
X106099511Y-146292794D01*
X106048000Y-146304000D01*
X100708000Y-146304000D01*
X100640961Y-146284315D01*
X100595206Y-146231511D01*
X100584000Y-146180000D01*
X100584000Y-129410000D01*
X100603685Y-129342961D01*
X100656489Y-129297206D01*
X100708000Y-129286000D01*
X107696000Y-129286000D01*
X107696000Y-126870000D01*
X107715685Y-126802961D01*
X107768489Y-126757206D01*
X107820000Y-126746000D01*
X111382000Y-126746000D01*
X111449039Y-126765685D01*
G37*
%TD.AperFunction*%
%TD*%
%TA.AperFunction,Conductor*%
%TO.N,LINE*%
G36*
X154629039Y-79291685D02*
G01*
X154674794Y-79344489D01*
X154686000Y-79395999D01*
X154686000Y-86384000D01*
X144650000Y-86384000D01*
X144582961Y-86364315D01*
X144537206Y-86311511D01*
X144526000Y-86260000D01*
X144526000Y-79396000D01*
X144545685Y-79328961D01*
X144598489Y-79283206D01*
X144650000Y-79272000D01*
X154562000Y-79272000D01*
X154629039Y-79291685D01*
G37*
%TD.AperFunction*%
%TD*%
%TA.AperFunction,Conductor*%
%TO.N,VDC*%
G36*
X139643039Y-130829685D02*
G01*
X139688794Y-130882489D01*
X139700000Y-130934000D01*
X139700000Y-139189733D01*
X139680315Y-139256772D01*
X139629256Y-139301714D01*
X139517366Y-139354925D01*
X139401488Y-139455966D01*
X139401485Y-139455969D01*
X139317162Y-139584532D01*
X139270652Y-139731070D01*
X139270651Y-139731075D01*
X139265402Y-139884738D01*
X139301803Y-140034107D01*
X139301805Y-140034112D01*
X139377155Y-140168125D01*
X139377159Y-140168130D01*
X139612381Y-140403351D01*
X139645866Y-140464674D01*
X139648700Y-140491032D01*
X139648700Y-143132000D01*
X139629015Y-143199039D01*
X139576211Y-143244794D01*
X139524700Y-143256000D01*
X137335300Y-143256000D01*
X137268261Y-143236315D01*
X137222506Y-143183511D01*
X137211300Y-143132000D01*
X137211300Y-142923300D01*
X137230985Y-142856261D01*
X137283789Y-142810506D01*
X137335300Y-142799300D01*
X137452256Y-142799300D01*
X137464552Y-142797609D01*
X137566316Y-142783623D01*
X137707335Y-142722369D01*
X137826599Y-142625341D01*
X137915263Y-142499733D01*
X137944622Y-142417126D01*
X137966749Y-142354867D01*
X137966749Y-142354865D01*
X137966750Y-142354863D01*
X137977242Y-142201473D01*
X137977241Y-142201468D01*
X137945963Y-142050947D01*
X137945961Y-142050944D01*
X137945961Y-142050941D01*
X137875227Y-141914431D01*
X137770286Y-141802066D01*
X137770285Y-141802065D01*
X137638923Y-141722182D01*
X137638922Y-141722181D01*
X137638921Y-141722181D01*
X137490874Y-141680700D01*
X137490873Y-141680700D01*
X136916605Y-141680700D01*
X136914488Y-141680664D01*
X136870829Y-141679172D01*
X136848266Y-141678402D01*
X136848265Y-141678402D01*
X136848264Y-141678402D01*
X136804523Y-141689061D01*
X136798284Y-141690246D01*
X136753683Y-141696377D01*
X136736801Y-141703710D01*
X136716763Y-141710448D01*
X136698889Y-141714804D01*
X136698890Y-141714804D01*
X136698887Y-141714805D01*
X136659648Y-141736867D01*
X136653963Y-141739690D01*
X136612666Y-141757630D01*
X136612661Y-141757633D01*
X136598391Y-141769242D01*
X136580920Y-141781133D01*
X136564874Y-141790156D01*
X136533028Y-141821999D01*
X136528315Y-141826253D01*
X136493402Y-141854657D01*
X136493398Y-141854661D01*
X136482785Y-141869695D01*
X136469167Y-141885861D01*
X136264020Y-142091009D01*
X136262499Y-142092480D01*
X136214066Y-142137714D01*
X136214064Y-142137715D01*
X136214063Y-142137718D01*
X136190671Y-142176183D01*
X136187098Y-142181432D01*
X136159896Y-142217303D01*
X136153147Y-142234419D01*
X136143744Y-142253350D01*
X136134183Y-142269072D01*
X136134181Y-142269076D01*
X136122033Y-142312429D01*
X136120009Y-142318447D01*
X136103495Y-142360327D01*
X136103493Y-142360335D01*
X136101610Y-142378645D01*
X136097664Y-142399405D01*
X136092700Y-142417121D01*
X136092700Y-142462146D01*
X136092375Y-142468490D01*
X136087771Y-142513273D01*
X136087771Y-142513274D01*
X136090897Y-142531402D01*
X136092700Y-142552472D01*
X136092700Y-142876368D01*
X136073015Y-142943407D01*
X136020211Y-142989162D01*
X135951053Y-142999106D01*
X135887497Y-142970081D01*
X135881019Y-142964050D01*
X135835218Y-142918249D01*
X135784961Y-142867992D01*
X135783543Y-142866525D01*
X135738286Y-142818066D01*
X135738285Y-142818065D01*
X135738284Y-142818064D01*
X135738283Y-142818063D01*
X135699813Y-142794669D01*
X135694566Y-142791098D01*
X135658696Y-142763897D01*
X135641576Y-142757145D01*
X135622645Y-142747743D01*
X135606921Y-142738181D01*
X135606918Y-142738180D01*
X135606916Y-142738179D01*
X135584748Y-142731968D01*
X135563554Y-142726029D01*
X135557548Y-142724009D01*
X135515667Y-142707494D01*
X135515662Y-142707493D01*
X135497360Y-142705611D01*
X135476597Y-142701665D01*
X135458874Y-142696700D01*
X135458872Y-142696700D01*
X135413853Y-142696700D01*
X135407510Y-142696375D01*
X135362726Y-142691771D01*
X135362723Y-142691771D01*
X135344596Y-142694897D01*
X135323527Y-142696700D01*
X132204000Y-142696700D01*
X132136961Y-142677015D01*
X132091206Y-142624211D01*
X132080000Y-142572700D01*
X132080000Y-135382000D01*
X126057699Y-135382000D01*
X125990660Y-135362315D01*
X125944905Y-135309511D01*
X125933699Y-135258000D01*
X125933699Y-135147126D01*
X125934963Y-135129464D01*
X125935174Y-135128000D01*
X125934962Y-135126524D01*
X125933699Y-135108870D01*
X125933700Y-135093699D01*
X125918306Y-134991567D01*
X125858441Y-134867256D01*
X125764595Y-134766114D01*
X125764590Y-134766111D01*
X125645107Y-134697127D01*
X125645106Y-134697126D01*
X125645105Y-134697126D01*
X125555766Y-134676735D01*
X125510587Y-134666423D01*
X125452378Y-134670786D01*
X125418468Y-134673327D01*
X125413851Y-134673500D01*
X125410646Y-134673500D01*
X125406719Y-134674064D01*
X125402537Y-134674521D01*
X125373003Y-134676734D01*
X125296435Y-134706784D01*
X125291257Y-134708557D01*
X125285252Y-134710320D01*
X125277194Y-134714001D01*
X125277022Y-134713625D01*
X125270437Y-134716987D01*
X125244570Y-134727140D01*
X125244562Y-134727144D01*
X125186793Y-134773211D01*
X125181662Y-134776891D01*
X125175306Y-134780977D01*
X125168611Y-134786779D01*
X125168581Y-134786744D01*
X125162473Y-134792607D01*
X125136691Y-134813167D01*
X125136691Y-134813168D01*
X125099141Y-134868242D01*
X125094774Y-134873915D01*
X125089716Y-134879754D01*
X125087457Y-134883267D01*
X125080571Y-134895481D01*
X125058969Y-134927168D01*
X125058967Y-134927171D01*
X125041222Y-134984698D01*
X125038373Y-134992182D01*
X125035426Y-134998636D01*
X125035249Y-134999237D01*
X125031255Y-135017011D01*
X125018300Y-135059013D01*
X125018300Y-135108879D01*
X125017038Y-135126524D01*
X125016826Y-135127998D01*
X125016826Y-135128000D01*
X125017038Y-135129475D01*
X125018300Y-135147122D01*
X125018300Y-135258000D01*
X124998615Y-135325039D01*
X124945811Y-135370794D01*
X124894300Y-135382000D01*
X117472000Y-135382000D01*
X117404961Y-135362315D01*
X117359206Y-135309511D01*
X117348000Y-135258000D01*
X117348000Y-130934000D01*
X117367685Y-130866961D01*
X117420489Y-130821206D01*
X117472000Y-130810000D01*
X117856000Y-130810000D01*
X120904000Y-130810000D01*
X139576000Y-130810000D01*
X139643039Y-130829685D01*
G37*
%TD.AperFunction*%
%TD*%
%TA.AperFunction,Conductor*%
%TO.N,GNDPWR*%
G36*
X147009039Y-138195685D02*
G01*
X147054794Y-138248489D01*
X147066000Y-138300000D01*
X147066000Y-144656000D01*
X147046315Y-144723039D01*
X146993511Y-144768794D01*
X146942000Y-144780000D01*
X146812000Y-144780000D01*
X146812000Y-147196000D01*
X146792315Y-147263039D01*
X146739511Y-147308794D01*
X146688000Y-147320000D01*
X140840000Y-147320000D01*
X140772961Y-147300315D01*
X140727206Y-147247511D01*
X140716000Y-147196000D01*
X140716000Y-147002111D01*
X140735685Y-146935072D01*
X140758797Y-146908398D01*
X140762686Y-146905026D01*
X140762695Y-146905021D01*
X140848282Y-146806248D01*
X140902574Y-146687364D01*
X140921174Y-146558000D01*
X140902574Y-146428636D01*
X140902573Y-146428635D01*
X140902573Y-146428632D01*
X140848282Y-146309753D01*
X140848282Y-146309752D01*
X140762695Y-146210979D01*
X140762693Y-146210978D01*
X140762690Y-146210974D01*
X140758792Y-146207596D01*
X140721021Y-146148816D01*
X140716000Y-146113888D01*
X140716000Y-145053293D01*
X140724310Y-145013307D01*
X140723530Y-145013089D01*
X140737967Y-144961563D01*
X140739988Y-144955552D01*
X140756505Y-144913668D01*
X140758386Y-144895371D01*
X140762333Y-144874599D01*
X140767300Y-144856874D01*
X140767300Y-144811843D01*
X140767625Y-144805498D01*
X140772228Y-144760726D01*
X140769103Y-144742600D01*
X140767300Y-144721532D01*
X140767300Y-140218603D01*
X140767336Y-140216486D01*
X140767536Y-140210603D01*
X140769598Y-140150266D01*
X140758935Y-140106512D01*
X140757755Y-140100307D01*
X140751623Y-140055684D01*
X140744288Y-140038798D01*
X140737551Y-140018763D01*
X140733196Y-140000890D01*
X140733194Y-140000886D01*
X140733194Y-140000884D01*
X140731912Y-139998604D01*
X140731155Y-139995713D01*
X140730084Y-139992997D01*
X140730410Y-139992868D01*
X140716000Y-139937835D01*
X140716000Y-138351300D01*
X140735685Y-138284261D01*
X140788489Y-138238506D01*
X140840000Y-138227300D01*
X142991395Y-138227300D01*
X142993512Y-138227336D01*
X143001243Y-138227599D01*
X143059734Y-138229598D01*
X143103479Y-138218936D01*
X143109698Y-138217754D01*
X143154316Y-138211623D01*
X143171191Y-138204292D01*
X143191234Y-138197551D01*
X143209110Y-138193196D01*
X143211388Y-138191914D01*
X143214272Y-138191159D01*
X143217000Y-138190084D01*
X143217129Y-138190411D01*
X143272163Y-138176000D01*
X146942000Y-138176000D01*
X147009039Y-138195685D01*
G37*
%TD.AperFunction*%
%TD*%
%TA.AperFunction,Conductor*%
%TO.N,VCOM*%
G36*
X132023039Y-77259685D02*
G01*
X132068794Y-77312489D01*
X132080000Y-77364000D01*
X132080000Y-79656000D01*
X132060315Y-79723039D01*
X132007511Y-79768794D01*
X131956000Y-79780000D01*
X129664000Y-79780000D01*
X129596961Y-79760315D01*
X129551206Y-79707511D01*
X129540000Y-79656000D01*
X129540000Y-77364000D01*
X129559685Y-77296961D01*
X129612489Y-77251206D01*
X129664000Y-77240000D01*
X131956000Y-77240000D01*
X132023039Y-77259685D01*
G37*
%TD.AperFunction*%
%TD*%
M02*
