M48
; DRILL file {KiCad 7.99.0-950-gc4668c1d3a-dirty} date Wed 21 Jun 2023 04:14:02 AM CST
; FORMAT={-:-/ absolute / inch / decimal}
; #@! TF.CreationDate,2023-06-21T04:14:02+08:00
; #@! TF.GenerationSoftware,Kicad,Pcbnew,7.99.0-950-gc4668c1d3a-dirty
; #@! TF.FileFunction,Plated,1,2,PTH
FMAT,2
INCH
; #@! TA.AperFunction,Plated,PTH,ViaDrill
T1C0.0118
; #@! TA.AperFunction,Plated,PTH,ComponentDrill
T2C0.0276
; #@! TA.AperFunction,Plated,PTH,ComponentDrill
T3C0.0394
; #@! TA.AperFunction,Plated,PTH,ComponentDrill
T4C0.0433
; #@! TA.AperFunction,Plated,PTH,ComponentDrill
T5C0.0450
; #@! TA.AperFunction,Plated,PTH,ComponentDrill
T6C0.0472
; #@! TA.AperFunction,Plated,PTH,ComponentDrill
T7C0.0512
; #@! TA.AperFunction,Plated,PTH,ComponentDrill
T8C0.0600
; #@! TA.AperFunction,Plated,PTH,ComponentDrill
T9C0.0689
%
G90
G05
T1
X4.13Y-4.79
X4.13Y-4.81
X4.13Y-4.83
X4.13Y-4.85
X4.15Y-4.79
X4.15Y-4.81
X4.15Y-4.83
X4.15Y-4.85
X4.17Y-4.79
X4.17Y-4.81
X4.17Y-4.83
X4.17Y-4.85
X4.19Y-4.32
X4.19Y-4.34
X4.19Y-4.36
X4.21Y-4.33
X4.21Y-4.35
X4.21Y-4.37
X4.23Y-4.32
X4.23Y-4.34
X4.23Y-4.36
X4.25Y-4.32
X4.25Y-4.34
X4.25Y-4.36
X4.27Y-4.33
X4.27Y-4.35
X4.27Y-4.37
X4.29Y-4.32
X4.29Y-4.34
X4.29Y-4.36
X4.33Y-5.11
X4.33Y-5.13
X4.33Y-5.15
X4.33Y-5.17
X4.35Y-5.11
X4.35Y-5.13
X4.35Y-5.15
X4.35Y-5.17
X4.37Y-4.53
X4.37Y-5.11
X4.37Y-5.13
X4.37Y-5.15
X4.37Y-5.17
X4.39Y-5.26
X4.39Y-5.28
X4.39Y-5.3
X4.39Y-5.32
X4.39Y-5.34
X4.39Y-5.36
X4.4Y-4.64
X4.41Y-5.26
X4.41Y-5.28
X4.41Y-5.3
X4.41Y-5.32
X4.41Y-5.34
X4.41Y-5.36
X4.42Y-3.9664
X4.42Y-5.2
X4.4605Y-4.54
X4.51Y-4.39
X4.5174Y-4.05
X4.53Y-5.08
X4.53Y-5.1
X4.55Y-5.08
X4.55Y-5.1
X4.56Y-4.05
X4.56Y-4.81
X4.56Y-4.83
X4.579Y-4.34
X4.58Y-4.81
X4.58Y-4.83
X4.59Y-4.4
X4.59Y-4.45
X4.59Y-4.47
X4.59Y-4.49
X4.6Y-4.16
X4.6Y-4.32
X4.6Y-4.81
X4.6Y-4.83
X4.61Y-4.45
X4.61Y-4.47
X4.61Y-4.49
X4.62Y-5.38
X4.62Y-5.4
X4.62Y-5.42
X4.63Y-4.47
X4.63Y-4.49
X4.63Y-5.16
X4.63Y-5.18
X4.63Y-5.2
X4.63Y-5.22
X4.63Y-5.24
X4.63Y-5.26
X4.63Y-5.28
X4.63Y-5.3
X4.63Y-5.32
X4.64Y-5.38
X4.64Y-5.4
X4.64Y-5.42
X4.65Y-3.99
X4.65Y-5.16
X4.65Y-5.18
X4.65Y-5.2
X4.65Y-5.22
X4.65Y-5.24
X4.65Y-5.26
X4.65Y-5.28
X4.65Y-5.3
X4.65Y-5.32
X4.66Y-4.4636
X4.66Y-5.38
X4.66Y-5.4
X4.66Y-5.42
X4.68Y-4.36
X4.68Y-4.39
X4.68Y-5.38
X4.68Y-5.4
X4.68Y-5.42
X4.69Y-5.19
X4.69Y-5.21
X4.69Y-5.23
X4.69Y-5.25
X4.69Y-5.27
X4.69Y-5.29
X4.7Y-5.38
X4.7Y-5.4
X4.7Y-5.42
X4.71Y-5.19
X4.71Y-5.21
X4.71Y-5.23
X4.71Y-5.25
X4.71Y-5.27
X4.71Y-5.29
X4.72Y-5.38
X4.72Y-5.4
X4.72Y-5.42
X4.74Y-4.07
X4.74Y-4.44
X4.74Y-5.38
X4.74Y-5.4
X4.74Y-5.42
X4.7536Y-4.1251
X4.76Y-5.38
X4.76Y-5.4
X4.76Y-5.42
X4.78Y-5.38
X4.78Y-5.4
X4.78Y-5.42
X4.8Y-5.38
X4.8Y-5.4
X4.8Y-5.42
X4.85Y-4.13
X4.85Y-4.22
X4.86Y-4.0
X4.86Y-4.29
X4.86Y-4.34
X4.865Y-3.975
X4.88Y-4.24
X4.91Y-4.11
X4.91Y-4.32
X4.91Y-5.72
X4.91Y-5.74
X4.91Y-5.76
X4.91Y-5.78
X4.91Y-5.8
X4.92Y-5.7
X4.92Y-5.82
X4.93Y-5.72
X4.93Y-5.8
X4.94Y-5.32
X4.94Y-5.48
X4.94Y-5.7
X4.94Y-5.75
X4.94Y-5.77
X4.94Y-5.82
X4.95Y-3.99
X4.95Y-5.72
X4.95Y-5.8
X4.96Y-4.11
X4.96Y-5.7
X4.96Y-5.75
X4.96Y-5.77
X4.96Y-5.82
X4.97Y-4.26
X4.97Y-5.72
X4.97Y-5.8
X4.98Y-5.7
X4.98Y-5.82
X4.99Y-5.72
X5.0Y-5.7
X5.0Y-5.82
X5.01Y-5.72
X5.013Y-3.2644
X5.02Y-3.2109
X5.03Y-5.72
X5.04Y-4.32
X5.05Y-5.72
X5.06Y-5.07
X5.06Y-5.7
X5.07Y-5.72
X5.08Y-3.4109
X5.08Y-4.15
X5.0847Y-4.77
X5.09Y-4.35
X5.1Y-4.47
X5.13Y-4.97
X5.15Y-4.6681
X5.15Y-5.61
X5.16Y-4.38
X5.16Y-4.48
X5.17Y-3.2109
X5.17Y-5.57
X5.17Y-5.7805
X5.18Y-4.83
X5.21Y-4.78
X5.22Y-3.1209
X5.22Y-3.1409
X5.24Y-3.1209
X5.24Y-3.1409
X5.28Y-4.63
X5.28Y-4.88
X5.29Y-4.6681
X5.3Y-3.1209
X5.3Y-3.1409
X5.31Y-3.413
X5.31Y-4.91
X5.32Y-3.1209
X5.32Y-3.1409
X5.32Y-4.71
X5.34Y-3.1209
X5.34Y-3.1409
X5.34Y-5.68
X5.37Y-3.3009
X5.38Y-5.6931
X5.39Y-4.13
X5.39Y-4.62
X5.39Y-5.76
X5.4Y-3.1209
X5.4Y-3.1409
X5.4098Y-5.78
X5.41Y-5.6
X5.42Y-3.1209
X5.42Y-3.1409
X5.42Y-4.52
X5.44Y-3.1209
X5.44Y-3.1409
X5.46Y-4.53
X5.483Y-4.55
X5.49Y-4.93
X5.5Y-3.1409
X5.5Y-3.1609
X5.5Y-3.1809
X5.5Y-3.2009
X5.5Y-3.2209
X5.5Y-3.2409
X5.5Y-3.2609
X5.505Y-5.505
X5.51Y-3.4409
X5.52Y-3.1409
X5.52Y-3.1609
X5.52Y-3.1809
X5.52Y-3.2009
X5.52Y-3.2209
X5.52Y-3.2409
X5.52Y-3.2609
X5.52Y-4.86
X5.53Y-5.77
X5.54Y-3.1409
X5.54Y-3.1609
X5.54Y-3.1809
X5.54Y-3.2009
X5.54Y-3.2209
X5.54Y-3.2409
X5.54Y-3.2609
X5.55Y-4.6369
X5.56Y-3.1409
X5.56Y-3.1609
X5.56Y-3.1809
X5.56Y-3.2009
X5.56Y-3.2209
X5.56Y-3.2409
X5.56Y-3.2609
X5.56Y-4.36
X5.56Y-5.75
X5.57Y-4.76
X5.58Y-5.74
X5.58Y-5.76
X5.58Y-5.78
X5.5867Y-5.3797
X5.59Y-3.3509
X5.6Y-5.76
X5.6Y-5.78
X5.61Y-3.3509
X5.61Y-4.6411
X5.61Y-4.86
X5.62Y-5.08
X5.63Y-4.57
X5.63Y-5.75
X5.64Y-2.9109
X5.64Y-2.9269
X5.64Y-2.9429
X5.64Y-2.9589
X5.64Y-2.9749
X5.64Y-2.9909
X5.64Y-3.0069
X5.64Y-3.0229
X5.64Y-3.0389
X5.64Y-3.0549
X5.64Y-3.0709
X5.64Y-3.0869
X5.64Y-4.08
X5.64Y-4.64
X5.64Y-5.71
X5.64Y-5.73
X5.64Y-5.77
X5.656Y-2.9109
X5.656Y-2.9269
X5.656Y-2.9429
X5.656Y-2.9589
X5.656Y-2.9749
X5.656Y-2.9909
X5.656Y-3.0069
X5.656Y-3.0229
X5.656Y-3.0389
X5.656Y-3.0549
X5.656Y-3.0709
X5.656Y-3.0869
X5.66Y-5.71
X5.66Y-5.73
X5.66Y-5.75
X5.66Y-5.77
X5.67Y-4.6329
X5.672Y-2.9109
X5.672Y-2.9269
X5.672Y-2.9429
X5.672Y-2.9589
X5.672Y-2.9749
X5.672Y-2.9909
X5.672Y-3.0069
X5.672Y-3.0229
X5.672Y-3.0389
X5.672Y-3.0549
X5.672Y-3.0709
X5.672Y-3.0869
X5.68Y-5.29
X5.68Y-5.71
X5.68Y-5.73
X5.68Y-5.77
X5.688Y-2.9109
X5.688Y-2.9269
X5.688Y-2.9429
X5.688Y-2.9589
X5.688Y-2.9749
X5.688Y-2.9909
X5.688Y-3.0069
X5.688Y-3.0229
X5.688Y-3.0389
X5.688Y-3.0549
X5.688Y-3.0709
X5.688Y-3.0869
X5.69Y-5.75
X5.6995Y-3.5309
X5.7Y-4.95
X5.7Y-5.1
X5.704Y-2.9109
X5.704Y-2.9269
X5.704Y-2.9429
X5.704Y-2.9589
X5.704Y-2.9749
X5.704Y-2.9909
X5.704Y-3.0069
X5.704Y-3.0229
X5.704Y-3.0389
X5.704Y-3.0549
X5.704Y-3.0709
X5.704Y-3.0869
X5.71Y-5.22
X5.72Y-2.9109
X5.72Y-2.9269
X5.72Y-2.9429
X5.72Y-2.9589
X5.72Y-2.9749
X5.72Y-2.9909
X5.72Y-3.0069
X5.72Y-3.0229
X5.72Y-3.0389
X5.72Y-3.0549
X5.72Y-3.0709
X5.72Y-3.0869
X5.7295Y-4.38
X5.73Y-3.1409
X5.73Y-3.1609
X5.73Y-3.1809
X5.73Y-3.2009
X5.73Y-3.2209
X5.73Y-3.2409
X5.73Y-3.2609
X5.73Y-4.31
X5.73Y-5.74
X5.73Y-5.76
X5.73Y-5.78
X5.736Y-2.9109
X5.736Y-2.9269
X5.736Y-2.9429
X5.736Y-2.9589
X5.736Y-2.9749
X5.736Y-2.9909
X5.736Y-3.0069
X5.736Y-3.0229
X5.736Y-3.0389
X5.736Y-3.0549
X5.736Y-3.0709
X5.736Y-3.0869
X5.75Y-3.1409
X5.75Y-3.1609
X5.75Y-3.1809
X5.75Y-3.2009
X5.75Y-3.2209
X5.75Y-3.2409
X5.75Y-3.2609
X5.75Y-5.004
X5.752Y-2.9109
X5.752Y-2.9269
X5.752Y-2.9429
X5.752Y-2.9589
X5.752Y-2.9749
X5.752Y-2.9909
X5.752Y-3.0069
X5.752Y-3.0229
X5.752Y-3.0389
X5.752Y-3.0549
X5.752Y-3.0709
X5.752Y-3.0869
X5.7566Y-4.6057
X5.76Y-5.24
X5.768Y-2.9109
X5.768Y-2.9269
X5.768Y-2.9429
X5.768Y-2.9589
X5.768Y-2.9749
X5.768Y-2.9909
X5.768Y-3.0069
X5.768Y-3.0229
X5.768Y-3.0389
X5.768Y-3.0549
X5.768Y-3.0709
X5.768Y-3.0869
X5.77Y-3.1409
X5.77Y-3.1609
X5.77Y-3.1809
X5.77Y-3.2009
X5.77Y-3.2209
X5.77Y-3.2409
X5.77Y-3.2609
X5.784Y-2.9109
X5.784Y-2.9269
X5.784Y-2.9429
X5.784Y-2.9589
X5.784Y-2.9749
X5.784Y-2.9909
X5.784Y-3.0069
X5.784Y-3.0229
X5.784Y-3.0389
X5.784Y-3.0549
X5.784Y-3.0709
X5.784Y-3.0869
X5.79Y-3.1409
X5.79Y-3.1609
X5.79Y-3.1809
X5.79Y-3.2009
X5.79Y-3.2209
X5.79Y-3.2409
X5.79Y-3.2609
X5.79Y-4.85
X5.79Y-5.13
X5.8Y-2.9109
X5.8Y-2.9269
X5.8Y-2.9429
X5.8Y-2.9589
X5.8Y-2.9749
X5.8Y-2.9909
X5.8Y-3.0069
X5.8Y-3.0229
X5.8Y-3.0389
X5.8Y-3.0549
X5.8Y-3.0709
X5.8Y-3.0869
X5.8Y-5.75
X5.8Y-5.77
X5.8Y-5.79
X5.8Y-5.81
X5.8Y-5.83
X5.8Y-5.85
X5.8Y-5.87
X5.8Y-5.89
X5.81Y-3.6209
X5.8166Y-4.227
X5.82Y-4.38
X5.82Y-4.5479
X5.84Y-4.34
X5.84Y-4.8
X5.84Y-5.74
X5.84Y-5.76
X5.84Y-5.78
X5.84Y-5.83
X5.84Y-5.85
X5.84Y-5.87
X5.8457Y-4.6098
X5.85Y-4.64
X5.85Y-4.66
X5.85Y-4.68
X5.8564Y-3.6009
X5.86Y-5.74
X5.86Y-5.76
X5.86Y-5.78
X5.86Y-5.83
X5.86Y-5.85
X5.86Y-5.87
X5.87Y-4.64
X5.87Y-4.66
X5.87Y-4.68
X5.89Y-5.72
X5.89Y-5.74
X5.89Y-5.76
X5.89Y-5.78
X5.89Y-5.8
X5.89Y-5.82
X5.89Y-5.84
X5.89Y-5.86
X5.89Y-5.88
X5.92Y-3.5209
X5.96Y-3.4398
X5.97Y-3.0809
X5.9936Y-3.0809
T2
X5.01Y-3.8209
X5.01Y-3.99
X5.14Y-3.8209
X5.14Y-3.99
X5.68Y-3.8209
X5.68Y-3.99
X5.81Y-3.8209
X5.81Y-3.99
T3
X4.0024Y-4.54
X4.07Y-5.0324
X4.07Y-5.3276
X4.2976Y-4.54
T4
X5.88Y-3.6809
X6.03Y-3.6809
X6.03Y-3.8109
T5
X4.0463Y-4.1628
X4.0463Y-4.34
X4.0534Y-4.7292
X4.0534Y-4.9064
X4.44Y-4.1628
X4.44Y-4.34
X4.4471Y-4.7292
X4.4471Y-4.9064
T6
X4.7063Y-4.2263
X4.7063Y-4.8263
X4.7063Y-4.9263
X4.8063Y-4.8263
X4.8063Y-5.0263
X4.9063Y-4.9263
X4.9063Y-5.0263
X5.3063Y-4.2263
X5.3063Y-4.3263
X5.3731Y-5.52
X5.4063Y-4.2263
X5.4063Y-4.4263
X5.5063Y-4.3263
X5.5063Y-4.4263
X5.6684Y-5.52
T7
X4.0916Y-5.65
X4.2884Y-5.65
T8
X5.5063Y-5.0263
T9
X4.1037Y-4.02
X4.3163Y-4.02
X5.01Y-2.9709
X5.3Y-3.8009
X5.3Y-4.01
X5.51Y-3.8009
X5.51Y-4.01
X6.02Y-3.5109
T0
M30
